<svg width="24" height="24" viewBox="0 0 24 24" fill="none" xmlns="http://www.w3.org/2000/svg">
<g clip-path="url(#clip0_830_6614)">
<path d="M23.1308 8.05731C22.6087 6.84125 21.5498 5.52826 20.7205 5.11321C21.3119 6.22179 21.7223 7.41234 21.9373 8.64253L21.9394 8.66204C20.581 5.38481 18.2784 4.06131 16.3967 1.18323C16.3015 1.03768 16.2064 0.891822 16.1137 0.737864C16.0607 0.649931 16.0182 0.570702 15.9813 0.497774C15.9033 0.351485 15.8431 0.196883 15.8021 0.0371014C15.8022 0.0297283 15.7994 0.0225936 15.7944 0.0170584C15.7894 0.0115231 15.7824 0.00797474 15.7748 0.00709014C15.7674 0.0051236 15.7596 0.0051236 15.7522 0.00709014C15.7507 0.00709014 15.7482 0.00979115 15.7463 0.0103914C15.7445 0.0109916 15.7404 0.0136926 15.7376 0.0148931L15.7423 0.00709014C12.7245 1.71773 11.6999 4.88392 11.6069 6.46851C10.4013 6.54853 9.24864 6.97849 8.29925 7.70228C8.20024 7.62108 8.09675 7.54514 7.98925 7.47479C7.71552 6.54712 7.70385 5.56535 7.95546 4.63182C6.84718 5.15156 5.86241 5.88838 5.0635 6.79564H5.05792C4.58176 6.21132 4.61524 4.28459 4.64252 3.88214C4.50166 3.93695 4.36719 4.00606 4.24138 4.08832C3.82104 4.37875 3.42808 4.70465 3.06711 5.06219C2.65577 5.46593 2.28009 5.90232 1.94399 6.36678V6.36858V6.36647C1.17165 7.42636 0.623776 8.62384 0.332007 9.8898L0.315887 9.96662C0.293258 10.069 0.211728 10.5816 0.197778 10.6929C0.197778 10.7016 0.195918 10.7097 0.194988 10.7184C0.0898212 11.2476 0.0246523 11.7835 0 12.3219V12.3819C0.00530974 15.2926 1.13756 18.0956 3.17324 20.2375C5.20893 22.3795 8.0001 23.7048 10.9958 23.9518C13.9915 24.1988 16.974 23.3496 19.3545 21.5718C21.735 19.7939 23.3406 17.2167 23.8543 14.3489C23.8745 14.1988 23.8909 14.0503 23.9089 13.8987C24.1563 11.9185 23.8884 9.90988 23.1295 8.05551L23.1308 8.05731ZM9.28318 17.1627C9.33929 17.1888 9.39199 17.217 9.44965 17.242L9.45802 17.2471C9.39974 17.22 9.34146 17.1919 9.28318 17.1627V17.1627ZM21.9398 8.66534V8.65423L21.9419 8.66654L21.9398 8.66534Z" fill="url(#paint0_linear_830_6614)"/>
<path d="M23.1307 8.05739C22.6087 6.84133 21.5497 5.52834 20.7205 5.11328C21.3118 6.22187 21.7223 7.41241 21.9372 8.6426V8.65371L21.9394 8.66601C22.8656 11.2317 22.7317 14.0447 21.5656 16.517C20.1885 19.3773 16.8567 22.3091 11.6394 22.1651C6.00368 22.0105 1.03752 17.9605 0.110631 12.6575C-0.0583181 11.8211 0.11063 11.397 0.19557 10.7173C0.0797084 11.2453 0.0150514 11.7826 0.00244141 12.3223V12.3823C0.00775115 15.293 1.14 18.0959 3.17569 20.2379C5.21137 22.3799 8.00255 23.7051 10.9982 23.9522C13.9939 24.1992 16.9764 23.35 19.3569 21.5721C21.7375 19.7943 23.3431 17.2171 23.8567 14.3492C23.8769 14.1992 23.8933 14.0506 23.9113 13.8991C24.1588 11.9189 23.8909 9.91025 23.132 8.05588L23.1307 8.05739Z" fill="url(#paint1_radial_830_6614)"/>
<path d="M23.1307 8.05739C22.6087 6.84133 21.5497 5.52834 20.7205 5.11328C21.3118 6.22187 21.7223 7.41241 21.9372 8.6426V8.65371L21.9394 8.66601C22.8656 11.2317 22.7317 14.0447 21.5656 16.517C20.1885 19.3773 16.8567 22.3091 11.6394 22.1651C6.00368 22.0105 1.03752 17.9605 0.110631 12.6575C-0.0583181 11.8211 0.11063 11.397 0.19557 10.7173C0.0797084 11.2453 0.0150514 11.7826 0.00244141 12.3223V12.3823C0.00775115 15.293 1.14 18.0959 3.17569 20.2379C5.21137 22.3799 8.00255 23.7051 10.9982 23.9522C13.9939 24.1992 16.9764 23.35 19.3569 21.5721C21.7375 19.7943 23.3431 17.2171 23.8567 14.3492C23.8769 14.1992 23.8933 14.0506 23.9113 13.8991C24.1588 11.9189 23.8909 9.91025 23.132 8.05588L23.1307 8.05739Z" fill="url(#paint2_radial_830_6614)"/>
<path d="M17.2905 9.4229C17.3165 9.44061 17.3407 9.45831 17.3652 9.47602C17.0634 8.95794 16.6877 8.4836 16.2492 8.06699C12.5137 4.45064 15.2705 0.228055 15.7352 0.0119736L15.7399 0.00537109C12.722 1.71601 11.6975 4.8822 11.6045 6.46679C11.7446 6.45749 11.8835 6.44609 12.0267 6.44609C13.0974 6.44809 14.1484 6.72452 15.073 7.24728C15.9975 7.77004 16.7626 8.52047 17.2905 9.4223V9.4229Z" fill="url(#paint3_radial_830_6614)"/>
<path d="M12.0329 10.1462C12.0131 10.4356 10.9572 11.4334 10.588 11.4334C7.17184 11.4334 6.61694 13.4343 6.61694 13.4343C6.76822 15.1191 7.98093 16.5074 9.44691 17.2397C9.51387 17.2733 9.58176 17.3036 9.64965 17.3333C9.76724 17.3838 9.88483 17.4304 10.0024 17.4732C10.5055 17.6455 11.0325 17.744 11.5657 17.7652C17.5549 18.0371 18.7143 10.8326 14.3926 8.74082C15.4121 8.6124 16.4444 8.85507 17.2895 9.42177C16.7617 8.51995 15.9966 7.76951 15.0721 7.24675C14.1475 6.72399 13.0965 6.44756 12.0258 6.44556C11.8832 6.44556 11.7437 6.45696 11.6036 6.46626C10.398 6.54628 9.24528 6.97624 8.29589 7.70003C8.4791 7.85008 8.68587 8.05056 9.12141 8.46621C9.93671 9.24381 12.0276 10.0493 12.0323 10.1438L12.0329 10.1462Z" fill="url(#paint4_radial_830_6614)"/>
<path d="M12.0329 10.1462C12.0131 10.4356 10.9572 11.4334 10.588 11.4334C7.17184 11.4334 6.61694 13.4343 6.61694 13.4343C6.76822 15.1191 7.98093 16.5074 9.44691 17.2397C9.51387 17.2733 9.58176 17.3036 9.64965 17.3333C9.76724 17.3838 9.88483 17.4304 10.0024 17.4732C10.5055 17.6455 11.0325 17.744 11.5657 17.7652C17.5549 18.0371 18.7143 10.8326 14.3926 8.74082C15.4121 8.6124 16.4444 8.85507 17.2895 9.42177C16.7617 8.51995 15.9966 7.76951 15.0721 7.24675C14.1475 6.72399 13.0965 6.44756 12.0258 6.44556C11.8832 6.44556 11.7437 6.45696 11.6036 6.46626C10.398 6.54628 9.24528 6.97624 8.29589 7.70003C8.4791 7.85008 8.68587 8.05056 9.12141 8.46621C9.93671 9.24381 12.0276 10.0493 12.0323 10.1438L12.0329 10.1462Z" fill="url(#paint5_radial_830_6614)"/>
<path d="M7.73635 7.31617C7.83369 7.3762 7.91398 7.42842 7.98435 7.47553C7.71062 6.54786 7.69895 5.56609 7.95056 4.63257C6.84228 5.1523 5.85751 5.88912 5.05859 6.79638C5.11718 6.79488 6.85999 6.76457 7.73635 7.31617V7.31617Z" fill="url(#paint6_radial_830_6614)"/>
<path d="M0.108551 12.6581C1.03575 17.9611 6.0016 22.0126 11.6374 22.1657C16.8546 22.3085 20.1871 19.3764 21.5635 16.5176C22.7296 14.0453 22.8635 11.2323 21.9373 8.66661V8.65551C21.9373 8.6468 21.9355 8.6417 21.9373 8.6444L21.9395 8.66391C22.3657 11.358 20.9503 13.9669 18.7372 15.7346L18.7304 15.7496C14.4183 19.1498 10.2923 17.8005 9.45838 17.2501C9.4001 17.2231 9.34182 17.195 9.28354 17.1658C6.76977 16.0026 5.73097 13.7865 5.95417 11.8838C5.35746 11.8923 4.771 11.7332 4.26585 11.4255C3.76069 11.1179 3.35853 10.6751 3.10809 10.1507C3.76801 9.75931 4.52045 9.53806 5.29373 9.50801C6.06701 9.47796 6.83535 9.64011 7.52555 9.979C8.94821 10.6042 10.567 10.6658 12.036 10.1507C12.0314 10.0561 9.94043 9.25033 9.12514 8.47304C8.68959 8.05738 8.48282 7.85721 8.29961 7.70685C8.2006 7.62566 8.09711 7.54972 7.98961 7.47937C7.91832 7.43225 7.83803 7.38123 7.74162 7.32001C6.86525 6.7684 5.12245 6.79871 5.06479 6.80021H5.05921C4.58305 6.21589 4.61653 4.28917 4.64381 3.88672C4.50295 3.94153 4.36849 4.01064 4.24268 4.0929C3.82233 4.38333 3.42937 4.70922 3.06841 5.06676C2.65559 5.46937 2.27835 5.90475 1.94064 6.36835V6.37015V6.36805C1.16829 7.42793 0.620417 8.62541 0.328649 9.89137C0.322759 9.91508 -0.104108 11.7218 0.106381 12.6587L0.108551 12.6581Z" fill="url(#paint7_radial_830_6614)"/>
<path d="M16.2489 8.0664C16.6875 8.48346 17.0632 8.95831 17.3649 9.47693C17.4309 9.52525 17.4926 9.57326 17.545 9.61978C20.2689 12.0507 18.8417 15.487 18.7354 15.7301C20.9481 13.9651 22.3623 11.3544 21.9376 8.65942C20.5786 5.37919 18.2735 4.0557 16.3949 1.17762C16.2997 1.03206 16.2045 0.886207 16.1119 0.732249C16.0588 0.644316 16.0164 0.565086 15.9795 0.492159C15.9015 0.34587 15.8413 0.191267 15.8003 0.0314862C15.8004 0.024113 15.7976 0.0169784 15.7926 0.0114431C15.7875 0.00590788 15.7806 0.00235951 15.773 0.0014749C15.7656 -0.000491634 15.7578 -0.000491634 15.7504 0.0014749C15.7488 0.0014749 15.7464 0.00417592 15.7445 0.00477614C15.7426 0.00537637 15.7386 0.00807738 15.7358 0.00927783C15.2711 0.222658 12.515 4.44794 16.2504 8.0613L16.2489 8.0664Z" fill="url(#paint8_radial_830_6614)"/>
<path d="M17.5447 9.62096C17.4923 9.57444 17.4306 9.52642 17.3646 9.4781C17.3401 9.46039 17.3159 9.44269 17.2899 9.42498C16.4448 8.85828 15.4124 8.61561 14.393 8.74403C18.7143 10.8358 17.5549 18.0385 11.5661 17.7684C11.0329 17.7472 10.5059 17.6488 10.0028 17.4764C9.88519 17.4338 9.7676 17.3872 9.65 17.3365C9.58211 17.3065 9.51423 17.2765 9.44727 17.2429L9.45564 17.248C10.2908 17.7999 14.4156 19.1483 18.7277 15.7475L18.7345 15.7324C18.842 15.4894 20.2693 12.0531 17.5441 9.62216L17.5447 9.62096Z" fill="url(#paint9_radial_830_6614)"/>
<path d="M6.61719 13.4323C6.61719 13.4323 7.17177 11.4314 10.5883 11.4314C10.9575 11.4314 12.0142 10.4335 12.0331 10.1442C10.5642 10.6594 8.94535 10.5977 7.52269 9.97257C6.83249 9.63368 6.06414 9.47153 5.29087 9.50158C4.51759 9.53163 3.76515 9.75287 3.10522 10.1442C3.35567 10.6686 3.75783 11.1115 4.26299 11.4191C4.76814 11.7267 5.3546 11.8859 5.95131 11.8774C5.72873 13.7792 6.76722 15.9949 9.28068 17.1594C9.33679 17.1855 9.38949 17.2137 9.44715 17.2386C7.97993 16.5048 6.76846 15.1171 6.61719 13.4332V13.4323Z" fill="url(#paint10_radial_830_6614)"/>
<path d="M23.1308 8.05731C22.6087 6.84125 21.5498 5.52826 20.7205 5.1132C21.3119 6.22179 21.7223 7.41234 21.9373 8.64253L21.9394 8.66203C20.581 5.38481 18.2784 4.06131 16.3967 1.18323C16.3015 1.03768 16.2063 0.891822 16.1137 0.737864C16.0606 0.649931 16.0182 0.570701 15.9813 0.497774C15.9033 0.351485 15.8431 0.196883 15.8021 0.0371014C15.8022 0.0297283 15.7994 0.0225936 15.7944 0.0170584C15.7893 0.0115231 15.7824 0.00797474 15.7748 0.00709014C15.7674 0.0051236 15.7596 0.0051236 15.7522 0.00709014C15.7506 0.00709014 15.7482 0.00979115 15.7463 0.0103914C15.7444 0.0109916 15.7404 0.0136926 15.7376 0.0148931L15.7423 0.00709014C12.7245 1.71773 11.6999 4.88392 11.6069 6.46851C11.747 6.45921 11.8859 6.4478 12.0291 6.4478C13.0998 6.44981 14.1509 6.72624 15.0754 7.249C16 7.77176 16.765 8.52219 17.2929 9.42402C16.4478 8.85732 15.4154 8.61465 14.396 8.74307C18.7173 10.8348 17.5579 18.0375 11.5691 17.7674C11.0359 17.7462 10.5089 17.6478 10.0058 17.4754C9.88818 17.4328 9.77059 17.3862 9.653 17.3356C9.58511 17.3056 9.51722 17.2756 9.45026 17.242L9.45863 17.2471C9.40035 17.22 9.34207 17.1919 9.28379 17.1627C9.3399 17.1888 9.3926 17.217 9.45026 17.242C7.98304 16.5079 6.77157 15.1202 6.6203 13.4365C6.6203 13.4365 7.17488 11.4357 10.5914 11.4357C10.9606 11.4357 12.0174 10.4378 12.0363 10.1485C12.0316 10.054 9.94068 9.24815 9.12538 8.47086C8.68984 8.05521 8.48307 7.85503 8.29986 7.70468C8.20085 7.62348 8.09736 7.54754 7.98986 7.47719C7.71613 6.54952 7.70446 5.56775 7.95607 4.63422C6.84779 5.15396 5.86302 5.89078 5.06411 6.79804H5.05853C4.58237 6.21372 4.61585 4.28699 4.64313 3.88454C4.50227 3.93935 4.3678 4.00846 4.24199 4.09072C3.82165 4.38115 3.42869 4.70705 3.06772 5.06459C2.65638 5.46833 2.2807 5.90472 1.9446 6.36918V6.37098V6.36888C1.17226 7.42876 0.624386 8.62624 0.332618 9.8922L0.316498 9.96902C0.293868 10.0714 0.192499 10.5912 0.177929 10.7028C0.0852089 11.2394 0.0259953 11.7808 0.000610352 12.3243V12.3843C0.0059201 15.295 1.13817 18.098 3.17385 20.2399C5.20954 22.3819 8.00072 23.7072 10.9964 23.9542C13.9921 24.2012 16.9746 23.352 19.3551 21.5742C21.7356 19.7963 23.3412 17.2191 23.8549 14.3513C23.8751 14.2012 23.8915 14.0527 23.9095 13.9011C24.1569 11.9209 23.889 9.91228 23.1301 8.05791L23.1308 8.05731ZM21.9388 8.65483L21.941 8.66714L21.9388 8.65483Z" fill="url(#paint11_linear_830_6614)"/>
</g>
<defs>
<linearGradient id="paint0_linear_830_6614" x1="21.5405" y1="3.72246" x2="2.21807" y2="22.9793" gradientUnits="userSpaceOnUse">
<stop offset="0.048" stop-color="#FFF44F"/>
<stop offset="0.111" stop-color="#FFE847"/>
<stop offset="0.225" stop-color="#FFC830"/>
<stop offset="0.368" stop-color="#FF980E"/>
<stop offset="0.401" stop-color="#FF8B16"/>
<stop offset="0.462" stop-color="#FF672A"/>
<stop offset="0.534" stop-color="#FF3647"/>
<stop offset="0.705" stop-color="#E31587"/>
</linearGradient>
<radialGradient id="paint1_radial_830_6614" cx="0" cy="0" r="1" gradientUnits="userSpaceOnUse" gradientTransform="translate(20.7685 2.70638) scale(25.0478 24.2491)">
<stop offset="0.129" stop-color="#FFBD4F"/>
<stop offset="0.186" stop-color="#FFAC31"/>
<stop offset="0.247" stop-color="#FF9D17"/>
<stop offset="0.283" stop-color="#FF980E"/>
<stop offset="0.403" stop-color="#FF563B"/>
<stop offset="0.467" stop-color="#FF3750"/>
<stop offset="0.71" stop-color="#F5156C"/>
<stop offset="0.782" stop-color="#EB0878"/>
<stop offset="0.86" stop-color="#E50080"/>
</radialGradient>
<radialGradient id="paint2_radial_830_6614" cx="0" cy="0" r="1" gradientUnits="userSpaceOnUse" gradientTransform="translate(11.4686 12.6101) scale(25.0478 24.2491)">
<stop offset="0.3" stop-color="#960E18"/>
<stop offset="0.351" stop-color="#B11927" stop-opacity="0.74"/>
<stop offset="0.435" stop-color="#DB293D" stop-opacity="0.343"/>
<stop offset="0.497" stop-color="#F5334B" stop-opacity="0.094"/>
<stop offset="0.53" stop-color="#FF3750" stop-opacity="0"/>
</radialGradient>
<radialGradient id="paint3_radial_830_6614" cx="0" cy="0" r="1" gradientUnits="userSpaceOnUse" gradientTransform="translate(14.5687 -2.69564) scale(18.1441 17.5656)">
<stop offset="0.132" stop-color="#FFF44F"/>
<stop offset="0.252" stop-color="#FFDC3E"/>
<stop offset="0.506" stop-color="#FF9D12"/>
<stop offset="0.526" stop-color="#FF980E"/>
</radialGradient>
<radialGradient id="paint4_radial_830_6614" cx="0" cy="0" r="1" gradientUnits="userSpaceOnUse" gradientTransform="translate(8.67874 18.9125) scale(11.9256 11.5453)">
<stop offset="0.353" stop-color="#3A8EE6"/>
<stop offset="0.472" stop-color="#5C79F0"/>
<stop offset="0.669" stop-color="#9059FF"/>
<stop offset="1" stop-color="#C139E6"/>
</radialGradient>
<radialGradient id="paint5_radial_830_6614" cx="0" cy="0" r="1" gradientUnits="userSpaceOnUse" gradientTransform="translate(12.6802 10.5286) rotate(-13.1735) scale(6.31301 7.18017)">
<stop offset="0.206" stop-color="#9059FF" stop-opacity="0"/>
<stop offset="0.278" stop-color="#8C4FF3" stop-opacity="0.064"/>
<stop offset="0.747" stop-color="#7716A8" stop-opacity="0.45"/>
<stop offset="0.975" stop-color="#6E008B" stop-opacity="0.6"/>
</radialGradient>
<radialGradient id="paint6_radial_830_6614" cx="0" cy="0" r="1" gradientUnits="userSpaceOnUse" gradientTransform="translate(11.1587 1.80611) scale(8.58073 8.30712)">
<stop stop-color="#FFE226"/>
<stop offset="0.121" stop-color="#FFDB27"/>
<stop offset="0.295" stop-color="#FFC82A"/>
<stop offset="0.502" stop-color="#FFA930"/>
<stop offset="0.732" stop-color="#FF7E37"/>
<stop offset="0.792" stop-color="#FF7139"/>
</radialGradient>
<radialGradient id="paint7_radial_830_6614" cx="0" cy="0" r="1" gradientUnits="userSpaceOnUse" gradientTransform="translate(17.9787 -3.59599) scale(36.6107 35.4433)">
<stop offset="0.113" stop-color="#FFF44F"/>
<stop offset="0.456" stop-color="#FF980E"/>
<stop offset="0.622" stop-color="#FF5634"/>
<stop offset="0.716" stop-color="#FF3647"/>
<stop offset="0.904" stop-color="#E31587"/>
</radialGradient>
<radialGradient id="paint8_radial_830_6614" cx="0" cy="0" r="1" gradientUnits="userSpaceOnUse" gradientTransform="translate(14.9357 -1.63084) rotate(83.7791) scale(25.9829 17.601)">
<stop stop-color="#FFF44F"/>
<stop offset="0.06" stop-color="#FFE847"/>
<stop offset="0.168" stop-color="#FFC830"/>
<stop offset="0.304" stop-color="#FF980E"/>
<stop offset="0.356" stop-color="#FF8B16"/>
<stop offset="0.455" stop-color="#FF672A"/>
<stop offset="0.57" stop-color="#FF3647"/>
<stop offset="0.737" stop-color="#E31587"/>
</radialGradient>
<radialGradient id="paint9_radial_830_6614" cx="0" cy="0" r="1" gradientUnits="userSpaceOnUse" gradientTransform="translate(11.1588 4.80715) scale(22.853 22.1243)">
<stop offset="0.137" stop-color="#FFF44F"/>
<stop offset="0.48" stop-color="#FF980E"/>
<stop offset="0.592" stop-color="#FF5634"/>
<stop offset="0.655" stop-color="#FF3647"/>
<stop offset="0.904" stop-color="#E31587"/>
</radialGradient>
<radialGradient id="paint10_radial_830_6614" cx="0" cy="0" r="1" gradientUnits="userSpaceOnUse" gradientTransform="translate(17.0486 6.00749) scale(25.0137 24.2161)">
<stop offset="0.094" stop-color="#FFF44F"/>
<stop offset="0.231" stop-color="#FFE141"/>
<stop offset="0.509" stop-color="#FFAF1E"/>
<stop offset="0.626" stop-color="#FF980E"/>
</radialGradient>
<linearGradient id="paint11_linear_830_6614" x1="21.2987" y1="3.62342" x2="4.87923" y2="20.5868" gradientUnits="userSpaceOnUse">
<stop offset="0.167" stop-color="#FFF44F" stop-opacity="0.8"/>
<stop offset="0.266" stop-color="#FFF44F" stop-opacity="0.634"/>
<stop offset="0.489" stop-color="#FFF44F" stop-opacity="0.217"/>
<stop offset="0.6" stop-color="#FFF44F" stop-opacity="0"/>
</linearGradient>
<clipPath id="clip0_830_6614">
<rect width="24" height="24" fill="white"/>
</clipPath>
</defs>
</svg>
