<svg width="24" height="24" viewBox="0 0 24 24" fill="none" xmlns="http://www.w3.org/2000/svg">
<path d="M21.5261 6.50021C20.5605 4.82792 19.1717 3.43925 17.4993 2.47377C15.827 1.50828 13.9299 1 11.9989 1C10.0678 1 8.17079 1.50828 6.49843 2.47377C4.82606 3.43925 3.43729 4.82792 2.47168 6.50021L3.13176 18.3817L21.5261 6.50021Z" fill="url(#paint0_linear_830_6596)"/>
<path d="M7.2375 14.7513L2.47391 6.50024C1.50834 8.17264 1.00001 10.0697 1 12.0009C0.999988 13.932 1.5083 15.8291 2.47384 17.5015C3.43938 19.1739 4.82813 20.5627 6.50051 21.5283C8.17289 22.4939 10.07 23.0023 12.0011 23.0023L22.7825 12.0009L7.2375 14.7513Z" fill="url(#paint1_linear_830_6596)"/>
<path d="M16.7647 14.7513L12.0011 23.0023C13.932 23.0019 15.8288 22.4932 17.5009 21.5275C19.173 20.5617 20.5614 19.1729 21.5267 17.5005C22.492 15.8282 23.0001 13.9312 23 12.0003C22.9999 10.0694 22.4916 8.17248 21.5261 6.50024H12.0011L16.7647 14.7513Z" fill="url(#paint2_linear_830_6596)"/>
<path d="M12.0011 17.5016C12.7234 17.5016 13.4387 17.3593 14.1061 17.0829C14.7735 16.8065 15.3798 16.4013 15.8906 15.8905C16.4014 15.3797 16.8066 14.7733 17.083 14.106C17.3595 13.4386 17.5017 12.7233 17.5017 12.0009C17.5017 11.2786 17.3595 10.5633 17.083 9.89591C16.8066 9.22854 16.4014 8.62214 15.8906 8.11136C15.3798 7.60057 14.7735 7.19539 14.1061 6.91896C13.4387 6.64252 12.7234 6.50024 12.0011 6.50024C10.5422 6.50024 9.14306 7.07978 8.11148 8.11136C7.0799 9.14294 6.50037 10.5421 6.50037 12.0009C6.50037 13.4598 7.0799 14.8589 8.11148 15.8905C9.14306 16.9221 10.5422 17.5016 12.0011 17.5016Z" fill="white"/>
<path d="M12.0011 16.3574C12.5732 16.3574 13.1397 16.2447 13.6683 16.0258C14.1968 15.8068 14.6771 15.4859 15.0816 15.0814C15.4862 14.6768 15.8071 14.1966 16.026 13.668C16.2449 13.1395 16.3576 12.5729 16.3576 12.0008C16.3576 11.4287 16.2449 10.8622 16.026 10.3337C15.8071 9.80509 15.4862 9.32483 15.0816 8.92029C14.6771 8.51575 14.1968 8.19485 13.6683 7.97591C13.1397 7.75697 12.5732 7.64429 12.0011 7.64429C10.8456 7.64429 9.73755 8.10328 8.92053 8.92029C8.10352 9.7373 7.64453 10.8454 7.64453 12.0008C7.64453 13.1563 8.10352 14.2644 8.92053 15.0814C9.73755 15.8984 10.8456 16.3574 12.0011 16.3574Z" fill="#1A73E8"/>
<defs>
<linearGradient id="paint0_linear_830_6596" x1="2.47388" y1="7.87538" x2="21.5261" y2="7.87538" gradientUnits="userSpaceOnUse">
<stop stop-color="#D93025"/>
<stop offset="1" stop-color="#EA4335"/>
</linearGradient>
<linearGradient id="paint1_linear_830_6596" x1="13.1915" y1="22.3136" x2="3.66426" y2="5.81156" gradientUnits="userSpaceOnUse">
<stop stop-color="#1E8E3E"/>
<stop offset="1" stop-color="#34A853"/>
</linearGradient>
<linearGradient id="paint2_linear_830_6596" x1="10.3949" y1="23.0023" x2="19.9221" y2="6.52885" gradientUnits="userSpaceOnUse">
<stop stop-color="#FCC934"/>
<stop offset="1" stop-color="#FBBC04"/>
</linearGradient>
</defs>
</svg>
