<svg width="24" height="24" viewBox="0 0 24 24" fill="none" xmlns="http://www.w3.org/2000/svg">
<path d="M11.9998 1.00049C5.92482 1.00049 1 5.92526 1 12.0002C1 17.8994 5.64425 22.714 11.476 22.9871C11.65 22.9953 11.8243 23 12 23C14.8163 23 17.3847 21.941 19.3308 20.2007C18.0414 21.0558 16.5339 21.5478 14.9228 21.5478C12.3033 21.5478 9.95726 20.2483 8.37943 18.1991C7.16311 16.7633 6.37531 14.641 6.32165 12.2591V11.7411C6.37528 9.35938 7.16307 7.23662 8.37912 5.80122C9.95719 3.75195 12.3031 2.45244 14.9225 2.45244C16.534 2.45244 18.0417 2.94445 19.3312 3.80011C17.3947 2.06773 14.8418 1.01094 12.0412 1.00054C12.0272 1.00054 12.0136 1 11.9996 1L11.9998 1.00049Z" fill="url(#paint0_linear_830_6591)"/>
<path d="M8.37915 5.80181C9.3886 4.61014 10.6922 3.89155 12.1165 3.89155C15.3189 3.89155 17.9145 7.52216 17.9145 12.0007C17.9145 16.4792 15.3187 20.1098 12.1165 20.1098C10.6922 20.1098 9.3886 19.3915 8.37942 18.1998C9.95722 20.2491 12.3031 21.5486 14.9228 21.5486C16.534 21.5486 18.0415 21.0566 19.3307 20.2015C21.5822 18.1872 23 15.2596 23 12.0008C23 8.74228 21.5825 5.81481 19.3316 3.80082C18.0419 2.94517 16.5341 2.45315 14.9229 2.45315C12.3033 2.45315 9.9573 3.75266 8.37946 5.80193" fill="url(#paint1_linear_830_6591)"/>
<defs>
<linearGradient id="paint0_linear_830_6591" x1="10.1659" y1="1.35905" x2="10.1659" y2="22.6802" gradientUnits="userSpaceOnUse">
<stop stop-color="#FF1B2D"/>
<stop offset="0.3" stop-color="#FF1B2D"/>
<stop offset="0.614" stop-color="#FF1B2D"/>
<stop offset="1" stop-color="#A70014"/>
</linearGradient>
<linearGradient id="paint1_linear_830_6591" x1="15.6893" y1="2.6159" x2="15.6893" y2="21.4733" gradientUnits="userSpaceOnUse">
<stop stop-color="#9C0000"/>
<stop offset="0.7" stop-color="#FF4B4B"/>
<stop offset="1" stop-color="#FF4B4B"/>
</linearGradient>
</defs>
</svg>
