<svg width="100" height="100" viewBox="0 0 100 100" fill="none" xmlns="http://www.w3.org/2000/svg">
<g clip-path="url(#clip0_681_5704)">
<circle cx="50" cy="50" r="50" fill="#EBF2FF"/>
<path d="M70 72.5C66.525 72.5 63.05 71.325 60 69.2C53.9 73.475 46.1 73.475 40 69.2C36.95 71.325 33.475 72.5 30 72.5H25V77.5H30C33.45 77.5 36.85 76.625 40 75.025C43.0937 76.6147 46.5218 77.4439 50 77.4439C53.4782 77.4439 56.9063 76.6147 60 75.025C63.15 76.65 66.55 77.5 70 77.5H75V72.5H70ZM29.875 67.5H30C34 67.5 37.55 65.3 40 62.5C42.45 65.3 46 67.5 50 67.5C54 67.5 57.55 65.3 60 62.5C62.45 65.3 66 67.5 70 67.5H70.125L74.875 50.8C75.15 49.875 74.975 48.15 73.225 47.6L70 46.55V35C70 32.25 67.75 30 65 30H57.5V22.5H42.5V30H35C32.25 30 30 32.25 30 35V46.55L26.775 47.6C25.2 48.075 24.75 49.7 25.125 50.8L29.875 67.5ZM35 35H65V44.925L50 40L35 44.925V35Z" fill="#073BA1"/>
</g>
<defs>
<clipPath id="clip0_681_5704">
<rect width="100" height="100" fill="white"/>
</clipPath>
</defs>
</svg>
