<svg width="100" height="100" viewBox="0 0 100 100" fill="none" xmlns="http://www.w3.org/2000/svg">
<g clip-path="url(#clip0_681_5700)">
<circle cx="50" cy="50" r="50" fill="#EBF2FF"/>
<path d="M74.4688 36.5H73.625V31.4375C73.625 26.7125 63.1625 23 50 23C36.8375 23 26.375 26.7125 26.375 31.4375V36.5H25.5312C24.1338 36.5 23 37.6327 23 39.0312V47.4688C23 48.8662 24.1338 50 25.5312 50H26.375V66.875C26.375 68.7386 27.8864 70.25 29.75 70.25V73.625C29.75 75.4886 31.2614 77 33.125 77H36.5C38.3636 77 39.875 75.4886 39.875 73.625V70.25H60.125V73.625C60.125 75.4886 61.6364 77 63.5 77H66.875C68.7386 77 70.25 75.4886 70.25 73.625V70.25H70.925C72.6125 70.25 73.625 68.9 73.625 67.55V50H74.4688C75.8662 50 77 48.8662 77 47.4688V39.0312C77 37.6327 75.8662 36.5 74.4688 36.5ZM39.875 30.5938C39.875 30.1276 40.2526 29.75 40.7188 29.75H59.2812C59.7474 29.75 60.125 30.1276 60.125 30.5938V32.2812C60.125 32.7474 59.7474 33.125 59.2812 33.125H40.7188C40.2526 33.125 39.875 32.7474 39.875 32.2812V30.5938ZM34.8125 65.1875C32.9489 65.1875 31.4375 63.6761 31.4375 61.8125C31.4375 59.9489 32.9489 58.4375 34.8125 58.4375C36.6761 58.4375 38.1875 59.9489 38.1875 61.8125C38.1875 63.6761 36.6761 65.1875 34.8125 65.1875ZM48.3125 53.375H36.5C34.6364 53.375 33.125 51.8636 33.125 50V39.875C33.125 38.0114 34.6364 36.5 36.5 36.5H48.3125V53.375ZM51.6875 53.375V36.5H63.5C65.3636 36.5 66.875 38.0114 66.875 39.875V50C66.875 51.8636 65.3636 53.375 63.5 53.375H51.6875ZM65.1875 65.1875C63.3239 65.1875 61.8125 63.6761 61.8125 61.8125C61.8125 59.9489 63.3239 58.4375 65.1875 58.4375C67.0511 58.4375 68.5625 59.9489 68.5625 61.8125C68.5625 63.6761 67.0511 65.1875 65.1875 65.1875Z" fill="#073BA1"/>
</g>
<defs>
<clipPath id="clip0_681_5700">
<rect width="100" height="100" fill="white"/>
</clipPath>
</defs>
</svg>
