<svg width="100" height="100" viewBox="0 0 100 100" fill="none" xmlns="http://www.w3.org/2000/svg">
<g clip-path="url(#clip0_681_5627)">
<circle cx="50" cy="50" r="50" fill="#EBF2FF"/>
<path d="M60.8125 27.4286C60.8125 26.5193 61.1747 25.6472 61.8193 25.0042C62.464 24.3612 63.3383 24 64.25 24H71.125C72.0367 24 72.911 24.3612 73.5557 25.0042C74.2003 25.6472 74.5625 26.5193 74.5625 27.4286V68.5714H76.2812C76.7371 68.5714 77.1743 68.752 77.4966 69.0735C77.8189 69.395 78 69.8311 78 70.2857C78 70.7404 77.8189 71.1764 77.4966 71.4979C77.1743 71.8194 76.7371 72 76.2812 72H24.7188C24.2629 72 23.8257 71.8194 23.5034 71.4979C23.1811 71.1764 23 70.7404 23 70.2857C23 69.8311 23.1811 69.395 23.5034 69.0735C23.8257 68.752 24.2629 68.5714 24.7188 68.5714H26.4375V58.2857C26.4375 57.3764 26.7997 56.5043 27.4443 55.8613C28.089 55.2184 28.9633 54.8571 29.875 54.8571H36.75C37.6617 54.8571 38.536 55.2184 39.1807 55.8613C39.8253 56.5043 40.1875 57.3764 40.1875 58.2857V68.5714H43.625V44.5714C43.625 43.6621 43.9872 42.79 44.6318 42.1471C45.2765 41.5041 46.1508 41.1429 47.0625 41.1429H53.9375C54.8492 41.1429 55.7235 41.5041 56.3682 42.1471C57.0128 42.79 57.375 43.6621 57.375 44.5714V68.5714H60.8125V27.4286Z" fill="#073BA1"/>
</g>
<defs>
<clipPath id="clip0_681_5627">
<rect width="100" height="100" fill="white"/>
</clipPath>
</defs>
</svg>
