<svg width="100" height="100" viewBox="0 0 100 100" fill="none" xmlns="http://www.w3.org/2000/svg">
<g clip-path="url(#clip0_889_6356)">
<circle cx="50" cy="50" r="50" fill="#EBF2FF"/>
<path d="M26.3921 60.0117C26.5933 60.7588 27.3633 61.207 28.1071 61.0049L47.0421 55.9072C47.7858 55.7051 48.2321 54.9316 48.0308 54.1846L43.6821 37.8809C43.4808 37.1338 42.7108 36.6855 41.9671 36.8877L35.2121 38.7158L37.3821 46.8633L31.9746 48.3135L29.8046 40.166L23.0408 41.9854C22.2971 42.1875 21.8508 42.9609 22.0521 43.708L26.3921 60.0117ZM55.5996 27C54.0508 27 52.7996 28.2568 52.7996 29.8125V58.2539L22.5158 66.5508C22.1396 66.6562 21.9208 67.043 22.0258 67.4121L23.1283 71.4814C23.2333 71.8594 23.6183 72.0791 23.9858 71.9736L58.4346 62.5342C58.6446 67.79 62.9146 72 68.1996 72C73.6158 72 77.9996 67.5967 77.9996 62.1562V27H55.5996ZM68.1996 66.375C65.8808 66.375 63.9996 64.4854 63.9996 62.1562C63.9996 59.8271 65.8808 57.9375 68.1996 57.9375C70.5183 57.9375 72.3996 59.8271 72.3996 62.1562C72.3996 64.4854 70.5183 66.375 68.1996 66.375Z" fill="#073BA1"/>
</g>
<defs>
<clipPath id="clip0_889_6356">
<rect width="100" height="100" fill="white"/>
</clipPath>
</defs>
</svg>
