<svg width="100" height="100" viewBox="0 0 100 100" fill="none" xmlns="http://www.w3.org/2000/svg">
<g clip-path="url(#clip0_681_5625)">
<circle cx="50" cy="50" r="50" fill="#EBF2FF"/>
<path d="M50.5002 22.7V37.775C50.5002 39.1077 51.0296 40.3858 51.972 41.3282C52.9144 42.2705 54.1925 42.7999 55.5252 42.7999H70.6002V71.2749C70.6002 72.6077 70.0708 73.8858 69.1284 74.8282C68.186 75.7705 66.9079 76.2999 65.5752 76.2999H43.8002V68.4107C45.6988 66.2603 46.8571 63.5574 47.1049 60.6996C47.3528 57.8417 46.6769 54.9798 45.1769 52.5347C43.6768 50.0896 41.4317 48.1904 38.7717 47.1165C36.1118 46.0425 33.1774 45.8505 30.4002 46.5687V27.725C30.4002 26.3922 30.9296 25.1141 31.872 24.1717C32.8144 23.2294 34.0925 22.7 35.4252 22.7H50.5002ZM53.8502 23.5375V37.775C53.8502 38.2192 54.0267 38.6452 54.3408 38.9594C54.6549 39.2735 55.081 39.45 55.5252 39.45H69.7627L53.8502 23.5375ZM43.8002 59.5499C43.8002 62.2154 42.7414 64.7716 40.8566 66.6564C38.9719 68.5411 36.4156 69.5999 33.7502 69.5999C31.0848 69.5999 28.5285 68.5411 26.6438 66.6564C24.759 64.7716 23.7002 62.2154 23.7002 59.5499C23.7002 56.8845 24.759 54.3283 26.6438 52.4435C28.5285 50.5588 31.0848 49.5 33.7502 49.5C36.4156 49.5 38.9719 50.5588 40.8566 52.4435C42.7414 54.3283 43.8002 56.8845 43.8002 59.5499ZM40.4502 71.1544C38.4143 72.3332 36.1028 72.9527 33.7502 72.95C31.3979 72.9537 29.0864 72.3354 27.0502 71.1577V78.8158C27.05 78.9639 27.0892 79.1093 27.1635 79.2374C27.2379 79.3654 27.3449 79.4714 27.4736 79.5446C27.6023 79.6178 27.7482 79.6556 27.8962 79.6541C28.0443 79.6526 28.1893 79.6119 28.3165 79.536L33.7502 76.2932L39.1839 79.5294C39.3108 79.605 39.4556 79.6457 39.6033 79.6474C39.7511 79.6491 39.8967 79.6116 40.0253 79.5388C40.1539 79.4659 40.261 79.3604 40.3356 79.2328C40.4102 79.1053 40.4498 78.9602 40.4502 78.8125V71.1544Z" fill="#073BA1"/>
<path fill-rule="evenodd" clip-rule="evenodd" d="M38.6909 56H29V56.822H38.6909V56ZM38.6909 58.192H29V59.014H38.6909V58.192ZM29 60.384H38.6909V61.206H29V60.384ZM38.6909 62.576H29V63.398H38.6909V62.576Z" fill="white"/>
</g>
<defs>
<clipPath id="clip0_681_5625">
<rect width="100" height="100" fill="white"/>
</clipPath>
</defs>
</svg>
