<svg width="100" height="100" viewBox="0 0 100 100" fill="none" xmlns="http://www.w3.org/2000/svg">
<g clip-path="url(#clip0_681_5720)">
<circle cx="50" cy="50" r="50" fill="#EBF2FF"/>
<path d="M43.6672 25.9999C44.1976 25.9999 44.7063 26.2106 45.0814 26.5857C45.4564 26.9607 45.6672 27.4694 45.6672 27.9999V31.3332H51.0005V27.9999C51.0005 27.4694 51.2112 26.9607 51.5863 26.5857C51.9613 26.2106 52.4701 25.9999 53.0005 25.9999C53.5309 25.9999 54.0396 26.2106 54.4147 26.5857C54.7898 26.9607 55.0005 27.4694 55.0005 27.9999V31.3332H62.3338C62.7332 31.3333 63.1235 31.453 63.4543 31.6768C63.785 31.9007 64.0412 32.2185 64.1898 32.5892L66.3551 37.9999H69.0005C70.9454 37.9999 72.8107 38.7725 74.1859 40.1478C75.5612 41.523 76.3338 43.3883 76.3338 45.3332V59.9999C76.3338 61.9448 75.5612 63.8101 74.1859 65.1853C72.8107 66.5606 70.9454 67.3332 69.0005 67.3332H66.3551L64.1898 72.7439C64.0412 73.1146 63.785 73.4324 63.4543 73.6562C63.1235 73.8801 62.7332 73.9998 62.3338 73.9999H42.3338C42.0598 73.9999 41.7886 73.9435 41.5372 73.8343C41.2858 73.7252 41.0596 73.5655 40.8725 73.3652L32.9738 64.9012C31.7063 63.5437 31.001 61.7558 31.0005 59.8985V51.3332H27.0005V61.3332C27.0005 61.8636 26.7898 62.3724 26.4147 62.7474C26.0396 63.1225 25.5309 63.3332 25.0005 63.3332C24.4701 63.3332 23.9613 63.1225 23.5863 62.7474C23.2112 62.3724 23.0005 61.8636 23.0005 61.3332V38.6665C23.0005 38.1361 23.2112 37.6274 23.5863 37.2523C23.9613 36.8773 24.4701 36.6665 25.0005 36.6665C25.5309 36.6665 26.0396 36.8773 26.4147 37.2523C26.7898 37.6274 27.0005 38.1361 27.0005 38.6665V47.3332H31.0005V38.6665C31.0005 36.7216 31.7731 34.8564 33.1484 33.4811C34.5236 32.1058 36.3889 31.3332 38.3338 31.3332H41.6672V27.9999C41.6672 27.4694 41.8779 26.9607 42.2529 26.5857C42.628 26.2106 43.1367 25.9999 43.6672 25.9999Z" fill="#073BA1"/>
<path fill-rule="evenodd" clip-rule="evenodd" d="M62.1548 50H38V52.0488H62.1548V50ZM62.1548 55.4637H38V57.5126H62.1548V55.4637Z" fill="white"/>
</g>
<defs>
<clipPath id="clip0_681_5720">
<rect width="100" height="100" fill="white"/>
</clipPath>
</defs>
</svg>
