<svg width="100" height="100" viewBox="0 0 100 100" fill="none" xmlns="http://www.w3.org/2000/svg">
<g clip-path="url(#clip0_681_5505)">
<circle cx="50" cy="50" r="50" fill="#EBF2FF"/>
<path d="M73.6984 48.8596H52.1373V27.301C52.1373 27.0358 51.9203 26.8187 51.655 26.8187H50.0874C46.9236 26.8155 43.7904 27.4369 40.8675 28.6474C37.9445 29.8578 35.2894 31.6334 33.0544 33.8723C30.8538 36.0658 29.1009 38.6662 27.8932 41.5287C26.6391 44.5009 26 47.6539 26 50.9094C26 54.1648 26.6391 57.3118 27.8932 60.284C29.1051 63.1476 30.8416 65.7279 33.0544 67.9404C35.2672 70.1529 37.8417 71.8892 40.7117 73.1009C43.679 74.3596 46.8701 75.0056 50.0934 75C53.2571 75.0032 56.3903 74.3818 59.3133 73.1713C62.2362 71.9609 64.8914 70.1853 67.1264 67.9464C69.3391 65.7339 71.0756 63.1596 72.2875 60.29C73.5464 57.323 74.1924 54.1323 74.1868 50.9094V49.3419C74.1807 49.0766 73.9637 48.8596 73.6984 48.8596ZM78.9982 45.5137L78.8414 43.8136C78.329 38.2672 75.869 33.0343 71.9016 29.0855C67.938 25.1257 62.7149 22.6754 57.1357 22.1586L55.4294 22.0018C55.146 21.9777 54.9048 22.1947 54.9048 22.4781V45.6101C54.9048 45.8754 55.1219 46.0924 55.3872 46.0924L78.5159 46.0322C78.7992 46.0261 79.0223 45.791 78.9982 45.5137Z" fill="#073BA1"/>
</g>
<defs>
<clipPath id="clip0_681_5505">
<rect width="100" height="100" fill="white"/>
</clipPath>
</defs>
</svg>
