<svg width="100" height="100" viewBox="0 0 100 100" fill="none" xmlns="http://www.w3.org/2000/svg">
<g clip-path="url(#clip0_889_7145)">
<circle cx="50" cy="50" r="50" fill="#EBF2FF"/>
<path d="M49.5 22V35.8938C49.5 37.473 50.1163 38.9875 51.2134 40.1042C52.3105 41.2209 53.7985 41.8482 55.35 41.8482H69V71.6205C69 73.1998 68.3837 74.7143 67.2866 75.831C66.1895 76.9477 64.7015 77.575 63.15 77.575H35.85C34.2985 77.575 32.8105 76.9477 31.7134 75.831C30.6163 74.7143 30 73.1998 30 71.6205V27.9545C30 26.3752 30.6163 24.8607 31.7134 23.744C32.8105 22.6273 34.2985 22 35.85 22H49.5ZM53.4 22.9924V35.8938C53.4 36.4202 53.6054 36.925 53.9711 37.2972C54.3368 37.6695 54.8328 37.8786 55.35 37.8786H68.025L53.4 22.9924Z" fill="#073BA1"/>
<path fill-rule="evenodd" clip-rule="evenodd" d="M60.5709 47.3971H36.416V49.4459H60.5709V47.3971ZM60.5709 52.8608H36.416V54.9097H60.5709V52.8608Z" fill="white"/>
<path d="M62.4137 62.2089H57.8665C57.7884 62.2089 57.7244 62.2733 57.7244 62.3521V63.2115C57.7244 63.2903 57.7884 63.3548 57.8665 63.3548H62.4137C62.4918 63.3548 62.5558 63.2903 62.5558 63.2115V62.3521C62.5558 62.2733 62.4918 62.2089 62.4137 62.2089ZM60.0335 64.6439H57.8665C57.7884 64.6439 57.7244 64.7083 57.7244 64.7871V65.6465C57.7244 65.7253 57.7884 65.7898 57.8665 65.7898H60.0335C60.1117 65.7898 60.1756 65.7253 60.1756 65.6465V64.7871C60.1756 64.7083 60.1117 64.6439 60.0335 64.6439ZM54.1062 60.6064H53.3371C53.227 60.6064 53.1382 60.696 53.1382 60.807V65.2473C53.1382 65.3117 53.1684 65.3708 53.2199 65.4084L55.8647 67.3528C55.9535 67.4173 56.0779 67.3994 56.1418 67.3099L56.5983 66.6814V66.6796C56.6622 66.5901 56.6427 66.4648 56.5539 66.4003L54.3034 64.7603V60.807C54.3052 60.696 54.2146 60.6064 54.1062 60.6064Z" fill="white"/>
<path d="M60.0162 66.8981H58.9896C58.8901 66.8981 58.796 66.95 58.7427 67.036C58.5171 67.3958 58.2542 67.7289 57.9523 68.0332C57.4318 68.5578 56.8261 68.9696 56.1529 69.2561C55.4549 69.5533 54.7142 69.7037 53.9504 69.7037C53.1849 69.7037 52.4442 69.5533 51.7479 69.2561C51.0747 68.9696 50.469 68.5578 49.9486 68.0332C49.4281 67.5086 49.0196 66.8981 48.7354 66.2195C48.4405 65.5177 48.2913 64.7711 48.2913 63.9994C48.2913 63.2277 48.4405 62.4829 48.7354 61.7792C49.0196 61.1007 49.4281 60.4901 49.9486 59.9655C50.469 59.4409 51.0747 59.0291 51.7479 58.7426C52.4442 58.4454 53.1866 58.295 53.9504 58.295C54.716 58.295 55.4567 58.4454 56.1529 58.7426C56.8261 59.0291 57.4318 59.4409 57.9523 59.9655C58.2542 60.2699 58.5171 60.6029 58.7427 60.9628C58.796 61.0487 58.8901 61.1007 58.9896 61.1007H60.0162C60.1388 61.1007 60.217 60.9717 60.1619 60.8625C59.0038 58.5403 56.6556 57.031 54.0339 57.0005C50.1955 56.9522 47.0071 60.1195 47 63.9851C46.9929 67.8578 50.1066 71 53.9486 71C56.6041 71 58.9914 69.4853 60.1619 67.1362C60.217 67.027 60.137 66.8981 60.0162 66.8981Z" fill="white"/>
</g>
<defs>
<clipPath id="clip0_889_7145">
<rect width="100" height="100" fill="white"/>
</clipPath>
</defs>
</svg>
