<svg width="100" height="100" viewBox="0 0 100 100" fill="none" xmlns="http://www.w3.org/2000/svg">
<g clip-path="url(#clip0_681_5726)">
<circle cx="50" cy="50" r="50" fill="#EBF2FF"/>
<path d="M71.8732 51.271C74.6178 51.271 77.25 52.3613 79.1907 54.302C81.1314 56.2427 82.2217 58.8749 82.2217 61.6194C82.2217 64.364 81.1314 66.9962 79.1907 68.9369C77.25 70.8776 74.6178 71.9679 71.8732 71.9679C69.1287 71.9679 66.4965 70.8776 64.5558 68.9369C62.6151 66.9962 61.5248 64.364 61.5248 61.6194C61.5248 58.8749 62.6151 56.2427 64.5558 54.302C66.4965 52.3613 69.1287 51.271 71.8732 51.271ZM71.8732 68.2048C73.6198 68.2048 75.2948 67.511 76.5298 66.276C77.7648 65.041 78.4586 63.366 78.4586 61.6194C78.4586 59.8729 77.7648 58.1979 76.5298 56.9629C75.2948 55.7279 73.6198 55.0341 71.8732 55.0341C70.1267 55.0341 68.4517 55.7279 67.2167 56.9629C65.9817 58.1979 65.2879 59.8729 65.2879 61.6194C65.2879 63.366 65.9817 65.041 67.2167 66.276C68.4517 67.511 70.1267 68.2048 71.8732 68.2048ZM28.5979 51.271C29.957 51.2711 31.3028 51.5389 32.5584 52.0592C33.814 52.5794 34.9548 53.3418 35.9158 54.3029C36.8767 55.264 37.639 56.405 38.1589 57.6607C38.6789 58.9164 38.9465 60.2622 38.9464 61.6213C38.9463 62.9804 38.6784 64.3262 38.1582 65.5818C37.638 66.8374 36.8756 67.9782 35.9145 68.9392C34.9533 69.9001 33.8124 70.6623 32.5567 71.1823C31.301 71.7023 29.9552 71.9699 28.5961 71.9698C25.8512 71.9695 23.2189 70.8789 21.2782 68.9378C19.3375 66.9968 18.2474 64.3643 18.2476 61.6194C18.2479 58.8746 19.3385 56.2423 21.2796 54.3016C23.2206 52.3609 25.8531 51.2707 28.5979 51.271ZM28.5979 68.2048C30.3445 68.2048 32.0195 67.511 33.2545 66.276C34.4895 65.041 35.1833 63.366 35.1833 61.6194C35.1833 59.8729 34.4895 58.1979 33.2545 56.9629C32.0195 55.7279 30.3445 55.0341 28.5979 55.0341C26.8514 55.0341 25.1764 55.7279 23.9414 56.9629C22.7064 58.1979 22.0126 59.8729 22.0126 61.6194C22.0126 63.366 22.7064 65.041 23.9414 66.276C25.1764 67.511 26.8514 68.2048 28.5979 68.2048Z" fill="#073BA1"/>
<path d="M71.8735 49.2274C73.4796 49.2274 75.0699 49.5438 76.5537 50.1584C78.0376 50.773 79.3858 51.6738 80.5214 52.8095C81.6571 53.9452 82.558 55.2934 83.1726 56.7772C83.7872 58.261 84.1035 59.8513 84.1035 61.4574C84.1035 63.0635 83.7872 64.6538 83.1726 66.1376C82.558 67.6214 81.6571 68.9696 80.5214 70.1053C79.3858 71.2409 78.0376 72.1418 76.5537 72.7564C75.0699 73.371 73.4796 73.6874 71.8735 73.6874C68.6299 73.6874 65.5192 72.3989 63.2256 70.1053C60.9321 67.8117 59.6436 64.701 59.6436 61.4574C59.6436 58.2138 60.9321 55.1031 63.2256 52.8095C65.5192 50.5159 68.6299 49.2274 71.8735 49.2274ZM71.8735 69.9243C74.1191 69.9243 76.2727 69.0323 77.8605 67.4444C79.4484 65.8566 80.3404 63.703 80.3404 61.4574C80.3404 59.2118 79.4484 57.0582 77.8605 55.4704C76.2727 53.8825 74.1191 52.9905 71.8735 52.9905C69.628 52.9905 67.4744 53.8825 65.8865 55.4704C64.2987 57.0582 63.4066 59.2118 63.4066 61.4574C63.4066 63.703 64.2987 65.8566 65.8865 67.4444C67.4744 69.0323 69.628 69.9243 71.8735 69.9243ZM28.5982 49.2274C30.2043 49.2274 31.7946 49.5438 33.2784 50.1584C34.7623 50.773 36.1105 51.6738 37.2461 52.8095C38.3818 53.9452 39.2826 55.2934 39.8973 56.7772C40.5119 58.261 40.8282 59.8513 40.8282 61.4574C40.8282 63.0635 40.5119 64.6538 39.8973 66.1376C39.2826 67.6214 38.3818 68.9696 37.2461 70.1053C36.1105 71.2409 34.7623 72.1418 33.2784 72.7564C31.7946 73.371 30.2043 73.6874 28.5982 73.6874C25.3546 73.6874 22.2439 72.3989 19.9503 70.1053C17.6568 67.8117 16.3683 64.701 16.3683 61.4574C16.3683 58.2138 17.6568 55.1031 19.9503 52.8095C22.2439 50.5159 25.3546 49.2274 28.5982 49.2274ZM28.5982 69.9243C30.8438 69.9243 32.9974 69.0323 34.5852 67.4444C36.1731 65.8566 37.0651 63.703 37.0651 61.4574C37.0651 59.2118 36.1731 57.0582 34.5852 55.4704C32.9974 53.8825 30.8438 52.9905 28.5982 52.9905C26.3527 52.9905 24.1991 53.8825 22.6112 55.4704C21.0234 57.0582 20.1313 59.2118 20.1313 61.4574C20.1313 63.703 21.0234 65.8566 22.6112 67.4444C24.1991 69.0323 26.3527 69.9243 28.5982 69.9243Z" fill="#073BA1"/>
<path d="M27.6571 60.6787C27.6571 61.1777 27.8554 61.6562 28.2082 62.0091C28.5611 62.362 29.0396 62.5602 29.5387 62.5602H46.4725C46.9715 62.5602 47.4501 62.362 47.8029 62.0091C48.1558 61.6562 48.354 61.1777 48.354 60.6787C48.354 60.1796 48.1558 59.7011 47.8029 59.3482C47.4501 58.9954 46.9715 58.7971 46.4725 58.7971H29.5387C29.0396 58.7971 28.5611 58.9954 28.2082 59.3482C27.8554 59.7011 27.6571 60.1796 27.6571 60.6787Z" fill="#073BA1"/>
<path d="M27.8019 63.1359C27.9953 63.2898 28.2171 63.4041 28.4547 63.4722C28.6923 63.5403 28.941 63.5608 29.1865 63.5327C29.4321 63.5046 29.6696 63.4283 29.8857 63.3082C30.1017 63.1881 30.2919 63.0267 30.4455 62.833L40.9839 49.5776C41.2777 49.1857 41.407 48.6947 41.3445 48.209C41.2819 47.7232 41.0325 47.281 40.6491 46.9763C40.2657 46.6715 39.7786 46.5283 39.2913 46.5769C38.804 46.6256 38.3549 46.8624 38.0393 47.2369L27.5009 60.4923C27.1903 60.8828 27.0475 61.3807 27.104 61.8765C27.1604 62.3722 27.4115 62.8252 27.8019 63.1359Z" fill="#073BA1"/>
<path d="M60.6536 44.4349C60.4453 44.5678 60.2652 44.7405 60.1237 44.9431C59.9821 45.1456 59.8819 45.3741 59.8288 45.6155C59.7757 45.8568 59.7707 46.1063 59.814 46.3496C59.8574 46.5929 59.9484 46.8252 60.0816 47.0333L69.2052 61.2991C69.3382 61.5073 69.511 61.6872 69.7137 61.8286C69.9163 61.9699 70.1449 62.0699 70.3862 62.1229C70.6275 62.1758 70.8769 62.1807 71.1201 62.1371C71.3634 62.0936 71.5956 62.0026 71.8036 61.8692C72.0119 61.7363 72.192 61.5636 72.3336 61.361C72.4751 61.1585 72.5753 60.93 72.6284 60.6886C72.6815 60.4473 72.6866 60.1978 72.6432 59.9545C72.5998 59.7113 72.5089 59.4789 72.3756 59.2708L63.252 45.005C63.119 44.7968 62.9462 44.6169 62.7435 44.4756C62.5409 44.3342 62.3123 44.2342 62.071 44.1812C61.8297 44.1283 61.5803 44.1234 61.3371 44.167C61.0939 44.2105 60.8616 44.3015 60.6536 44.4349Z" fill="#073BA1"/>
<path d="M64.292 38.7929C65.8179 39.8936 72.8135 41.8636 67.1689 45.6267C61.5243 49.3897 57.5844 53.388 57.5844 56.9159C57.5844 61.9302 58.8186 64.442 55.8797 64.442H42.7089C42.7089 64.442 44.5905 56.9159 38.9459 51.2713C33.3013 45.6267 29.5382 47.5082 23.8936 45.6267C20.3243 44.4357 16.3675 41.8636 16.3675 39.9821C16.3675 38.1005 16.3675 36.219 20.1305 38.1005C23.8936 39.9821 22.0121 41.0188 25.7751 39.1373C29.5382 37.2557 31.7208 39.9821 33.6023 39.9821C35.4838 39.9821 47.9283 43.143 49.8211 39.8899C50.8616 38.1005 53.1816 36.219 56.6022 36.219C59.0821 36.219 62.4651 37.474 64.292 38.7929Z" fill="#073BA1"/>
<path d="M34.8584 60.4941L17.4034 53.4722L16.7016 55.2182L34.1566 62.2401L34.8584 60.4941Z" fill="white"/>
<path d="M34.1567 62.2399L16.7017 55.2198L15.9999 56.964L33.4549 63.9859L34.1567 62.2399Z" fill="#073BA1"/>
<path d="M48.3539 40.2392C45.7837 40.9635 37.7326 40.226 35.5557 40.0548C33.3787 39.8854 32.5565 40.9033 35.5557 42.4067C38.9462 44.1019 46.1186 48.3542 48.3539 49.2272C50.2316 49.9629 56.8208 46.9487 57.6054 46.0362C58.3881 45.1217 50.559 39.6183 48.3539 40.2392ZM20.1309 38.0999C23.0454 38.1751 25.7755 38.0999 27.657 38.0999C29.5385 38.0999 29.8358 40.1733 24.7425 40.1733C19.6492 40.1733 20.1309 38.0999 20.1309 38.0999Z" fill="#073BA1"/>
<path d="M77.0742 38.0208C77.0742 35.2643 68.6901 28.361 69.5951 29.599C71.7589 32.5587 70.5152 36.1392 66.7973 36.1392C63.0794 36.1392 61.7002 48.405 67.1698 45.6259C72.6394 42.8469 77.0742 39.3736 77.0742 38.0208Z" fill="#073BA1"/>
<path d="M67.9116 26C66.587 27.1477 67.2625 29.1836 69.8778 32.5571C72.495 35.9307 76.6193 37.3005 74.3163 33.5769C72.0133 29.8534 67.9116 26 67.9116 26Z" fill="#073BA1"/>
<path d="M64.2929 38.7926C64.378 39.0054 64.5043 39.1994 64.6644 39.3634C64.8246 39.5274 65.0155 39.6582 65.2262 39.7484C65.437 39.8385 65.6634 39.8863 65.8926 39.8889C66.1218 39.8914 66.3493 39.8488 66.562 39.7634L66.8142 39.6618C67.0272 39.5769 67.2213 39.4508 67.3854 39.2907C67.5496 39.1306 67.6805 38.9396 67.7707 38.7288C67.8609 38.518 67.9086 38.2915 67.911 38.0622C67.9135 37.8329 67.8707 37.6054 67.785 37.3927L66.2836 33.6447C66.1986 33.4317 66.0725 33.2376 65.9124 33.0734C65.7523 32.9093 65.5614 32.7784 65.3506 32.6882C65.1398 32.598 64.9132 32.5503 64.6839 32.5478C64.4547 32.5454 64.2271 32.5882 64.0144 32.6738L63.7604 32.7754C62.8648 33.1329 62.4302 34.1489 62.7896 35.0446L64.2929 38.7926Z" fill="#073BA1"/>
<path d="M59.812 32.4387C59.7273 32.6733 59.7391 32.9319 59.845 33.1577C59.9508 33.3835 60.142 33.558 60.3765 33.6429L63.9156 34.9205C64.0319 34.9625 64.1553 34.9812 64.2787 34.9755C64.4022 34.9698 64.5234 34.9399 64.6353 34.8874C64.7472 34.8349 64.8477 34.7608 64.931 34.6695C65.0142 34.5782 65.0787 34.4713 65.1207 34.3551C65.1627 34.2388 65.1814 34.1154 65.1758 33.992C65.1701 33.8685 65.1401 33.7473 65.0876 33.6354C65.0351 33.5235 64.9611 33.423 64.8698 33.3398C64.7784 33.2565 64.6716 33.192 64.5553 33.15L61.0162 31.8724C60.8999 31.8305 60.7766 31.8119 60.6531 31.8177C60.5297 31.8235 60.4086 31.8535 60.2968 31.9061C60.1849 31.9587 60.0846 32.0328 60.0014 32.1242C59.9182 32.2156 59.8539 32.3225 59.812 32.4387Z" fill="#073BA1"/>
</g>
<defs>
<clipPath id="clip0_681_5726">
<rect width="100" height="100" fill="white"/>
</clipPath>
</defs>
</svg>
