<svg width="100" height="100" viewBox="0 0 100 100" fill="none" xmlns="http://www.w3.org/2000/svg">
<g clip-path="url(#clip0_889_6472)">
<circle cx="50" cy="50" r="50" fill="#EBF2FF"/>
<path d="M35.6923 71.6667H65.3077V63H35.6923V71.6667ZM35.6923 50H65.3077V37H60.0192C59.1378 37 58.3886 36.684 57.7716 36.0521C57.1546 35.4201 56.8462 34.6528 56.8462 33.75V28.3333H35.6923V50ZM73.7692 52.1667C73.7692 51.5799 73.5599 51.0721 73.1412 50.6432C72.7226 50.2144 72.2268 50 71.6538 50C71.0809 50 70.5851 50.2144 70.1665 50.6432C69.7478 51.0721 69.5385 51.5799 69.5385 52.1667C69.5385 52.7535 69.7478 53.2613 70.1665 53.6901C70.5851 54.1189 71.0809 54.3333 71.6538 54.3333C72.2268 54.3333 72.7226 54.1189 73.1412 53.6901C73.5599 53.2613 73.7692 52.7535 73.7692 52.1667ZM78 52.1667V66.25C78 66.5434 77.8953 66.7973 77.686 67.0117C77.4767 67.2261 77.2288 67.3333 76.9423 67.3333H69.5385V72.75C69.5385 73.6528 69.23 74.4201 68.613 75.0521C67.996 75.684 67.2468 76 66.3654 76H34.6346C33.7532 76 33.004 75.684 32.387 75.0521C31.77 74.4201 31.4615 73.6528 31.4615 72.75V67.3333H24.0577C23.7712 67.3333 23.5233 67.2261 23.314 67.0117C23.1047 66.7973 23 66.5434 23 66.25V52.1667C23 50.3837 23.6225 48.8546 24.8675 47.5794C26.1125 46.3043 27.6054 45.6667 29.3462 45.6667H31.4615V27.25C31.4615 26.3472 31.77 25.5799 32.387 24.9479C33.004 24.316 33.7532 24 34.6346 24H56.8462C57.7276 24 58.6971 24.2257 59.7548 24.6771C60.8125 25.1285 61.6498 25.6701 62.2668 26.3021L67.2909 31.4479C67.9079 32.0799 68.4367 32.9375 68.8774 34.0208C69.3181 35.1042 69.5385 36.0972 69.5385 37V45.6667H71.6538C73.3946 45.6667 74.8875 46.3043 76.1325 47.5794C77.3775 48.8546 78 50.3837 78 52.1667Z" fill="#073BA1"/>
</g>
<defs>
<clipPath id="clip0_889_6472">
<rect width="100" height="100" fill="white"/>
</clipPath>
</defs>
</svg>
