<svg width="100" height="100" viewBox="0 0 100 100" fill="none" xmlns="http://www.w3.org/2000/svg">
<g clip-path="url(#clip0_681_5729)">
<circle cx="50" cy="50" r="50" fill="#EBF2FF"/>
<path d="M71.1107 50.3811C73.7586 50.3811 76.2981 51.433 78.1705 53.3054C80.0428 55.1777 81.0947 57.7172 81.0947 60.3651C81.0947 63.013 80.0428 65.5525 78.1705 67.4249C76.2981 69.2972 73.7586 70.3491 71.1107 70.3491C68.4628 70.3491 65.9233 69.2972 64.051 67.4249C62.1786 65.5525 61.1267 63.013 61.1267 60.3651C61.1267 57.7172 62.1786 55.1777 64.051 53.3054C65.9233 51.433 68.4628 50.3811 71.1107 50.3811ZM71.1107 66.7186C72.7958 66.7186 74.4118 66.0492 75.6033 64.8577C76.7948 63.6662 77.4642 62.0502 77.4642 60.3651C77.4642 58.6801 76.7948 57.064 75.6033 55.8725C74.4118 54.681 72.7958 54.0117 71.1107 54.0117C69.4257 54.0117 67.8096 54.681 66.6181 55.8725C65.4266 57.064 64.7573 58.6801 64.7573 60.3651C64.7573 62.0502 65.4266 63.6662 66.6181 64.8577C67.8096 66.0492 69.4257 66.7186 71.1107 66.7186ZM29.3594 50.3811C30.6706 50.3812 31.969 50.6396 33.1804 51.1415C34.3918 51.6434 35.4924 52.379 36.4195 53.3063C37.3466 54.2335 38.082 55.3343 38.5837 56.5458C39.0854 57.7573 39.3435 59.0557 39.3434 60.3669C39.3433 61.6782 39.0849 62.9765 38.583 64.1879C38.0811 65.3993 37.3455 66.5 36.4183 67.4271C35.491 68.3542 34.3902 69.0895 33.1787 69.5912C31.9673 70.0929 30.6688 70.3511 29.3576 70.3509C26.7094 70.3507 24.1698 69.2985 22.2975 67.4258C20.4251 65.5531 19.3733 63.0133 19.3736 60.3651C19.3738 57.7169 20.426 55.1773 22.2987 53.305C24.1714 51.4326 26.7112 50.3809 29.3594 50.3811ZM29.3594 66.7186C31.0444 66.7186 32.6605 66.0492 33.852 64.8577C35.0435 63.6662 35.7129 62.0502 35.7129 60.3651C35.7129 58.6801 35.0435 57.064 33.852 55.8725C32.6605 54.681 31.0444 54.0117 29.3594 54.0117C27.6744 54.0117 26.0583 54.681 24.8668 55.8725C23.6753 57.064 23.0059 58.6801 23.0059 60.3651C23.0059 62.0502 23.6753 63.6662 24.8668 64.8577C26.0583 66.0492 27.6744 66.7186 29.3594 66.7186Z" fill="#073BA1"/>
<path d="M71.1109 48.4094C72.6604 48.4094 74.1947 48.7146 75.6263 49.3076C77.0578 49.9006 78.3586 50.7697 79.4542 51.8654C80.5499 52.961 81.419 54.2618 82.012 55.6933C82.605 57.1249 82.9102 58.6592 82.9102 60.2087C82.9102 61.7582 82.605 63.2925 82.012 64.7241C81.419 66.1557 80.5499 67.4564 79.4542 68.5521C78.3586 69.6477 77.0578 70.5169 75.6263 71.1098C74.1947 71.7028 72.6604 72.008 71.1109 72.008C67.9815 72.008 64.9803 70.7649 62.7675 68.5521C60.5547 66.3393 59.3116 63.3381 59.3116 60.2087C59.3116 57.0793 60.5547 54.0782 62.7675 51.8654C64.9803 49.6526 67.9815 48.4094 71.1109 48.4094ZM71.1109 68.3774C73.2774 68.3774 75.3551 67.5168 76.887 65.9849C78.419 64.4529 79.2796 62.3752 79.2796 60.2087C79.2796 58.0422 78.419 55.9645 76.887 54.4325C75.3551 52.9006 73.2774 52.04 71.1109 52.04C68.9444 52.04 66.8666 52.9006 65.3347 54.4325C63.8028 55.9645 62.9421 58.0422 62.9421 60.2087C62.9421 62.3752 63.8028 64.4529 65.3347 65.9849C66.8666 67.5168 68.9444 68.3774 71.1109 68.3774ZM29.3596 48.4094C30.9091 48.4094 32.4434 48.7146 33.8749 49.3076C35.3065 49.9006 36.6072 50.7697 37.7029 51.8654C38.7986 52.961 39.6677 54.2618 40.2607 55.6933C40.8536 57.1249 41.1588 58.6592 41.1588 60.2087C41.1588 61.7582 40.8536 63.2925 40.2607 64.7241C39.6677 66.1557 38.7986 67.4564 37.7029 68.5521C36.6072 69.6477 35.3065 70.5169 33.8749 71.1098C32.4434 71.7028 30.9091 72.008 29.3596 72.008C26.2302 72.008 23.229 70.7649 21.0162 68.5521C18.8034 66.3393 17.5603 63.3381 17.5603 60.2087C17.5603 57.0793 18.8034 54.0782 21.0162 51.8654C23.229 49.6526 26.2302 48.4094 29.3596 48.4094ZM29.3596 68.3774C31.526 68.3774 33.6038 67.5168 35.1357 65.9849C36.6677 64.4529 37.5283 62.3752 37.5283 60.2087C37.5283 58.0422 36.6677 55.9645 35.1357 54.4325C33.6038 52.9006 31.526 52.04 29.3596 52.04C27.1931 52.04 25.1153 52.9006 23.5834 54.4325C22.0515 55.9645 21.1908 58.0422 21.1908 60.2087C21.1908 62.3752 22.0515 64.4529 23.5834 65.9849C25.1153 67.5168 27.1931 68.3774 29.3596 68.3774Z" fill="#073BA1"/>
<path d="M28.4514 59.4574C28.4514 59.9388 28.6427 60.4005 28.9831 60.741C29.3235 61.0814 29.7852 61.2726 30.2667 61.2726H46.6042C47.0856 61.2726 47.5473 61.0814 47.8878 60.741C48.2282 60.4005 48.4194 59.9388 48.4194 59.4574C48.4194 58.9759 48.2282 58.5142 47.8878 58.1738C47.5473 57.8333 47.0856 57.6421 46.6042 57.6421H30.2667C29.7852 57.6421 29.3235 57.8333 28.9831 58.1738C28.6427 58.5142 28.4514 58.9759 28.4514 59.4574Z" fill="#073BA1"/>
<path d="M28.5928 61.8281C28.7794 61.9766 28.9934 62.0868 29.2226 62.1525C29.4519 62.2182 29.6918 62.238 29.9287 62.2109C30.1656 62.1838 30.3948 62.1102 30.6032 61.9943C30.8116 61.8785 30.9952 61.7227 31.1433 61.5358L41.3107 48.7472C41.594 48.3691 41.7188 47.8954 41.6585 47.4268C41.5982 46.9582 41.3575 46.5315 40.9876 46.2375C40.6177 45.9435 40.1478 45.8053 39.6776 45.8523C39.2075 45.8992 38.7742 46.1276 38.4697 46.489L28.3024 59.2776C28.0027 59.6544 27.865 60.1347 27.9195 60.613C27.9739 61.0913 28.2162 61.5283 28.5928 61.8281Z" fill="#073BA1"/>
<path d="M60.2873 43.7856C60.0863 43.9139 59.9126 44.0805 59.776 44.2759C59.6395 44.4714 59.5428 44.6918 59.4915 44.9246C59.4403 45.1575 59.4354 45.3982 59.4773 45.6329C59.5192 45.8676 59.6069 46.0918 59.7355 46.2925L68.5377 60.0559C68.6661 60.2568 68.8328 60.4304 69.0283 60.5668C69.2238 60.7031 69.4443 60.7996 69.6772 60.8507C69.91 60.9018 70.1506 60.9065 70.3853 60.8645C70.6199 60.8225 70.844 60.7346 71.0446 60.606C71.2456 60.4777 71.4194 60.3111 71.5559 60.1157C71.6925 59.9203 71.7892 59.6998 71.8404 59.467C71.8917 59.2341 71.8965 58.9935 71.8546 58.7587C71.8128 58.524 71.7251 58.2999 71.5965 58.0991L62.7942 44.3357C62.6658 44.1348 62.4991 43.9612 62.3036 43.8249C62.1081 43.6885 61.8876 43.592 61.6548 43.5409C61.422 43.4898 61.1813 43.4851 60.9467 43.5271C60.7121 43.5691 60.488 43.657 60.2873 43.7856Z" fill="#073BA1"/>
<path d="M66.5738 44.9355C72.0196 41.305 65.2704 39.4044 63.7982 38.3424C62.0356 37.0699 58.7717 35.8591 56.3792 35.8591C53.079 35.8591 50.8408 37.6744 49.837 39.4007C48.0108 42.5393 36.0046 39.4897 34.1893 39.4897C32.374 39.4897 30.2683 36.8593 26.6377 38.6746C23.0072 40.4899 24.8225 39.4897 21.1919 37.6744C17.5614 35.8591 17.5614 37.6744 17.5614 39.4897C17.5612 43.5025 16.7009 50.6683 17.5614 51.5282C18.4218 52.3881 19.185 46.0816 24.8225 44.9355C30.46 43.7894 33.8988 44.9355 39.3447 50.3813C44.7905 55.8272 42.9752 63.0883 42.9752 63.0883H55.6821C58.5176 63.0883 57.3268 60.6649 57.3268 55.8272C57.3268 52.4235 61.128 48.5661 66.5738 44.9355Z" fill="#073BA1"/>
<path d="M35.3989 59.2794L18.5586 52.5048L17.8815 54.1893L34.7218 60.9639L35.3989 59.2794Z" fill="white"/>
<path d="M34.7222 60.9637L17.8819 54.1909L17.2048 55.8737L34.0451 62.6483L34.7222 60.9637Z" fill="#073BA1"/>
<path d="M48.4209 39.7377C45.9412 40.4366 38.1736 39.725 36.0734 39.5598C33.9731 39.3964 33.1798 40.3785 36.0734 41.8289C39.3445 43.4644 46.2643 47.567 48.4209 48.4092C50.2325 49.119 56.5896 46.2109 57.3466 45.3305C58.1017 44.4483 50.5484 39.1386 48.4209 39.7377ZM21.1917 37.6737C24.0036 37.7463 26.6376 37.6737 28.4528 37.6737C30.2681 37.6737 30.5549 39.6741 25.641 39.6741C20.727 39.6741 21.1917 37.6737 21.1917 37.6737Z" fill="#073BA1"/>
<path d="M76.1284 37.5974C76.1284 34.9381 68.0396 28.2778 68.9127 29.4723C71.0003 32.3277 69.8004 35.7822 66.2134 35.7822C62.6264 35.7822 61.2958 47.6159 66.5728 44.9348C71.8498 42.2536 76.1284 38.9026 76.1284 37.5974Z" fill="#073BA1"/>
<path d="M79.9004 45.0783C81.6202 50.2375 66.1426 45.0783 66.1426 45.0783L75.6011 36.4796C75.6011 36.4796 78.1807 39.9191 79.9004 45.0783Z" fill="#073BA1"/>
<path d="M67.2883 26C66.0104 27.1073 66.6621 29.0714 69.1853 32.3262C71.7104 35.581 75.6894 36.9025 73.4675 33.3101C71.2456 29.7177 67.2883 26 67.2883 26Z" fill="#073BA1"/>
<path d="M63.7973 38.3421C63.8794 38.5474 64.0012 38.7345 64.1557 38.8927C64.3102 39.051 64.4944 39.1772 64.6977 39.2642C64.9011 39.3512 65.1195 39.3972 65.3407 39.3997C65.5618 39.4022 65.7813 39.3611 65.9865 39.2787L66.2298 39.1807C66.4352 39.0988 66.6225 38.9771 66.7809 38.8226C66.9392 38.6682 67.0656 38.4839 67.1526 38.2806C67.2396 38.0772 67.2856 37.8586 67.288 37.6374C67.2904 37.4162 67.2491 37.1967 67.1664 36.9915L65.7178 33.3755C65.6359 33.17 65.5142 32.9827 65.3597 32.8243C65.2053 32.666 65.0211 32.5397 64.8177 32.4527C64.6143 32.3656 64.3957 32.3196 64.1745 32.3172C63.9533 32.3149 63.7338 32.3562 63.5286 32.4388L63.2836 32.5368C62.4195 32.8817 62.0002 33.862 62.3469 34.726L63.7973 38.3421Z" fill="#073BA1"/>
<path d="M59.4736 32.212C59.3918 32.4383 59.4033 32.6878 59.5054 32.9056C59.6075 33.1235 59.7919 33.2918 60.0182 33.3738L63.4327 34.6063C63.5449 34.6469 63.6639 34.6649 63.783 34.6594C63.9022 34.6539 64.019 34.6251 64.127 34.5744C64.235 34.5237 64.3319 34.4523 64.4123 34.3642C64.4926 34.2761 64.5548 34.173 64.5954 34.0609C64.6359 33.9487 64.6539 33.8297 64.6485 33.7105C64.643 33.5914 64.6141 33.4745 64.5634 33.3665C64.5128 33.2586 64.4414 33.1616 64.3532 33.0813C64.2651 33.0009 64.162 32.9387 64.0499 32.8982L60.6354 31.6656C60.5232 31.6252 60.4042 31.6072 60.2851 31.6128C60.166 31.6184 60.0492 31.6474 59.9413 31.6981C59.8334 31.7489 59.7365 31.8204 59.6563 31.9085C59.5761 31.9967 59.514 32.0998 59.4736 32.212Z" fill="#073BA1"/>
<rect x="20.1396" y="51.0873" width="1.71973" height="1.71973" transform="rotate(-48.066 20.1396 51.0873)" fill="#073BA1"/>
<rect x="23.5791" y="48.7428" width="1.71973" height="1.71973" transform="rotate(-22.3902 23.5791 48.7428)" fill="#073BA1"/>
<rect x="28.1753" y="47.458" width="1.71973" height="1.71973" transform="rotate(2.23973 28.1753 47.458)" fill="#073BA1"/>
<rect x="32.9448" y="48.0879" width="1.71973" height="1.71973" transform="rotate(26.4906 32.9448 48.0879)" fill="#073BA1"/>
<rect x="40.4805" y="54.1069" width="1.71973" height="1.71973" transform="rotate(55.8931 40.4805 54.1069)" fill="#073BA1"/>
<rect x="38.2119" y="66.145" width="1.98637" height="1.71973" transform="rotate(30.5643 38.2119 66.145)" fill="#073BA1"/>
<rect x="35.3096" y="68.7155" width="2.55563" height="1.71973" transform="rotate(58.4634 35.3096 68.7155)" fill="#073BA1"/>
<rect x="25.5991" y="69.7172" width="2.89841" height="1.71973" transform="rotate(125.254 25.5991 69.7172)" fill="#073BA1"/>
<rect x="30.458" y="70.4443" width="2.55563" height="1.71973" transform="rotate(90 30.458 70.4443)" fill="#073BA1"/>
<rect x="42.0073" y="63.1456" width="1.71973" height="1.70402" transform="rotate(104.98 42.0073 63.1456)" fill="#073BA1"/>
<rect x="22.2808" y="67.2913" width="3.19586" height="1.71973" transform="rotate(136.393 22.2808 67.2913)" fill="#073BA1"/>
<rect x="19.6289" y="64.3422" width="2.52146" height="1.71973" transform="rotate(162.09 19.6289 64.3422)" fill="#073BA1"/>
<rect x="18.6094" y="60.4039" width="2.52146" height="1.71973" transform="rotate(176.946 18.6094 60.4039)" fill="#073BA1"/>
<rect x="61.4136" y="51.9471" width="1.71973" height="1.71973" transform="rotate(-48.066 61.4136 51.9471)" fill="#073BA1"/>
<rect x="65.7129" y="48.7428" width="1.71973" height="1.71973" transform="rotate(-22.3902 65.7129 48.7428)" fill="#073BA1"/>
<rect x="70.3096" y="47.458" width="1.71973" height="1.71973" transform="rotate(2.23973 70.3096 47.458)" fill="#073BA1"/>
<rect x="75.0791" y="48.0879" width="1.71973" height="1.71973" transform="rotate(26.4906 75.0791 48.0879)" fill="#073BA1"/>
<rect x="82.6147" y="54.1069" width="1.71973" height="1.71973" transform="rotate(55.8931 82.6147 54.1069)" fill="#073BA1"/>
<rect x="84.2271" y="58.6884" width="1.71973" height="2.72574" transform="rotate(88.3858 84.2271 58.6884)" fill="#073BA1"/>
<rect x="79.7598" y="50.6675" width="1.71973" height="1.71973" transform="rotate(41.9349 79.7598 50.6675)" fill="#073BA1"/>
<rect x="80.3457" y="66.145" width="1.98637" height="1.71973" transform="rotate(30.5643 80.3457 66.145)" fill="#073BA1"/>
<rect x="77.4438" y="68.7155" width="2.55563" height="1.71973" transform="rotate(58.4634 77.4438 68.7155)" fill="#073BA1"/>
<rect x="67.7334" y="69.7172" width="2.89841" height="1.71973" transform="rotate(125.254 67.7334 69.7172)" fill="#073BA1"/>
<rect x="72.5918" y="70.4443" width="2.55563" height="1.71973" transform="rotate(90 72.5918 70.4443)" fill="#073BA1"/>
<rect x="84.1411" y="63.1456" width="1.71973" height="1.70402" transform="rotate(104.98 84.1411 63.1456)" fill="#073BA1"/>
<rect x="64.4146" y="67.2913" width="3.19586" height="1.71973" transform="rotate(136.393 64.4146 67.2913)" fill="#073BA1"/>
<rect x="61.7627" y="64.3422" width="2.52146" height="1.71973" transform="rotate(162.09 61.7627 64.3422)" fill="#073BA1"/>
<rect x="60.7437" y="60.4039" width="2.52146" height="1.71973" transform="rotate(176.946 60.7437 60.4039)" fill="#073BA1"/>
<rect x="61.0928" y="56.7671" width="2.52146" height="1.71973" transform="rotate(-153.654 61.0928 56.7671)" fill="#073BA1"/>
</g>
<defs>
<clipPath id="clip0_681_5729">
<rect width="100" height="100" fill="white"/>
</clipPath>
</defs>
</svg>
