<svg width="100" height="100" viewBox="0 0 100 100" fill="none" xmlns="http://www.w3.org/2000/svg">
<g clip-path="url(#clip0_889_6614)">
<circle cx="50" cy="50" r="50" fill="#EBF2FF"/>
<path d="M47 28V40.25C47 41.6424 47.5373 42.9777 48.4938 43.9623C49.4502 44.9469 50.7474 45.5 52.1 45.5H64V71.75C64 73.1424 63.4627 74.4777 62.5062 75.4623C61.5498 76.4469 60.2526 77 58.9 77H35.1C33.7474 77 32.4502 76.4469 31.4938 75.4623C30.5373 74.4777 30 73.1424 30 71.75V33.25C30 31.8576 30.5373 30.5223 31.4938 29.5377C32.4502 28.5531 33.7474 28 35.1 28H47ZM50.4 28.875V40.25C50.4 40.7141 50.5791 41.1592 50.8979 41.4874C51.2167 41.8156 51.6491 42 52.1 42H63.15L50.4 28.875Z" fill="#073BA1"/>
<path fill-rule="evenodd" clip-rule="evenodd" d="M56.9539 50.3925H35.6567V52.1989H56.9539V50.3925ZM56.9539 55.2098H35.6567V57.0163H56.9539V55.2098ZM35.6567 60.0269H56.9539V61.8334H35.6567V60.0269ZM56.9539 64.8443H35.6567V66.6507H56.9539V64.8443Z" fill="white"/>
<path d="M79.665 40.0321L68.6718 29.0483L70.275 27.4237L71.0995 28.236C71.2054 28.3421 71.3312 28.4262 71.4698 28.4836C71.6083 28.541 71.7568 28.5706 71.9068 28.5706C72.0567 28.5706 72.2053 28.541 72.3438 28.4836C72.4823 28.4262 72.6081 28.3421 72.7141 28.236L73.5271 27.4237C73.6333 27.3178 73.7175 27.1921 73.775 27.0537C73.8324 26.9153 73.862 26.7669 73.862 26.617C73.862 26.4672 73.8324 26.3188 73.775 26.1804C73.7175 26.042 73.6333 25.9163 73.5271 25.8104L67.0457 19.3346C66.9397 19.2285 66.8139 19.1444 66.6754 19.087C66.5368 19.0296 66.3883 19 66.2384 19C66.0884 19 65.9399 19.0296 65.8013 19.087C65.6628 19.1444 65.537 19.2285 65.431 19.3346L64.618 20.1469C64.1714 20.5932 64.1714 21.314 64.618 21.7602L65.431 22.5496L63.805 24.1857C63.699 24.0797 63.5732 23.9955 63.4346 23.9381C63.2961 23.8807 63.1476 23.8512 62.9976 23.8512C62.8477 23.8512 62.6992 23.8807 62.5606 23.9381C62.4221 23.9955 62.2963 24.0797 62.1903 24.1857C61.7437 24.632 61.7437 25.3642 62.1903 25.8104L60.5757 27.4237L59.7626 26.6113C59.316 26.1651 58.5831 26.1651 58.1365 26.6113L57.335 27.4237C56.8883 27.8699 56.8883 28.6021 57.335 29.0483L63.805 35.5127C64.2516 35.9589 64.9844 35.9589 65.431 35.5127L66.2326 34.7118C66.3414 34.6063 66.4278 34.48 66.4868 34.3404C66.5458 34.2009 66.5763 34.051 66.5763 33.8995C66.5763 33.748 66.5458 33.5981 66.4868 33.4585C66.4278 33.319 66.3414 33.1927 66.2326 33.0872L65.431 32.2748L67.0457 30.6616L78.0504 41.6568C78.1564 41.7628 78.2822 41.847 78.4207 41.9044C78.5592 41.9618 78.7078 41.9914 78.8577 41.9914C79.0077 41.9914 79.1562 41.9618 79.2947 41.9044C79.4333 41.847 79.5591 41.7628 79.665 41.6568C80.1117 41.2105 80.1117 40.4783 79.665 40.0321Z" fill="#073BA1"/>
</g>
<defs>
<clipPath id="clip0_889_6614">
<rect width="100" height="100" fill="white"/>
</clipPath>
</defs>
</svg>
