<svg width="100" height="100" viewBox="0 0 100 100" fill="none" xmlns="http://www.w3.org/2000/svg">
<g clip-path="url(#clip0_889_6663)">
<circle cx="50" cy="50" r="50" fill="#EBF2FF"/>
<path d="M32.3085 27.7992L35.7668 39.5509C36.1598 40.8867 37.0523 42.016 38.2478 42.6905C39.4432 43.365 40.8438 43.5295 42.1414 43.1476L53.5574 39.7882L60.9679 64.9704C61.361 66.3062 61.2225 67.7389 60.5829 68.9534C59.9433 70.168 58.8551 71.0648 57.5575 71.4466L34.7255 78.1655C33.428 78.5474 32.0274 78.383 30.8319 77.7084C29.6364 77.0339 28.744 75.9046 28.3509 74.5688L17.4821 37.6348C17.089 36.2991 17.2275 34.8664 17.8671 33.6518C18.5067 32.4373 19.595 31.5405 20.8926 31.1586L32.3085 27.7992ZM35.8172 27.6788L39.0285 38.5911C39.1595 39.0363 39.457 39.4128 39.8555 39.6376C40.254 39.8624 40.7208 39.9173 41.1534 39.79L51.7539 36.6705L35.8172 27.6788Z" fill="#073BA1"/>
<path fill-rule="evenodd" clip-rule="evenodd" d="M48.1789 46.4707L27.748 52.483L28.258 54.216L48.6889 48.2037L48.1789 46.4707ZM49.5389 51.0921L29.108 57.1044L29.618 58.8374L50.0488 52.8251L49.5389 51.0921ZM30.4679 61.7256L50.8988 55.7133L51.4087 57.4463L30.9779 63.4586L30.4679 61.7256ZM52.2587 60.3347L31.8279 66.347L32.3379 68.08L52.7687 62.0677L52.2587 60.3347Z" fill="white"/>
<path d="M57.3267 26.4617L56.9928 38.7071C56.9548 40.099 57.4556 41.4485 58.3848 42.4588C59.314 43.469 60.5957 44.0573 61.9478 44.0942L73.8434 44.4185L73.1279 70.6588C73.0899 72.0507 72.5164 73.3709 71.5335 74.329C70.5506 75.2871 69.2388 75.8047 67.8867 75.7678L44.0955 75.1191C42.7434 75.0822 41.4618 74.494 40.5325 73.4837C39.6033 72.4734 39.1025 71.1239 39.1405 69.732L40.1899 31.2463C40.2279 29.8545 40.8014 28.5343 41.7843 27.5761C42.7672 26.618 44.079 26.1004 45.4311 26.1373L57.3267 26.4617ZM60.7016 27.429L60.3915 38.7998C60.3789 39.2637 60.5458 39.7136 60.8555 40.0503C61.1653 40.3871 61.5925 40.5832 62.0432 40.5955L73.0891 40.8967L60.7016 27.429Z" fill="#073BA1"/>
<path fill-rule="evenodd" clip-rule="evenodd" d="M66.552 48.5756L45.2627 49.1539L45.3118 50.9597L66.601 50.3814L66.552 48.5756ZM66.6828 53.3912L45.3935 53.9695L45.4426 55.7753L66.7319 55.1969L66.6828 53.3912ZM45.5243 58.7848L66.8136 58.2065L66.8627 60.0123L45.5734 60.5906L45.5243 58.7848ZM66.9444 63.0221L45.6551 63.6004L45.7042 65.4062L66.9935 64.8279L66.9444 63.0221Z" fill="white"/>
<path d="M88.665 39.0321L77.6718 28.0483L79.275 26.4237L80.0995 27.236C80.2054 27.3421 80.3312 27.4262 80.4698 27.4836C80.6083 27.541 80.7568 27.5706 80.9068 27.5706C81.0567 27.5706 81.2053 27.541 81.3438 27.4836C81.4823 27.4262 81.6081 27.3421 81.7141 27.236L82.5271 26.4237C82.6333 26.3178 82.7175 26.1921 82.775 26.0537C82.8324 25.9153 82.862 25.7669 82.862 25.617C82.862 25.4672 82.8324 25.3188 82.775 25.1804C82.7175 25.042 82.6333 24.9163 82.5271 24.8104L76.0457 18.3346C75.9397 18.2285 75.8139 18.1444 75.6754 18.087C75.5368 18.0296 75.3883 18 75.2384 18C75.0884 18 74.9399 18.0296 74.8013 18.087C74.6628 18.1444 74.537 18.2285 74.431 18.3346L73.618 19.1469C73.1714 19.5932 73.1714 20.314 73.618 20.7602L74.431 21.5496L72.805 23.1857C72.699 23.0797 72.5732 22.9955 72.4346 22.9381C72.2961 22.8807 72.1476 22.8512 71.9976 22.8512C71.8477 22.8512 71.6992 22.8807 71.5606 22.9381C71.4221 22.9955 71.2963 23.0797 71.1903 23.1857C70.7437 23.632 70.7437 24.3642 71.1903 24.8104L69.5757 26.4237L68.7626 25.6113C68.316 25.1651 67.5831 25.1651 67.1365 25.6113L66.335 26.4237C65.8883 26.8699 65.8883 27.6021 66.335 28.0483L72.805 34.5127C73.2516 34.9589 73.9844 34.9589 74.431 34.5127L75.2326 33.7118C75.3414 33.6063 75.4278 33.48 75.4868 33.3404C75.5458 33.2009 75.5763 33.051 75.5763 32.8995C75.5763 32.748 75.5458 32.5981 75.4868 32.4585C75.4278 32.319 75.3414 32.1927 75.2326 32.0872L74.431 31.2748L76.0457 29.6616L87.0504 40.6568C87.1564 40.7628 87.2822 40.847 87.4207 40.9044C87.5592 40.9618 87.7078 40.9914 87.8577 40.9914C88.0077 40.9914 88.1562 40.9618 88.2947 40.9044C88.4333 40.847 88.5591 40.7628 88.665 40.6568C89.1117 40.2105 89.1117 39.4783 88.665 39.0321Z" fill="#073BA1"/>
</g>
<defs>
<clipPath id="clip0_889_6663">
<rect width="100" height="100" fill="white"/>
</clipPath>
</defs>
</svg>
