<svg width="100" height="100" viewBox="0 0 100 100" fill="none" xmlns="http://www.w3.org/2000/svg">
<g clip-path="url(#clip0_681_5699)">
<circle cx="50" cy="50" r="50" fill="#EBF2FF"/>
<path d="M49.3574 31.6667C49.3574 33.1334 50.5574 34.3334 52.0241 34.3334H55.3574L59.2241 37.8L49.3574 45L25.0374 42.44C23.9109 42.314 22.778 42.6146 21.8621 43.2825C20.9462 43.9505 20.3138 44.9373 20.0896 46.0485C19.8654 47.1596 20.0655 48.3145 20.6507 49.2854C21.2359 50.2562 22.1635 50.9726 23.2508 51.2934L32.1308 53.96L22.8241 58.9734C17.9708 61.5867 19.8374 69 25.3574 69H41.3574C47.2508 69 52.0241 64.2267 52.0241 58.3334H62.6908L68.0241 63.6667H62.6908C61.2241 63.6667 60.0241 64.8667 60.0241 66.3334C60.0241 67.8 61.2241 69 62.6908 69H76.0241C79.0374 69 81.6508 67.3467 83.0374 64.8667C83.9974 63.1334 82.6374 61 80.6374 61C79.7308 61 78.8241 61.4267 78.3974 62.2534C77.9441 63.08 77.0374 63.6667 76.0241 63.6667H75.5708L69.7041 57.8C74.9041 56.6534 78.6908 54.0667 78.6908 50.3334C78.6908 47.96 58.1041 29.6667 58.1041 29.6667C57.6199 29.2347 56.993 28.9972 56.3441 29H52.0241C50.5574 29 49.3574 30.2 49.3574 31.6667ZM41.3574 63.6667H25.3574L39.3574 56.12L46.6908 58.3334C46.6908 59.7478 46.1289 61.1044 45.1287 62.1046C44.1285 63.1048 42.7719 63.6667 41.3574 63.6667Z" fill="#073BA1"/>
</g>
<defs>
<clipPath id="clip0_681_5699">
<rect width="100" height="100" fill="white"/>
</clipPath>
</defs>
</svg>
