<svg width="100" height="100" viewBox="0 0 100 100" fill="none" xmlns="http://www.w3.org/2000/svg">
<g clip-path="url(#clip0_681_5698)">
<circle cx="50" cy="50" r="50" fill="#EBF2FF"/>
<path d="M70.1508 57.5C65.4426 57.5 61.6257 61.1938 61.6257 65.75C61.6257 70.3063 65.4426 74 70.1508 74C74.859 74 78.6759 70.3063 78.6759 65.75C78.6759 61.1938 74.859 57.5 70.1508 57.5ZM70.1508 68C68.8691 68 67.8258 66.9903 67.8258 65.75C67.8258 64.5097 68.8691 63.5 70.1508 63.5C71.4325 63.5 72.4758 64.5097 72.4758 65.75C72.4758 66.9903 71.4325 68 70.1508 68ZM77.9009 41H71.7008V37.2313C71.7008 35.9075 72.1561 34.6288 72.9748 33.59C73.4029 33.0463 73.3187 32.2719 72.8469 31.7628L70.7514 29.4969C70.1062 28.7984 68.9767 28.8481 68.3586 29.57C66.5257 31.7094 65.5007 34.4197 65.5007 37.2313V41H55.5874L50.1535 28.7319C49.7966 27.9208 49.2009 27.2293 48.4407 26.7435C47.6805 26.2577 46.7894 25.9991 45.8784 26H32.9502C30.3859 26 28.3001 28.0184 28.3001 30.5V44.2363C27.4641 43.6053 26.2696 43.6306 25.5014 44.3741L22.4876 47.2906C21.6554 48.0959 21.6554 49.4019 22.4876 50.2072L22.9777 50.6816C22.4943 51.5497 22.1097 52.4459 21.824 53.3741H21.1313C19.9542 53.3741 19 54.2975 19 55.4366V59.5616C19 60.7006 19.9542 61.6241 21.1313 61.6241H21.823C22.1097 62.5531 22.4934 63.4484 22.9768 64.3175L22.4866 64.7919C21.6544 65.5972 21.6544 66.9031 22.4866 67.7084L25.5004 70.625C26.3326 71.4303 27.6821 71.4303 28.5142 70.625L29.0044 70.1506C29.9015 70.6184 30.8277 70.9906 31.7867 71.2672V71.9375C31.7867 73.0766 32.741 74 33.918 74H38.1806C39.3576 74 40.3119 73.0766 40.3119 71.9375V71.2681C41.2709 70.9916 42.1971 70.6194 43.0942 70.1516L43.5844 70.6259C44.4165 71.4313 45.766 71.4313 46.5982 70.6259L49.612 67.7094C50.4442 66.9041 50.4442 65.5981 49.612 64.7928L49.1218 64.3184C49.6052 63.4503 49.9898 62.5541 50.2756 61.6259H50.9692C52.1463 61.6259 53.1005 60.7025 53.1005 59.5634V59.0009H60.903C63.0255 56.2831 66.3591 54.5009 70.1508 54.5009C71.9566 54.5009 73.6451 54.9331 75.169 55.6447L80.0923 50.8803C80.6735 50.3178 81 49.5547 81 48.7588V44C81.001 42.3434 79.6127 41 77.9009 41ZM36.0503 65C31.7703 65 28.3001 61.6419 28.3001 57.5C28.3001 53.3581 31.7703 50 36.0503 50C40.3303 50 43.8004 53.3581 43.8004 57.5C43.8004 61.6419 40.3303 65 36.0503 65ZM38.1816 41H34.5002V32H44.8554L48.8418 41H38.1816Z" fill="#073BA1"/>
</g>
<defs>
<clipPath id="clip0_681_5698">
<rect width="100" height="100" fill="white"/>
</clipPath>
</defs>
</svg>
