<svg width="100" height="100" viewBox="0 0 100 100" fill="none" xmlns="http://www.w3.org/2000/svg">
<g clip-path="url(#clip0_681_5697)">
<circle cx="50" cy="50" r="50" fill="#EBF2FF"/>
<path d="M70.8775 36.5157C70.3801 35.6455 69.666 34.9219 68.806 34.4168C67.9461 33.9118 66.9702 33.6428 65.9755 33.6368H59.05V27.8789C59.05 27.1154 58.7497 26.3831 58.2153 25.8432C57.6808 25.3033 56.9559 25 56.2 25H27.7C26.1883 25 24.7384 25.6066 23.6695 26.6864C22.6005 27.7662 22 29.2308 22 30.7578V59.5471C22.001 60.5568 22.2649 61.5485 22.7651 62.4227C23.2653 63.2968 23.9843 64.0228 24.85 64.5276C24.748 67.2 25.701 69.8039 27.4996 71.7664C29.2981 73.729 31.7947 74.8894 34.4402 74.9925C37.0858 75.0956 39.6635 74.1328 41.6063 72.3161C43.5492 70.4993 44.698 67.9773 44.8 65.3049H53.635C53.9502 67.7137 55.1212 69.9247 56.93 71.5263C58.7388 73.1279 61.0622 74.0109 63.4675 74.0109C65.8728 74.0109 68.1962 73.1279 70.005 71.5263C71.8138 69.9247 72.9848 67.7137 73.3 65.3049C74.8117 65.3049 76.2615 64.6983 77.3305 63.6185C78.3995 62.5387 79 61.0742 79 59.5471V50.9103C78.9955 50.3851 78.8582 49.8698 78.601 49.4133L70.8775 36.5157ZM59.05 39.3946H65.9755L71.1055 48.0314H59.05V39.3946ZM34.825 68.1838C33.9795 68.1838 33.153 67.9306 32.4499 67.4561C31.7469 66.9816 31.199 66.3071 30.8754 65.518C30.5518 64.729 30.4672 63.8607 30.6321 63.023C30.7971 62.1853 31.2042 61.4158 31.8021 60.8119C32.4 60.208 33.1617 59.7967 33.991 59.6301C34.8203 59.4634 35.6798 59.549 36.461 59.8758C37.2421 60.2026 37.9098 60.7561 38.3795 61.4663C38.8493 62.1765 39.1 63.0114 39.1 63.8655C39.1 65.0108 38.6496 66.1092 37.8479 66.919C37.0462 67.7289 35.9588 68.1838 34.825 68.1838ZM63.325 68.1838C62.4795 68.1838 61.653 67.9306 60.9499 67.4561C60.2469 66.9816 59.699 66.3071 59.3754 65.518C59.0518 64.729 58.9672 63.8607 59.1321 63.023C59.2971 62.1853 59.7042 61.4158 60.3021 60.8119C60.9 60.208 61.6617 59.7967 62.491 59.6301C63.3203 59.4634 64.1798 59.549 64.961 59.8758C65.7421 60.2026 66.4098 60.7561 66.8795 61.4663C67.3493 62.1765 67.6 63.0114 67.6 63.8655C67.6 65.0108 67.1496 66.1092 66.3479 66.919C65.5462 67.7289 64.4588 68.1838 63.325 68.1838Z" fill="#073BA1"/>
</g>
<defs>
<clipPath id="clip0_681_5697">
<rect width="100" height="100" fill="white"/>
</clipPath>
</defs>
</svg>
