<svg width="60" height="60" viewBox="0 0 60 60" fill="none" xmlns="http://www.w3.org/2000/svg">
<circle cx="30" cy="30" r="27" stroke="#EBF2FF" stroke-width="4"/>
<path d="M30 3C35.3401 3 40.5603 4.58352 45.0004 7.55032C49.4405 10.5171 52.9012 14.7339 54.9447 19.6675C56.9883 24.6012 57.523 30.03 56.4812 35.2674C55.4394 40.5049 52.8679 45.3159 49.0919 49.0919C45.3159 52.8679 40.5049 55.4394 35.2674 56.4812C30.03 57.523 24.6012 56.9883 19.6675 54.9447C14.7339 52.9012 10.5171 49.4405 7.55032 45.0004C4.58352 40.5603 3 35.3401 3 30" stroke="#48CC55" stroke-width="4"/>
<path d="M16.32 36C16.224 36 16.144 35.968 16.08 35.904C16.016 35.8293 15.984 35.744 15.984 35.648C15.984 35.6053 15.9947 35.5573 16.016 35.504L19.872 26.704H14.848C14.7307 26.704 14.6347 26.6667 14.56 26.592C14.496 26.5173 14.464 26.4267 14.464 26.32V25.2C14.464 25.0827 14.496 24.9867 14.56 24.912C14.6347 24.8373 14.7307 24.8 14.848 24.8H21.872C21.9893 24.8 22.08 24.8373 22.144 24.912C22.2187 24.9867 22.256 25.0827 22.256 25.2V26.192C22.256 26.3413 22.24 26.4693 22.208 26.576C22.1867 26.672 22.1547 26.7733 22.112 26.88L18.288 35.616C18.256 35.6907 18.1973 35.776 18.112 35.872C18.0373 35.9573 17.9253 36 17.776 36H16.32ZM27.5835 36.176C26.6662 36.176 25.8928 36.0267 25.2635 35.728C24.6342 35.4187 24.1542 35.0187 23.8235 34.528C23.5035 34.0373 23.3328 33.5147 23.3115 32.96C23.3008 32.864 23.3275 32.7893 23.3915 32.736C23.4662 32.672 23.5515 32.64 23.6475 32.64H25.1355C25.2528 32.64 25.3488 32.6667 25.4235 32.72C25.5088 32.7627 25.5728 32.8427 25.6155 32.96C25.7222 33.28 25.8715 33.5413 26.0635 33.744C26.2662 33.9467 26.4955 34.096 26.7515 34.192C27.0182 34.288 27.2955 34.336 27.5835 34.336C27.9675 34.336 28.3142 34.2613 28.6235 34.112C28.9435 33.952 29.1995 33.7173 29.3915 33.408C29.5835 33.0987 29.6795 32.72 29.6795 32.272C29.6795 31.8773 29.5888 31.536 29.4075 31.248C29.2262 30.96 28.9755 30.736 28.6555 30.576C28.3462 30.4053 27.9888 30.32 27.5835 30.32C27.2848 30.32 27.0395 30.3573 26.8475 30.432C26.6555 30.5067 26.4902 30.592 26.3515 30.688C26.2235 30.784 26.1062 30.8693 25.9995 30.944C25.9035 31.0187 25.7915 31.056 25.6635 31.056H24.1915C24.0955 31.056 24.0102 31.024 23.9355 30.96C23.8715 30.8853 23.8395 30.8 23.8395 30.704L24.3995 25.232C24.4102 25.0933 24.4582 24.9867 24.5435 24.912C24.6288 24.8373 24.7302 24.8 24.8475 24.8H30.8635C30.9702 24.8 31.0608 24.8373 31.1355 24.912C31.2102 24.9867 31.2475 25.0773 31.2475 25.184V26.256C31.2475 26.3627 31.2102 26.4533 31.1355 26.528C31.0608 26.6027 30.9702 26.64 30.8635 26.64H26.2395L25.9835 29.248C26.1755 29.12 26.4315 28.9973 26.7515 28.88C27.0715 28.7627 27.5142 28.704 28.0795 28.704C28.5915 28.704 29.0768 28.7893 29.5355 28.96C30.0048 29.12 30.4208 29.36 30.7835 29.68C31.1462 29.9893 31.4288 30.368 31.6315 30.816C31.8448 31.2533 31.9515 31.7547 31.9515 32.32C31.9515 33.0987 31.7702 33.776 31.4075 34.352C31.0448 34.928 30.5382 35.376 29.8875 35.696C29.2368 36.016 28.4688 36.176 27.5835 36.176ZM34.3694 36C34.1454 36 34.0334 35.8933 34.0334 35.68C34.0334 35.616 34.0547 35.5573 34.0974 35.504L41.9854 25.104C42.06 25.008 42.1347 24.9333 42.2094 24.88C42.284 24.8267 42.3907 24.8 42.5294 24.8H43.3774C43.6014 24.8 43.7134 24.9067 43.7134 25.12C43.7134 25.184 43.692 25.2427 43.6494 25.296L35.7614 35.696C35.6867 35.792 35.612 35.8667 35.5374 35.92C35.4734 35.9733 35.3667 36 35.2174 36H34.3694ZM42.0654 36.096C41.3507 36.096 40.7854 35.8987 40.3694 35.504C39.9534 35.1093 39.724 34.592 39.6814 33.952C39.6707 33.6747 39.6654 33.4347 39.6654 33.232C39.6654 33.0293 39.6707 32.7787 39.6814 32.48C39.724 31.84 39.9427 31.3227 40.3374 30.928C40.7427 30.5333 41.3187 30.336 42.0654 30.336C42.8227 30.336 43.3987 30.5333 43.7934 30.928C44.1987 31.3227 44.4174 31.84 44.4494 32.48C44.4707 32.7787 44.4814 33.0293 44.4814 33.232C44.4814 33.4347 44.4707 33.6747 44.4494 33.952C44.4174 34.592 44.188 35.1093 43.7614 35.504C43.3454 35.8987 42.78 36.096 42.0654 36.096ZM42.0654 34.848C42.3 34.848 42.4814 34.8 42.6094 34.704C42.748 34.608 42.8494 34.4853 42.9134 34.336C42.9774 34.1867 43.0094 34.0373 43.0094 33.888C43.0307 33.6213 43.0414 33.3973 43.0414 33.216C43.0414 33.024 43.0307 32.8053 43.0094 32.56C42.9987 32.3147 42.924 32.0907 42.7854 31.888C42.6467 31.6747 42.4067 31.568 42.0654 31.568C41.7347 31.568 41.5 31.6747 41.3614 31.888C41.2227 32.0907 41.1427 32.3147 41.1214 32.56C41.1107 32.8053 41.1054 33.024 41.1054 33.216C41.1054 33.3973 41.1107 33.6213 41.1214 33.888C41.1427 34.0373 41.18 34.1867 41.2334 34.336C41.2974 34.4853 41.3934 34.608 41.5214 34.704C41.66 34.8 41.8414 34.848 42.0654 34.848ZM35.6814 30.432C34.9667 30.432 34.4014 30.2453 33.9854 29.872C33.5694 29.4987 33.34 28.992 33.2974 28.352C33.2867 28.0747 33.2814 27.8347 33.2814 27.632C33.2814 27.4187 33.2867 27.1627 33.2974 26.864C33.34 26.224 33.5587 25.7067 33.9534 25.312C34.3587 24.9173 34.9347 24.72 35.6814 24.72C36.4387 24.72 37.0147 24.9173 37.4094 25.312C37.8147 25.7067 38.0334 26.224 38.0654 26.864C38.0867 27.1627 38.0974 27.4187 38.0974 27.632C38.0974 27.8347 38.0867 28.0747 38.0654 28.352C38.0334 28.992 37.804 29.4987 37.3774 29.872C36.9614 30.2453 36.396 30.432 35.6814 30.432ZM35.6814 29.248C35.916 29.248 36.0974 29.2 36.2254 29.104C36.364 29.008 36.4654 28.8853 36.5294 28.736C36.5934 28.5867 36.6254 28.432 36.6254 28.272C36.6467 28.0053 36.6574 27.7813 36.6574 27.6C36.6574 27.408 36.6467 27.1893 36.6254 26.944C36.6147 26.6987 36.54 26.4747 36.4014 26.272C36.2627 26.0693 36.0227 25.968 35.6814 25.968C35.3507 25.968 35.116 26.0693 34.9774 26.272C34.8387 26.4747 34.764 26.6987 34.7534 26.944C34.7427 27.1893 34.7374 27.408 34.7374 27.6C34.7374 27.7813 34.7427 28.0053 34.7534 28.272C34.764 28.432 34.796 28.5867 34.8494 28.736C34.9134 28.8853 35.0094 29.008 35.1374 29.104C35.276 29.2 35.4574 29.248 35.6814 29.248Z" fill="#073BA1"/>
</svg>
