<svg width="64" height="64" viewBox="0 0 64 64" fill="none" xmlns="http://www.w3.org/2000/svg">
<path d="M28.64 45.44C28.64 49.985 30.4432 54.1066 33.3754 57.1306C31.2026 57.5405 28.8662 57.76 26.4 57.76C13.4304 57.76 4 52.0099 4 43.6816V42.08C4 40.2978 4.708 38.5885 5.96824 37.3282C7.22849 36.068 8.93775 35.36 10.72 35.36H32C29.814 38.2654 28.6345 41.8041 28.64 45.44ZM26.4 4C28.165 4 29.9127 4.34764 31.5433 5.02306C33.1739 5.69848 34.6555 6.68847 35.9035 7.93649C37.1515 9.1845 38.1415 10.6661 38.8169 12.2967C39.4924 13.9274 39.84 15.675 39.84 17.44C39.84 19.205 39.4924 20.9527 38.8169 22.5833C38.1415 24.2139 37.1515 25.6955 35.9035 26.9435C34.6555 28.1915 33.1739 29.1815 31.5433 29.8569C29.9127 30.5324 28.165 30.88 26.4 30.88C22.8355 30.88 19.417 29.464 16.8965 26.9435C14.376 24.423 12.96 21.0045 12.96 17.44C12.96 13.8755 14.376 10.457 16.8965 7.93649C19.417 5.416 22.8355 4 26.4 4ZM42.8618 36.3008C44.8215 35.7116 46.9238 35.811 48.8192 36.5825C50.7145 37.3539 52.2887 38.7509 53.28 40.5411V38.72C53.28 38.423 53.398 38.1381 53.608 37.928C53.8181 37.718 54.103 37.6 54.4 37.6C54.697 37.6 54.9819 37.718 55.192 37.928C55.402 38.1381 55.52 38.423 55.52 38.72V43.2C55.52 43.497 55.402 43.7819 55.192 43.992C54.9819 44.202 54.697 44.32 54.4 44.32H49.92C49.623 44.32 49.3381 44.202 49.128 43.992C48.918 43.7819 48.8 43.497 48.8 43.2C48.8 42.903 48.918 42.6181 49.128 42.408C49.3381 42.198 49.623 42.08 49.92 42.08H51.5485C51.0975 41.094 50.4144 40.2319 49.5577 39.5674C48.7011 38.9028 47.6962 38.4556 46.6291 38.2638C45.5619 38.0721 44.4642 38.1416 43.4298 38.4664C42.3954 38.7912 41.455 39.3617 40.689 40.129C40.4777 40.333 40.1948 40.4459 39.9012 40.4433C39.6075 40.4408 39.3266 40.323 39.1189 40.1153C38.9113 39.9077 38.7935 39.6268 38.7909 39.3331C38.7884 39.0394 38.9013 38.7565 39.1053 38.5453C40.1524 37.4973 41.4431 36.7254 42.8618 36.2986V36.3008ZM48.0182 54.5792C46.0585 55.1684 43.9562 55.069 42.0608 54.2975C40.1655 53.5261 38.5913 52.1291 37.6 50.3389V52.1622C37.6 52.4593 37.482 52.7442 37.272 52.9542C37.0619 53.1642 36.777 53.2822 36.48 53.2822C36.183 53.2822 35.8981 53.1642 35.688 52.9542C35.478 52.7442 35.36 52.4593 35.36 52.1622V47.6822C35.36 47.3852 35.478 47.1003 35.688 46.8903C35.8981 46.6802 36.183 46.5622 36.48 46.5622H40.96C41.257 46.5622 41.5419 46.6802 41.752 46.8903C41.962 47.1003 42.08 47.3852 42.08 47.6822C42.08 47.9793 41.962 48.2642 41.752 48.4742C41.5419 48.6842 41.257 48.8022 40.96 48.8022H39.3315C39.7825 49.7882 40.4656 50.6503 41.3223 51.3149C42.1789 51.9794 43.1838 52.4267 44.2509 52.6184C45.3181 52.8101 46.4158 52.7406 47.4502 52.4158C48.4846 52.091 49.425 51.5206 50.191 50.7533C50.4023 50.5493 50.6852 50.4364 50.9788 50.4389C51.2725 50.4415 51.5534 50.5593 51.7611 50.7669C51.9687 50.9746 52.0865 51.2555 52.0891 51.5492C52.0916 51.8428 51.9787 52.1257 51.7747 52.337C50.7276 53.3849 49.4369 54.1568 48.0182 54.5837V54.5792Z" fill="#073BA1"/>
</svg>
