<svg width="296" height="130" viewBox="0 0 296 130" fill="none" xmlns="http://www.w3.org/2000/svg">
<rect width="160" height="108" rx="8" fill="#CBC8C8"/>
<path d="M8 2.5H152C155.038 2.5 157.5 4.96243 157.5 8V92.5H2.5V8C2.5 4.96243 4.96243 2.5 8 2.5Z" fill="#F9F7F7" stroke="#042668" stroke-width="5"/>
<rect x="60" y="108" width="39" height="18" fill="#888888"/>
<rect x="52" y="126" width="55" height="4" fill="#5A5A5A"/>
<circle cx="80" cy="102" r="4" fill="#4F4F4F"/>
<path d="M21.6818 80.1278C21.0199 80.1278 20.4474 79.9872 19.9645 79.706C19.4844 79.4219 19.1136 79.027 18.8523 78.5213C18.5909 78.0128 18.4602 77.4233 18.4602 76.7528C18.4602 76.0767 18.5909 75.4858 18.8523 74.9801C19.1136 74.4716 19.4844 74.0767 19.9645 73.7955C20.4474 73.5114 21.0199 73.3693 21.6818 73.3693C22.3438 73.3693 22.9148 73.5114 23.3949 73.7955C23.8778 74.0767 24.25 74.4716 24.5114 74.9801C24.7727 75.4858 24.9034 76.0767 24.9034 76.7528C24.9034 77.4233 24.7727 78.0128 24.5114 78.5213C24.25 79.027 23.8778 79.4219 23.3949 79.706C22.9148 79.9872 22.3438 80.1278 21.6818 80.1278ZM21.6903 78.7216C21.9915 78.7216 22.2429 78.6364 22.4446 78.4659C22.6463 78.2926 22.7983 78.0568 22.9006 77.7585C23.0057 77.4602 23.0582 77.1207 23.0582 76.7401C23.0582 76.3594 23.0057 76.0199 22.9006 75.7216C22.7983 75.4233 22.6463 75.1875 22.4446 75.0142C22.2429 74.8409 21.9915 74.7543 21.6903 74.7543C21.3864 74.7543 21.1307 74.8409 20.9233 75.0142C20.7188 75.1875 20.5639 75.4233 20.4588 75.7216C20.3565 76.0199 20.3054 76.3594 20.3054 76.7401C20.3054 77.1207 20.3565 77.4602 20.4588 77.7585C20.5639 78.0568 20.7188 78.2926 20.9233 78.4659C21.1307 78.6364 21.3864 78.7216 21.6903 78.7216ZM27.8991 76.2159V80H26.0838V73.4545H27.8139V74.6094H27.8906C28.0355 74.2287 28.2784 73.9276 28.6193 73.706C28.9602 73.4815 29.3736 73.3693 29.8594 73.3693C30.3139 73.3693 30.7102 73.4688 31.0483 73.6676C31.3864 73.8665 31.6491 74.1506 31.8366 74.5199C32.0241 74.8864 32.1179 75.3239 32.1179 75.8324V80H30.3026V76.1562C30.3054 75.7557 30.2031 75.4432 29.9957 75.2188C29.7884 74.9915 29.5028 74.8778 29.1392 74.8778C28.8949 74.8778 28.679 74.9304 28.4915 75.0355C28.3068 75.1406 28.1619 75.294 28.0568 75.4957C27.9545 75.6946 27.902 75.9347 27.8991 76.2159ZM35.364 71.2727V80H33.5487V71.2727H35.364ZM36.8182 80V73.4545H38.6335V80H36.8182ZM37.7301 72.6108C37.4602 72.6108 37.2287 72.5213 37.0355 72.3423C36.8452 72.1605 36.75 71.9432 36.75 71.6903C36.75 71.4403 36.8452 71.2259 37.0355 71.0469C37.2287 70.8651 37.4602 70.7741 37.7301 70.7741C38 70.7741 38.2301 70.8651 38.4205 71.0469C38.6136 71.2259 38.7102 71.4403 38.7102 71.6903C38.7102 71.9432 38.6136 72.1605 38.4205 72.3423C38.2301 72.5213 38 72.6108 37.7301 72.6108ZM41.9031 76.2159V80H40.0877V73.4545H41.8178V74.6094H41.8945C42.0394 74.2287 42.2823 73.9276 42.6232 73.706C42.9641 73.4815 43.3775 73.3693 43.8633 73.3693C44.3178 73.3693 44.7141 73.4688 45.0522 73.6676C45.3903 73.8665 45.6531 74.1506 45.8406 74.5199C46.0281 74.8864 46.1218 75.3239 46.1218 75.8324V80H44.3065V76.1562C44.3093 75.7557 44.207 75.4432 43.9996 75.2188C43.7923 74.9915 43.5067 74.8778 43.1431 74.8778C42.8988 74.8778 42.6829 74.9304 42.4954 75.0355C42.3107 75.1406 42.1658 75.294 42.0607 75.4957C41.9585 75.6946 41.9059 75.9347 41.9031 76.2159ZM50.5355 80.1278C49.8622 80.1278 49.2827 79.9915 48.7969 79.7188C48.3139 79.4432 47.9418 79.054 47.6804 78.5511C47.419 78.0455 47.2884 77.4474 47.2884 76.7571C47.2884 76.0838 47.419 75.4929 47.6804 74.9844C47.9418 74.4759 48.3097 74.0795 48.7841 73.7955C49.2614 73.5114 49.821 73.3693 50.4631 73.3693C50.8949 73.3693 51.2969 73.4389 51.669 73.5781C52.044 73.7145 52.3707 73.9205 52.6491 74.196C52.9304 74.4716 53.1491 74.8182 53.3054 75.2358C53.4616 75.6506 53.5398 76.1364 53.5398 76.6932V77.1918H48.0128V76.0668H51.831C51.831 75.8054 51.7741 75.5739 51.6605 75.3722C51.5469 75.1705 51.3892 75.0128 51.1875 74.8991C50.9886 74.7827 50.7571 74.7244 50.4929 74.7244C50.2173 74.7244 49.973 74.7884 49.7599 74.9162C49.5497 75.0412 49.3849 75.2102 49.2656 75.4233C49.1463 75.6335 49.0852 75.8679 49.0824 76.1264V77.196C49.0824 77.5199 49.142 77.7997 49.2614 78.0355C49.3835 78.2713 49.5554 78.4531 49.777 78.581C49.9986 78.7088 50.2614 78.7727 50.5653 78.7727C50.767 78.7727 50.9517 78.7443 51.1193 78.6875C51.2869 78.6307 51.4304 78.5455 51.5497 78.4318C51.669 78.3182 51.7599 78.179 51.8224 78.0142L53.5014 78.125C53.4162 78.5284 53.2415 78.8807 52.9773 79.1818C52.7159 79.4801 52.3778 79.7131 51.9631 79.8807C51.5511 80.0455 51.0753 80.1278 50.5355 80.1278ZM58.8026 75.696V77.1364H54.8224V75.696H58.8026ZM62.1648 76.2159V80H60.3494V73.4545H62.0795V74.6094H62.1562C62.3011 74.2287 62.544 73.9276 62.8849 73.706C63.2259 73.4815 63.6392 73.3693 64.125 73.3693C64.5795 73.3693 64.9759 73.4688 65.3139 73.6676C65.652 73.8665 65.9148 74.1506 66.1023 74.5199C66.2898 74.8864 66.3835 75.3239 66.3835 75.8324V80H64.5682V76.1562C64.571 75.7557 64.4688 75.4432 64.2614 75.2188C64.054 74.9915 63.7685 74.8778 63.4048 74.8778C63.1605 74.8778 62.9446 74.9304 62.7571 75.0355C62.5724 75.1406 62.4276 75.294 62.3224 75.4957C62.2202 75.6946 62.1676 75.9347 62.1648 76.2159ZM69.6808 80.1236C69.2631 80.1236 68.891 80.0511 68.5643 79.9062C68.2376 79.7585 67.979 79.5412 67.7887 79.2543C67.6012 78.9645 67.5075 78.6037 67.5075 78.1719C67.5075 77.8082 67.5742 77.5028 67.7077 77.2557C67.8413 77.0085 68.0231 76.8097 68.2532 76.6591C68.4833 76.5085 68.7447 76.3949 69.0373 76.3182C69.3327 76.2415 69.6424 76.1875 69.9663 76.1562C70.3469 76.1165 70.6538 76.0795 70.8867 76.0455C71.1197 76.0085 71.2887 75.9545 71.3938 75.8835C71.4989 75.8125 71.5515 75.7074 71.5515 75.5682V75.5426C71.5515 75.2727 71.4663 75.0639 71.2958 74.9162C71.1282 74.7685 70.8896 74.6946 70.5799 74.6946C70.2532 74.6946 69.9933 74.767 69.8001 74.9119C69.6069 75.054 69.479 75.233 69.4165 75.4489L67.7376 75.3125C67.8228 74.9148 67.9904 74.571 68.2404 74.2812C68.4904 73.9886 68.8129 73.7642 69.2077 73.608C69.6055 73.4489 70.0657 73.3693 70.5884 73.3693C70.9521 73.3693 71.3001 73.4119 71.6325 73.4972C71.9677 73.5824 72.2646 73.7145 72.5231 73.8935C72.7844 74.0724 72.9904 74.3026 73.141 74.5838C73.2915 74.8622 73.3668 75.196 73.3668 75.5852V80H71.6452V79.0923H71.5941C71.489 79.2969 71.3484 79.4773 71.1722 79.6335C70.9961 79.7869 70.7844 79.9077 70.5373 79.9957C70.2901 80.081 70.0046 80.1236 69.6808 80.1236ZM70.2006 78.8707C70.4677 78.8707 70.7035 78.8182 70.908 78.7131C71.1126 78.6051 71.2731 78.4602 71.3896 78.2784C71.506 78.0966 71.5643 77.8906 71.5643 77.6605V76.9659C71.5075 77.0028 71.4293 77.0369 71.3299 77.0682C71.2333 77.0966 71.1239 77.1236 71.0018 77.1491C70.8796 77.1719 70.7575 77.1932 70.6353 77.2131C70.5131 77.2301 70.4023 77.2457 70.3029 77.2599C70.0898 77.2912 69.9038 77.3409 69.7447 77.4091C69.5856 77.4773 69.462 77.5696 69.3739 77.6861C69.2859 77.7997 69.2418 77.9418 69.2418 78.1122C69.2418 78.3594 69.3313 78.5483 69.5103 78.679C69.6921 78.8068 69.9222 78.8707 70.2006 78.8707ZM80.2212 75.321L78.5593 75.4233C78.5309 75.2812 78.4698 75.1534 78.3761 75.0398C78.2823 74.9233 78.1587 74.831 78.0053 74.7628C77.8548 74.6918 77.6744 74.6562 77.4641 74.6562C77.1829 74.6562 76.9457 74.7159 76.7525 74.8352C76.5593 74.9517 76.4627 75.108 76.4627 75.304C76.4627 75.4602 76.5252 75.5923 76.6502 75.7003C76.7752 75.8082 76.9897 75.8949 77.2937 75.9602L78.4783 76.1989C79.1147 76.3295 79.5891 76.5398 79.9016 76.8295C80.2141 77.1193 80.3704 77.5 80.3704 77.9716C80.3704 78.4006 80.244 78.777 79.9911 79.1009C79.7411 79.4247 79.3974 79.6776 78.9599 79.8594C78.5252 80.0384 78.0238 80.1278 77.4556 80.1278C76.5891 80.1278 75.8988 79.9474 75.3846 79.5866C74.8732 79.223 74.5735 78.7287 74.4854 78.1037L76.271 78.0099C76.3249 78.2741 76.4556 78.4759 76.663 78.6151C76.8704 78.7514 77.136 78.8196 77.4599 78.8196C77.7781 78.8196 78.0337 78.7585 78.2269 78.6364C78.4229 78.5114 78.5224 78.3509 78.5252 78.1548C78.5224 77.9901 78.4528 77.8551 78.3164 77.75C78.18 77.642 77.9698 77.5597 77.6857 77.5028L76.5522 77.277C75.913 77.1491 75.4371 76.9276 75.1246 76.6122C74.815 76.2969 74.6602 75.8949 74.6602 75.4062C74.6602 74.9858 74.7738 74.6236 75.0011 74.3196C75.2312 74.0156 75.5536 73.7812 75.9684 73.6165C76.386 73.4517 76.8746 73.3693 77.4343 73.3693C78.261 73.3693 78.9116 73.544 79.386 73.8935C79.8633 74.2429 80.1417 74.7187 80.2212 75.321ZM83.3288 71.2727V80H81.5135V71.2727H83.3288ZM87.766 80.1278C87.0927 80.1278 86.5131 79.9915 86.0273 79.7188C85.5444 79.4432 85.1722 79.054 84.9109 78.5511C84.6495 78.0455 84.5188 77.4474 84.5188 76.7571C84.5188 76.0838 84.6495 75.4929 84.9109 74.9844C85.1722 74.4759 85.5401 74.0795 86.0146 73.7955C86.4918 73.5114 87.0515 73.3693 87.6935 73.3693C88.1254 73.3693 88.5273 73.4389 88.8995 73.5781C89.2745 73.7145 89.6012 73.9205 89.8796 74.196C90.1609 74.4716 90.3796 74.8182 90.5359 75.2358C90.6921 75.6506 90.7702 76.1364 90.7702 76.6932V77.1918H85.2433V76.0668H89.0614C89.0614 75.8054 89.0046 75.5739 88.891 75.3722C88.7773 75.1705 88.6197 75.0128 88.418 74.8991C88.2191 74.7827 87.9876 74.7244 87.7234 74.7244C87.4478 74.7244 87.2035 74.7884 86.9904 74.9162C86.7802 75.0412 86.6154 75.2102 86.4961 75.4233C86.3768 75.6335 86.3157 75.8679 86.3129 76.1264V77.196C86.3129 77.5199 86.3725 77.7997 86.4918 78.0355C86.614 78.2713 86.7859 78.4531 87.0075 78.581C87.229 78.7088 87.4918 78.7727 87.7958 78.7727C87.9975 78.7727 88.1822 78.7443 88.3498 78.6875C88.5174 78.6307 88.6609 78.5455 88.7802 78.4318C88.8995 78.3182 88.9904 78.179 89.0529 78.0142L90.7319 78.125C90.6467 78.5284 90.4719 78.8807 90.2077 79.1818C89.9464 79.4801 89.6083 79.7131 89.1935 79.8807C88.7816 80.0455 88.3058 80.1278 87.766 80.1278ZM94.3668 80.1065C93.8697 80.1065 93.4194 79.9787 93.016 79.723C92.6154 79.4645 92.2972 79.0852 92.0614 78.5852C91.8285 78.0824 91.712 77.4659 91.712 76.7358C91.712 75.9858 91.8327 75.3622 92.0742 74.8651C92.3157 74.3651 92.6367 73.9915 93.0373 73.7443C93.4407 73.4943 93.8825 73.3693 94.3626 73.3693C94.729 73.3693 95.0344 73.4318 95.2788 73.5568C95.5259 73.679 95.7248 73.8324 95.8754 74.017C96.0288 74.1989 96.1452 74.3778 96.2248 74.554H96.2802V71.2727H98.0913V80H96.3015V78.9517H96.2248C96.1396 79.1335 96.0188 79.3139 95.8626 79.4929C95.7092 79.669 95.5089 79.8153 95.2617 79.9318C95.0174 80.0483 94.7191 80.1065 94.3668 80.1065ZM94.9421 78.6619C95.2347 78.6619 95.4819 78.5824 95.6836 78.4233C95.8881 78.2614 96.0444 78.0355 96.1523 77.7457C96.2631 77.456 96.3185 77.1165 96.3185 76.7273C96.3185 76.3381 96.2646 76 96.1566 75.7131C96.0487 75.4261 95.8924 75.2045 95.6879 75.0483C95.4833 74.892 95.2347 74.8139 94.9421 74.8139C94.6438 74.8139 94.3924 74.8949 94.1879 75.0568C93.9833 75.2187 93.8285 75.4432 93.7234 75.7301C93.6183 76.017 93.5657 76.3494 93.5657 76.7273C93.5657 77.108 93.6183 77.4446 93.7234 77.7372C93.8313 78.027 93.9862 78.2543 94.1879 78.419C94.3924 78.581 94.6438 78.6619 94.9421 78.6619ZM105.03 75.321L103.368 75.4233C103.339 75.2812 103.278 75.1534 103.185 75.0398C103.091 74.9233 102.967 74.831 102.814 74.7628C102.663 74.6918 102.483 74.6562 102.273 74.6562C101.991 74.6562 101.754 74.7159 101.561 74.8352C101.368 74.9517 101.271 75.108 101.271 75.304C101.271 75.4602 101.334 75.5923 101.459 75.7003C101.584 75.8082 101.798 75.8949 102.102 75.9602L103.287 76.1989C103.923 76.3295 104.398 76.5398 104.71 76.8295C105.023 77.1193 105.179 77.5 105.179 77.9716C105.179 78.4006 105.053 78.777 104.8 79.1009C104.55 79.4247 104.206 79.6776 103.768 79.8594C103.334 80.0384 102.832 80.1278 102.264 80.1278C101.398 80.1278 100.707 79.9474 100.193 79.5866C99.6818 79.223 99.3821 78.7287 99.294 78.1037L101.08 78.0099C101.134 78.2741 101.264 78.4759 101.472 78.6151C101.679 78.7514 101.945 78.8196 102.268 78.8196C102.587 78.8196 102.842 78.7585 103.036 78.6364C103.232 78.5114 103.331 78.3509 103.334 78.1548C103.331 77.9901 103.261 77.8551 103.125 77.75C102.989 77.642 102.778 77.5597 102.494 77.5028L101.361 77.277C100.722 77.1491 100.246 76.9276 99.9332 76.6122C99.6236 76.2969 99.4688 75.8949 99.4688 75.4062C99.4688 74.9858 99.5824 74.6236 99.8097 74.3196C100.04 74.0156 100.362 73.7812 100.777 73.6165C101.195 73.4517 101.683 73.3693 102.243 73.3693C103.07 73.3693 103.72 73.544 104.195 73.8935C104.672 74.2429 104.95 74.7187 105.03 75.321ZM109.804 73.4545V74.8182H105.862V73.4545H109.804ZM106.757 71.8864H108.572V77.9886C108.572 78.1562 108.598 78.2869 108.649 78.3807C108.7 78.4716 108.771 78.5355 108.862 78.5724C108.956 78.6094 109.064 78.6278 109.186 78.6278C109.271 78.6278 109.356 78.6207 109.441 78.6065C109.527 78.5895 109.592 78.5767 109.637 78.5682L109.923 79.919C109.832 79.9474 109.704 79.9801 109.539 80.017C109.375 80.0568 109.174 80.081 108.939 80.0895C108.501 80.1065 108.118 80.0483 107.788 79.9148C107.461 79.7812 107.207 79.5739 107.025 79.2926C106.843 79.0114 106.754 78.6562 106.757 78.2273V71.8864ZM117.088 73.4545L114.8 80H112.755L110.466 73.4545H112.384L113.743 78.1378H113.811L115.167 73.4545H117.088ZM120.764 80.1278C120.102 80.1278 119.529 79.9872 119.047 79.706C118.566 79.4219 118.196 79.027 117.934 78.5213C117.673 78.0128 117.542 77.4233 117.542 76.7528C117.542 76.0767 117.673 75.4858 117.934 74.9801C118.196 74.4716 118.566 74.0767 119.047 73.7955C119.529 73.5114 120.102 73.3693 120.764 73.3693C121.426 73.3693 121.997 73.5114 122.477 73.7955C122.96 74.0767 123.332 74.4716 123.593 74.9801C123.855 75.4858 123.985 76.0767 123.985 76.7528C123.985 77.4233 123.855 78.0128 123.593 78.5213C123.332 79.027 122.96 79.4219 122.477 79.706C121.997 79.9872 121.426 80.1278 120.764 80.1278ZM120.772 78.7216C121.074 78.7216 121.325 78.6364 121.527 78.4659C121.728 78.2926 121.88 78.0568 121.983 77.7585C122.088 77.4602 122.14 77.1207 122.14 76.7401C122.14 76.3594 122.088 76.0199 121.983 75.7216C121.88 75.4233 121.728 75.1875 121.527 75.0142C121.325 74.8409 121.074 74.7543 120.772 74.7543C120.468 74.7543 120.213 74.8409 120.005 75.0142C119.801 75.1875 119.646 75.4233 119.541 75.7216C119.439 76.0199 119.387 76.3594 119.387 76.7401C119.387 77.1207 119.439 77.4602 119.541 77.7585C119.646 78.0568 119.801 78.2926 120.005 78.4659C120.213 78.6364 120.468 78.7216 120.772 78.7216ZM126.227 80.1108C125.946 80.1108 125.704 80.0114 125.502 79.8125C125.304 79.6108 125.204 79.3693 125.204 79.0881C125.204 78.8097 125.304 78.571 125.502 78.3722C125.704 78.1733 125.946 78.0739 126.227 78.0739C126.5 78.0739 126.738 78.1733 126.943 78.3722C127.147 78.571 127.25 78.8097 127.25 79.0881C127.25 79.2756 127.201 79.4474 127.105 79.6037C127.011 79.7571 126.887 79.8807 126.734 79.9744C126.581 80.0653 126.412 80.1108 126.227 80.1108ZM128.74 80V73.4545H130.5V74.5966H130.568C130.688 74.1903 130.888 73.8835 131.169 73.6761C131.45 73.4659 131.774 73.3608 132.141 73.3608C132.232 73.3608 132.33 73.3665 132.435 73.3778C132.54 73.3892 132.632 73.4048 132.712 73.4247V75.0355C132.626 75.0099 132.509 74.9872 132.358 74.9673C132.207 74.9474 132.07 74.9375 131.945 74.9375C131.678 74.9375 131.439 74.9957 131.229 75.1122C131.021 75.2259 130.857 75.3849 130.734 75.5895C130.615 75.794 130.555 76.0298 130.555 76.2969V80H128.74ZM137.848 77.2131V73.4545H139.663V80H137.92V78.8111H137.852C137.704 79.1946 137.458 79.5028 137.115 79.7358C136.774 79.9687 136.358 80.0852 135.866 80.0852C135.429 80.0852 135.044 79.9858 134.711 79.7869C134.379 79.5881 134.119 79.3054 133.931 78.9389C133.747 78.5724 133.653 78.1335 133.65 77.6222V73.4545H135.466V77.2983C135.468 77.6847 135.572 77.9901 135.777 78.2145C135.981 78.4389 136.255 78.5511 136.599 78.5511C136.818 78.5511 137.022 78.5014 137.213 78.402C137.403 78.2997 137.556 78.1491 137.673 77.9503C137.792 77.7514 137.85 77.5057 137.848 77.2131Z" fill="#042668"/>
<rect x="173" y="23" width="30" height="62" rx="4" fill="#F9F7F7" stroke="#042668" stroke-width="2"/>
<rect x="174" y="24" width="28" height="6" fill="#042668"/>
<rect x="174" y="78" width="28" height="6" fill="#042668"/>
<circle cx="188" cy="82" r="2" fill="#4F4F4F"/>
<rect x="217.5" y="19.5" width="77" height="69" rx="6.5" fill="#F9F7F7" stroke="#042668" stroke-width="3"/>
<rect x="219" y="82" width="74" height="6" fill="#042668"/>
<circle cx="256" cy="86" r="2" fill="#4F4F4F"/>
</svg>
