<svg width="430" height="380" viewBox="0 0 430 380" fill="none" xmlns="http://www.w3.org/2000/svg">
<ellipse cx="221.933" cy="190" rx="169.933" ry="170" fill="#EBF2FF"/>
<path d="M391.365 218.134L390.049 228.697L386.785 254.933H321.213C321.725 249.053 322.425 240.589 323.173 231.452C323.247 230.539 323.324 229.621 323.398 228.697C325.273 205.729 327.325 179.737 327.325 179.737L335.946 181.357L352.671 184.494L359.487 185.772L377.737 189.2C386.837 190.905 393.096 204.194 391.365 218.134V218.134Z" fill="white"/>
<path d="M341.765 137.234L349.829 151.467L334.331 162.546L327.719 145.051L341.765 137.234Z" fill="#FFDEC2"/>
<path d="M331.5 150.699C342.532 150.699 351.476 141.678 351.476 130.55C351.476 119.422 342.532 110.4 331.5 110.4C320.467 110.4 311.523 119.422 311.523 130.55C311.523 141.678 320.467 150.699 331.5 150.699Z" fill="#FFDEC2"/>
<path d="M330.066 135.054C328.479 132.619 329.102 131.346 327.774 130.451C327.774 130.451 327.24 130.091 323.415 129.885C322.559 123.669 321.49 122.916 321.49 122.915C320.258 122.047 318.43 122.329 317.293 122.86C314.887 123.984 315.166 126.412 313.546 126.876C311.309 127.518 307.238 123.9 306.837 119.759C306.51 116.381 308.668 113.099 309.524 113.273C310.372 113.445 312.404 110.829 313.501 110.869C314.25 110.897 317.311 109.555 318.135 109.66C319.034 109.774 321.999 111.335 322.123 110.978C322.981 108.5 322.729 107.813 323.458 107.104C324.748 105.848 326.86 106.723 330.174 107.192C336.99 108.159 338.18 105.891 341.674 107.428C343.438 108.204 344.915 110.298 347.796 114.453C351.826 120.264 353.84 123.17 353.853 126.559C353.866 130.015 352.207 129.796 351.478 134.912C350.667 140.608 352.391 143.212 350.508 145.062C349.052 146.492 346.094 146.832 344.54 145.577C341.878 143.428 345.361 138.243 342.416 134.454C340.608 132.129 336.973 131.094 335.308 132.244C333.425 133.543 334.462 137.358 333.138 137.72C332.004 138.03 330.342 135.479 330.066 135.054L330.066 135.054Z" fill="#2F2E41"/>
<path d="M376.6 214.413C376.042 224.023 373.829 227.057 373.054 238.406C372.885 240.897 372.783 243.789 372.783 247.238C372.783 248.118 372.788 248.968 372.788 249.798C372.788 251.567 372.754 253.238 372.55 254.933C372.396 256.286 372.129 257.649 371.689 259.085H328.664C328.659 259.076 328.659 259.066 328.654 259.056C328.403 257.952 328.243 256.897 328.122 255.886C328.083 255.563 328.049 255.246 328.02 254.933C327.981 254.566 327.947 254.205 327.913 253.848C327.782 252.427 327.652 251.083 327.342 249.798C326.925 248.025 326.17 246.354 324.62 244.742C323.985 244.082 323.351 243.57 322.731 243.12C322.61 243.037 322.493 242.954 322.372 242.871C320.658 241.684 319.035 240.829 317.631 238.406C317.606 238.371 317.587 238.332 317.568 238.298C317.326 237.873 316.696 236.759 316.24 235.274C315.761 233.73 315.47 231.791 315.994 229.807C317.238 225.108 321.849 224.639 325.618 219.89C326.024 219.377 326.426 218.81 326.809 218.18C328.514 215.386 328.974 212.924 329.516 209.997C329.603 209.523 329.681 209.054 329.744 208.6C329.793 208.258 329.836 207.921 329.87 207.588C330.17 204.799 330.025 202.395 329.672 200.246C328.519 193.206 325.119 188.848 327.521 182.531C328.277 180.548 329.347 179.058 330.427 177.783C332.713 175.081 335.062 173.327 334.656 169.839C334.244 166.322 331.599 165.838 331.304 162.765C331.153 161.212 331.657 159.575 332.602 157.968V157.963C335.624 152.789 343.17 148.026 347.965 148.177C348.851 148.202 349.636 148.402 350.29 148.788C352.659 150.195 351.671 153.268 355.298 157.577C357.996 160.777 361.047 162.057 362.205 162.662C366.792 165.076 370.521 172.194 373.054 181.295C373.073 181.364 373.093 181.432 373.112 181.506C374.677 187.207 375.781 193.68 376.329 200.246C376.561 203.026 376.697 205.82 376.725 208.585C376.75 210.793 376.701 212.709 376.6 214.413Z" fill="#073BA1"/>
<path d="M344.381 247.336L343.504 249.799L342.952 251.342L341.673 254.933L340.192 259.086H330.665L332.263 254.933L333.004 252.999L334.234 249.799L336.297 244.425L344.381 247.336Z" fill="#FFDEC2"/>
<path d="M373.204 180.456C373.18 180.773 373.146 181.125 373.112 181.506C372.735 185.385 371.843 192.327 370.54 200.247C369.853 204.423 369.049 208.874 368.143 213.295C366.196 222.837 363.774 232.231 361.038 238.406C360.549 239.52 360.045 240.527 359.531 241.416C359.139 242.095 358.727 242.764 358.296 243.424C356.901 245.588 355.337 247.64 353.714 249.555C353.651 249.638 353.578 249.716 353.506 249.799C353.245 250.112 352.973 250.42 352.702 250.727C351.375 252.237 350.019 253.644 348.706 254.934C347.108 256.507 345.567 257.899 344.187 259.086H328.717L328.654 259.057L326.426 258.06C326.426 258.06 327.061 257.308 328.121 255.886C328.34 255.598 328.572 255.28 328.824 254.934C329.134 254.508 329.468 254.04 329.826 253.531C330.572 252.467 331.42 251.216 332.33 249.799C334.093 247.058 336.103 243.687 338.133 239.784C338.366 239.33 338.603 238.87 338.84 238.406C338.845 238.392 338.855 238.377 338.859 238.362C339.261 237.571 339.659 236.755 340.056 235.924C343.422 228.86 344.386 222.998 344.662 221.098C345.049 218.411 345.587 214.653 345.442 210.52C345.345 207.795 344.952 204.912 344.018 202.049V202.044C343.824 201.444 343.606 200.843 343.359 200.247C342.918 199.177 342.395 198.121 341.775 197.081C339.039 192.498 336.816 192.308 335.048 187.315C334.524 185.835 333.338 182.493 333.701 178.966V178.961C333.745 178.526 333.817 178.087 333.914 177.647V177.642C333.938 177.52 333.972 177.393 334.006 177.271C334.282 176.191 334.738 175.121 335.43 174.105C336.782 172.131 338.627 170.959 340.278 170.26L340.284 170.255C342.192 169.454 343.839 169.283 344.158 169.254C351.234 168.619 356.722 174.618 359.72 177.896C360.878 179.161 361.939 180.221 362.907 181.086C370.448 187.877 372.517 183.538 373.054 181.296C373.136 180.949 373.18 180.651 373.204 180.456V180.456Z" fill="#073BA1"/>
<path d="M373.229 180.202C373.229 180.226 373.224 180.309 373.205 180.446C373.214 180.372 373.219 180.299 373.224 180.231C373.224 180.217 373.224 180.207 373.229 180.202Z" fill="#073BA1"/>
<path d="M334.762 283.288H75.1285C72.7162 283.288 70.75 285.529 70.75 288.286C70.75 291.047 72.7162 293.288 75.1285 293.288H334.762C337.174 293.288 339.136 291.047 339.136 288.286C339.136 285.529 337.174 283.288 334.762 283.288Z" fill="white"/>
<path d="M277.144 306.093H132.741C130.329 306.093 128.368 308.334 128.368 311.09C128.368 313.846 130.329 316.093 132.741 316.093H277.144C279.556 316.093 281.523 313.846 281.523 311.09C281.523 308.334 279.556 306.093 277.144 306.093Z" fill="white"/>
<path d="M104.02 138.171L120.382 131.226L127.401 145.738L110.206 152.817L104.02 138.171Z" fill="#FFDEC2"/>
<path opacity="0.1" d="M104.02 138.171L120.382 131.226L127.401 145.738L110.206 152.817L104.02 138.171Z" fill="#042668"/>
<path d="M106.345 132.641L122.488 151.401C122.488 151.401 111.258 187.151 100.029 190.337C88.7992 193.522 68.095 209.096 68.095 209.096L42.127 192.106L54.7601 173.347C54.7601 173.347 85.2901 131.226 93.3612 131.226C101.432 131.226 106.345 132.641 106.345 132.641V132.641Z" fill="#073BA1"/>
<path d="M84.5355 254.933H46.9591L44.5834 251.73L34.8839 238.651L32.6521 235.643C32.6521 235.643 24.23 220.069 25.9846 205.91C27.7392 191.752 45.987 188.566 45.987 188.566H46.738L69.0775 208.367L67.7441 226.794L74.8186 238.651L84.5355 254.933Z" fill="#2F2E41"/>
<path d="M54.6549 254.934H44.5835V239.891L54.6549 254.934Z" fill="#2F2E41"/>
<path d="M271.881 232.096L270.628 238.651L267.519 254.933H205.059C205.547 251.284 206.214 246.031 206.926 240.361C206.996 239.795 207.07 239.225 207.14 238.651C208.926 224.397 210.881 208.268 210.881 208.268L219.092 209.273L235.024 211.22L241.516 212.012L258.901 214.14C267.568 215.198 273.53 223.445 271.881 232.096H271.881Z" fill="white"/>
<path d="M360.274 254.933H326.396C326.912 254.321 327.204 253.967 327.204 253.967L337.359 252.275L358.284 248.792C358.284 248.792 359.239 251.28 360.274 254.933V254.933Z" fill="#2F2E41"/>
<path d="M216.574 145.251L231.307 166.267L205.608 167.041L202.85 147.291L216.574 145.251Z" fill="#FFDEC2"/>
<path opacity="0.1" d="M216.574 145.251L231.307 166.267L205.608 167.041L202.85 147.291L216.574 145.251Z" fill="#042668"/>
<path d="M143.918 188.794C142.028 183.294 137.682 179.819 134.211 181.033C130.741 182.247 129.461 187.689 131.353 193.192C132.079 195.4 133.318 197.401 134.968 199.027L143.269 222.231L153.982 218.07L144.661 195.636C144.958 193.329 144.704 190.982 143.918 188.794Z" fill="#FFDEC2"/>
<path d="M243.645 178.086L243.625 199.504L241.65 207.415L237.586 223.686L234.628 238.651L232.424 249.801L231.638 253.783C231.045 254.183 230.455 254.565 229.866 254.933H178.537C175.621 253.167 173.989 251.794 173.989 251.794C173.989 251.794 174.796 251.029 175.719 249.801C177.277 247.727 179.161 244.329 178.007 241.083C177.765 240.403 177.702 239.575 177.775 238.651C178.245 232.556 184.583 222.249 184.583 222.249L183.271 206.951L182.695 200.247L186.753 167.559L199.979 159.804L202.262 159.581L224.802 158.353L234.118 158.894L234.543 159.011L243.645 178.086V178.086Z" fill="#EC3D5A"/>
<path d="M244.646 254.934H233.417L232.922 249.801L232.912 249.699L236.091 249.479L244.362 248.909L244.506 251.982L244.618 254.339L244.646 254.934Z" fill="#FFDEC2"/>
<path d="M247.411 183.264L252.128 211.181L248.278 238.652L247.678 242.927L246.618 250.477L246.292 252.799L246.303 253.051L246.383 254.934H233.048L232.557 249.801L232.515 249.341L231.511 238.829L231.494 238.652L229.364 216.359L233.54 200.247L233.849 199.061V199.058L235.665 171.47L234.258 158.933L234.244 158.816C234.272 158.834 234.297 158.852 234.325 158.87C234.399 158.916 234.472 158.962 234.542 159.011C242.74 164.257 247.625 173.46 247.411 183.264Z" fill="#EC3D5A"/>
<path d="M191.53 172.908L186.402 167.559C186.402 167.559 175.424 172.55 174.877 175.32C174.33 178.089 154.948 218.763 154.948 218.763L146.516 196.047L135.54 203.439C135.54 203.439 144.347 238.707 152.584 240.363C160.82 242.018 188.426 198.619 188.426 198.619L191.53 172.908H191.53Z" fill="#EC3D5A"/>
<path d="M400.479 239H29.6696C24.4211 239 20.1528 243.264 20.1528 248.502C20.1528 253.74 24.4211 258 29.6696 258H400.479C405.727 258 410 253.74 410 248.502C410 243.264 405.727 239 400.479 239Z" fill="white"/>
<path d="M241.308 206.892L240.532 243.435C240.457 246.973 237.592 249.801 234.084 249.801H167.437C164.012 249.801 161.184 247.101 160.997 243.651L159.017 207.107C158.815 203.381 161.756 200.247 165.456 200.247H234.86C238.476 200.247 241.386 203.245 241.308 206.892Z" fill="#042668"/>
<path d="M133.718 146.992C142.524 146.992 149.663 139.791 149.663 130.909C149.663 122.026 142.524 114.825 133.718 114.825C124.911 114.825 117.772 122.026 117.772 130.909C117.772 139.791 124.911 146.992 133.718 146.992Z" fill="#FFDEC2"/>
<path d="M107.047 172.992L108.802 192.106L120.733 240.598L110.425 244.242L93.0103 191.398L90.605 170.16L107.047 172.992Z" fill="#FFDEC2"/>
<path d="M102.301 206.892L101.525 243.435C101.45 246.973 98.5852 249.801 95.0773 249.801H28.4301C25.0051 249.801 22.1774 247.101 21.9905 243.651L20.0098 207.107C19.8078 203.381 22.7493 200.247 26.4495 200.247H95.8536C99.4695 200.247 102.379 203.245 102.301 206.892Z" fill="#042668"/>
<path d="M122.633 250.048C129.588 250.048 135.226 247.533 135.226 244.43C135.226 241.327 129.588 238.812 122.633 238.812C115.678 238.812 110.04 241.327 110.04 244.43C110.04 247.533 115.678 250.048 122.633 250.048Z" fill="#FFDEC2"/>
<path d="M82.3076 175.914L89.5015 137.242C89.5015 137.242 109.504 134.41 110.206 141.136C110.908 147.861 109.704 180.728 109.704 180.728L82.3076 175.914V175.914Z" fill="#073BA1"/>
<path d="M127.28 133.438C127.28 133.438 137.144 129.887 141.305 127.976C145.466 126.066 153.732 139.392 153.916 132.354C154.1 125.316 151.243 122.365 151.243 122.365C151.243 122.365 150.53 106.968 135.152 108.893C135.152 108.893 138.534 101.19 127.431 99.9991C116.328 98.808 99.0535 125.853 100.601 129.895C102.148 133.937 104.002 137.278 99.613 141.6C95.224 145.921 87.0053 170.311 93.2584 176.874C99.5115 183.437 99.9218 186.285 95.6375 190.368C91.3531 194.451 81.2261 203.329 92.1758 204.87C103.125 206.411 91.174 205.26 99.3371 198.018C107.5 190.775 119.412 191.071 114.964 179.451C110.517 167.831 118.244 151.18 117.277 148.653C116.31 146.127 119.443 130.087 119.443 130.087C119.443 130.087 126.735 129.006 127.28 133.438V133.438Z" fill="#2F2E41"/>
<path d="M208.697 152.857C218.283 152.857 226.055 145.018 226.055 135.349C226.055 125.679 218.283 117.841 208.697 117.841C199.11 117.841 191.339 125.679 191.339 135.349C191.339 145.018 199.11 152.857 208.697 152.857Z" fill="#FFDEC2"/>
<path d="M210.082 111.81C209.58 112.106 208.907 111.659 208.746 111.095C208.585 110.531 208.773 109.933 208.959 109.377L209.895 106.579C210.56 104.595 211.265 102.541 212.703 101.031C214.874 98.7512 218.325 98.1712 221.431 98.5914C225.42 99.1309 229.356 101.31 231.211 104.912C233.066 108.515 232.276 113.542 228.924 115.79C233.701 121.312 235.366 127.467 235.103 134.79C234.84 142.114 226.928 148.854 221.768 154.013C220.615 153.309 219.568 150.007 220.202 148.807C220.835 147.608 219.927 146.218 220.712 145.113C221.497 144.008 222.153 145.768 221.36 144.669C220.859 143.976 222.813 142.381 222.069 141.966C218.47 139.959 217.273 135.434 215.012 131.968C212.285 127.788 207.618 124.957 202.679 124.488C199.959 124.229 197.085 124.698 194.855 126.291C192.625 127.884 191.181 130.731 191.698 133.438C190.359 132.066 189.692 130.056 189.944 128.148C190.195 126.239 191.359 124.474 193.007 123.503C192.005 120.161 192.864 116.316 195.189 113.73C197.515 111.144 206.95 111.584 210.345 112.265L210.082 111.81Z" fill="#2F2E41"/>
<path d="M210.609 124.589C215.106 125.079 218.353 129.008 221.095 132.636C222.676 134.728 224.331 137.037 224.291 139.667C224.251 142.325 222.489 144.605 221.647 147.125C220.27 151.242 221.612 156.142 224.889 158.963C221.651 159.583 218.151 157.134 217.592 153.858C216.941 150.045 219.807 146.364 219.468 142.51C219.169 139.114 216.516 136.5 214.26 133.961C212.005 131.422 209.886 128.053 210.924 124.809L210.609 124.589Z" fill="#2F2E41"/>
<path d="M277.84 240.619C273.386 243.174 271.083 247.564 272.695 250.423C274.308 253.282 279.226 253.528 283.682 250.971C285.475 249.974 287.006 248.558 288.147 246.842L306.885 235.774L301.548 227.016L283.642 238.857C281.596 238.968 279.607 239.573 277.84 240.619Z" fill="#FFDEC2"/>
<path d="M341.284 159.455C340.724 159.231 335.81 157.354 331.325 159.832C326.172 162.678 325.377 169.176 325.097 171.455C324.453 176.719 326.352 177.899 326.753 183.229C327.503 193.2 329.482 181.825 326.322 186.376C325.229 187.952 314.06 212.366 307.901 217.148C295.921 226.448 288.314 232.998 288.314 232.998L296.998 242.514C296.998 242.514 310.722 238.825 322.851 230.881C335.293 222.732 341.514 218.658 346.327 210.688C346.741 210.001 356.659 193.014 351.333 174.231C350.118 169.946 347.892 162.096 341.284 159.455Z" fill="#073BA1"/>
<path d="M386.128 206.892L385.351 243.435C385.276 246.973 382.411 249.801 378.903 249.801H312.256C308.831 249.801 306.004 247.101 305.817 243.651L303.836 207.107C303.634 203.381 306.575 200.247 310.276 200.247H379.68C383.296 200.247 386.205 203.245 386.128 206.892Z" fill="#042668"/>
</svg>
