<svg width="440" height="400" viewBox="0 0 440 400" fill="none" xmlns="http://www.w3.org/2000/svg">
<ellipse cx="225.491" cy="200.5" rx="188.491" ry="187.5" fill="#EBF2FF"/>
<path d="M177.741 133.648C176.761 131.663 176.395 129.424 176.04 127.227C173.962 114.262 172.018 100.265 177.662 88.5145C178.551 86.6662 179.63 84.8687 181.204 83.6066C182.888 82.2584 184.978 81.6176 186.93 80.7423C192.598 78.2101 197.163 73.6655 202.146 69.8947C207.128 66.1238 213.142 62.9782 219.246 63.9394C222.395 64.4357 225.307 65.9988 228.361 66.9796C236.988 69.754 246.946 67.9448 254.695 72.7551C257.493 74.494 259.776 76.9753 262.02 79.4293L272.028 90.3707C274.74 93.3327 277.503 96.3689 279.144 100.081C280.785 103.793 281.131 108.369 279.041 111.831C277.991 113.578 276.33 115.09 276.149 117.142C275.952 119.369 277.581 121.284 278.176 123.433C279.75 129.111 273.976 133.984 268.71 136.227C252.798 142.987 235.292 142.209 218.447 141.932C205.904 141.717 184.974 148.254 177.741 133.648Z" fill="#3F3D56"/>
<path d="M206.038 161.748C204.932 164.37 202.555 166.222 200.205 167.852C197.856 169.481 195.349 171.033 192.519 171.166C197.506 177.531 204.326 182.212 210.993 186.796C214.098 188.926 217.247 191.051 220.789 192.255C224.04 193.357 227.5 193.631 230.9 194.092C235.229 194.682 239.539 195.592 243.888 195.412C251.637 195.092 259.048 191.212 264.188 185.444C269.328 179.676 272.272 172.158 273.067 164.487C270.312 164.444 267.77 162.924 265.546 161.268C262.826 159.247 260.276 156.91 258.521 154.023C256.62 150.897 255.766 147.27 254.9 143.718C245.726 143.445 236.552 143.175 227.374 143.351C224.032 143.414 220.683 143.542 217.424 144.367C214.319 145.149 207.833 147.165 205.94 149.943C204.85 151.545 205.94 153.194 206.333 154.922C206.837 157.192 206.963 159.564 206.038 161.748Z" fill="#FFDEC2"/>
<path opacity="0.1" d="M206.038 161.748C204.932 164.37 202.555 166.222 200.205 167.852C197.856 169.481 195.349 171.033 192.519 171.166C197.506 177.531 204.326 182.212 210.993 186.796C214.098 188.926 217.247 191.051 220.789 192.255C224.04 193.357 227.5 193.631 230.9 194.092C235.229 194.682 239.539 195.592 243.888 195.412C251.637 195.092 259.048 191.212 264.188 185.444C269.328 179.676 272.272 172.158 273.067 164.487C270.312 164.444 267.77 162.924 265.546 161.268C262.826 159.247 260.276 156.91 258.521 154.023C256.62 150.897 255.766 147.27 254.9 143.718C245.726 143.445 236.552 143.175 227.374 143.351C224.032 143.414 220.683 143.542 217.424 144.367C214.319 145.149 207.833 147.165 205.94 149.943C204.85 151.545 205.94 153.194 206.333 154.922C206.837 157.192 206.963 159.564 206.038 161.748Z" fill="#042668"/>
<path d="M216.417 172.545C219.042 175.784 221.746 179.09 225.343 181.216C226.441 181.861 227.669 182.388 228.944 182.345C230.833 182.267 232.396 180.931 233.781 179.649C240.698 173.256 247.267 166.502 253.459 159.415C255.4 157.192 257.395 154.874 260.052 153.581C262.452 175.088 263.079 196.754 261.925 218.362C261.938 218.77 261.843 219.174 261.65 219.534C261.236 220.155 260.371 220.245 259.619 220.273C237.402 221.101 214.295 221.765 193.948 212.848C195.361 208.687 195.128 204.185 195.266 199.793C195.491 192.591 196.75 185.46 198.49 178.477C199.344 175.05 200.316 171.654 201.347 168.278C202.205 165.449 202.858 160.462 204.775 158.325C209.183 162.233 212.713 167.973 216.417 172.545Z" fill="#EBF2FF"/>
<path d="M226.504 183.018H229.259L236.343 194.74L228.865 213.106L219.813 195.131L226.504 183.018Z" fill="#3F3D56"/>
<path d="M226.256 201.54C223.694 197.828 221.929 193.633 221.069 189.215C220.793 187.8 220.608 186.358 220.104 185.006C219.357 183.002 217.948 181.321 216.676 179.59C211.963 173.17 208.927 165.689 207.841 157.817C207.353 154.245 207.026 150.154 204.122 147.993C202.295 146.637 199.863 146.43 197.58 146.469C188.752 146.688 180.296 150.048 173.754 155.937C172.666 157.009 171.516 158.016 170.31 158.954C169.074 159.793 167.755 160.506 166.374 161.08C162.887 162.643 159.243 163.94 155.445 164.335C154.469 164.375 153.501 164.534 152.564 164.808C151.43 165.199 150.498 166.023 149.541 166.762C146.486 169.098 142.977 170.78 139.234 171.701C133.952 183.879 129.866 196.534 127.033 209.492C126.321 212.715 125.683 215.963 124.711 219.12C123.369 223.497 121.393 227.67 120.075 232.054C114.832 249.502 120.338 268.509 116.808 286.37L306.139 286.628C303.163 282.045 304.234 276.222 303.978 270.775C303.738 265.758 302.455 260.854 301.565 255.906C300.078 247.634 299.696 239.201 299.542 230.8C299.48 227.252 299.476 223.586 300.857 220.316C303.451 214.177 310.181 210.937 316.553 208.855C319.599 207.862 322.802 206.956 325.211 204.834C327.679 202.642 328.962 199.422 329.749 196.237C325.455 187.835 319.874 179.825 312.825 173.522C310.177 171.177 307.347 168.977 305.112 166.234C303.75 164.558 302.62 162.69 301.117 161.154C297.354 157.274 291.671 155.812 286.256 155.598C284.583 155.531 282.887 155.562 281.265 155.148C276.613 153.976 273.65 149.463 269.458 147.126C266.542 145.51 263.137 144.991 259.867 145.664C257.505 146.153 255.089 147.544 254.557 149.857C254.262 151.158 254.624 152.503 254.762 153.827C255.187 157.903 253.483 161.897 251.421 165.445C244.01 178.109 231.892 187.992 226.256 201.54Z" fill="#073BA1"/>
<path d="M267.624 123.425C267.622 132.184 264.686 140.693 259.278 147.613C253.869 154.533 246.297 159.47 237.752 161.646C229.207 163.823 220.175 163.116 212.08 159.636C203.984 156.156 197.285 150.101 193.036 142.425C188.788 134.749 187.232 125.888 188.613 117.237C189.994 108.586 194.235 100.638 200.666 94.643C207.098 88.6482 215.355 84.9479 224.138 84.1249C232.921 83.3018 241.729 85.4029 249.177 90.097C254.83 93.6601 259.485 98.5833 262.71 104.41C265.935 110.236 267.625 116.777 267.624 123.425Z" fill="#FFDEC2"/>
<path d="M401.831 299.964V281.685H53.3882C54.0415 282.638 54.704 283.581 55.3757 284.514C55.8833 285.707 56.5781 286.814 57.4341 287.792C57.89 288.31 58.3904 288.787 58.9296 289.218C66.4862 298.773 75.0896 306.885 84.551 313.024C89.9265 316.523 95.6978 319.382 101.746 321.542H390.878L401.831 299.964Z" fill="#3F3D56"/>
<path d="M235.316 260.779C229.975 260.357 224.422 259.036 219.392 260.865C217.677 261.544 216.05 262.426 214.547 263.491C209.114 267.112 204.11 271.33 199.631 276.065C198.336 277.429 197.068 278.867 196.273 280.571C195.152 282.974 195.053 285.713 194.306 288.257C193.877 289.715 193.223 291.192 193.483 292.688C193.743 294.185 195.482 295.525 196.785 294.728C196.72 295.145 196.748 295.572 196.868 295.977C196.988 296.382 197.197 296.756 197.479 297.072C197.762 297.387 198.111 297.637 198.502 297.804C198.893 297.97 199.316 298.049 199.741 298.034C201.733 297.966 203.656 297.294 205.251 296.108C205.302 296.582 205.534 297.018 205.901 297.326C206.267 297.634 206.739 297.789 207.219 297.761C210.631 297.538 213.882 295.807 216.802 293.915C220.23 291.711 223.634 289.203 227.649 288.445C225.179 289.563 223.004 291.233 221.293 293.325C220.635 294.126 220.021 295.064 220.746 296.303C221.179 296.999 221.845 297.52 222.627 297.776C227.121 299.339 232.006 296.752 235.005 293.165C236.213 291.715 237.279 290.039 238.94 289.16C241.613 287.734 244.907 288.734 247.914 288.32C251.251 287.866 254.057 285.705 257.123 284.31C261.205 282.458 265.754 281.966 270.111 280.864C270.634 280.788 271.116 280.541 271.481 280.161C271.753 279.71 271.87 279.183 271.815 278.66C271.796 273.308 271.39 267.964 270.599 262.67C270.533 261.817 270.271 260.991 269.832 260.255C268.974 259.044 267.344 258.692 265.876 258.45C263.515 258.059 260.866 257.184 258.489 257.191C256.206 257.191 254.006 258.473 251.83 259.102C246.472 260.647 240.877 261.215 235.316 260.779Z" fill="#FFDEC2"/>
<path d="M260.213 253.734C254.313 254.349 248.764 256.812 244.368 260.767C249.275 259.537 254.557 258.321 259.288 260.103C261.592 260.972 263.585 262.5 265.013 264.494C266.442 266.488 267.242 268.858 267.312 271.304C267.382 273.75 266.718 276.162 265.406 278.233C264.094 280.305 262.192 281.943 259.941 282.939C260.898 284.006 262.303 284.53 263.7 284.932C273.795 287.855 284.602 286.105 294.926 284.112C296.815 283.748 298.861 283.268 300.014 281.724C301.042 280.329 301.01 278.45 300.92 276.718C300.656 271.721 300.219 266.559 297.936 262.108C294.843 256.067 289.471 253.816 283 254.515C275.389 255.32 267.832 252.968 260.213 253.734Z" fill="#EBF2FF"/>
<path d="M324.443 189.707C327.706 192.79 330.06 196.682 332.22 200.606C339.541 213.889 345.15 228.033 348.915 242.706C349.285 244.148 349.651 245.629 350.517 246.845C351.777 248.607 353.914 249.58 355.287 251.245C356.936 253.269 357.255 256.121 356.712 258.669C356.169 261.217 354.874 263.542 353.563 265.797C349.978 271.963 345.747 278.328 339.163 281.146C336.408 282.318 333.397 282.803 330.418 283.189C319.227 284.651 307.919 285.014 296.657 284.272C298.625 282.005 298.814 278.66 298.117 275.749C297.421 272.838 295.969 270.169 294.969 267.352C294.182 265.152 293.627 262.807 292.245 260.916C291.227 259.618 289.972 258.522 288.546 257.684C285.305 255.642 281.659 254.314 277.856 253.792C280.678 251.604 284.335 250.877 287.774 249.885C291.214 248.892 294.811 247.368 296.614 244.297C297.696 242.456 297.995 240.272 298.141 238.146C298.58 231.75 297.828 225.327 295.921 219.202C294.654 215.126 292.859 210.867 293.953 206.748C294.512 204.669 295.768 202.841 297 201.09C299.4 197.651 301.888 194.131 305.391 191.809C308.413 189.805 312.006 188.863 315.604 188.613C318.3 188.437 322.397 187.788 324.443 189.707Z" fill="#073BA1"/>
<path d="M182.817 309.476C182.786 313.555 171.612 318.073 158.684 318.073C145.755 318.073 134.963 313.567 134.79 309.476C134.188 295.287 145.751 303.274 158.684 303.274C171.616 303.274 182.935 293.142 182.817 309.476Z" fill="#3F3D56"/>
<path opacity="0.2" d="M182.817 309.476C182.786 313.555 171.612 318.073 158.684 318.073C145.755 318.073 134.963 313.567 134.79 309.476C134.188 295.287 145.751 303.274 158.684 303.274C171.616 303.274 182.935 293.142 182.817 309.476Z" fill="#042668"/>
<path d="M182.097 303.275C182.097 307.358 171.613 311.871 158.684 311.871C145.755 311.871 135.271 307.37 135.271 303.275C135.271 299.179 145.751 297.077 158.684 297.077C171.617 297.077 182.097 299.195 182.097 303.275Z" fill="#3F3D56"/>
<path opacity="0.1" d="M182.097 303.275C182.097 307.358 171.613 311.871 158.684 311.871C145.755 311.871 135.271 307.37 135.271 303.275C135.271 299.179 145.751 297.077 158.684 297.077C171.617 297.077 182.097 299.195 182.097 303.275Z" fill="white"/>
<path d="M177.532 301.664C177.508 304.849 168.794 308.358 158.707 308.358C148.62 308.358 140.209 304.841 140.068 301.664C139.599 290.598 148.62 296.826 158.707 296.826C168.794 296.826 177.626 288.925 177.532 301.664Z" fill="#3F3D56"/>
<path opacity="0.2" d="M177.532 301.664C177.508 304.849 168.794 308.358 158.707 308.358C148.62 308.358 140.209 304.841 140.068 301.664C139.599 290.598 148.62 296.826 158.707 296.826C168.794 296.826 177.626 288.925 177.532 301.664Z" fill="#042668"/>
<path d="M176.969 296.041C176.969 299.601 168.795 303.524 158.707 303.524C148.62 303.524 140.442 299.616 140.442 296.041C140.442 292.465 148.62 290.641 158.707 290.641C168.795 290.641 176.969 292.477 176.969 296.041Z" fill="#3F3D56"/>
<path opacity="0.1" d="M176.969 296.041C176.969 299.601 168.795 303.524 158.707 303.524C148.62 303.524 140.442 299.616 140.442 296.041C140.442 292.465 148.62 290.641 158.707 290.641C168.795 290.641 176.969 292.477 176.969 296.041Z" fill="white"/>
<path d="M114.938 319.643C114.938 319.643 118.394 315.861 118.988 311.609C119.582 307.358 102.104 300.828 102.104 300.828C102.104 300.828 96.043 304.345 95.8384 307.639C95.8384 307.639 107.441 320.019 114.938 319.643Z" fill="#3F3D56"/>
<path opacity="0.2" d="M114.938 319.643C114.938 319.643 118.394 315.861 118.988 311.609C119.582 307.358 102.104 300.828 102.104 300.828C102.104 300.828 96.043 304.345 95.8384 307.639C95.8384 307.639 107.441 320.019 114.938 319.643Z" fill="#042668"/>
<path d="M114.781 319.815C115.861 318.028 112.389 313.988 107.025 310.791C101.661 307.595 96.4368 306.453 95.3563 308.241C94.2758 310.028 97.7482 314.069 103.112 317.265C108.476 320.461 113.7 321.603 114.781 319.815Z" fill="#3F3D56"/>
<path opacity="0.1" d="M114.781 319.815C115.861 318.028 112.389 313.988 107.025 310.791C101.661 307.595 96.4368 306.453 95.3563 308.241C94.2758 310.028 97.7482 314.069 103.112 317.265C108.476 320.461 113.7 321.603 114.781 319.815Z" fill="white"/>
<path d="M119.232 310.308L129.174 293.853L119.063 285.327L111.18 283.861L108.72 288.265L101.801 301.012L119.232 310.308Z" fill="#3F3D56"/>
<path opacity="0.1" d="M119.232 310.308L129.174 293.853L119.063 285.327L111.18 283.861L108.72 288.265L101.801 301.012L119.232 310.308Z" fill="white"/>
<path d="M129.308 295.475C129.308 295.475 136.022 288.39 134.298 284.561C132.574 280.731 123.471 273.057 117.674 274.225C111.877 275.394 110.948 283.881 110.948 283.881L129.308 295.475Z" fill="#3F3D56"/>
<path opacity="0.2" d="M129.308 295.475C129.308 295.475 136.022 288.39 134.298 284.561C132.574 280.731 123.471 273.057 117.674 274.225C111.877 275.394 110.948 283.881 110.948 283.881L129.308 295.475Z" fill="#042668"/>
<path d="M52.9357 264.342L104.363 295.4C104.363 295.4 109.252 294.771 108.72 288.273L57.7845 256.879C56.7477 256.239 55.5194 255.977 54.3093 256.136C52.9161 256.324 51.267 256.828 50.7318 258.145C50.595 258.48 50.4998 258.83 50.4484 259.188C50.3046 260.195 50.464 261.222 50.9066 262.139C51.3492 263.056 52.0552 263.823 52.9357 264.342Z" fill="#3F3D56"/>
<path opacity="0.2" d="M52.9357 264.342L104.363 295.4C104.363 295.4 109.252 294.771 108.72 288.273L57.7845 256.879C56.7477 256.239 55.5194 255.977 54.3093 256.136C52.9161 256.324 51.267 256.828 50.7318 258.145C50.595 258.48 50.4998 258.83 50.4484 259.188C50.3046 260.195 50.464 261.222 50.9066 262.139C51.3492 263.056 52.0552 263.823 52.9357 264.342Z" fill="#042668"/>
<path d="M119.225 312.626C119.493 312.611 119.75 312.511 119.957 312.341C120.165 312.171 120.312 311.939 120.378 311.68C120.63 310.801 120.169 309.957 119.685 309.254C118.821 307.999 117.742 306.904 116.497 306.018C114.403 304.514 112.373 302.818 110.003 301.72C108.632 301.114 107.195 300.664 105.721 300.379C104.616 300.127 103.486 300.004 102.352 300.012C102.151 300.018 101.956 300.084 101.794 300.202C101.632 300.32 101.509 300.484 101.443 300.673C101.377 300.861 101.37 301.065 101.423 301.258C101.477 301.451 101.588 301.623 101.742 301.751C102.266 302.096 102.851 302.34 103.466 302.47C106.532 303.365 109.37 304.916 112.026 306.679C113.457 307.592 114.797 308.639 116.029 309.805C116.847 310.61 117.894 312.657 119.225 312.626Z" fill="#3F3D56"/>
<path opacity="0.2" d="M119.225 312.626C119.493 312.611 119.75 312.511 119.957 312.341C120.165 312.171 120.312 311.939 120.378 311.68C120.63 310.801 120.169 309.957 119.685 309.254C118.821 307.999 117.742 306.904 116.497 306.018C114.403 304.514 112.373 302.818 110.003 301.72C108.632 301.114 107.195 300.664 105.721 300.379C104.616 300.127 103.486 300.004 102.352 300.012C102.151 300.018 101.956 300.084 101.794 300.202C101.632 300.32 101.509 300.484 101.443 300.673C101.377 300.861 101.37 301.065 101.423 301.258C101.477 301.451 101.588 301.623 101.742 301.751C102.266 302.096 102.851 302.34 103.466 302.47C106.532 303.365 109.37 304.916 112.026 306.679C113.457 307.592 114.797 308.639 116.029 309.805C116.847 310.61 117.894 312.657 119.225 312.626Z" fill="#042668"/>
<path d="M127.434 296.734C127.434 296.734 132.48 296.855 128.304 291.818C124.128 286.781 116.658 281.783 111.341 282.912C111.341 282.912 109.137 284.725 111.042 285.038C112.849 285.335 121.275 286.992 125.148 291.654C125.571 292.16 126.045 292.623 126.561 293.037C127.47 293.772 128.694 295.163 127.434 296.734Z" fill="#3F3D56"/>
<path opacity="0.2" d="M127.434 296.734C127.434 296.734 132.48 296.855 128.304 291.818C124.128 286.781 116.658 281.783 111.341 282.912C111.341 282.912 109.137 284.725 111.042 285.038C112.849 285.335 121.275 286.992 125.148 291.654C125.571 292.16 126.045 292.623 126.561 293.037C127.47 293.772 128.694 295.163 127.434 296.734Z" fill="#042668"/>
<path d="M135.659 285.635C136.74 283.847 133.268 279.807 127.904 276.611C122.54 273.415 117.316 272.273 116.235 274.06C115.155 275.848 118.627 279.888 123.991 283.084C129.355 286.28 134.579 287.422 135.659 285.635Z" fill="#3F3D56"/>
<path opacity="0.1" d="M135.659 285.635C136.74 283.847 133.268 279.807 127.904 276.611C122.54 273.415 117.316 272.273 116.235 274.06C115.155 275.848 118.627 279.888 123.991 283.084C129.355 286.28 134.579 287.422 135.659 285.635Z" fill="white"/>
<path d="M102.352 284.342C102.284 285.252 101.992 286.132 101.502 286.904C101.012 287.677 100.339 288.318 99.5419 288.773C96.901 290.172 93.1936 288.925 91.9499 286.221C91.3045 284.814 91.2927 283.236 91.1628 281.684C91.1205 281.178 91.0522 280.675 90.9581 280.176C90.5646 278.164 88.888 276.026 86.8611 276.425C85.1884 276.749 84.3068 278.613 84.1061 280.293C84.0543 280.755 84.028 281.22 84.0274 281.684C84.0274 282.169 84.0471 282.653 84.0746 283.138C84.1297 284.131 84.2163 285.127 84.2124 286.12C84.2124 288.073 83.7873 290.148 82.3665 291.489C80.6427 293.118 77.9979 293.192 75.6129 293.165C69.792 293.106 63.3138 292.774 58.9334 289.218C58.3942 288.787 57.8938 288.31 57.4378 287.792C56.5818 286.814 55.8871 285.707 55.3794 284.514C54.9893 283.602 54.69 282.654 54.486 281.684C53.8327 278.656 53.9783 275.354 54.5136 272.283C54.8599 270.274 55.529 268.074 57.0088 266.792C57.3612 266.487 57.7596 266.237 58.1895 266.054C58.898 265.757 59.7008 265.663 60.3188 265.198C60.9367 264.733 61.3381 263.889 61.9914 263.381C63.302 262.361 65.2935 262.799 66.8284 262.455H66.8953L66.9779 262.431C68.6349 262.041 70.1659 261.142 71.7283 260.478C72.4013 260.192 73.0743 259.919 73.7513 259.677C75.4367 259.008 77.2563 258.741 79.0645 258.895C84.968 259.563 92.0523 263.119 96.0942 267.386C97.09 268.368 97.8653 269.548 98.3691 270.849C98.6993 271.939 98.882 273.067 98.9122 274.205C99.0184 275.811 99.105 277.413 99.9079 278.785C100.396 279.613 101.112 280.289 101.62 281.13C101.737 281.318 101.84 281.516 101.927 281.72C102.288 282.544 102.434 283.446 102.352 284.342Z" fill="#FFDEC2"/>
<path d="M89.3683 265.054C91.773 266.289 94.1383 267.684 96.0275 269.607C97.9166 271.529 99.3098 274.05 99.42 276.738C101.071 274.755 102.488 272.59 103.643 270.287C104.556 268.47 105.308 266.32 104.497 264.452C104.11 263.662 103.565 262.957 102.895 262.381C99.3531 259.052 94.5909 257.212 89.7736 256.457C84.5667 255.641 74.1647 253.859 73.3657 261.385C79.1984 261.111 84.1574 262.389 89.3683 265.054Z" fill="#EBF2FF"/>
<path d="M153.882 168.824C150.029 170.477 145.519 169.309 141.445 170.309C138.439 171.048 135.853 172.919 133.413 174.815C128.548 178.589 123.754 182.81 121.153 188.37C120.303 190.191 119.697 192.125 118.677 193.841C117.028 196.639 114.395 198.722 111.652 200.484C104.643 204.97 96.5037 207.776 90.2656 213.27C87.5972 215.614 85.3499 218.396 83.2601 221.261C80.8042 224.621 78.4546 228.373 78.4073 232.523C78.4073 234.148 78.7301 235.797 78.4073 237.395C77.7147 240.971 74.0781 243.19 72.4369 246.449C70.8626 249.556 71.2365 253.393 69.4851 256.394C68.3359 258.348 66.2539 260.302 66.9112 262.459C71.7363 258.86 77.5376 257.379 83.4411 258.551C86.3968 259.134 89.1557 260.443 91.8005 261.877C94.8664 263.541 97.889 265.433 100.105 268.129C102.321 270.825 103.647 274.412 102.86 277.792C106.052 276.229 107.941 272.892 109.251 269.61C110.562 266.327 111.562 262.822 113.738 260.044C114.86 258.61 116.253 257.418 117.579 256.172C124.943 249.243 130.252 240.49 135.463 231.85C140.837 222.946 146.208 214.037 151.576 205.122C153.064 202.649 154.559 200.16 155.634 197.487C159.243 188.499 156.905 178.003 153.882 168.824Z" fill="#073BA1"/>
<path d="M378.701 288.191C391.093 288.191 401.138 286.273 401.138 283.908C401.138 281.542 391.093 279.625 378.701 279.625C366.309 279.625 356.264 281.542 356.264 283.908C356.264 286.273 366.309 288.191 378.701 288.191Z" fill="#EC3D5A"/>
<path d="M378.323 285.487C379.767 285.487 380.937 283.966 380.937 282.091C380.937 280.216 379.767 278.695 378.323 278.695C376.88 278.695 375.71 280.216 375.71 282.091C375.71 283.966 376.88 285.487 378.323 285.487Z" fill="#3F3D56"/>
<path d="M378.323 281.333C379.767 281.333 380.937 279.813 380.937 277.938C380.937 276.062 379.767 274.542 378.323 274.542C376.88 274.542 375.71 276.062 375.71 277.938C375.71 279.813 376.88 281.333 378.323 281.333Z" fill="#3F3D56"/>
<path d="M378.323 277.183C379.767 277.183 380.937 275.663 380.937 273.787C380.937 271.912 379.767 270.392 378.323 270.392C376.88 270.392 375.71 271.912 375.71 273.787C375.71 275.663 376.88 277.183 378.323 277.183Z" fill="#3F3D56"/>
<path d="M378.323 273.034C379.767 273.034 380.937 271.513 380.937 269.638C380.937 267.763 379.767 266.242 378.323 266.242C376.88 266.242 375.71 267.763 375.71 269.638C375.71 271.513 376.88 273.034 378.323 273.034Z" fill="#3F3D56"/>
<path d="M378.323 268.883C379.767 268.883 380.937 267.363 380.937 265.488C380.937 263.612 379.767 262.092 378.323 262.092C376.88 262.092 375.71 263.612 375.71 265.488C375.71 267.363 376.88 268.883 378.323 268.883Z" fill="#3F3D56"/>
<path d="M378.323 264.734C379.767 264.734 380.937 263.214 380.937 261.338C380.937 259.463 379.767 257.942 378.323 257.942C376.88 257.942 375.71 259.463 375.71 261.338C375.71 263.214 376.88 264.734 378.323 264.734Z" fill="#3F3D56"/>
<path d="M378.323 260.583C379.767 260.583 380.937 259.063 380.937 257.188C380.937 255.312 379.767 253.792 378.323 253.792C376.88 253.792 375.71 255.312 375.71 257.188C375.71 259.063 376.88 260.583 378.323 260.583Z" fill="#3F3D56"/>
<path d="M388.107 228.783C388.463 228.333 388.788 227.859 389.079 227.365L382.215 226.243L389.638 226.298C390.35 224.76 390.739 223.093 390.78 221.401C390.821 219.709 390.514 218.025 389.878 216.455L379.917 221.585L389.103 214.88C388.243 213.402 387.086 212.116 385.703 211.102C384.321 210.088 382.743 209.367 381.067 208.985C379.392 208.603 377.655 208.568 375.966 208.882C374.276 209.195 372.67 209.851 371.246 210.808C369.823 211.766 368.614 213.004 367.694 214.445C366.774 215.887 366.163 217.501 365.899 219.188C365.635 220.874 365.724 222.597 366.16 224.248C366.596 225.898 367.369 227.442 368.433 228.783C367.879 229.487 367.401 230.247 367.008 231.05L375.918 235.649L366.41 232.48C365.742 234.438 365.577 236.53 365.929 238.567C366.281 240.605 367.139 242.523 368.425 244.148C366.973 245.981 366.071 248.183 365.82 250.501C365.569 252.82 365.981 255.161 367.007 257.258C368.033 259.356 369.633 261.124 371.624 262.361C373.615 263.598 375.916 264.254 378.264 264.254C380.612 264.254 382.914 263.598 384.904 262.361C386.895 261.124 388.495 259.356 389.521 257.258C390.547 255.161 390.959 252.82 390.708 250.501C390.457 248.183 389.555 245.981 388.103 244.148C389.837 241.957 390.78 239.252 390.78 236.466C390.78 233.68 389.837 230.974 388.103 228.783H388.107Z" fill="#EC3D5A"/>
<path opacity="0.1" d="M365.756 236.465C365.752 239.252 366.695 241.959 368.433 244.148C366.981 245.981 366.079 248.182 365.828 250.501C365.577 252.819 365.988 255.161 367.015 257.258C368.041 259.355 369.641 261.124 371.632 262.361C373.622 263.598 375.923 264.254 378.272 264.254C380.62 264.254 382.921 263.598 384.912 262.361C386.903 261.124 388.503 259.355 389.529 257.258C390.555 255.161 390.967 252.819 390.716 250.501C390.465 248.182 389.563 245.981 388.111 244.148C389.784 242.034 365.756 235.07 365.756 236.465Z" fill="#042668"/>
<path d="M208.195 106.193C210.95 107.248 213.638 108.764 216.594 108.964C220.344 109.214 223.886 107.315 227.613 106.791C234.442 105.834 240.924 109.526 247.339 112.035C253.754 114.544 262.019 115.583 266.722 110.577C270.717 106.322 270.166 99.2453 266.955 94.3999C263.743 89.5544 258.497 86.4205 253.31 83.7203C247.587 80.7427 241.621 78.0347 235.249 76.9835C221.726 74.7601 207.986 80.3128 196.765 88.132C193.042 90.7267 189.362 93.7551 187.583 97.9011C186.576 100.246 186.261 103.247 187.139 105.689C188.579 109.706 189.524 109.229 192.511 108.182C198.218 106.189 201.591 103.684 208.195 106.193Z" fill="#3F3D56"/>
</svg>
