<svg width="550" height="420" viewBox="0 0 550 420" fill="none" xmlns="http://www.w3.org/2000/svg">
<g clip-path="url(#clip0_889_6141)">
<path opacity="0.1" d="M252.026 370.865C378.257 370.865 480.587 362.968 480.587 353.227C480.587 343.486 378.257 335.589 252.026 335.589C125.794 335.589 23.4639 343.486 23.4639 353.227C23.4639 362.968 125.794 370.865 252.026 370.865Z" fill="#073BA1"/>
<g opacity="0.1">
<path d="M454.461 252.724C453.095 248.603 447.556 246.705 442.092 248.491C441.305 248.746 440.543 249.073 439.817 249.469C439.468 249.372 439.107 249.287 438.742 249.223C439.04 248.037 439.154 246.813 439.08 245.594C440.965 244.341 442.494 242.627 443.521 240.617C444.547 238.608 445.037 236.37 444.942 234.118C446.822 232.862 448.346 231.147 449.368 229.138C450.391 227.129 450.878 224.893 450.783 222.643C452.677 221.402 454.204 219.683 455.209 217.662C457.844 212.477 456.752 206.651 452.767 204.647C448.782 202.643 443.41 205.224 440.774 210.409C439.73 212.41 439.241 214.652 439.36 216.903C437.48 218.159 435.956 219.874 434.934 221.883C433.911 223.892 433.424 226.129 433.52 228.378C431.64 229.635 430.116 231.35 429.094 233.359C428.071 235.368 427.584 237.604 427.679 239.853C425.795 241.108 424.267 242.823 423.24 244.833C422.214 246.843 421.724 249.082 421.817 251.334C419.923 252.575 418.395 254.294 417.391 256.315C416.896 257.29 416.52 258.32 416.273 259.383C415.612 258.424 414.807 257.571 413.885 256.855C413.779 256.039 413.599 255.234 413.347 254.45C411.551 249.014 406.732 245.701 402.591 247.058C398.45 248.416 396.536 253.916 398.332 259.351C399.067 261.682 400.482 263.743 402.398 265.273C402.503 266.089 402.683 266.895 402.935 267.678C403.979 270.832 406.038 273.269 408.394 274.493C408.185 275.174 408.036 275.871 407.948 276.577C405.727 278.701 404.297 281.51 403.893 284.547C401.67 286.671 400.24 289.483 399.838 292.521C398.737 293.571 397.827 294.803 397.149 296.161C394.508 301.345 395.6 307.176 399.585 309.175C403.57 311.174 408.942 308.604 411.583 303.414C412.279 302.06 412.734 300.597 412.927 299.09C415.149 296.967 416.578 294.157 416.982 291.121C419.205 288.997 420.635 286.185 421.037 283.146C423.243 281.018 424.656 278.208 425.044 275.177C427.275 273.053 428.709 270.236 429.11 267.192C429.794 266.547 430.405 265.83 430.933 265.054C433.13 265.502 435.408 265.36 437.531 264.643C438.319 264.387 439.08 264.06 439.806 263.664C442.185 264.288 444.696 264.199 447.024 263.408C452.471 261.639 455.822 256.85 454.461 252.724Z" fill="#042668"/>
<g opacity="0.1">
<path d="M444.818 236.476C444.254 237.027 443.634 237.52 442.968 237.945C443.053 239.471 442.85 240.999 442.371 242.451C442.794 241.87 443.172 241.257 443.5 240.618C444.167 239.319 444.613 237.919 444.818 236.476Z" fill="#042668"/>
<path d="M450.659 225C450.094 225.552 449.475 226.044 448.809 226.47C448.893 227.996 448.691 229.524 448.212 230.975C448.636 230.393 449.014 229.778 449.341 229.137C450.006 227.839 450.451 226.441 450.659 225Z" fill="#042668"/>
<path d="M437.413 220.73C437.363 219.943 437.394 219.153 437.504 218.373C436.46 219.395 435.592 220.582 434.934 221.884C434.609 222.526 434.336 223.193 434.116 223.878C435.006 222.632 436.125 221.564 437.413 220.73Z" fill="#042668"/>
<path d="M400.343 290.174C400.813 289.524 401.344 288.919 401.929 288.368C402.021 287.643 402.177 286.927 402.397 286.23C401.93 286.854 401.517 287.518 401.166 288.213C400.841 288.845 400.565 289.5 400.343 290.174Z" fill="#042668"/>
<path d="M404.397 282.211C404.867 281.56 405.399 280.955 405.984 280.404C406.072 279.698 406.221 279 406.43 278.32C405.984 278.926 405.588 279.568 405.247 280.239C404.915 280.874 404.631 281.533 404.397 282.211Z" fill="#042668"/>
<path d="M438.972 247.951C438.411 248.502 437.793 248.993 437.128 249.415C437.202 250.635 437.087 251.859 436.789 253.044C437.152 253.106 437.511 253.189 437.865 253.29C438.591 252.894 439.352 252.567 440.139 252.312C445.614 250.527 451.148 252.424 452.509 256.545C452.846 257.581 452.906 258.686 452.681 259.752C454.482 257.646 455.23 255.08 454.456 252.729C453.09 248.608 447.55 246.711 442.086 248.496C441.299 248.751 440.537 249.078 439.811 249.474C439.462 249.378 439.102 249.292 438.736 249.228C438.838 248.8 438.913 248.378 438.972 247.951Z" fill="#042668"/>
<path d="M398.342 294.178C397.874 294.802 397.462 295.465 397.11 296.161C396.784 296.805 396.507 297.473 396.282 298.16C396.762 297.506 397.302 296.897 397.896 296.342C397.978 295.609 398.128 294.884 398.342 294.178Z" fill="#042668"/>
<path d="M431.546 232.205C431.497 231.418 431.527 230.628 431.637 229.848C430.593 230.871 429.724 232.057 429.066 233.359C428.742 234.001 428.468 234.668 428.249 235.353C429.139 234.107 430.258 233.039 431.546 232.205Z" fill="#042668"/>
<path d="M423.107 279.004C423.001 279.799 422.821 280.583 422.569 281.345C422.99 280.761 423.366 280.147 423.693 279.507C424.046 278.82 424.339 278.105 424.57 277.369C424.13 277.954 423.64 278.501 423.107 279.004Z" fill="#042668"/>
<path d="M414.998 294.942C414.892 295.737 414.712 296.521 414.46 297.283C414.884 296.701 415.262 296.086 415.589 295.445C415.94 294.757 416.233 294.042 416.466 293.307C416.025 293.893 415.534 294.44 414.998 294.942Z" fill="#042668"/>
<path d="M419.052 286.968C418.947 287.763 418.767 288.547 418.515 289.309C418.943 288.736 419.328 288.132 419.666 287.502C420.018 286.815 420.311 286.1 420.542 285.364C420.092 285.939 419.594 286.476 419.052 286.968Z" fill="#042668"/>
<path d="M427.162 271.035C427.056 271.828 426.876 272.61 426.624 273.37C427.046 272.789 427.422 272.176 427.748 271.537C428.104 270.839 428.399 270.111 428.63 269.362C428.192 269.962 427.701 270.522 427.162 271.035Z" fill="#042668"/>
<path d="M400.612 250.88C404.764 249.527 409.582 252.836 411.368 258.271C411.619 259.057 411.799 259.864 411.905 260.682C412.827 261.398 413.633 262.25 414.293 263.21C414.541 262.145 414.916 261.113 415.412 260.137C415.6 259.773 415.804 259.426 416.014 259.068C415.404 258.228 414.68 257.477 413.863 256.834C413.758 256.017 413.578 255.212 413.325 254.429C411.529 248.993 406.71 245.679 402.569 247.037C400.203 247.806 398.568 249.928 397.934 252.611C398.661 251.814 399.584 251.218 400.612 250.88Z" fill="#042668"/>
<path d="M419.864 255.155C419.817 254.37 419.849 253.582 419.961 252.804C418.913 253.825 418.043 255.012 417.385 256.315C417.059 256.955 416.786 257.62 416.567 258.304C417.46 257.06 418.578 255.992 419.864 255.155Z" fill="#042668"/>
<path d="M425.705 243.675C425.657 242.89 425.69 242.102 425.802 241.323C424.753 242.342 423.882 243.526 423.226 244.829C422.901 245.472 422.628 246.138 422.408 246.823C423.298 245.577 424.417 244.509 425.705 243.675Z" fill="#042668"/>
<path d="M410.942 302.911C410.836 303.708 410.656 304.494 410.404 305.258C411.288 304.041 411.966 302.689 412.41 301.254C411.971 301.848 411.479 302.403 410.942 302.911Z" fill="#042668"/>
</g>
<path d="M462.431 199.692C464.327 198.453 465.855 196.734 466.857 194.711C469.498 189.526 468.406 183.695 464.421 181.691C460.436 179.687 455.064 182.268 452.423 187.458C451.377 189.464 450.891 191.712 451.014 193.968C449.134 195.225 447.611 196.94 446.588 198.949C445.565 200.958 445.079 203.194 445.174 205.443C443.277 206.681 441.749 208.401 440.748 210.425C440.424 211.059 440.152 211.719 439.936 212.397C441.339 210.376 443.376 208.873 445.728 208.121C445.995 208.944 446.425 209.707 446.991 210.364C447.557 211.021 448.249 211.56 449.026 211.95C449.803 212.34 450.651 212.572 451.519 212.634C452.387 212.696 453.259 212.587 454.085 212.311C454.879 214.635 454.879 217.155 454.085 219.479C454.505 218.903 454.879 218.295 455.203 217.661C456.247 215.66 456.733 213.418 456.612 211.168C458.494 209.913 460.02 208.199 461.043 206.189C462.066 204.179 462.551 201.942 462.453 199.692H462.431Z" fill="#042668"/>
<path d="M526.621 126.126C528.243 125.374 529.81 124.512 531.311 123.545L513.924 110.92L534.36 121.38C538.495 118.116 541.915 114.048 544.412 109.424C546.908 104.8 548.429 99.7186 548.881 94.4904L514.15 94.8431L548.956 89.06C548.596 83.8266 547.163 78.7216 544.746 74.0585C542.329 69.3954 538.977 65.2727 534.898 61.9437C530.819 58.6147 526.099 56.1496 521.026 54.6999C515.953 53.2502 510.636 52.8465 505.401 53.5136C500.166 54.1807 495.123 55.9045 490.582 58.579C486.042 61.2536 482.099 64.8225 478.997 69.0666C475.895 73.3106 473.699 78.1401 472.543 83.2585C471.388 88.3768 471.297 93.676 472.278 98.8303C469.753 99.997 467.362 101.431 465.146 103.106L483.297 128.189L461.506 106.233C456.907 110.721 453.506 116.278 451.612 122.401C449.718 128.524 449.39 135.02 450.658 141.3C444.075 144.354 438.49 149.186 434.539 155.246C430.589 161.305 428.434 168.346 428.319 175.565C428.205 182.784 430.136 189.89 433.893 196.07C437.649 202.249 443.079 207.254 449.562 210.513C456.045 213.771 463.319 215.151 470.554 214.495C477.788 213.839 484.691 211.173 490.474 206.803C496.256 202.432 500.685 196.534 503.254 189.78C505.824 183.027 506.429 175.691 505.002 168.612C512.88 164.968 519.295 158.797 523.216 151.091C527.137 143.385 528.337 134.592 526.621 126.126Z" fill="#073BA1"/>
<path opacity="0.1" d="M454.085 116.335C450.151 124.037 448.948 132.834 450.67 141.3C444.087 144.354 438.501 149.187 434.551 155.246C430.601 161.305 428.445 168.347 428.331 175.566C428.217 182.785 430.148 189.89 433.904 196.07C437.661 202.25 443.091 207.255 449.573 210.513C456.056 213.771 463.331 215.151 470.565 214.495C477.8 213.839 484.703 211.173 490.486 206.803C496.268 202.433 500.697 196.534 503.266 189.781C505.835 183.027 506.441 175.692 505.014 168.612C512.613 165.106 456.032 112.481 454.085 116.335Z" fill="#042668"/>
<path d="M497.721 60.6152C500.896 60.6152 503.47 58.0571 503.47 54.9016C503.47 51.7461 500.896 49.188 497.721 49.188C494.546 49.188 491.972 51.7461 491.972 54.9016C491.972 58.0571 494.546 60.6152 497.721 60.6152Z" fill="#073BA1"/>
<path d="M531.301 64.2817C534.476 64.2817 537.05 61.7236 537.05 58.5681C537.05 55.4126 534.476 52.8545 531.301 52.8545C528.126 52.8545 525.552 55.4126 525.552 58.5681C525.552 61.7236 528.126 64.2817 531.301 64.2817Z" fill="#073BA1"/>
<path d="M544.251 115.624C547.426 115.624 550 113.066 550 109.91C550 106.755 547.426 104.197 544.251 104.197C541.076 104.197 538.502 106.755 538.502 109.91C538.502 113.066 541.076 115.624 544.251 115.624Z" fill="#073BA1"/>
<path d="M526.772 141.263C529.948 141.263 532.521 138.705 532.521 135.55C532.521 132.394 529.948 129.836 526.772 129.836C523.597 129.836 521.023 132.394 521.023 135.55C521.023 138.705 523.597 141.263 526.772 141.263Z" fill="#073BA1"/>
<path d="M502.895 194.513C506.07 194.513 508.644 191.955 508.644 188.8C508.644 185.644 506.07 183.086 502.895 183.086C499.719 183.086 497.146 185.644 497.146 188.8C497.146 191.955 499.719 194.513 502.895 194.513Z" fill="#073BA1"/>
<path opacity="0.1" d="M502.895 194.513C506.07 194.513 508.644 191.955 508.644 188.8C508.644 185.644 506.07 183.086 502.895 183.086C499.719 183.086 497.146 185.644 497.146 188.8C497.146 191.955 499.719 194.513 502.895 194.513Z" fill="#042668"/>
<path d="M449.804 134.203C452.979 134.203 455.553 131.645 455.553 128.489C455.553 125.333 452.979 122.775 449.804 122.775C446.629 122.775 444.055 125.333 444.055 128.489C444.055 131.645 446.629 134.203 449.804 134.203Z" fill="#073BA1"/>
<path opacity="0.1" d="M449.804 134.203C452.979 134.203 455.553 131.645 455.553 128.489C455.553 125.333 452.979 122.775 449.804 122.775C446.629 122.775 444.055 125.333 444.055 128.489C444.055 131.645 446.629 134.203 449.804 134.203Z" fill="#042668"/>
<path opacity="0.1" d="M443.673 222.467C439.849 220.548 438.693 215.112 440.925 210.099C440.807 210.302 440.694 210.51 440.586 210.729C437.946 215.914 439.037 221.74 443.022 223.744C447.007 225.748 452.38 223.167 455.015 217.982C455.128 217.768 455.225 217.549 455.322 217.336C452.584 222.098 447.491 224.391 443.673 222.467Z" fill="#042668"/>
<path opacity="0.1" d="M437.993 233.627C434.175 231.708 433.013 226.272 435.251 221.253C435.132 221.462 435.014 221.67 434.907 221.884C432.266 227.069 433.358 232.9 437.343 234.899C441.328 236.898 446.7 234.327 449.341 229.137C449.448 228.923 449.551 228.709 449.647 228.49C446.905 233.253 441.817 235.545 437.993 233.627Z" fill="#042668"/>
<path opacity="0.1" d="M432.315 244.781C428.497 242.862 427.335 237.427 429.572 232.413C429.454 232.616 429.336 232.825 429.228 233.044C426.588 238.228 427.685 244.054 431.67 246.058C435.655 248.063 441.022 245.481 443.662 240.297C443.77 240.083 443.872 239.864 443.969 239.65C441.232 244.412 436.139 246.705 432.315 244.781Z" fill="#042668"/>
<path opacity="0.1" d="M426.657 255.968C422.833 254.049 421.677 248.614 423.909 243.6C423.79 243.803 423.678 244.012 423.565 244.225C420.929 249.41 422.021 255.241 426.006 257.245C429.991 259.25 435.364 256.668 437.999 251.478C438.112 251.265 438.209 251.051 438.305 250.832C435.552 255.567 430.459 257.86 426.657 255.968Z" fill="#042668"/>
<path opacity="0.1" d="M420.962 267.095C417.138 265.177 415.982 259.741 418.214 254.728C418.096 254.931 417.983 255.139 417.875 255.358C415.235 260.543 416.326 266.369 420.311 268.373C424.296 270.377 429.669 267.796 432.31 262.611C432.417 262.397 432.519 262.178 432.616 261.964C429.884 266.727 424.78 269.02 420.962 267.095Z" fill="#042668"/>
<path opacity="0.1" d="M415.283 278.256C411.465 276.337 410.303 270.901 412.54 265.888C412.422 266.091 412.304 266.299 412.196 266.513C409.556 271.697 410.647 277.529 414.638 279.533C418.628 281.537 423.969 278.95 426.658 273.766C426.765 273.552 426.867 273.338 426.964 273.119C424.194 277.881 419.128 280.174 415.283 278.256Z" fill="#042668"/>
<path opacity="0.1" d="M409.604 289.41C405.785 287.492 404.624 282.056 406.861 277.042C406.743 277.251 406.63 277.454 406.517 277.673C403.882 282.858 404.973 288.683 408.958 290.688C412.943 292.692 418.316 290.111 420.951 284.926C421.064 284.712 421.161 284.493 421.258 284.279C418.52 289.042 413.427 291.334 409.604 289.41Z" fill="#042668"/>
<path opacity="0.1" d="M403.93 300.57C400.106 298.651 398.95 293.216 401.182 288.202C401.064 288.405 400.951 288.614 400.843 288.827C398.202 294.012 399.294 299.843 403.279 301.847C407.264 303.852 412.637 301.27 415.277 296.08C415.385 295.867 415.482 295.653 415.579 295.434C412.841 300.196 407.748 302.467 403.93 300.57Z" fill="#042668"/>
<path opacity="0.1" d="M400.198 307.903C396.379 305.979 395.218 300.549 397.455 295.53C397.336 295.738 397.218 295.947 397.111 296.16C394.47 301.345 395.562 307.176 399.547 309.175C403.532 311.174 408.904 308.603 411.545 303.413C411.653 303.2 411.755 302.986 411.851 302.767C409.109 307.529 404.016 309.822 400.198 307.903Z" fill="#042668"/>
<path d="M502.803 258.245C503.395 256.556 503.757 254.796 503.879 253.012C504.274 253.011 504.664 252.929 505.026 252.772C505.388 252.614 505.713 252.384 505.981 252.095C506.249 251.807 506.454 251.467 506.584 251.096C506.714 250.726 506.766 250.332 506.736 249.941C506.706 249.549 506.595 249.168 506.41 248.821C506.225 248.475 505.97 248.169 505.661 247.925C505.352 247.68 504.995 247.502 504.614 247.4C504.232 247.299 503.834 247.277 503.443 247.336C502.804 244.443 501.524 241.728 499.697 239.388C497.87 237.048 495.542 235.142 492.881 233.808C493.225 233.132 493.284 232.348 493.046 231.628C492.808 230.908 492.292 230.312 491.612 229.97C490.931 229.629 490.142 229.57 489.418 229.806C488.694 230.043 488.094 230.556 487.75 231.232C487.626 231.472 487.539 231.73 487.492 231.996C484.337 231.412 481.087 231.585 478.012 232.501C474.937 233.416 472.127 235.048 469.815 237.261C468.069 236.98 466.293 236.928 464.534 237.106L462.205 247.64L462.065 237.485C459.393 238.068 456.867 239.185 454.644 240.77C452.421 242.355 450.546 244.374 449.135 246.704C447.723 249.034 446.804 251.625 446.435 254.319C446.065 257.014 446.252 259.755 446.984 262.375C447.716 264.995 448.979 267.439 450.694 269.558C452.409 271.677 454.541 273.426 456.959 274.698C459.377 275.97 462.031 276.739 464.758 276.957C467.486 277.176 470.229 276.839 472.821 275.968C473.098 276.465 473.52 276.867 474.031 277.122C474.558 277.388 475.154 277.486 475.739 277.403C476.324 277.32 476.868 277.059 477.299 276.657C477.729 276.255 478.024 275.731 478.144 275.156C478.264 274.582 478.202 273.984 477.968 273.445C478.885 272.819 479.749 272.118 480.549 271.35C484.748 272.028 489.054 271.368 492.852 269.464C496.65 267.56 499.744 264.51 501.69 260.751L490.853 258.939L502.803 258.245Z" fill="#073BA1"/>
<g opacity="0.1">
<path d="M486.061 263.36C482.06 258.111 479.608 251.895 476.784 245.93C475.651 243.482 474.381 241.098 472.982 238.79L470.863 236.336C470.508 236.636 470.153 236.946 469.788 237.272C468.042 236.991 466.266 236.939 464.506 237.117L462.178 247.651L462.038 237.496C459.365 238.079 456.84 239.196 454.617 240.781C452.393 242.366 450.519 244.385 449.107 246.715C447.696 249.045 446.777 251.636 446.407 254.33C446.038 257.024 446.224 259.765 446.957 262.386C447.689 265.006 448.951 267.45 450.666 269.569C452.381 271.688 454.513 273.437 456.931 274.709C459.35 275.981 462.004 276.75 464.731 276.968C467.458 277.187 470.202 276.85 472.794 275.979C473.071 276.476 473.493 276.878 474.004 277.133C474.53 277.399 475.127 277.497 475.711 277.414C476.296 277.331 476.841 277.07 477.271 276.668C477.702 276.266 477.997 275.742 478.117 275.167C478.236 274.592 478.175 273.995 477.94 273.456C478.858 272.83 479.721 272.129 480.522 271.361C484.632 272.022 488.848 271.402 492.59 269.586C490.092 267.872 487.888 265.769 486.061 263.36Z" fill="#042668"/>
</g>
<path d="M415.208 240.805C415.429 240.369 415.535 239.884 415.514 239.396C415.493 238.908 415.347 238.434 415.089 238.018C414.831 237.603 414.47 237.26 414.041 237.022C413.612 236.785 413.128 236.661 412.637 236.662C411.822 232.367 409.611 228.456 406.345 225.529C406.871 223.488 407.071 221.378 406.936 219.276L396.369 217.485L406.63 216.844C406.445 215.886 406.192 214.943 405.871 214.022C406.271 213.749 406.596 213.381 406.818 212.953C407.077 212.442 407.176 211.866 407.101 211.298C407.027 210.731 406.784 210.199 406.402 209.771C406.02 209.343 405.518 209.038 404.961 208.896C404.403 208.755 403.815 208.783 403.274 208.976C400.556 205.16 396.579 202.41 392.034 201.205C387.488 200 382.662 200.416 378.393 202.38C374.123 204.344 370.682 207.733 368.665 211.957C366.649 216.181 366.185 220.974 367.355 225.502C366.732 225.763 366.225 226.237 365.924 226.839C365.66 227.356 365.562 227.941 365.641 228.516C365.72 229.091 365.974 229.628 366.368 230.056C366.763 230.484 367.279 230.782 367.848 230.911C368.417 231.04 369.012 230.993 369.554 230.778C370.586 232.499 371.871 234.058 373.367 235.401C372.278 239.622 372.607 244.082 374.303 248.1L388.474 244.444L375.836 251.05C378.07 254.579 381.359 257.326 385.241 258.906C389.124 260.486 393.406 260.821 397.489 259.864C401.573 258.906 405.253 256.704 408.015 253.566C410.777 250.427 412.483 246.509 412.895 242.36C413.382 242.318 413.85 242.153 414.255 241.881C414.659 241.609 414.987 241.238 415.208 240.805Z" fill="#073BA1"/>
<path opacity="0.1" d="M415.207 240.805C415.429 240.369 415.534 239.884 415.514 239.396C415.493 238.908 415.347 238.434 415.089 238.018C414.831 237.603 414.47 237.26 414.04 237.022C413.611 236.785 413.128 236.661 412.636 236.662C411.821 232.367 409.611 228.456 406.344 225.529C406.43 225.193 406.506 224.861 406.57 224.524C406.195 224.795 405.847 225.101 405.532 225.438C403.623 227.517 402.644 230.313 400.757 232.413C398.53 234.893 395.196 236.187 391.867 236.534C388.538 236.882 385.188 236.374 381.902 235.738C379.18 235.203 376.421 234.583 373.663 234.845C373.394 234.845 373.125 234.904 372.877 234.947C373.039 235.102 373.2 235.257 373.367 235.406C372.278 239.628 372.606 244.087 374.303 248.106L388.473 244.444L375.835 251.051C378.07 254.58 381.358 257.326 385.241 258.906C389.123 260.487 393.406 260.821 397.489 259.864C401.572 258.906 405.252 256.704 408.015 253.566C410.777 250.427 412.483 246.51 412.895 242.36C413.381 242.318 413.849 242.153 414.254 241.881C414.659 241.609 414.987 241.238 415.207 240.805Z" fill="#042668"/>
</g>
<g opacity="0.1">
<path d="M48.1274 273.248C48.8158 271.168 51.6069 270.212 54.3604 271.11C54.7565 271.239 55.1399 271.403 55.5059 271.601C55.6834 271.553 55.8662 271.51 56.0437 271.478C55.8926 270.881 55.8346 270.265 55.8716 269.65C54.9264 269.015 54.1601 268.151 53.6453 267.138C53.1305 266.126 52.8842 265.001 52.9299 263.867C51.9764 263.244 51.2078 262.378 50.7034 261.361C50.1779 260.352 49.9311 259.224 49.9882 258.09C49.0353 257.463 48.267 256.596 47.7617 255.578C46.4387 252.969 46.9765 250.035 48.9933 249.02C51.01 248.004 53.7097 249.313 55.038 251.922C55.5627 252.932 55.8077 254.063 55.7479 255.198C56.6957 255.83 57.464 256.693 57.9792 257.705C58.4944 258.716 58.739 259.843 58.6896 260.976C59.6371 261.609 60.4051 262.473 60.9202 263.486C61.4352 264.498 61.6801 265.625 61.6314 266.759C62.5791 267.39 63.3475 268.254 63.8627 269.265C64.3778 270.277 64.6225 271.404 64.5731 272.537C65.5279 273.163 66.2981 274.03 66.8049 275.049C67.0467 275.542 67.2273 276.062 67.3427 276.599C67.674 276.114 68.0785 275.683 68.542 275.321C68.5973 274.909 68.6909 274.503 68.8216 274.108C69.7305 271.371 72.156 269.704 74.248 270.367C76.34 271.029 77.2973 273.825 76.3991 276.561C76.0279 277.736 75.315 278.776 74.3501 279.549C74.2943 279.959 74.2007 280.364 74.0705 280.757C73.6291 282.208 72.6458 283.435 71.3224 284.188C71.4261 284.538 71.5017 284.896 71.5483 285.257C72.1035 285.787 72.5636 286.407 72.9089 287.091C73.2607 287.773 73.49 288.511 73.5865 289.271C74.1438 289.8 74.6058 290.42 74.9525 291.104C75.3036 291.787 75.5329 292.525 75.6301 293.285C76.1887 293.815 76.6509 294.437 76.9961 295.124C78.3244 297.732 77.7759 300.672 75.7699 301.677C73.764 302.681 71.0535 301.388 69.7251 298.774C69.3749 298.091 69.1457 297.354 69.0475 296.594C67.927 295.525 67.2062 294.11 67.0039 292.58C65.8834 291.511 65.1626 290.096 64.9603 288.566C64.4034 288.036 63.9414 287.416 63.5943 286.732C63.2465 286.049 63.0174 285.311 62.9167 284.552C62.3615 284.022 61.9013 283.402 61.5561 282.718C61.2042 282.036 60.9749 281.298 60.8785 280.538C60.5322 280.217 60.2237 279.859 59.9588 279.469C58.8524 279.694 57.7057 279.624 56.6353 279.266C56.2377 279.134 55.8526 278.968 55.4844 278.769C54.2883 279.084 53.0248 279.04 51.8543 278.64C49.1277 277.737 47.4444 275.327 48.1274 273.248Z" fill="#042668"/>
<g opacity="0.1">
<path d="M52.9834 265.054C53.2685 265.333 53.5821 265.582 53.9192 265.797C53.8736 266.564 53.9758 267.333 54.2203 268.063C54.0042 267.771 53.8135 267.462 53.6503 267.138C53.3139 266.485 53.0886 265.78 52.9834 265.054Z" fill="#042668"/>
<path d="M50.041 259.281C50.3276 259.557 50.6411 259.804 50.9768 260.019C50.9316 260.788 51.0338 261.559 51.2779 262.29C50.6265 261.402 50.202 260.369 50.041 259.281Z" fill="#042668"/>
<path d="M56.7256 257.127C56.7512 256.731 56.7368 256.334 56.6826 255.941C57.2084 256.457 57.6461 257.054 57.9787 257.71C58.1411 258.034 58.2777 258.37 58.3874 258.715C57.9393 258.086 57.3754 257.548 56.7256 257.127Z" fill="#042668"/>
<path d="M75.3871 292.114C75.1519 291.787 74.8854 291.482 74.5911 291.206C74.542 290.843 74.4629 290.486 74.3545 290.137C74.5879 290.451 74.7948 290.783 74.9729 291.131C75.1361 291.448 75.2746 291.776 75.3871 292.114Z" fill="#042668"/>
<path d="M73.3275 288.101C73.0923 287.773 72.8258 287.469 72.5315 287.192C72.4876 286.83 72.412 286.472 72.3057 286.123C72.7487 286.719 73.0903 287.384 73.3167 288.09L73.3275 288.101Z" fill="#042668"/>
<path d="M55.9301 270.848C56.2124 271.125 56.5244 271.37 56.8605 271.58C56.8202 272.195 56.8783 272.812 57.0325 273.408C56.8513 273.44 56.6718 273.481 56.4947 273.531C56.1264 273.334 55.7413 273.169 55.3439 273.039C52.5904 272.141 49.7992 273.098 49.1162 275.177C48.9451 275.694 48.9135 276.247 49.0248 276.781C48.5824 276.318 48.2677 275.75 48.1113 275.131C47.9549 274.512 47.962 273.863 48.1321 273.248C48.8205 271.169 51.6116 270.212 54.3651 271.11C54.7611 271.239 55.1445 271.403 55.5106 271.601C55.6881 271.553 55.8709 271.511 56.0484 271.479C55.9967 271.271 55.9572 271.06 55.9301 270.848Z" fill="#042668"/>
<path d="M76.3984 294.129C76.633 294.444 76.8399 294.779 77.0169 295.129C77.1811 295.453 77.3195 295.789 77.431 296.134C77.1959 295.804 76.9293 295.498 76.6351 295.22C76.5872 294.85 76.508 294.486 76.3984 294.129Z" fill="#042668"/>
<path d="M59.668 262.916C59.6937 262.52 59.6793 262.123 59.625 261.729C60.152 262.244 60.5899 262.842 60.9211 263.499C61.0834 263.821 61.2201 264.155 61.3298 264.498C60.8815 263.871 60.3176 263.334 59.668 262.916Z" fill="#042668"/>
<path d="M63.9214 286.487C63.9717 286.886 64.0599 287.28 64.1849 287.662C63.7367 287.052 63.395 286.371 63.1738 285.647C63.3973 285.949 63.6475 286.23 63.9214 286.487Z" fill="#042668"/>
<path d="M68.0039 294.515C68.0581 294.914 68.1481 295.307 68.2728 295.69C68.0567 295.399 67.866 295.089 67.7027 294.766C67.5258 294.422 67.3783 294.065 67.2617 293.697C67.4869 293.988 67.7351 294.262 68.0039 294.515Z" fill="#042668"/>
<path d="M65.9653 290.5C66.0156 290.9 66.1039 291.293 66.2288 291.676C66.0146 291.383 65.824 291.074 65.6588 290.752C65.4812 290.408 65.3337 290.051 65.2178 289.683C65.4422 289.977 65.6924 290.25 65.9653 290.5Z" fill="#042668"/>
<path d="M61.8779 282.467C61.9276 282.868 62.0159 283.264 62.1414 283.648C61.9375 283.355 61.7576 283.046 61.6036 282.724C61.4233 282.381 61.2739 282.024 61.1572 281.655C61.3721 281.947 61.6133 282.219 61.8779 282.467Z" fill="#042668"/>
<path d="M75.2525 272.317C73.1605 271.633 70.7351 273.301 69.8316 276.059C69.7008 276.454 69.6072 276.86 69.5519 277.272C69.0868 277.632 68.6805 278.061 68.3473 278.544C68.2225 278.007 68.0329 277.486 67.7826 276.994C67.6912 276.812 67.589 276.636 67.4814 276.46C67.7867 276.038 68.1486 275.661 68.557 275.337C68.6123 274.925 68.7059 274.519 68.8367 274.124C69.7455 271.387 72.171 269.72 74.263 270.383C74.8629 270.611 75.3931 270.991 75.802 271.483C76.211 271.976 76.4849 272.565 76.597 273.194C76.2315 272.792 75.7687 272.491 75.2525 272.317Z" fill="#042668"/>
<path d="M65.5508 274.471C65.5764 274.075 65.562 273.678 65.5078 273.285C66.0348 273.8 66.4727 274.397 66.8039 275.054C66.9662 275.378 67.1029 275.714 67.2126 276.059C66.7659 275.429 66.2017 274.89 65.5508 274.471Z" fill="#042668"/>
<path d="M62.6094 268.688C62.6349 268.293 62.6205 267.895 62.5664 267.502C63.0909 268.019 63.5285 268.616 63.8625 269.271C64.0248 269.595 64.1615 269.931 64.2712 270.276C63.823 269.647 63.2592 269.109 62.6094 268.688Z" fill="#042668"/>
<path d="M70.0468 298.528C70.0985 298.93 70.1885 299.325 70.3157 299.709C70.1008 299.415 69.9101 299.104 69.7457 298.779C69.5688 298.436 69.4213 298.078 69.3047 297.71C69.5299 298.002 69.7781 298.276 70.0468 298.528Z" fill="#042668"/>
</g>
<path d="M44.1095 246.529C43.1561 245.905 42.3874 245.04 41.8831 244.022C40.5547 241.409 41.1033 238.474 43.1092 237.464C45.1152 236.454 47.8257 237.753 49.154 240.366C49.6794 241.375 49.9245 242.504 49.8639 243.638C50.8113 244.271 51.5794 245.135 52.0944 246.147C52.6095 247.16 52.8544 248.287 52.8056 249.421C53.7597 250.045 54.5299 250.91 55.0375 251.927C55.1989 252.248 55.3355 252.58 55.4462 252.921C54.7338 251.911 53.7082 251.16 52.526 250.784C52.3943 251.201 52.1802 251.588 51.8962 251.923C51.6122 252.257 51.264 252.532 50.8719 252.731C50.4799 252.93 50.0518 253.049 49.6128 253.082C49.1738 253.115 48.7326 253.06 48.3151 252.921C47.9163 254.091 47.9163 255.359 48.3151 256.529C48.113 256.238 47.9332 255.933 47.7773 255.615C47.2517 254.607 47.0049 253.478 47.062 252.344C46.1157 251.71 45.3485 250.846 44.8336 249.833C44.3186 248.821 44.0731 247.694 44.1203 246.561L44.1095 246.529Z" fill="#042668"/>
<path d="M11.7775 209.468C10.9617 209.089 10.1729 208.655 9.41656 208.169L18.1718 201.809L7.87847 207.074C5.79728 205.429 4.07566 203.38 2.81898 201.051C1.5623 198.722 0.796982 196.163 0.569872 193.53L18.0696 193.712L0.532227 190.794C0.683231 188.135 1.38356 185.535 2.58958 183.157C3.79561 180.779 5.48148 178.673 7.54218 176.97C9.60287 175.268 11.9942 174.006 14.5673 173.262C17.1403 172.518 19.8399 172.309 22.4978 172.647C25.1557 172.986 27.715 173.865 30.0163 175.229C32.3176 176.593 34.3115 178.414 35.8738 180.578C37.4361 182.742 38.5334 185.202 39.0972 187.805C39.6611 190.409 39.6794 193.1 39.1511 195.711C40.4214 196.295 41.6256 197.012 42.7435 197.849L33.6011 210.484L44.5774 199.431C46.8936 201.692 48.6061 204.491 49.5602 207.575C50.5142 210.66 50.6796 213.932 50.0414 217.095C53.3618 218.632 56.1799 221.067 58.1735 224.121C60.1671 227.175 61.2558 230.725 61.3149 234.365C61.3741 238.005 60.4013 241.587 58.508 244.704C56.6146 247.82 53.877 250.344 50.6083 251.987C47.3396 253.63 43.6716 254.325 40.0239 253.994C36.3763 253.662 32.896 252.317 29.9813 250.112C27.0665 247.908 24.8349 244.932 23.5415 241.526C22.2482 238.121 21.9454 234.422 22.6678 230.853C18.7047 229.017 15.4769 225.912 13.5021 222.035C11.5273 218.158 10.9199 213.735 11.7775 209.474V209.468Z" fill="#073BA1"/>
<path opacity="0.1" d="M48.3211 204.54C50.3045 208.419 50.911 212.851 50.042 217.116C53.3624 218.653 56.1806 221.088 58.1742 224.142C60.1678 227.196 61.2564 230.746 61.3156 234.386C61.3747 238.026 60.402 241.608 58.5086 244.725C56.6153 247.841 53.8777 250.365 50.609 252.008C47.3402 253.651 43.6723 254.346 40.0246 254.015C36.3769 253.683 32.8967 252.338 29.9819 250.133C27.0672 247.929 24.8355 244.953 23.5422 241.547C22.2489 238.142 21.9461 234.443 22.6684 230.874C18.834 229.105 47.3369 202.6 48.3211 204.54Z" fill="#042668"/>
<path d="M26.3352 176.469C27.9361 176.469 29.2339 175.179 29.2339 173.588C29.2339 171.997 27.9361 170.708 26.3352 170.708C24.7343 170.708 23.4365 171.997 23.4365 173.588C23.4365 175.179 24.7343 176.469 26.3352 176.469Z" fill="#073BA1"/>
<path d="M9.41628 178.318C11.0172 178.318 12.315 177.029 12.315 175.437C12.315 173.846 11.0172 172.557 9.41628 172.557C7.81537 172.557 6.51758 173.846 6.51758 175.437C6.51758 177.029 7.81537 178.318 9.41628 178.318Z" fill="#073BA1"/>
<path d="M2.8987 204.182C4.49961 204.182 5.7974 202.892 5.7974 201.301C5.7974 199.71 4.49961 198.42 2.8987 198.42C1.29779 198.42 0 199.71 0 201.301C0 202.892 1.29779 204.182 2.8987 204.182Z" fill="#073BA1"/>
<path d="M11.7024 217.101C13.3033 217.101 14.6011 215.811 14.6011 214.22C14.6011 212.629 13.3033 211.339 11.7024 211.339C10.1015 211.339 8.80371 212.629 8.80371 214.22C8.80371 215.811 10.1015 217.101 11.7024 217.101Z" fill="#073BA1"/>
<path d="M23.7278 243.926C25.3287 243.926 26.6265 242.636 26.6265 241.045C26.6265 239.454 25.3287 238.164 23.7278 238.164C22.1269 238.164 20.8291 239.454 20.8291 241.045C20.8291 242.636 22.1269 243.926 23.7278 243.926Z" fill="#073BA1"/>
<path opacity="0.1" d="M23.7278 243.926C25.3287 243.926 26.6265 242.636 26.6265 241.045C26.6265 239.454 25.3287 238.164 23.7278 238.164C22.1269 238.164 20.8291 239.454 20.8291 241.045C20.8291 242.636 22.1269 243.926 23.7278 243.926Z" fill="#042668"/>
<path d="M50.4719 213.541C52.0728 213.541 53.3706 212.251 53.3706 210.66C53.3706 209.069 52.0728 207.779 50.4719 207.779C48.871 207.779 47.5732 209.069 47.5732 210.66C47.5732 212.251 48.871 213.541 50.4719 213.541Z" fill="#073BA1"/>
<path opacity="0.1" d="M50.4719 213.541C52.0728 213.541 53.3706 212.251 53.3706 210.66C53.3706 209.069 52.0728 207.779 50.4719 207.779C48.871 207.779 47.5732 209.069 47.5732 210.66C47.5732 212.251 48.871 213.541 50.4719 213.541Z" fill="#042668"/>
<path opacity="0.1" d="M53.5641 258.004C55.4894 257.037 56.0702 254.3 54.9462 251.772C55.0054 251.879 55.0645 251.98 55.1183 252.087C56.4467 254.701 55.8981 257.635 53.8868 258.645C51.8754 259.656 49.1757 258.357 47.8474 255.743C47.7936 255.636 47.7398 255.529 47.6914 255.417C49.0735 257.817 51.6388 258.971 53.5641 258.004Z" fill="#042668"/>
<path opacity="0.1" d="M56.42 263.627C58.3453 262.66 58.9315 259.918 57.8076 257.395C57.8667 257.497 57.9259 257.603 57.9797 257.71C59.308 260.324 58.7594 263.258 56.7481 264.268C54.7368 265.279 52.037 263.98 50.7087 261.366C50.6495 261.259 50.6011 261.147 50.5527 261.04C51.9349 263.451 54.5055 264.594 56.42 263.627Z" fill="#042668"/>
<path opacity="0.1" d="M59.2804 269.244C61.2057 268.277 61.7919 265.54 60.6625 263.012C60.7271 263.119 60.7808 263.221 60.84 263.333C62.1683 265.941 61.6144 268.881 59.6085 269.886C57.6025 270.89 54.8974 269.597 53.569 266.983C53.5099 266.876 53.4615 266.77 53.4131 266.657C54.7898 269.057 57.3551 270.212 59.2804 269.244Z" fill="#042668"/>
<path opacity="0.1" d="M62.1417 274.867C64.067 273.9 64.6532 271.163 63.5239 268.635C63.583 268.737 63.6422 268.844 63.6959 268.951C65.0297 271.564 64.4757 274.498 62.4698 275.509C60.4638 276.519 57.7534 275.22 56.425 272.606C56.3712 272.5 56.3228 272.387 56.2744 272.28C57.6512 274.675 60.2164 275.835 62.1417 274.867Z" fill="#042668"/>
<path opacity="0.1" d="M65.0026 280.485C66.9279 279.517 67.5087 276.781 66.3847 274.258C66.4439 274.359 66.503 274.466 66.5568 274.573C67.8851 277.187 67.3366 280.121 65.3306 281.131C63.3247 282.141 60.6142 280.837 59.2858 278.229C59.2321 278.117 59.1837 278.01 59.1299 277.903C60.512 280.297 63.0773 281.452 65.0026 280.485Z" fill="#042668"/>
<path opacity="0.1" d="M67.8639 286.107C69.7892 285.14 70.37 282.403 69.246 279.875C69.3052 279.982 69.3643 280.083 69.4181 280.19C70.7465 282.804 70.1979 285.738 68.192 286.748C66.186 287.759 63.4755 286.46 62.1472 283.846C62.0934 283.739 62.0396 283.632 61.9912 283.52C63.3733 285.899 65.9386 287.074 67.8639 286.107Z" fill="#042668"/>
<path opacity="0.1" d="M70.7252 291.73C72.6451 290.763 73.2313 288.021 72.1073 285.498C72.1665 285.6 72.2257 285.707 72.2794 285.813C73.6078 288.427 73.0592 291.361 71.0479 292.371C69.0366 293.382 66.3368 292.077 65.0085 289.469C64.9547 289.357 64.9009 289.25 64.8525 289.143C66.2347 291.538 68.7999 292.697 70.7252 291.73Z" fill="#042668"/>
<path opacity="0.1" d="M73.5812 297.347C75.5065 296.38 76.0927 293.643 74.9633 291.115C75.0278 291.222 75.0816 291.324 75.1408 291.436C76.4691 294.044 75.9152 296.984 73.9092 297.989C71.9033 298.993 69.1982 297.7 67.8698 295.086C67.8107 294.98 67.7623 294.873 67.7139 294.76C69.096 297.16 71.6559 298.315 73.5812 297.347Z" fill="#042668"/>
<path opacity="0.1" d="M75.4791 301.041C77.4044 300.073 77.9852 297.337 76.8613 294.809C76.9204 294.915 76.9796 295.017 77.0334 295.129C78.3617 297.738 77.8132 300.677 75.8072 301.682C73.8012 302.687 71.0907 301.393 69.7624 298.78C69.7086 298.673 69.6548 298.566 69.6064 298.454C70.9724 300.864 73.5377 302.008 75.4791 301.041Z" fill="#042668"/>
<path d="M23.7762 276.027C23.4775 275.177 23.2966 274.291 23.2384 273.392C23.0396 273.391 22.843 273.35 22.661 273.27C22.4789 273.191 22.3154 273.075 22.1805 272.929C22.0456 272.784 21.9423 272.613 21.877 272.426C21.8118 272.24 21.7859 272.042 21.8011 271.844C21.8163 271.647 21.8722 271.456 21.9653 271.281C22.0585 271.106 22.1869 270.953 22.3424 270.83C22.498 270.706 22.6774 270.617 22.8695 270.565C23.0616 270.514 23.2623 270.503 23.4589 270.533C23.7816 269.076 24.4263 267.709 25.3462 266.53C26.2661 265.351 27.4382 264.391 28.7777 263.718C28.6044 263.377 28.5745 262.982 28.6945 262.619C28.8145 262.256 29.0746 261.955 29.4177 261.783C29.7607 261.611 30.1585 261.581 30.5236 261.7C30.8887 261.82 31.1912 262.078 31.3645 262.419C31.4274 262.54 31.471 262.67 31.4935 262.804C33.0849 262.514 34.7229 262.605 36.2718 263.069C37.8206 263.534 39.2356 264.359 40.3994 265.476C41.2883 265.332 42.1927 265.307 43.0883 265.402L44.2607 270.704L44.2876 265.589C45.621 265.895 46.8783 266.467 47.9835 267.269C49.0887 268.071 50.019 269.087 50.7183 270.256C51.4177 271.426 51.8716 272.723 52.0527 274.072C52.2337 275.42 52.1383 276.791 51.772 278.101C51.4057 279.412 50.7762 280.635 49.9214 281.697C49.0667 282.759 48.0043 283.639 46.7984 284.282C45.5926 284.925 44.2681 285.319 42.9049 285.44C41.5417 285.561 40.1681 285.406 38.8667 284.985C38.7251 285.233 38.514 285.436 38.259 285.568C37.9932 285.701 37.6925 285.75 37.3978 285.708C37.1031 285.665 36.8286 285.534 36.6114 285.332C36.3942 285.129 36.2449 284.866 36.1837 284.576C36.1224 284.286 36.1523 283.985 36.2691 283.713C35.808 283.393 35.3745 283.035 34.9731 282.644C32.8577 282.984 30.6881 282.651 28.7753 281.691C26.8624 280.731 25.3045 279.193 24.3248 277.299L29.7834 276.385L23.7762 276.027Z" fill="#073BA1"/>
<g opacity="0.1">
<path d="M32.2088 278.603C34.2255 275.931 35.4624 272.831 36.8822 269.827C37.4508 268.591 38.09 267.388 38.7968 266.224L39.8723 264.99C40.0552 265.145 40.2327 265.3 40.4101 265.46C41.299 265.315 42.2035 265.29 43.0991 265.385L44.2715 270.687L44.2876 265.588C45.621 265.895 46.8783 266.466 47.9835 267.268C49.0887 268.071 50.019 269.087 50.7183 270.256C51.4177 271.425 51.8716 272.723 52.0527 274.071C52.2337 275.42 52.1383 276.79 51.772 278.101C51.4057 279.411 50.7762 280.635 49.9214 281.697C49.0667 282.759 48.0043 283.638 46.7984 284.282C45.5926 284.925 44.2681 285.319 42.9049 285.44C41.5417 285.56 40.1681 285.406 38.8667 284.985C38.7251 285.233 38.514 285.436 38.259 285.567C37.9932 285.701 37.6925 285.749 37.3978 285.707C37.1031 285.665 36.8286 285.534 36.6114 285.332C36.3942 285.129 36.2449 284.865 36.1837 284.576C36.1224 284.286 36.1523 283.985 36.2691 283.713C35.808 283.393 35.3745 283.035 34.9731 282.644C32.9015 282.974 30.7778 282.662 28.8906 281.751C30.1599 280.886 31.2804 279.823 32.2088 278.603Z" fill="#042668"/>
</g>
<path d="M67.9013 267.24C67.8153 267.072 67.7636 266.888 67.7492 266.7C67.7349 266.512 67.7581 266.323 67.8176 266.143C67.877 265.964 67.9716 265.798 68.0958 265.655C68.22 265.512 68.3714 265.395 68.5413 265.311C68.7443 265.207 68.9693 265.154 69.1974 265.156C69.6076 262.991 70.7203 261.02 72.365 259.544C72.0991 258.517 71.9992 257.454 72.0692 256.396L77.388 255.508L72.2198 255.182C72.3134 254.7 72.4428 254.224 72.607 253.761C72.4039 253.626 72.2391 253.442 72.1284 253.226C71.999 252.969 71.9501 252.679 71.9879 252.393C72.0257 252.108 72.1484 251.841 72.3403 251.625C72.5323 251.41 72.7846 251.256 73.065 251.184C73.3454 251.112 73.641 251.125 73.9138 251.222C74.8637 249.879 76.1329 248.79 77.6085 248.052C79.3465 247.176 81.302 246.816 83.2405 247.016C85.1791 247.217 87.0184 247.968 88.5379 249.181C90.0575 250.394 91.1928 252.017 91.8078 253.855C92.4228 255.693 92.4913 257.668 92.0052 259.544C92.2579 259.651 92.4746 259.828 92.6297 260.054C92.7849 260.28 92.8721 260.545 92.8811 260.818C92.8901 261.091 92.8206 261.361 92.6807 261.597C92.5408 261.832 92.3363 262.023 92.0912 262.147C91.9074 262.239 91.7059 262.292 91.5001 262.301C91.2942 262.31 91.0887 262.276 90.8973 262.2C90.3783 263.065 89.731 263.847 88.9774 264.52C89.5286 266.651 89.3643 268.903 88.5095 270.934L81.3945 269.074L87.7566 272.403C86.8014 273.918 85.4581 275.153 83.8643 275.982C82.2705 276.811 80.4835 277.204 78.6867 277.12C76.8899 277.036 75.1478 276.479 73.639 275.505C72.1303 274.532 70.9092 273.177 70.1009 271.58C69.5382 270.469 69.1846 269.264 69.0576 268.026C68.8134 268.004 68.5789 267.92 68.3765 267.783C68.1741 267.645 68.0105 267.458 67.9013 267.24Z" fill="#073BA1"/>
<path opacity="0.1" d="M67.9013 267.24C67.8153 267.072 67.7636 266.888 67.7492 266.7C67.7349 266.511 67.7581 266.322 67.8176 266.143C67.877 265.964 67.9716 265.798 68.0958 265.655C68.22 265.512 68.3714 265.395 68.5413 265.31C68.7443 265.207 68.9693 265.154 69.1974 265.155C69.6076 262.991 70.7203 261.02 72.365 259.543C72.322 259.378 72.2843 259.207 72.2521 259.041C72.445 259.178 72.625 259.332 72.7899 259.501C73.7525 260.57 74.2473 261.954 75.1938 263.012C76.3798 264.228 77.9742 264.968 79.6736 265.091C81.3569 265.206 83.048 265.071 84.6912 264.69C86.0463 264.344 87.4443 264.191 88.8429 264.236L89.2409 264.29L88.9935 264.519C89.5447 266.651 89.3804 268.903 88.5256 270.933L81.3945 269.073L87.7566 272.403C86.8014 273.918 85.4581 275.153 83.8643 275.982C82.2705 276.811 80.4835 277.203 78.6867 277.12C76.8899 277.036 75.1478 276.479 73.639 275.505C72.1303 274.532 70.9092 273.177 70.1009 271.58C69.5382 270.468 69.1846 269.264 69.0576 268.026C68.8134 268.004 68.5789 267.92 68.3765 267.782C68.1741 267.645 68.0105 267.458 67.9013 267.24Z" fill="#042668"/>
</g>
<path opacity="0.1" d="M186.264 27.7451C184.138 27.3439 181.94 27.5821 179.95 28.4292C178.757 28.9577 177.465 29.2308 176.159 29.2308C174.853 29.2308 173.561 28.9577 172.368 28.4292C170.957 27.8148 169.429 27.5123 167.89 27.5428C166.35 27.5732 164.836 27.9359 163.451 28.6056C162.66 29.0207 161.78 29.2389 160.886 29.2416C157.272 29.2416 154.265 25.6232 153.642 20.8503C154.362 20.3253 154.975 19.6687 155.449 18.9155C157.567 15.5215 160.827 13.3408 164.532 13.3408C168.237 13.3408 171.464 15.4787 173.583 18.8513C174.216 19.8641 175.101 20.698 176.152 21.2728C177.203 21.8475 178.385 22.1438 179.585 22.133H179.682C182.532 22.117 185.022 24.4099 186.264 27.7451Z" fill="#073BA1"/>
<path opacity="0.1" d="M197.246 12.7794L191.405 16.462L194.949 10.0482C193.944 9.25231 192.701 8.8122 191.416 8.79755H191.325C190.919 8.80247 190.515 8.77207 190.115 8.70668L188.13 9.95737L188.98 8.42341C187.582 7.93975 186.371 7.03332 185.517 5.83118L181.962 8.03858L184.199 3.99257C182.128 1.51792 179.332 0 176.261 0C172.577 0 169.27 2.18068 167.172 5.57463C166.545 6.58838 165.659 7.41904 164.604 7.98228C163.549 8.54551 162.362 8.82125 161.165 8.78151H160.988C156.922 8.78151 153.62 13.362 153.62 19.0222C153.62 24.6823 156.922 29.2575 160.988 29.2575C161.882 29.2548 162.762 29.0365 163.553 28.6214C164.938 27.9512 166.453 27.5887 167.992 27.5591C169.532 27.5296 171.06 27.8337 172.47 28.4504C173.663 28.9772 174.955 29.2495 176.261 29.2495C177.567 29.2495 178.859 28.9772 180.053 28.4504C181.451 27.8468 182.965 27.5497 184.489 27.5792C186.014 27.6087 187.514 27.9642 188.889 28.6214C189.673 29.0254 190.543 29.2379 191.427 29.2414C195.498 29.2414 198.795 24.6609 198.795 19.0061C198.809 16.8347 198.276 14.6941 197.246 12.7794Z" fill="#073BA1"/>
<path opacity="0.1" d="M64.7232 101.792C61.6864 101.221 58.5473 101.559 55.7045 102.764C53.9984 103.516 52.1522 103.902 50.286 103.898C48.4199 103.893 46.5756 103.498 44.8733 102.738C42.8591 101.86 40.677 101.428 38.4781 101.471C36.2792 101.515 34.116 102.032 32.1384 102.989C31.0074 103.581 29.7491 103.893 28.4707 103.898C23.3079 103.898 19.0109 98.7291 18.1182 91.9092C19.1498 91.1621 20.0264 90.2237 20.6996 89.1459C23.7273 84.2982 28.4169 81.1821 33.6819 81.1821C38.9469 81.1821 43.5772 84.2607 46.5889 89.055C47.494 90.5081 48.7622 91.7035 50.2701 92.5249C51.778 93.3463 53.4742 93.7658 55.1936 93.7424H55.328C59.4045 93.7371 62.9647 97.0134 64.7232 101.792Z" fill="#073BA1"/>
<path opacity="0.1" d="M80.4268 80.3858L72.0803 85.6451L77.1463 76.4894C75.7105 75.3505 73.9334 74.7203 72.0964 74.6989H71.962C71.3821 74.7074 70.8025 74.6644 70.2303 74.5707L67.4123 76.3825L68.6277 74.1912C66.6222 73.4947 64.8902 72.185 63.68 70.4498L58.614 73.6567L61.8031 67.8309C58.8399 64.2979 54.8494 62.1333 50.461 62.1333C45.1961 62.1333 40.5065 65.244 37.4787 70.0917C36.582 71.5464 35.3131 72.7387 33.8015 73.5471C32.2899 74.3556 30.5897 74.7511 28.8741 74.6936H28.589C22.7755 74.6936 18.0645 81.241 18.0645 89.3223C18.0645 97.4037 22.7755 103.951 28.589 103.951C29.8683 103.948 31.1273 103.634 32.2568 103.037C34.2348 102.081 36.3981 101.565 38.597 101.522C40.7959 101.48 42.9779 101.913 44.9917 102.791C46.694 103.551 48.5382 103.946 50.4044 103.951C52.2706 103.956 54.1168 103.57 55.8228 102.818C57.8218 101.956 59.9841 101.531 62.1629 101.572C64.3416 101.614 66.4859 102.121 68.4502 103.058C69.569 103.64 70.8122 103.947 72.0749 103.951C77.8884 103.951 82.5995 97.3983 82.5995 89.3223C82.64 86.2096 81.8929 83.1367 80.4268 80.3858Z" fill="#073BA1"/>
<path opacity="0.1" d="M402.252 48.5897C404.378 48.1889 406.576 48.4271 408.566 49.2738C409.758 49.8025 411.049 50.0757 412.354 50.0757C413.66 50.0757 414.951 49.8025 416.143 49.2738C417.553 48.6594 419.081 48.3569 420.621 48.3874C422.161 48.4178 423.675 48.7805 425.06 49.4502C425.851 49.8647 426.731 50.0829 427.625 50.0862C431.239 50.0862 434.251 46.4678 434.874 41.6949C434.153 41.1713 433.539 40.5144 433.067 39.76C430.959 36.3554 427.663 34.1587 423.968 34.1587C420.273 34.1587 417.041 36.2966 414.922 39.6692C414.29 40.6865 413.405 41.5246 412.352 42.1023C411.298 42.68 410.113 42.9778 408.91 42.9669H408.818C405.957 42.9616 403.462 45.2545 402.252 48.5897Z" fill="#073BA1"/>
<path opacity="0.1" d="M391.238 33.6243L397.079 37.2962L393.529 30.8824C394.535 30.0872 395.778 29.6472 397.063 29.6317H397.16C397.565 29.6363 397.97 29.6059 398.37 29.5409L400.349 30.7915L399.499 29.2576C400.907 28.782 402.13 27.879 402.995 26.676L406.539 28.9102L404.296 24.8642C406.372 22.3895 409.136 20.8716 412.239 20.8716C415.923 20.8716 419.23 23.0523 421.328 26.4462C421.955 27.4603 422.841 28.2913 423.896 28.8546C424.952 29.4179 426.138 29.6934 427.335 29.6531H427.529C431.6 29.6531 434.896 34.2336 434.896 39.8937C434.896 45.5539 431.6 50.129 427.529 50.129C426.635 50.1251 425.755 49.9069 424.963 49.493C423.579 48.8228 422.064 48.4603 420.524 48.4307C418.984 48.4012 417.456 48.7053 416.047 49.322C414.854 49.8487 413.563 50.1209 412.258 50.1209C410.953 50.1209 409.662 49.8487 408.469 49.322C407.07 48.7183 405.555 48.4211 404.03 48.4506C402.504 48.4801 401.003 48.8357 399.628 49.493C398.844 49.8976 397.973 50.1101 397.09 50.113C393.024 50.113 389.722 45.5325 389.722 39.8777C389.693 37.7 390.215 35.5499 391.238 33.6243Z" fill="#073BA1"/>
<path opacity="0.1" d="M331.08 415.227C365.237 415.227 392.927 410.441 392.927 404.537C392.927 398.634 365.237 393.848 331.08 393.848C296.924 393.848 269.234 398.634 269.234 404.537C269.234 410.441 296.924 415.227 331.08 415.227Z" fill="#073BA1"/>
<path d="M298.711 353.762L202.882 352.538L203.167 350.095L207.797 309.801H291.956L298.146 350.095L298.62 353.152L298.711 353.762Z" fill="#D0D2D5"/>
<path opacity="0.1" d="M298.62 353.152H250.799L202.882 352.538L203.167 350.095H298.146L298.62 353.152Z" fill="#042668"/>
<path d="M314.07 350.71H186.909V353.762H314.07V350.71Z" fill="#D0D2D5"/>
<path d="M435.391 67.7879C435.398 65.6819 434.564 63.6592 433.072 62.164C431.579 60.6688 429.551 59.8234 427.432 59.8135H72.3168C71.2666 59.8184 70.2277 60.0288 69.2594 60.4328C68.291 60.8367 67.4122 61.4262 66.6731 62.1677C65.934 62.9092 65.3491 63.7881 64.9518 64.7543C64.5545 65.7204 64.3526 66.7549 64.3575 67.7986V281.724H435.391V67.7879Z" fill="#042668"/>
<path d="M64.3574 279.587V304.643C64.3574 306.741 65.196 308.753 66.6886 310.237C68.1813 311.72 70.2058 312.554 72.3167 312.554H427.432C429.543 312.554 431.567 311.72 433.06 310.237C434.552 308.753 435.391 306.741 435.391 304.643V279.587H64.3574Z" fill="#D0D2D5"/>
<path d="M422.16 73.6494H80V265.961H422.16V73.6494Z" fill="white"/>
<path d="M251.719 303.045C252.975 303.046 254.215 302.764 255.346 302.218C256.476 301.673 257.466 300.879 258.242 299.897C258.478 299.598 258.694 299.284 258.887 298.956L254.332 298.192L259.253 298.224C259.725 297.204 259.982 296.099 260.009 294.977C260.036 293.855 259.832 292.739 259.409 291.698L252.81 295.097L258.898 290.65C258.326 289.674 257.559 288.824 256.643 288.155C255.727 287.486 254.682 287.011 253.574 286.759C252.465 286.508 251.316 286.486 250.199 286.695C249.082 286.904 248.019 287.338 247.078 287.972C246.137 288.606 245.337 289.426 244.728 290.38C244.119 291.334 243.714 292.402 243.538 293.519C243.361 294.635 243.418 295.775 243.704 296.869C243.99 297.962 244.5 298.986 245.201 299.876C245.974 300.861 246.962 301.658 248.092 302.208C249.221 302.757 250.461 303.043 251.719 303.045Z" fill="#073BA1"/>
<path opacity="0.1" d="M260.012 312.548L298.243 350.71L292.376 312.548H260.012Z" fill="#042668"/>
<path opacity="0.1" d="M421.979 73.2505H79.4482V84.4853H421.979V73.2505Z" fill="#444053"/>
<path opacity="0.3" d="M301.265 75.2065H198.687C198.515 75.2065 198.375 75.3453 198.375 75.5165V81.7325C198.375 81.9037 198.515 82.0425 198.687 82.0425H301.265C301.438 82.0425 301.577 81.9037 301.577 81.7325V75.5165C301.577 75.3453 301.438 75.2065 301.265 75.2065Z" fill="#073BA1"/>
<path d="M298.512 79.3328H298.259L298.168 79.2526C298.481 78.8789 298.652 78.408 298.652 77.9218C298.648 77.5227 298.526 77.1334 298.301 76.8032C298.075 76.473 297.756 76.2165 297.384 76.0662C297.012 75.9159 296.604 75.8785 296.21 75.9587C295.817 76.0389 295.456 76.2331 295.174 76.5168C294.891 76.8005 294.7 77.161 294.623 77.5528C294.547 77.9446 294.589 78.3502 294.744 78.7183C294.899 79.0865 295.16 79.4007 295.495 79.6213C295.83 79.842 296.223 79.9592 296.624 79.9581C297.114 79.9564 297.588 79.7843 297.963 79.4718L298.055 79.5519V79.8031L299.63 81.3692L300.098 80.8988L298.512 79.3328ZM296.624 79.3328C296.343 79.3339 296.068 79.252 295.834 79.0976C295.6 78.9432 295.417 78.7232 295.309 78.4655C295.2 78.2077 295.171 77.9239 295.226 77.6498C295.28 77.3757 295.415 77.1238 295.613 76.9259C295.811 76.7281 296.064 76.5931 296.34 76.5383C296.615 76.4834 296.901 76.511 297.161 76.6177C297.421 76.7243 297.643 76.9051 297.799 77.1373C297.955 77.3695 298.039 77.6425 298.039 77.9218C298.04 78.107 298.004 78.2907 297.934 78.4622C297.863 78.6337 297.759 78.7895 297.628 78.9208C297.496 79.052 297.34 79.156 297.167 79.2267C296.995 79.2975 296.811 79.3335 296.624 79.3328Z" fill="#042668"/>
<path opacity="0.8" d="M85.6057 80.9256C86.7492 80.9256 87.6762 80.0043 87.6762 78.8678C87.6762 77.7313 86.7492 76.8101 85.6057 76.8101C84.4621 76.8101 83.5352 77.7313 83.5352 78.8678C83.5352 80.0043 84.4621 80.9256 85.6057 80.9256Z" fill="#FA5959"/>
<path opacity="0.8" d="M91.301 80.9256C92.4445 80.9256 93.3715 80.0043 93.3715 78.8678C93.3715 77.7313 92.4445 76.8101 91.301 76.8101C90.1575 76.8101 89.2305 77.7313 89.2305 78.8678C89.2305 80.0043 90.1575 80.9256 91.301 80.9256Z" fill="#FED253"/>
<path opacity="0.8" d="M97.0012 80.9256C98.1447 80.9256 99.0717 80.0043 99.0717 78.8678C99.0717 77.7313 98.1447 76.8101 97.0012 76.8101C95.8577 76.8101 94.9307 77.7313 94.9307 78.8678C94.9307 80.0043 95.8577 80.9256 97.0012 80.9256Z" fill="#8CCF4D"/>
<path d="M366.236 398.305C365.924 397.813 365.529 397.377 365.069 397.017C362.719 394.81 361.627 391.571 361.046 388.396C360.466 385.221 360.299 381.982 359.368 378.877C358.862 377.285 358.229 375.735 357.475 374.243C356.938 373.099 356.26 370.86 355.276 370.058C355.083 369.892 354.849 369.78 354.598 369.732C354.133 368.75 353.471 367.873 352.651 367.156C351.113 365.772 349.236 364.67 348.209 362.88C347.927 362.259 347.579 361.669 347.171 361.122C346.478 360.363 345.38 360.053 344.741 359.251C343.907 358.214 344.095 356.728 344.203 355.408C344.31 354.088 344.203 352.506 343.052 351.811C342.363 351.389 341.476 351.431 340.761 351.057C339.685 350.523 339.26 349.176 339.282 347.973C339.303 346.771 339.68 345.6 339.777 344.398C340.078 340.571 337.539 336.765 338.518 333.056C338.889 331.65 339.739 330.432 340.368 329.122C340.588 328.686 340.768 328.232 340.906 327.765C342.584 328.426 344.347 328.849 346.144 329.021C343.181 322.414 343.934 314.739 342.552 307.641L342.729 307.401C344.125 305.571 344.918 303.357 344.999 301.062C344.999 298.422 343.756 295.952 343.197 293.365C342.718 291.169 342.74 288.87 342.121 286.711C341.692 285.369 341.123 284.076 340.422 282.852C339.752 281.616 339.047 280.399 338.309 279.202C337.62 276.936 336.93 274.669 336.238 272.403C335.27 269.223 334.275 265.989 332.393 263.242C331.704 262.237 331.495 260.196 330.435 259.586C329.575 259.144 328.599 258.974 327.639 259.1C326.144 258.266 324.831 257.064 324.643 255.417C324.625 255.058 324.661 254.697 324.751 254.348H324.934C327.3 254.135 328.499 252.061 329.731 250.244C331.721 247.304 330.962 243.327 329.731 239.982C329.425 238.926 328.873 237.957 328.117 237.154C326.391 235.551 323.659 235.903 321.433 235.128C320.685 234.872 319.986 234.482 319.222 234.3C317.743 233.958 316.195 234.439 314.839 235.118C313.484 235.797 312.22 236.673 310.8 237.208C309.381 237.742 307.627 238.164 307.278 239.613C307.18 240.101 307.221 240.606 307.396 241.072C307.723 242.001 308.297 242.825 309.058 243.456C308.454 244.694 308.127 246.049 308.1 247.425C308.073 248.802 308.347 250.167 308.902 251.429C309.458 252.69 310.282 253.816 311.319 254.73C312.355 255.643 313.578 256.323 314.904 256.721C315.313 257.374 315.694 258.036 316.044 258.715C316.668 259.912 317.195 261.323 316.98 262.606C316.591 263.017 316.231 263.455 315.904 263.916C314.361 266.054 313.484 268.56 312.677 271.062C311.594 274.255 310.726 277.518 310.08 280.827C308.768 283.601 307.165 286.252 306.213 289.164C304.509 289.167 302.812 288.94 301.169 288.491L296.63 287.47C295.049 287.112 293.403 286.727 292.166 285.69C291.51 285.156 290.999 284.445 290.332 283.916C289.665 283.387 288.326 282.767 287.595 283.205C287.461 283.286 287.337 283.381 287.224 283.488C286.557 282.147 285.922 280.816 285.148 279.517C284.035 277.7 282.378 276.038 280.281 275.69C278.999 275.485 277.688 275.789 276.629 276.535C275.403 277.401 274.634 279.207 275.554 280.426C275.783 280.697 276.033 280.951 276.301 281.185C276.924 281.897 277.48 282.665 277.963 283.478C279.696 285.896 282.29 287.569 285.218 288.16L285.029 288.694C284.648 289.806 283.836 291.147 284.04 292.302L304.229 299.17C305.524 299.692 306.898 299.994 308.294 300.062C308.839 300.058 309.381 299.986 309.908 299.849V300.875V300.918C309.961 307.967 308.832 314.969 308.622 322.014C308.585 323.302 308.622 324.686 309.44 325.691C310.354 326.792 311.978 327.011 313.393 326.76C313.733 326.703 314.067 326.628 314.393 326.535C314.871 328.309 315.216 330.115 315.425 331.939L316.759 341.485C316.931 342.462 317.001 343.454 316.969 344.446C316.813 346.685 315.624 348.69 314.764 350.758C313.904 352.826 313.393 355.301 314.522 357.236C314.877 357.834 315.366 358.342 315.684 358.962C316.087 359.922 316.271 360.959 316.221 361.998C316.304 364.877 316.383 367.76 316.458 370.646C316.223 370.608 315.983 370.655 315.78 370.78C314.662 371.645 314.786 375.766 314.705 377.044C314.619 379.182 314.705 381.362 314.587 383.522C314.447 386.432 313.976 389.317 313.183 392.121C312.989 393.033 312.565 393.881 311.951 394.585C311.322 395.129 310.572 395.516 309.763 395.713C307.083 396.547 304.281 396.926 301.475 396.836C300.34 396.798 299.157 396.691 298.103 397.119C297.049 397.546 296.199 398.722 296.581 399.791C296.909 400.689 297.904 401.117 298.802 401.453C300.854 402.172 302.834 403.077 304.718 404.158C305.443 404.649 306.208 405.08 307.004 405.446C307.767 405.718 308.556 405.912 309.359 406.023L318.894 407.659C320.846 407.99 323.197 408.193 324.439 406.59C325.111 405.724 325.208 404.548 325.176 403.447C325.122 401.309 324.692 399.134 324.971 396.996C325.184 395.732 325.519 394.492 325.972 393.292C326.922 390.488 327.875 387.685 328.833 384.885C329.79 382.073 330.758 379.235 331.129 376.285C331.263 375.216 331.253 373.997 330.43 373.329C330.222 373.159 329.98 373.036 329.72 372.966C329.688 370.389 329.349 367.808 329.494 365.232C329.532 364.59 329.596 363.949 329.65 363.302C330.149 363.773 330.594 364.296 330.978 364.863C331.898 366.295 332.237 368.187 333.64 369.139C334.834 369.951 336.604 369.908 337.443 371.084C337.712 371.536 337.915 372.024 338.045 372.533C338.532 373.793 339.263 374.946 340.196 375.927C340.517 377.1 340.962 378.236 341.525 379.315C342.317 380.979 343.106 382.638 343.891 384.291C344.698 386.076 345.595 387.819 346.58 389.513C347.331 390.58 347.937 391.741 348.381 392.966C349.14 395.606 347.903 398.503 345.945 400.449C343.988 402.394 341.406 403.511 338.862 404.553C338.594 404.644 338.349 404.789 338.142 404.981C337.921 405.24 337.805 405.571 337.814 405.911C337.814 407.146 338.836 408.204 340.008 408.583C341.206 408.903 342.462 408.949 343.681 408.717C350.554 407.889 357.406 406.221 363.483 402.902C364.392 402.474 365.197 401.856 365.843 401.09C366.156 400.704 366.357 400.242 366.426 399.751C366.495 399.261 366.43 398.761 366.236 398.305Z" fill="url(#paint0_linear_889_6141)"/>
<path d="M337.19 278.448C338.337 280.198 339.413 281.99 340.417 283.825C341.12 285.039 341.692 286.323 342.122 287.657C342.745 289.795 342.729 292.077 343.197 294.258C343.735 296.823 344.993 299.271 344.993 301.901C344.911 304.179 344.118 306.376 342.724 308.187C341.334 309.981 339.742 311.613 337.981 313.05C333.92 302.594 331.651 291.536 331.269 280.335C331.215 278.785 331.204 277.187 331.775 275.738C332.124 274.83 333.802 272.339 334.883 273.317C335.276 273.675 335.378 275.289 335.62 275.829C336.073 276.742 336.598 277.618 337.19 278.448Z" fill="#2F2E41"/>
<path opacity="0.1" d="M337.19 278.448C338.337 280.198 339.413 281.99 340.417 283.825C341.12 285.039 341.692 286.323 342.122 287.657C342.745 289.795 342.729 292.077 343.197 294.258C343.735 296.823 344.993 299.271 344.993 301.901C344.911 304.179 344.118 306.376 342.724 308.187C341.334 309.981 339.742 311.613 337.981 313.05C333.92 302.594 331.651 291.536 331.269 280.335C331.215 278.785 331.204 277.187 331.775 275.738C332.124 274.83 333.802 272.339 334.883 273.317C335.276 273.675 335.378 275.289 335.62 275.829C336.073 276.742 336.598 277.618 337.19 278.448Z" fill="#042668"/>
<path d="M195.407 205.529C191.153 209.751 190.642 211.611 188.088 212.451C185.533 213.29 176.343 218.02 179.23 223.263L186.996 228.362L187.222 228.512L188.411 232.061L176.665 252.841C176.665 252.841 157.305 244.044 155.406 257.058C153.508 270.073 154.713 273.627 154.202 280.575C153.691 287.524 154.368 289.533 152.664 289.533C150.959 289.533 150.286 284.969 150.286 284.969C150.286 284.969 150.179 284.76 149.991 284.37C147.458 279.138 130.264 240.725 157.805 214.321C157.805 214.321 170.561 213.487 173.632 198.95C175.751 188.901 183.162 189.767 188.088 191.814C189.689 192.438 191.181 193.309 192.509 194.396C193.703 195.52 194.766 196.775 195.676 198.137C197.08 200.339 197.843 203.102 195.407 205.529Z" fill="#D0D2D5"/>
<path opacity="0.1" d="M187.222 228.512L188.41 232.061L176.665 252.841C176.665 252.841 157.304 244.044 155.406 257.058C153.508 270.073 154.712 273.627 154.201 280.575C153.69 287.524 154.368 289.533 152.663 289.533C150.958 289.533 150.286 284.969 150.286 284.969C150.286 284.969 150.179 284.76 149.99 284.37C149.135 277.871 144.801 239.853 160.515 241.874C160.515 241.874 173.266 247.796 175.304 245.433C176.918 243.563 184.081 232.803 186.996 228.389L187.222 228.512Z" fill="#042668"/>
<path opacity="0.1" d="M195.675 198.105L187.91 206.876C187.91 206.876 178.891 218.87 177.019 218.362C176.459 218.241 175.888 218.174 175.315 218.164C174.69 218.117 174.092 217.894 173.59 217.523C173.088 217.151 172.702 216.646 172.476 216.065C172.251 215.485 172.196 214.852 172.318 214.242C172.44 213.632 172.733 213.068 173.164 212.616C176.24 209.409 181.908 203.322 182.279 201.969C182.65 200.617 186.259 194.69 188.066 191.788C189.667 192.412 191.159 193.283 192.486 194.369C193.688 195.49 194.758 196.744 195.675 198.105Z" fill="#042668"/>
<path d="M415.396 324.29C414.079 326.909 407.329 336.733 404.377 341.025L402.995 343.045C402.995 343.045 402.457 346.594 393.643 342.196C384.828 337.797 177.73 250.949 177.73 250.949L176.326 246.759L186.544 231.553L413.53 318.71C413.53 318.71 417.101 320.907 415.396 324.29Z" fill="#454B69"/>
<path opacity="0.1" d="M404.377 341.025L402.995 343.045C402.995 343.045 402.457 346.594 393.643 342.196C384.828 337.797 177.73 250.949 177.73 250.949L176.326 246.759L404.377 341.025Z" fill="#042668"/>
<path d="M279.459 284.295C277.356 283.953 275.022 284.119 273.387 285.477C272.399 286.308 271.774 287.489 271.645 288.769C271.505 290.25 272.371 292.008 273.866 292.12C274.225 292.124 274.585 292.101 274.941 292.051C275.886 292.047 276.829 292.125 277.759 292.286C279.591 292.457 281.437 292.189 283.143 291.505C284.849 290.82 286.365 289.739 287.563 288.352C288.849 286.749 287.155 286.054 285.638 285.733C283.562 285.295 281.535 284.627 279.459 284.295Z" fill="#FBBEBE"/>
<path d="M315.426 332.564L316.76 341.982C316.93 342.954 316.998 343.941 316.964 344.927C316.808 347.145 315.62 349.133 314.765 351.186C313.91 353.238 313.388 355.697 314.523 357.599C314.872 358.193 315.362 358.7 315.679 359.315C316.082 360.266 316.266 361.294 316.217 362.324L316.582 375.686C320.734 375.968 324.9 375.945 329.048 375.617C329.211 375.624 329.371 375.575 329.5 375.478C329.61 375.34 329.665 375.167 329.656 374.991C329.839 371.865 329.29 368.733 329.468 365.606C329.532 364.462 329.694 363.324 329.715 362.175C329.78 357.519 327.467 352.96 328.166 348.358C328.386 347.197 328.673 346.05 329.027 344.922C331.237 336.904 330.769 328.481 330.28 320.202C330.288 320.069 330.25 319.937 330.172 319.828C330.093 319.749 329.992 319.695 329.882 319.673C327.529 318.971 325.041 318.843 322.628 319.299C320.215 319.755 317.947 320.781 316.018 322.292C315.432 322.762 313.953 323.216 313.565 323.778C313.028 324.558 313.732 325.338 314.044 326.167C314.735 328.244 315.198 330.389 315.426 332.564Z" fill="#042668"/>
<path opacity="0.1" d="M315.426 332.564L316.76 341.982C316.93 342.954 316.998 343.941 316.964 344.927C316.808 347.145 315.62 349.133 314.765 351.186C313.91 353.238 313.388 355.697 314.523 357.599C314.872 358.193 315.362 358.7 315.679 359.315C316.082 360.266 316.266 361.294 316.217 362.324L316.582 375.686C320.734 375.968 324.9 375.945 329.048 375.617C329.211 375.624 329.371 375.575 329.5 375.478C329.61 375.34 329.665 375.167 329.656 374.991C329.839 371.865 329.29 368.733 329.468 365.606C329.532 364.462 329.694 363.324 329.715 362.175C329.78 357.519 327.467 352.96 328.166 348.358C328.386 347.197 328.673 346.05 329.027 344.922C331.237 336.904 330.769 328.481 330.28 320.202C330.288 320.069 330.25 319.937 330.172 319.828C330.093 319.749 329.992 319.695 329.882 319.673C327.529 318.971 325.041 318.843 322.628 319.299C320.215 319.755 317.947 320.781 316.018 322.292C315.432 322.762 313.953 323.216 313.565 323.778C313.028 324.558 313.732 325.338 314.044 326.167C314.735 328.244 315.198 330.389 315.426 332.564Z" fill="#042668"/>
<path d="M340.363 329.726C339.734 331.025 338.89 332.233 338.513 333.628C337.534 337.31 340.067 341.111 339.766 344.884C339.669 346.076 339.298 347.236 339.271 348.428C339.244 349.62 339.685 350.945 340.75 351.496C341.466 351.859 342.364 351.822 343.036 352.239C344.171 352.928 344.3 354.494 344.187 355.809C344.074 357.124 343.886 358.593 344.725 359.62C345.365 360.416 346.462 360.726 347.15 361.48C347.56 362.021 347.908 362.605 348.188 363.222C349.215 365.007 351.092 366.098 352.63 367.498C354.168 368.898 355.47 370.951 354.781 372.891C354.276 374.313 352.856 375.189 351.49 375.857C348.998 377.081 346.367 378.006 343.654 378.61C343.363 378.697 343.055 378.714 342.756 378.658C342.454 378.548 342.184 378.364 341.971 378.123C340.385 376.579 338.744 374.959 338.013 372.88C337.883 372.376 337.68 371.894 337.411 371.448C336.572 370.277 334.802 370.32 333.608 369.513C332.21 368.567 331.871 366.691 330.957 365.275C330.043 363.858 328.704 363.014 327.73 361.768C326.085 359.695 325.681 356.926 324.504 354.558C324.003 353.553 323.363 352.613 322.965 351.565C322.564 350.309 322.316 349.01 322.229 347.695C321.47 341.453 319.54 335.167 320.755 328.989C321.024 327.631 321.438 326.316 321.61 324.916C321.906 322.495 321.438 320.015 321.798 317.599C321.807 317.296 321.885 316.998 322.026 316.729C322.166 316.46 322.366 316.225 322.611 316.044C322.901 315.914 323.217 315.85 323.536 315.856C326.724 315.687 329.92 315.759 333.098 316.07C334.711 316.225 336.518 316.551 337.486 317.861C338.309 318.983 338.266 320.485 338.529 321.848C338.857 323.526 339.712 324.44 340.61 325.755C341.509 327.07 341.025 328.369 340.363 329.726Z" fill="#042668"/>
<path d="M327.957 373.158C328.806 373.158 329.747 373.104 330.404 373.639C331.221 374.307 331.232 375.531 331.103 376.573C330.726 379.502 329.764 382.319 328.801 385.125L325.94 393.468C325.487 394.659 325.152 395.89 324.94 397.145C324.66 399.283 325.09 401.421 325.144 403.559C325.144 404.628 325.074 405.815 324.402 406.675C323.186 408.231 320.815 408.049 318.863 407.744L309.338 406.141C308.535 406.034 307.745 405.843 306.983 405.569C306.188 405.204 305.424 404.777 304.697 404.291C302.812 403.221 300.832 402.327 298.781 401.619C297.889 401.288 296.888 400.865 296.566 399.973C296.184 398.904 297.034 397.728 298.088 397.3C299.142 396.873 300.32 396.98 301.46 397.012C304.263 397.101 307.062 396.725 309.742 395.9C310.549 395.703 311.297 395.319 311.925 394.778C312.563 394.065 312.998 393.196 313.183 392.26C313.995 389.475 314.479 386.605 314.625 383.709C314.738 381.571 314.662 379.433 314.748 377.295C314.802 376.028 314.679 371.95 315.797 371.079C316.652 370.427 320.169 372.228 321.326 372.49C323.5 372.985 325.727 373.209 327.957 373.158Z" fill="#2F2E41"/>
<path d="M359.331 379.101C360.261 382.164 360.406 385.403 361.009 388.551C361.611 391.699 362.676 394.911 365.026 397.103C365.483 397.463 365.878 397.897 366.193 398.385C366.392 398.843 366.459 399.346 366.388 399.84C366.317 400.333 366.11 400.797 365.79 401.181C365.14 401.941 364.336 402.555 363.429 402.982C357.357 406.274 350.522 407.937 343.633 408.76C342.415 408.986 341.162 408.941 339.965 408.626C338.793 408.23 337.755 407.183 337.776 405.954C337.765 405.616 337.88 405.287 338.099 405.029C338.308 404.839 338.556 404.695 338.825 404.607C341.363 403.57 343.939 402.442 345.902 400.529C347.865 398.615 349.097 395.718 348.338 393.121C347.889 391.904 347.28 390.752 346.526 389.695C345.543 388.014 344.645 386.286 343.837 384.516L341.471 379.582C340.777 378.139 340.078 376.653 339.96 375.061C342.932 375.193 345.901 374.72 348.683 373.671C349.981 373.145 351.191 372.424 352.27 371.533C353.184 370.774 354.017 369.358 355.249 370.347C356.239 371.138 356.862 373.366 357.443 374.494C358.198 375.976 358.829 377.517 359.331 379.101Z" fill="#2F2E41"/>
<path d="M324.654 256.604C324.891 258.656 326.891 260.009 328.8 260.821L316.716 264.653C317.496 263.167 316.867 261.35 316.092 259.843C315.462 258.65 314.743 257.504 313.941 256.417C313.823 256.251 313.688 256.043 313.774 255.85C313.851 255.725 313.972 255.631 314.113 255.588C316.598 254.487 319.158 253.349 321.874 252.948C322.659 252.836 324.143 252.526 324.729 253.317C325.315 254.108 324.541 255.658 324.654 256.604Z" fill="#FBBEBE"/>
<path opacity="0.1" d="M324.654 256.604C324.891 258.656 326.891 260.009 328.8 260.821L316.716 264.653C317.496 263.167 316.867 261.35 316.092 259.843C315.462 258.65 314.743 257.504 313.941 256.417C313.823 256.251 313.688 256.043 313.774 255.85C313.851 255.725 313.972 255.631 314.113 255.588C316.598 254.487 319.158 253.349 321.874 252.948C322.659 252.836 324.143 252.526 324.729 253.317C325.315 254.108 324.541 255.658 324.654 256.604Z" fill="#042668"/>
<path d="M317.631 258.266C322.865 258.266 327.107 254.05 327.107 248.849C327.107 243.648 322.865 239.431 317.631 239.431C312.398 239.431 308.155 243.648 308.155 248.849C308.155 254.05 312.398 258.266 317.631 258.266Z" fill="#FBBEBE"/>
<path d="M309.418 326.348C310.338 327.444 311.957 327.658 313.371 327.417C316.678 326.883 319.384 324.462 322.621 323.59C326.59 322.521 330.79 323.895 334.539 325.579C338.287 327.262 342.014 329.32 346.112 329.609C342.406 321.399 344.525 311.522 340.981 303.243C340.115 301.217 338.905 299.266 338.712 297.075C338.47 294.354 339.836 291.73 340.046 289.026C340.239 286.615 339.508 284.215 338.809 281.917C337.945 279.095 337.081 276.273 336.217 273.451C335.248 270.292 334.254 267.08 332.377 264.365C331.683 263.365 331.473 261.339 330.419 260.735C328.117 259.415 324.627 261.078 322.132 261.168C319.636 261.259 317.362 263.023 315.904 265.017C314.361 267.123 313.484 269.629 312.677 272.109C311.393 275.802 310.434 279.599 309.811 283.456C309.73 284.033 309.66 284.611 309.607 285.193C309.069 290.682 309.854 296.204 309.897 301.719V301.757C309.951 308.753 308.821 315.707 308.612 322.698C308.59 323.975 308.622 325.37 309.418 326.348Z" fill="#2F2E41"/>
<path opacity="0.1" d="M309.913 301.725C311.769 301.26 313.447 300.068 314.888 298.764C316.136 297.654 317.245 296.397 318.19 295.023C319.38 293.174 320.335 291.187 321.035 289.106C323.026 283.54 324.291 277.744 324.799 271.858C324.939 270.255 324.982 268.534 324.02 267.262C323.479 266.573 322.72 266.086 321.865 265.88C321.011 265.674 320.112 265.762 319.314 266.129C318.045 266.743 317.222 267.989 316.458 269.18C314.947 271.543 313.425 273.937 312.452 276.567C312.021 277.732 311.704 278.929 311.285 280.1C310.858 281.254 310.366 282.384 309.811 283.483C309.73 284.06 309.66 284.638 309.607 285.22C309.107 290.709 309.87 296.209 309.913 301.725Z" fill="#042668"/>
<path d="M323.993 266.23C324.955 267.502 324.912 269.239 324.778 270.821C324.271 276.707 323.006 282.503 321.013 288.069C320.32 290.167 319.364 292.171 318.169 294.034C317.222 295.407 316.113 296.663 314.866 297.775C313.038 299.432 310.812 300.912 308.332 300.934C306.937 300.868 305.562 300.57 304.267 300.052L284.073 293.221C283.868 292.077 284.68 290.741 285.062 289.64L286.138 286.471C286.444 285.594 286.799 284.648 287.6 284.172C288.402 283.697 289.671 284.349 290.338 284.878C291.005 285.407 291.51 286.102 292.166 286.642C293.409 287.668 295.049 288.053 296.63 288.406L301.164 289.416C302.807 289.863 304.504 290.088 306.208 290.084C307.472 286.246 309.876 282.868 311.236 279.063C311.656 277.898 311.973 276.695 312.409 275.53C313.377 272.9 314.904 270.511 316.415 268.143C317.174 266.957 317.996 265.711 319.271 265.091C320.071 264.72 320.975 264.631 321.833 264.837C322.691 265.044 323.453 265.535 323.993 266.23Z" fill="#2F2E41"/>
<path d="M320.653 250.976C320.582 250.357 320.388 249.757 320.083 249.212C319.925 248.939 319.683 248.724 319.393 248.597C319.103 248.47 318.779 248.438 318.47 248.507C317.523 248.801 317.206 250.254 316.217 250.302C315.55 250.335 315.071 249.661 314.861 249.03C314.652 248.4 314.539 247.678 314.039 247.235C313.69 246.976 313.291 246.794 312.866 246.7C310.57 245.979 308.198 244.648 307.434 242.376C307.255 241.915 307.212 241.412 307.311 240.928C307.66 239.49 309.462 239.057 310.833 238.539C312.205 238.02 313.522 237.133 314.867 236.459C316.211 235.786 317.771 235.31 319.25 235.652C320 235.887 320.738 236.16 321.46 236.47C323.687 237.24 326.413 236.882 328.139 238.48C328.894 239.272 329.447 240.233 329.753 241.28C330.957 244.605 331.721 248.549 329.726 251.468C328.494 253.269 327.3 255.327 324.934 255.546C322.181 255.776 321.089 253.296 320.653 250.976Z" fill="#2F2E41"/>
<g opacity="0.1">
<path d="M316.448 247.897C316.238 247.267 316.125 246.545 315.63 246.102C315.282 245.843 314.882 245.661 314.458 245.567C312.156 244.846 309.79 243.515 309.021 241.243C308.846 240.781 308.805 240.279 308.903 239.795C308.955 239.566 309.052 239.35 309.188 239.159C308.311 239.538 307.547 240.041 307.332 240.928C307.233 241.412 307.276 241.915 307.456 242.376C308.22 244.648 310.591 245.979 312.888 246.7C313.312 246.794 313.712 246.976 314.06 247.235C314.56 247.678 314.668 248.395 314.883 249.031C315.098 249.667 315.571 250.335 316.238 250.303C316.905 250.271 317.228 249.667 317.652 249.159C317.066 249.084 316.641 248.485 316.448 247.897Z" fill="#042668"/>
<path d="M326.515 254.397C323.751 254.648 322.659 252.147 322.213 249.843C322.154 249.225 321.971 248.626 321.675 248.079C321.516 247.807 321.274 247.592 320.984 247.465C320.694 247.338 320.371 247.306 320.062 247.374C319.571 247.61 319.159 247.981 318.873 248.443C319.12 248.466 319.358 248.546 319.569 248.676C319.779 248.806 319.957 248.982 320.088 249.191C320.393 249.736 320.587 250.335 320.659 250.955C321.094 253.258 322.186 255.765 324.961 255.509C326.058 255.388 327.07 254.866 327.8 254.044C327.395 254.232 326.96 254.351 326.515 254.397Z" fill="#042668"/>
</g>
<path d="M437.284 353.821C446.875 353.821 454.65 352.335 454.65 350.502C454.65 348.669 446.875 347.183 437.284 347.183C427.694 347.183 419.919 348.669 419.919 350.502C419.919 352.335 427.694 353.821 437.284 353.821Z" fill="#073BA1"/>
<path d="M436.994 351.72C438.111 351.72 439.016 350.543 439.016 349.091C439.016 347.638 438.111 346.461 436.994 346.461C435.877 346.461 434.972 347.638 434.972 349.091C434.972 350.543 435.877 351.72 436.994 351.72Z" fill="#042668"/>
<path d="M436.994 348.502C438.111 348.502 439.016 347.325 439.016 345.873C439.016 344.42 438.111 343.243 436.994 343.243C435.877 343.243 434.972 344.42 434.972 345.873C434.972 347.325 435.877 348.502 436.994 348.502Z" fill="#042668"/>
<path d="M436.994 345.291C438.111 345.291 439.016 344.113 439.016 342.661C439.016 341.209 438.111 340.031 436.994 340.031C435.877 340.031 434.972 341.209 434.972 342.661C434.972 344.113 435.877 345.291 436.994 345.291Z" fill="#042668"/>
<path d="M436.994 342.073C438.111 342.073 439.016 340.895 439.016 339.443C439.016 337.991 438.111 336.813 436.994 336.813C435.877 336.813 434.972 337.991 434.972 339.443C434.972 340.895 435.877 342.073 436.994 342.073Z" fill="#042668"/>
<path d="M436.994 338.855C438.111 338.855 439.016 337.678 439.016 336.225C439.016 334.773 438.111 333.596 436.994 333.596C435.877 333.596 434.972 334.773 434.972 336.225C434.972 337.678 435.877 338.855 436.994 338.855Z" fill="#042668"/>
<path d="M436.994 335.643C438.111 335.643 439.016 334.466 439.016 333.013C439.016 331.561 438.111 330.384 436.994 330.384C435.877 330.384 434.972 331.561 434.972 333.013C434.972 334.466 435.877 335.643 436.994 335.643Z" fill="#042668"/>
<path d="M436.994 332.425C438.111 332.425 439.016 331.248 439.016 329.796C439.016 328.343 438.111 327.166 436.994 327.166C435.877 327.166 434.972 328.343 434.972 329.796C434.972 331.248 435.877 332.425 436.994 332.425Z" fill="#042668"/>
<path d="M444.561 307.813C444.837 307.463 445.088 307.095 445.314 306.712L440 305.846L445.749 305.883C446.298 304.691 446.597 303.399 446.629 302.088C446.66 300.777 446.423 299.473 445.932 298.256L438.22 302.233L445.33 297.038C444.663 295.896 443.766 294.904 442.697 294.121C441.627 293.339 440.407 292.784 439.112 292.49C437.817 292.197 436.475 292.171 435.17 292.415C433.865 292.659 432.624 293.167 431.525 293.908C430.426 294.649 429.492 295.607 428.782 296.722C428.071 297.837 427.599 299.086 427.394 300.39C427.19 301.694 427.258 303.026 427.594 304.303C427.93 305.58 428.526 306.775 429.347 307.813C428.915 308.356 428.543 308.943 428.239 309.566L435.139 313.131L427.782 310.677C427.268 312.192 427.142 313.81 427.415 315.385C427.688 316.961 428.352 318.443 429.347 319.699C428.225 321.119 427.527 322.823 427.334 324.618C427.14 326.413 427.459 328.225 428.253 329.849C429.047 331.472 430.284 332.84 431.824 333.798C433.363 334.755 435.143 335.263 436.959 335.263C438.775 335.263 440.555 334.755 442.094 333.798C443.634 332.84 444.871 331.472 445.665 329.849C446.459 328.225 446.778 326.413 446.584 324.618C446.391 322.823 445.693 321.119 444.572 319.699C445.915 318.003 446.646 315.907 446.646 313.748C446.646 311.589 445.915 309.493 444.572 307.797L444.561 307.813Z" fill="#073BA1"/>
<path opacity="0.1" d="M427.26 313.745C427.259 315.907 427.994 318.006 429.346 319.699C428.225 321.119 427.527 322.823 427.334 324.618C427.14 326.412 427.459 328.225 428.253 329.848C429.047 331.472 430.284 332.84 431.824 333.798C433.363 334.755 435.143 335.263 436.959 335.263C438.775 335.263 440.554 334.755 442.094 333.798C443.634 332.84 444.871 331.472 445.665 329.848C446.459 328.225 446.777 326.412 446.584 324.618C446.391 322.823 445.693 321.119 444.571 319.699C445.857 318.058 427.26 312.666 427.26 313.745Z" fill="#042668"/>
<path d="M79.8193 420C93.6275 420 104.821 417.861 104.821 415.222C104.821 412.583 93.6275 410.443 79.8193 410.443C66.0111 410.443 54.8174 412.583 54.8174 415.222C54.8174 417.861 66.0111 420 79.8193 420Z" fill="#073BA1"/>
<path d="M79.3997 416.98C81.0065 416.98 82.3091 415.284 82.3091 413.191C82.3091 411.098 81.0065 409.401 79.3997 409.401C77.7928 409.401 76.4902 411.098 76.4902 413.191C76.4902 415.284 77.7928 416.98 79.3997 416.98Z" fill="#042668"/>
<path d="M79.3997 412.351C81.0065 412.351 82.3091 410.655 82.3091 408.562C82.3091 406.469 81.0065 404.772 79.3997 404.772C77.7928 404.772 76.4902 406.469 76.4902 408.562C76.4902 410.655 77.7928 412.351 79.3997 412.351Z" fill="#042668"/>
<path d="M79.3997 407.723C81.0065 407.723 82.3091 406.026 82.3091 403.934C82.3091 401.841 81.0065 400.144 79.3997 400.144C77.7928 400.144 76.4902 401.841 76.4902 403.934C76.4902 406.026 77.7928 407.723 79.3997 407.723Z" fill="#042668"/>
<path d="M79.3997 403.095C81.0065 403.095 82.3091 401.398 82.3091 399.305C82.3091 397.212 81.0065 395.516 79.3997 395.516C77.7928 395.516 76.4902 397.212 76.4902 399.305C76.4902 401.398 77.7928 403.095 79.3997 403.095Z" fill="#042668"/>
<path d="M79.3997 398.466C81.0065 398.466 82.3091 396.769 82.3091 394.676C82.3091 392.583 81.0065 390.887 79.3997 390.887C77.7928 390.887 76.4902 392.583 76.4902 394.676C76.4902 396.769 77.7928 398.466 79.3997 398.466Z" fill="#042668"/>
<path d="M79.3997 393.832C81.0065 393.832 82.3091 392.135 82.3091 390.042C82.3091 387.95 81.0065 386.253 79.3997 386.253C77.7928 386.253 76.4902 387.95 76.4902 390.042C76.4902 392.135 77.7928 393.832 79.3997 393.832Z" fill="#042668"/>
<path d="M79.3997 389.203C81.0065 389.203 82.3091 387.507 82.3091 385.414C82.3091 383.321 81.0065 381.625 79.3997 381.625C77.7928 381.625 76.4902 383.321 76.4902 385.414C76.4902 387.507 77.7928 389.203 79.3997 389.203Z" fill="#042668"/>
<path d="M90.295 353.74C90.6888 353.23 91.0481 352.694 91.3706 352.137L83.7232 350.886L91.9944 350.95C92.7872 349.233 93.2195 347.374 93.2648 345.485C93.3101 343.597 92.9675 341.719 92.258 339.967L81.1687 345.707L91.3867 338.224C90.4299 336.574 89.1412 335.138 87.601 334.005C86.0607 332.872 84.3021 332.067 82.4348 331.639C80.5675 331.212 78.6316 331.171 76.7479 331.521C74.8642 331.87 73.0731 332.601 71.4864 333.669C69.8997 334.737 68.5514 336.118 67.5258 337.726C66.5001 339.335 65.819 341.136 65.525 343.018C65.231 344.9 65.3304 346.822 65.817 348.664C66.3036 350.506 67.1669 352.229 68.3531 353.724C67.725 354.505 67.1841 355.35 66.7397 356.247L76.6728 361.378L66.0836 357.845C65.3415 360.035 65.1623 362.376 65.5625 364.652C65.9626 366.929 66.9293 369.07 68.3746 370.881C66.7566 372.925 65.75 375.381 65.4699 377.967C65.1899 380.553 65.6477 383.165 66.7911 385.504C67.9344 387.844 69.7171 389.817 71.9353 391.197C74.1535 392.577 76.7178 393.309 79.3348 393.309C81.9519 393.309 84.5161 392.577 86.7343 391.197C88.9526 389.817 90.7353 387.844 91.8786 385.504C93.0219 383.165 93.4797 380.553 93.1997 377.967C92.9197 375.381 91.9131 372.925 90.295 370.881C92.229 368.439 93.2805 365.421 93.2805 362.313C93.2805 359.205 92.229 356.188 90.295 353.746V353.74Z" fill="#073BA1"/>
<path opacity="0.1" d="M65.3897 362.33C65.3902 365.432 66.4415 368.445 68.3744 370.881C66.7563 372.925 65.7498 375.381 65.4697 377.967C65.1897 380.553 65.6475 383.165 66.7908 385.505C67.9342 387.844 69.7169 389.817 71.9351 391.197C74.1533 392.577 76.7176 393.309 79.3346 393.309C81.9517 393.309 84.5159 392.577 86.7341 391.197C88.9524 389.817 90.735 387.844 91.8784 385.505C93.0217 383.165 93.4795 380.553 93.1995 377.967C92.9194 375.381 91.9129 372.925 90.2948 370.881C92.1502 368.519 65.3897 360.753 65.3897 362.33Z" fill="#042668"/>
<path d="M223.38 178.365C223.087 178.365 222.837 178.262 222.632 178.057C222.427 177.851 222.324 177.602 222.324 177.309V171.677H208.376C208.053 171.677 207.789 171.574 207.584 171.369C207.408 171.163 207.32 170.914 207.32 170.621V167.629C207.32 167.453 207.349 167.247 207.408 167.013C207.496 166.749 207.628 166.514 207.804 166.309L220.784 148.313C221.165 147.814 221.708 147.565 222.412 147.565H227.208C227.501 147.565 227.751 147.667 227.956 147.873C228.161 148.078 228.264 148.327 228.264 148.621V166.485H232.18C232.532 166.485 232.796 166.587 232.972 166.793C233.177 166.969 233.28 167.218 233.28 167.541V170.621C233.28 170.914 233.177 171.163 232.972 171.369C232.767 171.574 232.517 171.677 232.224 171.677H228.264V177.309C228.264 177.602 228.161 177.851 227.956 178.057C227.751 178.262 227.501 178.365 227.208 178.365H223.38ZM213.436 166.661H222.456V153.945L213.436 166.661ZM249.135 178.805C247.052 178.805 245.278 178.497 243.811 177.881C242.344 177.265 241.142 176.414 240.203 175.329C239.264 174.243 238.56 172.997 238.091 171.589C237.622 170.151 237.343 168.626 237.255 167.013C237.226 166.221 237.196 165.355 237.167 164.417C237.167 163.449 237.167 162.481 237.167 161.513C237.196 160.545 237.226 159.65 237.255 158.829C237.314 157.215 237.592 155.705 238.091 154.297C238.59 152.859 239.308 151.613 240.247 150.557C241.215 149.501 242.432 148.665 243.899 148.049C245.366 147.433 247.111 147.125 249.135 147.125C251.188 147.125 252.948 147.433 254.415 148.049C255.882 148.665 257.084 149.501 258.023 150.557C258.991 151.613 259.71 152.859 260.179 154.297C260.678 155.705 260.956 157.215 261.015 158.829C261.074 159.65 261.103 160.545 261.103 161.513C261.103 162.481 261.103 163.449 261.103 164.417C261.103 165.355 261.074 166.221 261.015 167.013C260.956 168.626 260.692 170.151 260.223 171.589C259.754 172.997 259.05 174.243 258.111 175.329C257.172 176.414 255.955 177.265 254.459 177.881C252.992 178.497 251.218 178.805 249.135 178.805ZM249.135 173.745C251.042 173.745 252.435 173.129 253.315 171.897C254.224 170.635 254.694 168.934 254.723 166.793C254.782 165.942 254.811 165.091 254.811 164.241C254.811 163.361 254.811 162.481 254.811 161.601C254.811 160.721 254.782 159.885 254.723 159.093C254.694 157.01 254.224 155.338 253.315 154.077C252.435 152.786 251.042 152.141 249.135 152.141C247.258 152.141 245.864 152.786 244.955 154.077C244.075 155.338 243.606 157.01 243.547 159.093C243.547 159.885 243.532 160.721 243.503 161.601C243.503 162.481 243.503 163.361 243.503 164.241C243.532 165.091 243.547 165.942 243.547 166.793C243.606 168.934 244.09 170.635 244.999 171.897C245.908 173.129 247.287 173.745 249.135 173.745ZM281.001 178.365C280.708 178.365 280.458 178.262 280.253 178.057C280.048 177.851 279.945 177.602 279.945 177.309V171.677H265.997C265.674 171.677 265.41 171.574 265.205 171.369C265.029 171.163 264.941 170.914 264.941 170.621V167.629C264.941 167.453 264.97 167.247 265.029 167.013C265.117 166.749 265.249 166.514 265.425 166.309L278.405 148.313C278.786 147.814 279.329 147.565 280.033 147.565H284.829C285.122 147.565 285.372 147.667 285.577 147.873C285.782 148.078 285.885 148.327 285.885 148.621V166.485H289.801C290.153 166.485 290.417 166.587 290.593 166.793C290.798 166.969 290.901 167.218 290.901 167.541V170.621C290.901 170.914 290.798 171.163 290.593 171.369C290.388 171.574 290.138 171.677 289.845 171.677H285.885V177.309C285.885 177.602 285.782 177.851 285.577 178.057C285.372 178.262 285.122 178.365 284.829 178.365H281.001ZM271.057 166.661H280.077V153.945L271.057 166.661Z" fill="#073BA1"/>
</g>
<defs>
<linearGradient id="paint0_linear_889_6141" x1="323.687" y1="409.597" x2="316.656" y2="234.218" gradientUnits="userSpaceOnUse">
<stop stop-color="#808080" stop-opacity="0.25"/>
<stop offset="0.54" stop-color="#808080" stop-opacity="0.12"/>
<stop offset="1" stop-color="#808080" stop-opacity="0.1"/>
</linearGradient>
<clipPath id="clip0_889_6141">
<rect width="550" height="420" fill="white"/>
</clipPath>
</defs>
</svg>
