<svg width="217" height="138" viewBox="0 0 217 138" fill="none" xmlns="http://www.w3.org/2000/svg">
<rect width="217" height="106" rx="16" fill="#F2F2F2"/>
<path d="M21.98 37C21.86 37 21.758 36.964 21.674 36.892C21.602 36.808 21.566 36.706 21.566 36.586V24.832C21.566 24.7 21.602 24.598 21.674 24.526C21.758 24.442 21.86 24.4 21.98 24.4H22.88C23.024 24.4 23.132 24.436 23.204 24.508C23.276 24.58 23.318 24.64 23.33 24.688L27.146 31.96L30.98 24.688C31.004 24.64 31.046 24.58 31.106 24.508C31.178 24.436 31.286 24.4 31.43 24.4H32.312C32.444 24.4 32.546 24.442 32.618 24.526C32.702 24.598 32.744 24.7 32.744 24.832V36.586C32.744 36.706 32.702 36.808 32.618 36.892C32.546 36.964 32.444 37 32.312 37H31.43C31.31 37 31.208 36.964 31.124 36.892C31.052 36.808 31.016 36.706 31.016 36.586V27.73L28.01 33.598C27.962 33.718 27.89 33.814 27.794 33.886C27.698 33.946 27.578 33.976 27.434 33.976H26.876C26.72 33.976 26.594 33.946 26.498 33.886C26.414 33.814 26.342 33.718 26.282 33.598L23.276 27.73V36.586C23.276 36.706 23.234 36.808 23.15 36.892C23.078 36.964 22.982 37 22.862 37H21.98ZM36.037 37C35.917 37 35.815 36.964 35.731 36.892C35.659 36.808 35.623 36.706 35.623 36.586V28.054C35.623 27.934 35.659 27.838 35.731 27.766C35.815 27.682 35.917 27.64 36.037 27.64H36.901C37.021 27.64 37.117 27.682 37.189 27.766C37.261 27.838 37.297 27.934 37.297 28.054V31.51H42.211V28.054C42.211 27.934 42.247 27.838 42.319 27.766C42.403 27.682 42.505 27.64 42.625 27.64H43.471C43.591 27.64 43.687 27.682 43.759 27.766C43.843 27.838 43.885 27.934 43.885 28.054V36.586C43.885 36.706 43.843 36.808 43.759 36.892C43.687 36.964 43.591 37 43.471 37H42.625C42.505 37 42.403 36.964 42.319 36.892C42.247 36.808 42.211 36.706 42.211 36.586V32.95H37.297V36.586C37.297 36.706 37.261 36.808 37.189 36.892C37.117 36.964 37.021 37 36.901 37H36.037ZM50.3178 37.18C49.0818 37.18 48.0978 36.802 47.3658 36.046C46.6338 35.278 46.2318 34.234 46.1598 32.914C46.1478 32.758 46.1418 32.56 46.1418 32.32C46.1418 32.068 46.1478 31.864 46.1598 31.708C46.2078 30.856 46.4058 30.112 46.7538 29.476C47.1018 28.828 47.5758 28.33 48.1758 27.982C48.7878 27.634 49.5018 27.46 50.3178 27.46C51.2298 27.46 51.9918 27.652 52.6038 28.036C53.2278 28.42 53.7018 28.966 54.0258 29.674C54.3498 30.382 54.5118 31.21 54.5118 32.158V32.464C54.5118 32.596 54.4698 32.698 54.3858 32.77C54.3138 32.842 54.2178 32.878 54.0978 32.878H47.8698C47.8698 32.89 47.8698 32.914 47.8698 32.95C47.8698 32.986 47.8698 33.016 47.8698 33.04C47.8938 33.532 48.0018 33.994 48.1938 34.426C48.3858 34.846 48.6618 35.188 49.0218 35.452C49.3818 35.716 49.8138 35.848 50.3178 35.848C50.7498 35.848 51.1098 35.782 51.3978 35.65C51.6858 35.518 51.9198 35.374 52.0998 35.218C52.2798 35.05 52.3998 34.924 52.4598 34.84C52.5678 34.684 52.6518 34.594 52.7118 34.57C52.7718 34.534 52.8678 34.516 52.9998 34.516H53.8638C53.9838 34.516 54.0798 34.552 54.1518 34.624C54.2358 34.684 54.2718 34.774 54.2598 34.894C54.2478 35.074 54.1518 35.296 53.9718 35.56C53.7918 35.812 53.5338 36.064 53.1978 36.316C52.8618 36.568 52.4538 36.778 51.9738 36.946C51.4938 37.102 50.9418 37.18 50.3178 37.18ZM47.8698 31.636H52.8018V31.582C52.8018 31.042 52.6998 30.562 52.4958 30.142C52.3038 29.722 52.0218 29.392 51.6498 29.152C51.2778 28.9 50.8338 28.774 50.3178 28.774C49.8018 28.774 49.3578 28.9 48.9858 29.152C48.6258 29.392 48.3498 29.722 48.1578 30.142C47.9658 30.562 47.8698 31.042 47.8698 31.582V31.636ZM61.4901 37C61.3701 37 61.2681 36.964 61.1841 36.892C61.1121 36.808 61.0761 36.706 61.0761 36.586V28.054C61.0761 27.934 61.1121 27.838 61.1841 27.766C61.2681 27.682 61.3701 27.64 61.4901 27.64H62.3541C62.4741 27.64 62.5701 27.682 62.6421 27.766C62.7141 27.838 62.7501 27.934 62.7501 28.054V31.51H67.6641V28.054C67.6641 27.934 67.7001 27.838 67.7721 27.766C67.8561 27.682 67.9581 27.64 68.0781 27.64H68.9241C69.0441 27.64 69.1401 27.682 69.2121 27.766C69.2961 27.838 69.3381 27.934 69.3381 28.054V36.586C69.3381 36.706 69.2961 36.808 69.2121 36.892C69.1401 36.964 69.0441 37 68.9241 37H68.0781C67.9581 37 67.8561 36.964 67.7721 36.892C67.7001 36.808 67.6641 36.706 67.6641 36.586V32.95H62.7501V36.586C62.7501 36.706 62.7141 36.808 62.6421 36.892C62.5701 36.964 62.4741 37 62.3541 37H61.4901ZM72.4769 40.42C72.3449 40.42 72.2429 40.378 72.1709 40.294C72.0989 40.222 72.0629 40.126 72.0629 40.006V39.394C72.0629 39.274 72.0989 39.172 72.1709 39.088C72.2429 39.016 72.3449 38.98 72.4769 38.98H72.9449C73.2209 38.98 73.4429 38.926 73.6109 38.818C73.7789 38.71 73.9289 38.524 74.0609 38.26C74.2049 38.008 74.3729 37.66 74.5649 37.216L78.4709 27.946C78.5069 27.85 78.5549 27.778 78.6149 27.73C78.6869 27.67 78.7889 27.64 78.9209 27.64H79.7129C79.8209 27.64 79.9109 27.676 79.9829 27.748C80.0549 27.82 80.0909 27.904 80.0909 28C80.0909 28.048 80.0849 28.096 80.0729 28.144C80.0609 28.18 80.0369 28.24 80.0009 28.324L76.5809 36.424C76.4009 36.856 76.2029 37.306 75.9869 37.774C75.7829 38.242 75.5489 38.674 75.2849 39.07C75.0329 39.478 74.7329 39.802 74.3849 40.042C74.0369 40.294 73.6289 40.42 73.1609 40.42H72.4769ZM74.9789 36.73L71.3429 28.324C71.2829 28.18 71.2529 28.078 71.2529 28.018C71.2649 27.91 71.3069 27.82 71.3789 27.748C71.4509 27.676 71.5349 27.64 71.6309 27.64H72.4769C72.6089 27.64 72.7049 27.67 72.7649 27.73C72.8369 27.79 72.8909 27.862 72.9269 27.946L75.9149 35.092L74.9789 36.73ZM81.3482 37C81.2402 37 81.1502 36.976 81.0782 36.928C81.0182 36.88 80.9882 36.808 80.9882 36.712C80.9882 36.652 81.0182 36.574 81.0782 36.478L84.1562 32.104L81.4382 28.144C81.4142 28.108 81.3962 28.072 81.3842 28.036C81.3722 27.988 81.3662 27.952 81.3662 27.928C81.3662 27.832 81.3962 27.76 81.4562 27.712C81.5282 27.664 81.6182 27.64 81.7262 27.64H82.6622C82.7822 27.64 82.8782 27.664 82.9502 27.712C83.0222 27.76 83.0882 27.826 83.1482 27.91L85.5782 31.51H86.9462V28.054C86.9462 27.934 86.9822 27.838 87.0542 27.766C87.1382 27.682 87.2402 27.64 87.3602 27.64H88.1882C88.3202 27.64 88.4222 27.682 88.4942 27.766C88.5662 27.838 88.6022 27.934 88.6022 28.054V31.51H89.9162L92.3822 27.91C92.4302 27.826 92.4902 27.76 92.5622 27.712C92.6462 27.664 92.7422 27.64 92.8502 27.64H93.8042C93.9122 27.64 93.9962 27.664 94.0562 27.712C94.1282 27.76 94.1642 27.832 94.1642 27.928C94.1642 27.952 94.1522 27.988 94.1282 28.036C94.1162 28.072 94.0982 28.108 94.0742 28.144L91.3742 32.104L94.4522 36.478C94.5002 36.55 94.5242 36.628 94.5242 36.712C94.5242 36.808 94.4942 36.88 94.4342 36.928C94.3742 36.976 94.2842 37 94.1642 37H93.0842C92.9642 37 92.8622 36.976 92.7782 36.928C92.7062 36.88 92.6462 36.814 92.5982 36.73L89.9702 32.95H88.6022V36.586C88.6022 36.706 88.5662 36.808 88.4942 36.892C88.4222 36.964 88.3202 37 88.1882 37H87.3602C87.2402 37 87.1382 36.964 87.0542 36.892C86.9822 36.808 86.9462 36.706 86.9462 36.586V32.95H85.5782L82.9142 36.73C82.8782 36.814 82.8182 36.88 82.7342 36.928C82.6622 36.976 82.5662 37 82.4462 37H81.3482ZM96.6815 37C96.5615 37 96.4595 36.964 96.3755 36.892C96.3035 36.808 96.2675 36.706 96.2675 36.586V28.054C96.2675 27.934 96.3035 27.838 96.3755 27.766C96.4595 27.682 96.5615 27.64 96.6815 27.64H97.5455C97.6655 27.64 97.7615 27.682 97.8335 27.766C97.9055 27.838 97.9415 27.934 97.9415 28.054V31.51H102.856V28.054C102.856 27.934 102.892 27.838 102.964 27.766C103.048 27.682 103.15 27.64 103.27 27.64H104.116C104.236 27.64 104.332 27.682 104.404 27.766C104.488 27.838 104.53 27.934 104.53 28.054V36.586C104.53 36.706 104.488 36.808 104.404 36.892C104.332 36.964 104.236 37 104.116 37H103.27C103.15 37 103.048 36.964 102.964 36.892C102.892 36.808 102.856 36.706 102.856 36.586V32.95H97.9415V36.586C97.9415 36.706 97.9055 36.808 97.8335 36.892C97.7615 36.964 97.6655 37 97.5455 37H96.6815ZM109.846 37.18C109.246 37.18 108.7 37.06 108.208 36.82C107.716 36.58 107.32 36.256 107.02 35.848C106.72 35.44 106.57 34.978 106.57 34.462C106.57 33.634 106.906 32.974 107.578 32.482C108.25 31.99 109.126 31.666 110.206 31.51L112.888 31.132V30.61C112.888 30.034 112.72 29.584 112.384 29.26C112.06 28.936 111.526 28.774 110.782 28.774C110.242 28.774 109.804 28.882 109.468 29.098C109.144 29.314 108.916 29.59 108.784 29.926C108.712 30.106 108.586 30.196 108.406 30.196H107.596C107.464 30.196 107.362 30.16 107.29 30.088C107.23 30.004 107.2 29.908 107.2 29.8C107.2 29.62 107.266 29.398 107.398 29.134C107.542 28.87 107.758 28.612 108.046 28.36C108.334 28.108 108.7 27.898 109.144 27.73C109.6 27.55 110.152 27.46 110.8 27.46C111.52 27.46 112.126 27.556 112.618 27.748C113.11 27.928 113.494 28.174 113.77 28.486C114.058 28.798 114.262 29.152 114.382 29.548C114.514 29.944 114.58 30.346 114.58 30.754V36.586C114.58 36.706 114.538 36.808 114.454 36.892C114.382 36.964 114.286 37 114.166 37H113.338C113.206 37 113.104 36.964 113.032 36.892C112.96 36.808 112.924 36.706 112.924 36.586V35.812C112.768 36.028 112.558 36.244 112.294 36.46C112.03 36.664 111.7 36.838 111.304 36.982C110.908 37.114 110.422 37.18 109.846 37.18ZM110.224 35.83C110.716 35.83 111.166 35.728 111.574 35.524C111.982 35.308 112.3 34.978 112.528 34.534C112.768 34.09 112.888 33.532 112.888 32.86V32.356L110.8 32.662C109.948 32.782 109.306 32.986 108.874 33.274C108.442 33.55 108.226 33.904 108.226 34.336C108.226 34.672 108.322 34.954 108.514 35.182C108.718 35.398 108.97 35.56 109.27 35.668C109.582 35.776 109.9 35.83 110.224 35.83ZM125.414 37.18C124.502 37.18 123.74 37.006 123.128 36.658C122.516 36.31 122.048 35.83 121.724 35.218C121.4 34.594 121.22 33.886 121.184 33.094C121.172 32.89 121.166 32.632 121.166 32.32C121.166 31.996 121.172 31.738 121.184 31.546C121.22 30.742 121.4 30.034 121.724 29.422C122.06 28.81 122.534 28.33 123.146 27.982C123.758 27.634 124.514 27.46 125.414 27.46C126.314 27.46 127.07 27.634 127.682 27.982C128.294 28.33 128.762 28.81 129.086 29.422C129.422 30.034 129.608 30.742 129.644 31.546C129.656 31.738 129.662 31.996 129.662 32.32C129.662 32.632 129.656 32.89 129.644 33.094C129.608 33.886 129.428 34.594 129.104 35.218C128.78 35.83 128.312 36.31 127.7 36.658C127.088 37.006 126.326 37.18 125.414 37.18ZM125.414 35.794C126.158 35.794 126.752 35.56 127.196 35.092C127.64 34.612 127.88 33.916 127.916 33.004C127.928 32.824 127.934 32.596 127.934 32.32C127.934 32.044 127.928 31.816 127.916 31.636C127.88 30.724 127.64 30.034 127.196 29.566C126.752 29.086 126.158 28.846 125.414 28.846C124.67 28.846 124.07 29.086 123.614 29.566C123.17 30.034 122.936 30.724 122.912 31.636C122.9 31.816 122.894 32.044 122.894 32.32C122.894 32.596 122.9 32.824 122.912 33.004C122.936 33.916 123.17 34.612 123.614 35.092C124.07 35.56 124.67 35.794 125.414 35.794ZM139.89 39.268C139.758 39.268 139.656 39.232 139.584 39.16C139.512 39.088 139.476 38.986 139.476 38.854V37H132.33C132.21 37 132.108 36.964 132.024 36.892C131.952 36.808 131.916 36.706 131.916 36.586V28.054C131.916 27.934 131.952 27.838 132.024 27.766C132.108 27.682 132.21 27.64 132.33 27.64H133.194C133.314 27.64 133.41 27.682 133.482 27.766C133.554 27.838 133.59 27.934 133.59 28.054V35.56H138.216V28.054C138.216 27.934 138.252 27.838 138.324 27.766C138.396 27.682 138.492 27.64 138.612 27.64H139.476C139.596 27.64 139.692 27.682 139.764 27.766C139.848 27.838 139.89 27.934 139.89 28.054L139.872 35.56H140.736C140.856 35.56 140.952 35.602 141.024 35.686C141.108 35.758 141.15 35.854 141.15 35.974V38.854C141.15 38.986 141.108 39.088 141.024 39.16C140.952 39.232 140.856 39.268 140.736 39.268H139.89ZM146.751 37.18C145.515 37.18 144.531 36.802 143.799 36.046C143.067 35.278 142.665 34.234 142.593 32.914C142.581 32.758 142.575 32.56 142.575 32.32C142.575 32.068 142.581 31.864 142.593 31.708C142.641 30.856 142.839 30.112 143.187 29.476C143.535 28.828 144.009 28.33 144.609 27.982C145.221 27.634 145.935 27.46 146.751 27.46C147.663 27.46 148.425 27.652 149.037 28.036C149.661 28.42 150.135 28.966 150.459 29.674C150.783 30.382 150.945 31.21 150.945 32.158V32.464C150.945 32.596 150.903 32.698 150.819 32.77C150.747 32.842 150.651 32.878 150.531 32.878H144.303C144.303 32.89 144.303 32.914 144.303 32.95C144.303 32.986 144.303 33.016 144.303 33.04C144.327 33.532 144.435 33.994 144.627 34.426C144.819 34.846 145.095 35.188 145.455 35.452C145.815 35.716 146.247 35.848 146.751 35.848C147.183 35.848 147.543 35.782 147.831 35.65C148.119 35.518 148.353 35.374 148.533 35.218C148.713 35.05 148.833 34.924 148.893 34.84C149.001 34.684 149.085 34.594 149.145 34.57C149.205 34.534 149.301 34.516 149.433 34.516H150.297C150.417 34.516 150.513 34.552 150.585 34.624C150.669 34.684 150.705 34.774 150.693 34.894C150.681 35.074 150.585 35.296 150.405 35.56C150.225 35.812 149.967 36.064 149.631 36.316C149.295 36.568 148.887 36.778 148.407 36.946C147.927 37.102 147.375 37.18 146.751 37.18ZM144.303 31.636H149.235V31.582C149.235 31.042 149.133 30.562 148.929 30.142C148.737 29.722 148.455 29.392 148.083 29.152C147.711 28.9 147.267 28.774 146.751 28.774C146.235 28.774 145.791 28.9 145.419 29.152C145.059 29.392 144.783 29.722 144.591 30.142C144.399 30.562 144.303 31.042 144.303 31.582V31.636ZM153.512 37C153.392 37 153.29 36.964 153.206 36.892C153.134 36.808 153.098 36.706 153.098 36.586V28.054C153.098 27.934 153.134 27.838 153.206 27.766C153.29 27.682 153.392 27.64 153.512 27.64H154.376C154.496 27.64 154.592 27.682 154.664 27.766C154.736 27.838 154.772 27.934 154.772 28.054V31.51H159.686V28.054C159.686 27.934 159.722 27.838 159.794 27.766C159.878 27.682 159.98 27.64 160.1 27.64H160.946C161.066 27.64 161.162 27.682 161.234 27.766C161.318 27.838 161.36 27.934 161.36 28.054V36.586C161.36 36.706 161.318 36.808 161.234 36.892C161.162 36.964 161.066 37 160.946 37H160.1C159.98 37 159.878 36.964 159.794 36.892C159.722 36.808 159.686 36.706 159.686 36.586V32.95H154.772V36.586C154.772 36.706 154.736 36.808 154.664 36.892C154.592 36.964 154.496 37 154.376 37H153.512ZM164.48 37C164.36 37 164.258 36.964 164.174 36.892C164.102 36.808 164.066 36.706 164.066 36.586V28.054C164.066 27.934 164.102 27.838 164.174 27.766C164.258 27.682 164.36 27.64 164.48 27.64H165.326C165.446 27.64 165.542 27.682 165.614 27.766C165.698 27.838 165.74 27.934 165.74 28.054V31.51H167.378L169.808 27.91C169.868 27.826 169.934 27.76 170.006 27.712C170.078 27.664 170.174 27.64 170.294 27.64H171.23C171.338 27.64 171.428 27.664 171.5 27.712C171.572 27.76 171.608 27.832 171.608 27.928C171.608 27.952 171.596 27.988 171.572 28.036C171.56 28.072 171.542 28.108 171.518 28.144L168.818 32.122L171.878 36.478C171.938 36.55 171.968 36.628 171.968 36.712C171.968 36.808 171.932 36.88 171.86 36.928C171.8 36.976 171.716 37 171.608 37H170.51C170.402 37 170.312 36.976 170.24 36.928C170.168 36.88 170.102 36.814 170.042 36.73L167.396 32.968H165.74V36.586C165.74 36.706 165.698 36.808 165.614 36.892C165.542 36.964 165.446 37 165.326 37H164.48ZM176.327 37.18C175.727 37.18 175.181 37.06 174.689 36.82C174.197 36.58 173.801 36.256 173.501 35.848C173.201 35.44 173.051 34.978 173.051 34.462C173.051 33.634 173.387 32.974 174.059 32.482C174.731 31.99 175.607 31.666 176.687 31.51L179.369 31.132V30.61C179.369 30.034 179.201 29.584 178.865 29.26C178.541 28.936 178.007 28.774 177.263 28.774C176.723 28.774 176.285 28.882 175.949 29.098C175.625 29.314 175.397 29.59 175.265 29.926C175.193 30.106 175.067 30.196 174.887 30.196H174.077C173.945 30.196 173.843 30.16 173.771 30.088C173.711 30.004 173.681 29.908 173.681 29.8C173.681 29.62 173.747 29.398 173.879 29.134C174.023 28.87 174.239 28.612 174.527 28.36C174.815 28.108 175.181 27.898 175.625 27.73C176.081 27.55 176.633 27.46 177.281 27.46C178.001 27.46 178.607 27.556 179.099 27.748C179.591 27.928 179.975 28.174 180.251 28.486C180.539 28.798 180.743 29.152 180.863 29.548C180.995 29.944 181.061 30.346 181.061 30.754V36.586C181.061 36.706 181.019 36.808 180.935 36.892C180.863 36.964 180.767 37 180.647 37H179.819C179.687 37 179.585 36.964 179.513 36.892C179.441 36.808 179.405 36.706 179.405 36.586V35.812C179.249 36.028 179.039 36.244 178.775 36.46C178.511 36.664 178.181 36.838 177.785 36.982C177.389 37.114 176.903 37.18 176.327 37.18ZM176.705 35.83C177.197 35.83 177.647 35.728 178.055 35.524C178.463 35.308 178.781 34.978 179.009 34.534C179.249 34.09 179.369 33.532 179.369 32.86V32.356L177.281 32.662C176.429 32.782 175.787 32.986 175.355 33.274C174.923 33.55 174.707 33.904 174.707 34.336C174.707 34.672 174.803 34.954 174.995 35.182C175.199 35.398 175.451 35.56 175.751 35.668C176.063 35.776 176.381 35.83 176.705 35.83ZM20.792 59.98C20.672 59.98 20.57 59.938 20.486 59.854C20.414 59.782 20.378 59.686 20.378 59.566V56.974C20.378 56.854 20.414 56.758 20.486 56.686C20.57 56.602 20.672 56.56 20.792 56.56H20.882C21.206 56.548 21.482 56.368 21.71 56.02C21.938 55.66 22.112 55.102 22.232 54.346C22.352 53.578 22.412 52.582 22.412 51.358V49.054C22.412 48.934 22.448 48.838 22.52 48.766C22.604 48.682 22.706 48.64 22.826 48.64H28.568C28.688 48.64 28.784 48.682 28.856 48.766C28.94 48.838 28.982 48.934 28.982 49.054V56.524H29.828C29.96 56.524 30.062 56.566 30.134 56.65C30.206 56.722 30.242 56.818 30.242 56.938V59.566C30.242 59.686 30.206 59.782 30.134 59.854C30.062 59.938 29.96 59.98 29.828 59.98H28.982C28.862 59.98 28.76 59.938 28.676 59.854C28.604 59.782 28.568 59.686 28.568 59.566V58H22.052V59.566C22.052 59.686 22.01 59.782 21.926 59.854C21.854 59.938 21.758 59.98 21.638 59.98H20.792ZM23.024 56.56L27.308 56.524V50.08H24.05V51.556C24.05 52.828 23.96 53.872 23.78 54.688C23.6 55.492 23.348 56.116 23.024 56.56ZM31.675 58C31.555 58 31.453 57.958 31.369 57.874C31.285 57.79 31.243 57.688 31.243 57.568V56.902C31.243 56.65 31.369 56.518 31.621 56.506C31.993 56.494 32.305 56.32 32.557 55.984C32.809 55.636 33.001 55.09 33.133 54.346C33.265 53.59 33.331 52.594 33.331 51.358V49.054C33.331 48.934 33.367 48.838 33.439 48.766C33.523 48.682 33.625 48.64 33.745 48.64H39.469C39.589 48.64 39.685 48.682 39.757 48.766C39.841 48.838 39.883 48.934 39.883 49.054V57.586C39.883 57.706 39.841 57.808 39.757 57.892C39.685 57.964 39.589 58 39.469 58H38.605C38.485 58 38.389 57.964 38.317 57.892C38.245 57.808 38.209 57.706 38.209 57.586V50.08H34.969V51.556C34.969 52.708 34.903 53.698 34.771 54.526C34.639 55.342 34.435 56.008 34.159 56.524C33.895 57.028 33.553 57.4 33.133 57.64C32.725 57.88 32.239 58 31.675 58ZM48.3984 58C48.2664 58 48.1644 57.964 48.0924 57.892C48.0204 57.808 47.9844 57.706 47.9844 57.586V54.652H45.9144V54.562C44.7864 54.562 43.9464 54.286 43.3944 53.734C42.8544 53.17 42.5844 52.456 42.5844 51.592C42.5844 50.584 42.8784 49.84 43.4664 49.36C44.0664 48.88 44.9664 48.64 46.1664 48.64H49.2624C49.3824 48.64 49.4784 48.682 49.5504 48.766C49.6344 48.838 49.6764 48.934 49.6764 49.054V57.586C49.6764 57.706 49.6344 57.808 49.5504 57.892C49.4784 57.964 49.3824 58 49.2624 58H48.3984ZM42.6924 58C42.5844 58 42.4944 57.964 42.4224 57.892C42.3504 57.82 42.3144 57.736 42.3144 57.64C42.3144 57.592 42.3204 57.544 42.3324 57.496C42.3564 57.436 42.3924 57.376 42.4404 57.316L44.5824 54.148L46.3104 54.274L44.0244 57.73C43.9764 57.79 43.9104 57.85 43.8264 57.91C43.7424 57.97 43.6524 58 43.5564 58H42.6924ZM45.9684 53.302H48.0024V49.99H46.1124C45.4404 49.99 44.9424 50.11 44.6184 50.35C44.3064 50.578 44.1504 50.992 44.1504 51.592C44.1504 52.084 44.2944 52.492 44.5824 52.816C44.8824 53.14 45.3444 53.302 45.9684 53.302ZM57.1835 58C57.0635 58 56.9615 57.964 56.8775 57.892C56.8055 57.808 56.7695 57.706 56.7695 57.586V49.054C56.7695 48.934 56.8055 48.838 56.8775 48.766C56.9615 48.682 57.0635 48.64 57.1835 48.64H58.0475C58.1675 48.64 58.2635 48.682 58.3355 48.766C58.4075 48.838 58.4435 48.934 58.4435 49.054V52.51H63.3575V49.054C63.3575 48.934 63.3935 48.838 63.4655 48.766C63.5495 48.682 63.6515 48.64 63.7715 48.64H64.6175C64.7375 48.64 64.8335 48.682 64.9055 48.766C64.9895 48.838 65.0315 48.934 65.0315 49.054V57.586C65.0315 57.706 64.9895 57.808 64.9055 57.892C64.8335 57.964 64.7375 58 64.6175 58H63.7715C63.6515 58 63.5495 57.964 63.4655 57.892C63.3935 57.808 63.3575 57.706 63.3575 57.586V53.95H58.4435V57.586C58.4435 57.706 58.4075 57.808 58.3355 57.892C58.2635 57.964 58.1675 58 58.0475 58H57.1835ZM71.5723 58.18C70.6603 58.18 69.8983 58.006 69.2863 57.658C68.6743 57.31 68.2063 56.83 67.8823 56.218C67.5583 55.594 67.3783 54.886 67.3423 54.094C67.3303 53.89 67.3243 53.632 67.3243 53.32C67.3243 52.996 67.3303 52.738 67.3423 52.546C67.3783 51.742 67.5583 51.034 67.8823 50.422C68.2183 49.81 68.6923 49.33 69.3043 48.982C69.9163 48.634 70.6723 48.46 71.5723 48.46C72.4723 48.46 73.2283 48.634 73.8403 48.982C74.4523 49.33 74.9203 49.81 75.2443 50.422C75.5803 51.034 75.7663 51.742 75.8023 52.546C75.8143 52.738 75.8203 52.996 75.8203 53.32C75.8203 53.632 75.8143 53.89 75.8023 54.094C75.7663 54.886 75.5863 55.594 75.2623 56.218C74.9383 56.83 74.4703 57.31 73.8583 57.658C73.2463 58.006 72.4843 58.18 71.5723 58.18ZM71.5723 56.794C72.3163 56.794 72.9103 56.56 73.3543 56.092C73.7983 55.612 74.0383 54.916 74.0743 54.004C74.0863 53.824 74.0923 53.596 74.0923 53.32C74.0923 53.044 74.0863 52.816 74.0743 52.636C74.0383 51.724 73.7983 51.034 73.3543 50.566C72.9103 50.086 72.3163 49.846 71.5723 49.846C70.8283 49.846 70.2283 50.086 69.7723 50.566C69.3283 51.034 69.0943 51.724 69.0703 52.636C69.0583 52.816 69.0522 53.044 69.0522 53.32C69.0522 53.596 69.0583 53.824 69.0703 54.004C69.0943 54.916 69.3283 55.612 69.7723 56.092C70.2283 56.56 70.8283 56.794 71.5723 56.794ZM80.9362 58C80.8162 58 80.7142 57.964 80.6302 57.892C80.5582 57.808 80.5222 57.706 80.5222 57.586V50.08H77.3902C77.2702 50.08 77.1682 50.044 77.0842 49.972C77.0122 49.888 76.9762 49.786 76.9762 49.666V49.054C76.9762 48.934 77.0122 48.838 77.0842 48.766C77.1682 48.682 77.2702 48.64 77.3902 48.64H85.3102C85.4302 48.64 85.5262 48.682 85.5982 48.766C85.6822 48.838 85.7242 48.934 85.7242 49.054V49.666C85.7242 49.786 85.6822 49.888 85.5982 49.972C85.5262 50.044 85.4302 50.08 85.3102 50.08H82.1782V57.586C82.1782 57.706 82.1422 57.808 82.0702 57.892C81.9982 57.964 81.8962 58 81.7642 58H80.9362ZM89.8951 58.18C89.2951 58.18 88.7491 58.06 88.2571 57.82C87.7651 57.58 87.3691 57.256 87.0691 56.848C86.7691 56.44 86.6191 55.978 86.6191 55.462C86.6191 54.634 86.9551 53.974 87.6271 53.482C88.2991 52.99 89.1751 52.666 90.2551 52.51L92.9371 52.132V51.61C92.9371 51.034 92.7691 50.584 92.4331 50.26C92.1091 49.936 91.5751 49.774 90.8311 49.774C90.2911 49.774 89.8531 49.882 89.5171 50.098C89.1931 50.314 88.9651 50.59 88.8331 50.926C88.7611 51.106 88.6351 51.196 88.4551 51.196H87.6451C87.5131 51.196 87.4111 51.16 87.3391 51.088C87.2791 51.004 87.2491 50.908 87.2491 50.8C87.2491 50.62 87.3151 50.398 87.4471 50.134C87.5911 49.87 87.8071 49.612 88.0951 49.36C88.3831 49.108 88.7491 48.898 89.1931 48.73C89.6491 48.55 90.2011 48.46 90.8491 48.46C91.5691 48.46 92.1751 48.556 92.6671 48.748C93.1591 48.928 93.5431 49.174 93.8191 49.486C94.1071 49.798 94.3111 50.152 94.4311 50.548C94.5631 50.944 94.6291 51.346 94.6291 51.754V57.586C94.6291 57.706 94.5871 57.808 94.5031 57.892C94.4311 57.964 94.3351 58 94.2151 58H93.3871C93.2551 58 93.1531 57.964 93.0811 57.892C93.0091 57.808 92.9731 57.706 92.9731 57.586V56.812C92.8171 57.028 92.6071 57.244 92.3431 57.46C92.0791 57.664 91.7491 57.838 91.3531 57.982C90.9571 58.114 90.4711 58.18 89.8951 58.18ZM90.2731 56.83C90.7651 56.83 91.2151 56.728 91.6231 56.524C92.0311 56.308 92.3491 55.978 92.5771 55.534C92.8171 55.09 92.9371 54.532 92.9371 53.86V53.356L90.8491 53.662C89.9971 53.782 89.3551 53.986 88.9231 54.274C88.4911 54.55 88.2751 54.904 88.2751 55.336C88.2751 55.672 88.3711 55.954 88.5631 56.182C88.7671 56.398 89.0191 56.56 89.3191 56.668C89.6311 56.776 89.9491 56.83 90.2731 56.83ZM97.6488 61.42C97.5288 61.42 97.4268 61.378 97.3428 61.294C97.2708 61.222 97.2348 61.126 97.2348 61.006V49.054C97.2348 48.934 97.2708 48.838 97.3428 48.766C97.4268 48.682 97.5288 48.64 97.6488 48.64H98.4768C98.5968 48.64 98.6928 48.682 98.7648 48.766C98.8488 48.838 98.8908 48.934 98.8908 49.054V49.846C99.1788 49.45 99.5628 49.12 100.043 48.856C100.523 48.592 101.123 48.46 101.843 48.46C102.515 48.46 103.085 48.574 103.553 48.802C104.033 49.03 104.423 49.342 104.723 49.738C105.035 50.134 105.269 50.584 105.425 51.088C105.581 51.592 105.665 52.132 105.677 52.708C105.689 52.9 105.695 53.104 105.695 53.32C105.695 53.536 105.689 53.74 105.677 53.932C105.665 54.496 105.581 55.036 105.425 55.552C105.269 56.056 105.035 56.506 104.723 56.902C104.423 57.286 104.033 57.598 103.553 57.838C103.085 58.066 102.515 58.18 101.843 58.18C101.147 58.18 100.559 58.054 100.079 57.802C99.6108 57.538 99.2268 57.214 98.9268 56.83V61.006C98.9268 61.126 98.8908 61.222 98.8188 61.294C98.7468 61.378 98.6448 61.42 98.5128 61.42H97.6488ZM101.465 56.722C102.089 56.722 102.575 56.59 102.923 56.326C103.283 56.05 103.541 55.696 103.697 55.264C103.853 54.82 103.943 54.346 103.967 53.842C103.979 53.494 103.979 53.146 103.967 52.798C103.943 52.294 103.853 51.826 103.697 51.394C103.541 50.95 103.283 50.596 102.923 50.332C102.575 50.056 102.089 49.918 101.465 49.918C100.877 49.918 100.397 50.056 100.025 50.332C99.6648 50.608 99.3948 50.962 99.2148 51.394C99.0468 51.814 98.9508 52.246 98.9268 52.69C98.9148 52.882 98.9088 53.11 98.9088 53.374C98.9088 53.638 98.9148 53.872 98.9268 54.076C98.9388 54.496 99.0348 54.91 99.2148 55.318C99.4068 55.726 99.6888 56.062 100.061 56.326C100.433 56.59 100.901 56.722 101.465 56.722ZM108.335 58C108.227 58 108.131 57.964 108.047 57.892C107.975 57.808 107.939 57.718 107.939 57.622V49.054C107.939 48.934 107.975 48.838 108.047 48.766C108.131 48.682 108.233 48.64 108.353 48.64H109.217C109.337 48.64 109.433 48.682 109.505 48.766C109.577 48.838 109.613 48.934 109.613 49.054V56.686L109.145 56.2L114.599 48.91C114.659 48.838 114.725 48.778 114.797 48.73C114.869 48.67 114.959 48.64 115.067 48.64H115.895C115.991 48.64 116.075 48.676 116.147 48.748C116.231 48.82 116.273 48.904 116.273 49V57.586C116.273 57.706 116.231 57.808 116.147 57.892C116.075 57.964 115.979 58 115.859 58H115.013C114.881 58 114.779 57.964 114.707 57.892C114.635 57.808 114.599 57.706 114.599 57.586V50.404L115.103 50.386L109.613 57.73C109.565 57.79 109.505 57.85 109.433 57.91C109.361 57.97 109.265 58 109.145 58H108.335ZM121.518 58.18C120.918 58.18 120.372 58.06 119.88 57.82C119.388 57.58 118.992 57.256 118.692 56.848C118.392 56.44 118.242 55.978 118.242 55.462C118.242 54.634 118.578 53.974 119.25 53.482C119.922 52.99 120.798 52.666 121.878 52.51L124.56 52.132V51.61C124.56 51.034 124.392 50.584 124.056 50.26C123.732 49.936 123.198 49.774 122.454 49.774C121.914 49.774 121.476 49.882 121.14 50.098C120.816 50.314 120.588 50.59 120.456 50.926C120.384 51.106 120.258 51.196 120.078 51.196H119.268C119.136 51.196 119.034 51.16 118.962 51.088C118.902 51.004 118.872 50.908 118.872 50.8C118.872 50.62 118.938 50.398 119.07 50.134C119.214 49.87 119.43 49.612 119.718 49.36C120.006 49.108 120.372 48.898 120.816 48.73C121.272 48.55 121.824 48.46 122.472 48.46C123.192 48.46 123.798 48.556 124.29 48.748C124.782 48.928 125.166 49.174 125.442 49.486C125.73 49.798 125.934 50.152 126.054 50.548C126.186 50.944 126.252 51.346 126.252 51.754V57.586C126.252 57.706 126.21 57.808 126.126 57.892C126.054 57.964 125.958 58 125.838 58H125.01C124.878 58 124.776 57.964 124.704 57.892C124.632 57.808 124.596 57.706 124.596 57.586V56.812C124.44 57.028 124.23 57.244 123.966 57.46C123.702 57.664 123.372 57.838 122.976 57.982C122.58 58.114 122.094 58.18 121.518 58.18ZM121.896 56.83C122.388 56.83 122.838 56.728 123.246 56.524C123.654 56.308 123.972 55.978 124.2 55.534C124.44 55.09 124.56 54.532 124.56 53.86V53.356L122.472 53.662C121.62 53.782 120.978 53.986 120.546 54.274C120.114 54.55 119.898 54.904 119.898 55.336C119.898 55.672 119.994 55.954 120.186 56.182C120.39 56.398 120.642 56.56 120.942 56.668C121.254 56.776 121.572 56.83 121.896 56.83ZM128.39 58C128.27 58 128.168 57.958 128.084 57.874C128 57.79 127.958 57.688 127.958 57.568V56.902C127.958 56.65 128.084 56.518 128.336 56.506C128.708 56.494 129.02 56.32 129.272 55.984C129.524 55.636 129.716 55.09 129.848 54.346C129.98 53.59 130.046 52.594 130.046 51.358V49.054C130.046 48.934 130.082 48.838 130.154 48.766C130.238 48.682 130.34 48.64 130.46 48.64H136.184C136.304 48.64 136.4 48.682 136.472 48.766C136.556 48.838 136.598 48.934 136.598 49.054V57.586C136.598 57.706 136.556 57.808 136.472 57.892C136.4 57.964 136.304 58 136.184 58H135.32C135.2 58 135.104 57.964 135.032 57.892C134.96 57.808 134.924 57.706 134.924 57.586V50.08H131.684V51.556C131.684 52.708 131.618 53.698 131.486 54.526C131.354 55.342 131.15 56.008 130.874 56.524C130.61 57.028 130.268 57.4 129.848 57.64C129.44 57.88 128.954 58 128.39 58ZM139.695 58C139.575 58 139.473 57.964 139.389 57.892C139.317 57.808 139.281 57.706 139.281 57.586V49.054C139.281 48.934 139.317 48.838 139.389 48.766C139.473 48.682 139.575 48.64 139.695 48.64H140.559C140.679 48.64 140.775 48.682 140.847 48.766C140.931 48.838 140.973 48.934 140.973 49.054V51.7H142.989C144.213 51.7 145.107 51.988 145.671 52.564C146.235 53.14 146.517 53.92 146.517 54.904C146.517 55.96 146.205 56.74 145.581 57.244C144.957 57.748 144.021 58 142.773 58H139.695ZM140.955 56.65H142.845C143.565 56.65 144.093 56.524 144.429 56.272C144.765 56.008 144.933 55.552 144.933 54.904C144.933 54.28 144.771 53.818 144.447 53.518C144.123 53.206 143.589 53.05 142.845 53.05H140.955V56.65ZM148.713 58C148.593 58 148.491 57.964 148.407 57.892C148.335 57.808 148.299 57.706 148.299 57.586V49.054C148.299 48.934 148.335 48.838 148.407 48.766C148.491 48.682 148.593 48.64 148.713 48.64H149.577C149.697 48.64 149.793 48.682 149.865 48.766C149.937 48.838 149.973 48.934 149.973 49.054V52.51H154.887V49.054C154.887 48.934 154.923 48.838 154.995 48.766C155.079 48.682 155.181 48.64 155.301 48.64H156.147C156.267 48.64 156.363 48.682 156.435 48.766C156.519 48.838 156.561 48.934 156.561 49.054V57.586C156.561 57.706 156.519 57.808 156.435 57.892C156.363 57.964 156.267 58 156.147 58H155.301C155.181 58 155.079 57.964 154.995 57.892C154.923 57.808 154.887 57.706 154.887 57.586V53.95H149.973V57.586C149.973 57.706 149.937 57.808 149.865 57.892C149.793 57.964 149.697 58 149.577 58H148.713ZM159.682 58C159.562 58 159.46 57.964 159.376 57.892C159.304 57.808 159.268 57.706 159.268 57.586V49.054C159.268 48.934 159.304 48.838 159.376 48.766C159.46 48.682 159.562 48.64 159.682 48.64H160.546C160.666 48.64 160.762 48.682 160.834 48.766C160.918 48.838 160.96 48.934 160.96 49.054V51.7H162.832C164.056 51.7 164.95 51.988 165.514 52.564C166.078 53.14 166.36 53.92 166.36 54.904C166.36 55.96 166.048 56.74 165.424 57.244C164.8 57.748 163.864 58 162.616 58H159.682ZM160.942 56.65H162.67C163.402 56.65 163.936 56.524 164.272 56.272C164.608 56.008 164.776 55.552 164.776 54.904C164.776 54.28 164.614 53.818 164.29 53.518C163.966 53.206 163.426 53.05 162.67 53.05H160.942V56.65ZM168.052 58C167.932 58 167.83 57.964 167.746 57.892C167.674 57.808 167.638 57.706 167.638 57.586V49.054C167.638 48.934 167.674 48.838 167.746 48.766C167.83 48.682 167.932 48.64 168.052 48.64H168.916C169.036 48.64 169.132 48.682 169.204 48.766C169.288 48.838 169.33 48.934 169.33 49.054V57.586C169.33 57.706 169.288 57.808 169.204 57.892C169.132 57.964 169.036 58 168.916 58H168.052ZM171.58 58C171.484 58 171.394 57.964 171.31 57.892C171.238 57.82 171.202 57.73 171.202 57.622C171.202 57.586 171.208 57.544 171.22 57.496C171.244 57.436 171.28 57.37 171.328 57.298L174.46 53.212L171.526 49.342C171.478 49.27 171.442 49.21 171.418 49.162C171.406 49.114 171.4 49.066 171.4 49.018C171.4 48.91 171.436 48.82 171.508 48.748C171.58 48.676 171.67 48.64 171.778 48.64H172.696C172.828 48.64 172.924 48.676 172.984 48.748C173.056 48.808 173.116 48.868 173.164 48.928L175.558 52.042L177.952 48.946C178 48.886 178.054 48.82 178.114 48.748C178.186 48.676 178.288 48.64 178.42 48.64H179.302C179.41 48.64 179.5 48.676 179.572 48.748C179.644 48.82 179.68 48.91 179.68 49.018C179.68 49.066 179.668 49.114 179.644 49.162C179.632 49.21 179.602 49.27 179.554 49.342L176.584 53.248L179.716 57.298C179.764 57.37 179.794 57.43 179.806 57.478C179.83 57.526 179.842 57.574 179.842 57.622C179.842 57.73 179.806 57.82 179.734 57.892C179.662 57.964 179.572 58 179.464 58H178.51C178.39 58 178.294 57.97 178.222 57.91C178.15 57.85 178.09 57.79 178.042 57.73L175.504 54.436L172.966 57.73C172.918 57.778 172.858 57.838 172.786 57.91C172.726 57.97 172.63 58 172.498 58H171.58ZM20.792 80.98C20.672 80.98 20.57 80.938 20.486 80.854C20.414 80.782 20.378 80.686 20.378 80.566V77.974C20.378 77.854 20.414 77.758 20.486 77.686C20.57 77.602 20.672 77.56 20.792 77.56H20.882C21.206 77.548 21.482 77.368 21.71 77.02C21.938 76.66 22.112 76.102 22.232 75.346C22.352 74.578 22.412 73.582 22.412 72.358V70.054C22.412 69.934 22.448 69.838 22.52 69.766C22.604 69.682 22.706 69.64 22.826 69.64H28.568C28.688 69.64 28.784 69.682 28.856 69.766C28.94 69.838 28.982 69.934 28.982 70.054V77.524H29.828C29.96 77.524 30.062 77.566 30.134 77.65C30.206 77.722 30.242 77.818 30.242 77.938V80.566C30.242 80.686 30.206 80.782 30.134 80.854C30.062 80.938 29.96 80.98 29.828 80.98H28.982C28.862 80.98 28.76 80.938 28.676 80.854C28.604 80.782 28.568 80.686 28.568 80.566V79H22.052V80.566C22.052 80.686 22.01 80.782 21.926 80.854C21.854 80.938 21.758 80.98 21.638 80.98H20.792ZM23.024 77.56L27.308 77.524V71.08H24.05V72.556C24.05 73.828 23.96 74.872 23.78 75.688C23.6 76.492 23.348 77.116 23.024 77.56ZM35.851 79.18C34.615 79.18 33.631 78.802 32.899 78.046C32.167 77.278 31.765 76.234 31.693 74.914C31.681 74.758 31.675 74.56 31.675 74.32C31.675 74.068 31.681 73.864 31.693 73.708C31.741 72.856 31.939 72.112 32.287 71.476C32.635 70.828 33.109 70.33 33.709 69.982C34.321 69.634 35.035 69.46 35.851 69.46C36.763 69.46 37.525 69.652 38.137 70.036C38.761 70.42 39.235 70.966 39.559 71.674C39.883 72.382 40.045 73.21 40.045 74.158V74.464C40.045 74.596 40.003 74.698 39.919 74.77C39.847 74.842 39.751 74.878 39.631 74.878H33.403C33.403 74.89 33.403 74.914 33.403 74.95C33.403 74.986 33.403 75.016 33.403 75.04C33.427 75.532 33.535 75.994 33.727 76.426C33.919 76.846 34.195 77.188 34.555 77.452C34.915 77.716 35.347 77.848 35.851 77.848C36.283 77.848 36.643 77.782 36.931 77.65C37.219 77.518 37.453 77.374 37.633 77.218C37.813 77.05 37.933 76.924 37.993 76.84C38.101 76.684 38.185 76.594 38.245 76.57C38.305 76.534 38.401 76.516 38.533 76.516H39.397C39.517 76.516 39.613 76.552 39.685 76.624C39.769 76.684 39.805 76.774 39.793 76.894C39.781 77.074 39.685 77.296 39.505 77.56C39.325 77.812 39.067 78.064 38.731 78.316C38.395 78.568 37.987 78.778 37.507 78.946C37.027 79.102 36.475 79.18 35.851 79.18ZM33.403 73.636H38.335V73.582C38.335 73.042 38.233 72.562 38.029 72.142C37.837 71.722 37.555 71.392 37.183 71.152C36.811 70.9 36.367 70.774 35.851 70.774C35.335 70.774 34.891 70.9 34.519 71.152C34.159 71.392 33.883 71.722 33.691 72.142C33.499 72.562 33.403 73.042 33.403 73.582V73.636ZM42.5932 79C42.4852 79 42.3892 78.964 42.3052 78.892C42.2332 78.808 42.1972 78.718 42.1972 78.622V70.054C42.1972 69.934 42.2332 69.838 42.3052 69.766C42.3892 69.682 42.4912 69.64 42.6112 69.64H43.4752C43.5952 69.64 43.6912 69.682 43.7632 69.766C43.8352 69.838 43.8712 69.934 43.8712 70.054V77.686L43.4032 77.2L48.8572 69.91C48.9172 69.838 48.9832 69.778 49.0552 69.73C49.1272 69.67 49.2172 69.64 49.3252 69.64H50.1532C50.2492 69.64 50.3332 69.676 50.4052 69.748C50.4892 69.82 50.5312 69.904 50.5312 70V78.586C50.5312 78.706 50.4892 78.808 50.4052 78.892C50.3332 78.964 50.2372 79 50.1172 79H49.2712C49.1392 79 49.0372 78.964 48.9652 78.892C48.8932 78.808 48.8572 78.706 48.8572 78.586V71.404L49.3612 71.386L43.8712 78.73C43.8232 78.79 43.7632 78.85 43.6912 78.91C43.6192 78.97 43.5232 79 43.4032 79H42.5932ZM46.4092 68.398C45.7132 68.398 45.1672 68.29 44.7712 68.074C44.3752 67.858 44.0992 67.582 43.9432 67.246C43.7872 66.898 43.7092 66.538 43.7092 66.166C43.7092 66.07 43.7332 65.992 43.7812 65.932C43.8412 65.86 43.9312 65.824 44.0512 65.824H44.6632C44.7712 65.824 44.8552 65.86 44.9152 65.932C44.9752 65.992 45.0052 66.07 45.0052 66.166C45.0052 66.442 45.0952 66.7 45.2752 66.94C45.4672 67.168 45.8452 67.282 46.4092 67.282C46.9852 67.282 47.3632 67.168 47.5432 66.94C47.7232 66.7 47.8132 66.442 47.8132 66.166C47.8132 66.07 47.8432 65.992 47.9032 65.932C47.9632 65.86 48.0472 65.824 48.1552 65.824H48.7852C48.8932 65.824 48.9772 65.86 49.0372 65.932C49.0972 65.992 49.1272 66.07 49.1272 66.166C49.1272 66.538 49.0432 66.898 48.8752 67.246C48.7192 67.582 48.4432 67.858 48.0472 68.074C47.6512 68.29 47.1052 68.398 46.4092 68.398ZM56.946 79.18C56.094 79.18 55.356 79.018 54.732 78.694C54.12 78.358 53.646 77.884 53.31 77.272C52.974 76.648 52.794 75.904 52.77 75.04C52.758 74.86 52.752 74.62 52.752 74.32C52.752 74.02 52.758 73.78 52.77 73.6C52.794 72.736 52.974 71.998 53.31 71.386C53.646 70.762 54.12 70.288 54.732 69.964C55.356 69.628 56.094 69.46 56.946 69.46C57.642 69.46 58.236 69.556 58.728 69.748C59.232 69.94 59.646 70.186 59.97 70.486C60.294 70.786 60.534 71.11 60.69 71.458C60.858 71.806 60.948 72.136 60.96 72.448C60.972 72.568 60.936 72.664 60.852 72.736C60.768 72.808 60.666 72.844 60.546 72.844H59.682C59.562 72.844 59.472 72.82 59.412 72.772C59.352 72.712 59.292 72.616 59.232 72.484C59.016 71.896 58.722 71.482 58.35 71.242C57.978 71.002 57.516 70.882 56.964 70.882C56.244 70.882 55.656 71.104 55.2 71.548C54.756 71.992 54.516 72.706 54.48 73.69C54.468 74.122 54.468 74.542 54.48 74.95C54.516 75.946 54.756 76.666 55.2 77.11C55.656 77.542 56.244 77.758 56.964 77.758C57.516 77.758 57.978 77.638 58.35 77.398C58.722 77.158 59.016 76.744 59.232 76.156C59.292 76.024 59.352 75.934 59.412 75.886C59.472 75.826 59.562 75.796 59.682 75.796H60.546C60.666 75.796 60.768 75.832 60.852 75.904C60.936 75.976 60.972 76.072 60.96 76.192C60.948 76.444 60.894 76.702 60.798 76.966C60.702 77.23 60.546 77.5 60.33 77.776C60.126 78.04 59.868 78.28 59.556 78.496C59.244 78.7 58.866 78.868 58.422 79C57.99 79.12 57.498 79.18 56.946 79.18ZM65.9596 79C65.8396 79 65.7376 78.964 65.6536 78.892C65.5816 78.808 65.5456 78.706 65.5456 78.586V71.08H62.4136C62.2936 71.08 62.1916 71.044 62.1076 70.972C62.0356 70.888 61.9996 70.786 61.9996 70.666V70.054C61.9996 69.934 62.0356 69.838 62.1076 69.766C62.1916 69.682 62.2936 69.64 62.4136 69.64H70.3336C70.4536 69.64 70.5496 69.682 70.6216 69.766C70.7056 69.838 70.7476 69.934 70.7476 70.054V70.666C70.7476 70.786 70.7056 70.888 70.6216 70.972C70.5496 71.044 70.4536 71.08 70.3336 71.08H67.2016V78.586C67.2016 78.706 67.1656 78.808 67.0936 78.892C67.0216 78.964 66.9196 79 66.7876 79H65.9596ZM72.7226 79C72.6026 79 72.5006 78.964 72.4166 78.892C72.3446 78.808 72.3086 78.706 72.3086 78.586V70.054C72.3086 69.934 72.3446 69.838 72.4166 69.766C72.5006 69.682 72.6026 69.64 72.7226 69.64H76.4666C77.5946 69.64 78.4406 69.868 79.0046 70.324C79.5806 70.78 79.8686 71.392 79.8686 72.16C79.8686 72.7 79.7666 73.108 79.5626 73.384C79.3586 73.66 79.0706 73.894 78.6986 74.086C79.1546 74.278 79.4966 74.59 79.7246 75.022C79.9646 75.442 80.0846 75.88 80.0846 76.336C80.0846 77.2 79.7786 77.86 79.1666 78.316C78.5546 78.772 77.7026 79 76.6106 79H72.7226ZM73.9646 77.686H76.4666C77.0426 77.686 77.5046 77.578 77.8526 77.362C78.2126 77.134 78.3926 76.792 78.3926 76.336C78.3926 75.856 78.2306 75.508 77.9066 75.292C77.5826 75.064 77.1026 74.95 76.4666 74.95H73.9646V77.686ZM73.9646 73.618H76.3586C76.9346 73.618 77.3906 73.492 77.7266 73.24C78.0746 72.988 78.2486 72.634 78.2486 72.178C78.2486 71.71 78.0746 71.392 77.7266 71.224C77.3906 71.044 76.9346 70.954 76.3586 70.954H73.9646V73.618ZM82.7944 79C82.6864 79 82.5904 78.964 82.5064 78.892C82.4344 78.808 82.3984 78.718 82.3984 78.622V70.054C82.3984 69.934 82.4344 69.838 82.5064 69.766C82.5904 69.682 82.6924 69.64 82.8124 69.64H83.6764C83.7964 69.64 83.8924 69.682 83.9644 69.766C84.0364 69.838 84.0724 69.934 84.0724 70.054V77.686L83.6044 77.2L89.0584 69.91C89.1184 69.838 89.1844 69.778 89.2564 69.73C89.3284 69.67 89.4184 69.64 89.5264 69.64H90.3544C90.4504 69.64 90.5344 69.676 90.6064 69.748C90.6904 69.82 90.7324 69.904 90.7324 70V78.586C90.7324 78.706 90.6904 78.808 90.6064 78.892C90.5344 78.964 90.4384 79 90.3184 79H89.4724C89.3404 79 89.2384 78.964 89.1664 78.892C89.0944 78.808 89.0584 78.706 89.0584 78.586V71.404L89.5624 71.386L84.0724 78.73C84.0244 78.79 83.9644 78.85 83.8924 78.91C83.8204 78.97 83.7244 79 83.6044 79H82.7944ZM93.7632 79C93.6552 79 93.5592 78.964 93.4752 78.892C93.4032 78.808 93.3672 78.718 93.3672 78.622V70.054C93.3672 69.934 93.4032 69.838 93.4752 69.766C93.5592 69.682 93.6612 69.64 93.7812 69.64H94.6452C94.7652 69.64 94.8612 69.682 94.9332 69.766C95.0052 69.838 95.0412 69.934 95.0412 70.054V77.686L94.5732 77.2L100.027 69.91C100.087 69.838 100.153 69.778 100.225 69.73C100.297 69.67 100.387 69.64 100.495 69.64H101.323C101.419 69.64 101.503 69.676 101.575 69.748C101.659 69.82 101.701 69.904 101.701 70V78.586C101.701 78.706 101.659 78.808 101.575 78.892C101.503 78.964 101.407 79 101.287 79H100.441C100.309 79 100.207 78.964 100.135 78.892C100.063 78.808 100.027 78.706 100.027 78.586V71.404L100.531 71.386L95.0412 78.73C94.9932 78.79 94.9332 78.85 94.8612 78.91C94.7892 78.97 94.6932 79 94.5732 79H93.7632ZM97.5792 68.398C96.8832 68.398 96.3372 68.29 95.9412 68.074C95.5452 67.858 95.2692 67.582 95.1132 67.246C94.9572 66.898 94.8792 66.538 94.8792 66.166C94.8792 66.07 94.9032 65.992 94.9512 65.932C95.0112 65.86 95.1012 65.824 95.2212 65.824H95.8332C95.9412 65.824 96.0252 65.86 96.0852 65.932C96.1452 65.992 96.1752 66.07 96.1752 66.166C96.1752 66.442 96.2652 66.7 96.4452 66.94C96.6372 67.168 97.0152 67.282 97.5792 67.282C98.1552 67.282 98.5332 67.168 98.7132 66.94C98.8932 66.7 98.9832 66.442 98.9832 66.166C98.9832 66.07 99.0132 65.992 99.0732 65.932C99.1332 65.86 99.2172 65.824 99.3252 65.824H99.9552C100.063 65.824 100.147 65.86 100.207 65.932C100.267 65.992 100.297 66.07 100.297 66.166C100.297 66.538 100.213 66.898 100.045 67.246C99.8892 67.582 99.6132 67.858 99.2172 68.074C98.8212 68.29 98.2752 68.398 97.5792 68.398ZM104.624 79C104.504 79 104.402 78.964 104.318 78.892C104.246 78.808 104.21 78.706 104.21 78.586V77.29C104.21 77.17 104.246 77.074 104.318 77.002C104.402 76.918 104.504 76.876 104.624 76.876H105.92C106.04 76.876 106.136 76.918 106.208 77.002C106.292 77.074 106.334 77.17 106.334 77.29V78.586C106.334 78.706 106.292 78.808 106.208 78.892C106.136 78.964 106.04 79 105.92 79H104.624Z" fill="#042668"/>
<path d="M188.756 131.594C187.715 134.013 184.285 134.013 183.244 131.594L171.346 103.936C170.494 101.955 171.946 99.75 174.102 99.75H197.898C200.054 99.75 201.506 101.955 200.654 103.936L188.756 131.594Z" fill="#F2F2F2"/>
</svg>
