<svg width="206" height="40" viewBox="0 0 206 40" fill="none" xmlns="http://www.w3.org/2000/svg">
<g filter="url(#filter0_d_13_238)">
<g clip-path="url(#clip0_13_238)">
<rect x="5" y="4" width="60" height="30" rx="4" fill="white"/>
<rect x="5" y="4" width="60" height="30" rx="5" fill="white"/>
<path d="M32.0666 25.798H28.5023L30.7317 12.2456H34.2958L32.0666 25.798Z" fill="#00579F"/>
<path d="M44.9876 12.577C44.2846 12.3028 43.1695 12 41.7907 12C38.2708 12 35.7922 13.8453 35.777 16.4836C35.7477 18.4301 37.5516 19.5113 38.9008 20.1603C40.2798 20.8235 40.7485 21.2564 40.7485 21.8475C40.7345 22.7554 39.6342 23.1739 38.608 23.1739C37.185 23.1739 36.4225 22.9582 35.2638 22.4531L34.7944 22.2365L34.2957 25.2787C35.1316 25.6532 36.6718 25.9854 38.2708 26C42.0108 26 44.4456 24.1832 44.4744 21.3717C44.4886 19.829 43.5361 18.6468 41.4825 17.6809C40.2359 17.0608 39.4724 16.6427 39.4724 16.0082C39.4871 15.4314 40.1182 14.8406 41.5254 14.8406C42.6842 14.8117 43.5355 15.0855 44.1805 15.3595L44.5029 15.5035L44.9876 12.577Z" fill="#00579F"/>
<path d="M49.7248 20.9969C50.0183 20.2183 51.1478 17.205 51.1478 17.205C51.133 17.2339 51.4408 16.4121 51.6168 15.9075L51.8659 17.0753C51.8659 17.0753 52.5408 20.3193 52.6874 20.9969C52.1303 20.9969 50.4288 20.9969 49.7248 20.9969ZM54.1245 12.2456H51.3675C50.5173 12.2456 49.8713 12.4905 49.5045 13.3701L44.2102 25.7978H47.9501C47.9501 25.7978 48.5658 24.1251 48.6982 23.7649C49.1085 23.7649 52.7467 23.7649 53.2745 23.7649C53.3768 24.2407 53.6998 25.7978 53.6998 25.7978H57L54.1245 12.2456Z" fill="#00579F"/>
<path d="M25.5253 12.2456L22.0347 21.487L21.6532 19.6128C21.0079 17.4501 18.984 15.1004 16.7253 13.9321L19.9226 25.7836H23.6918L29.2943 12.2456H25.5253Z" fill="#00579F"/>
<path d="M18.7933 12.2456H13.0587L13 12.5194C17.4734 13.6441 20.436 16.355 21.6532 19.6133L20.4066 13.3848C20.2013 12.5192 19.5706 12.2742 18.7933 12.2456Z" fill="#FAA61A"/>
</g>
<rect x="4.5" y="3.5" width="61" height="31" rx="4.5" stroke="#E8EEF3"/>
</g>
<g filter="url(#filter1_d_13_238)">
<g clip-path="url(#clip1_13_238)">
<rect x="73" y="4" width="60" height="30" rx="4" fill="white"/>
<rect x="73" y="4" width="60" height="30" rx="5" fill="white"/>
<path d="M94.0749 29.9517V28.4917C94.0749 27.9332 93.7386 27.5674 93.1613 27.5674C92.8727 27.5674 92.5588 27.6638 92.3431 27.9814C92.1749 27.7149 91.9339 27.5674 91.5724 27.5674C91.3315 27.5674 91.0905 27.6411 90.8999 27.9076V27.6156H90.3955V29.9517H90.8999V28.6618C90.8999 28.2478 91.1157 28.0522 91.452 28.0522C91.7882 28.0522 91.9564 28.2705 91.9564 28.6618V29.9517H92.4608V28.6618C92.4608 28.2478 92.7018 28.0522 93.0128 28.0522C93.3491 28.0522 93.5172 28.2705 93.5172 28.6618V29.9517H94.0749ZM101.557 27.6156H100.739V26.9097H100.234V27.6156H99.7774V28.0777H100.234V29.1494C100.234 29.6852 100.45 29.9999 101.027 29.9999C101.243 29.9999 101.484 29.9262 101.652 29.8298L101.506 29.3904C101.361 29.4868 101.193 29.5123 101.072 29.5123C100.831 29.5123 100.736 29.3649 100.736 29.1239V28.0777H101.554V27.6156H101.557ZM105.839 27.5646C105.55 27.5646 105.357 27.712 105.236 27.9048V27.6128H104.732V29.9489H105.236V28.6334C105.236 28.245 105.404 28.0239 105.718 28.0239C105.813 28.0239 105.934 28.0494 106.032 28.0721L106.178 27.5844C106.077 27.5646 105.934 27.5646 105.839 27.5646ZM99.3683 27.8084C99.1273 27.6383 98.791 27.5646 98.4295 27.5646C97.8523 27.5646 97.4684 27.8566 97.4684 28.3187C97.4684 28.7071 97.757 28.9283 98.2614 28.9991L98.5024 29.0247C98.7658 29.0728 98.9115 29.1466 98.9115 29.2685C98.9115 29.4386 98.7182 29.5605 98.3819 29.5605C98.0456 29.5605 97.7794 29.4386 97.6113 29.3167L97.3703 29.7051C97.6337 29.9007 97.9952 29.9971 98.3567 29.9971C99.0292 29.9971 99.4159 29.6796 99.4159 29.243C99.4159 28.829 99.1021 28.6107 98.6229 28.537L98.3819 28.5115C98.1661 28.486 97.998 28.4378 97.998 28.2932C97.998 28.1231 98.1661 28.0267 98.4323 28.0267C98.721 28.0267 99.0096 28.1486 99.1553 28.2223L99.3683 27.8084ZM112.788 27.5646C112.5 27.5646 112.306 27.712 112.186 27.9048V27.6128H111.681V29.9489H112.186V28.6334C112.186 28.245 112.354 28.0239 112.668 28.0239C112.763 28.0239 112.883 28.0494 112.982 28.0721L113.127 27.5901C113.029 27.5646 112.886 27.5646 112.788 27.5646ZM106.343 28.7837C106.343 29.4896 106.825 29.9999 107.57 29.9999C107.907 29.9999 108.148 29.9262 108.389 29.7334L108.148 29.3195C107.954 29.4669 107.764 29.5378 107.545 29.5378C107.136 29.5378 106.847 29.2458 106.847 28.7837C106.847 28.3442 107.136 28.0522 107.545 28.0296C107.761 28.0296 107.954 28.1033 108.148 28.2479L108.389 27.8339C108.148 27.6383 107.907 27.5674 107.57 27.5674C106.825 27.5646 106.343 28.0777 106.343 28.7837ZM111.009 28.7837V27.6156H110.504V27.9076C110.336 27.6893 110.095 27.5674 109.781 27.5674C109.131 27.5674 108.627 28.0777 108.627 28.7837C108.627 29.4896 109.131 29.9999 109.781 29.9999C110.118 29.9999 110.359 29.878 110.504 29.6597V29.9517H111.009V28.7837ZM109.157 28.7837C109.157 28.3698 109.42 28.0296 109.854 28.0296C110.263 28.0296 110.552 28.3471 110.552 28.7837C110.552 29.1976 110.263 29.5378 109.854 29.5378C109.423 29.5123 109.157 29.1948 109.157 28.7837ZM103.12 27.5646C102.448 27.5646 101.966 28.0522 101.966 28.7808C101.966 29.5123 102.448 29.9971 103.146 29.9971C103.482 29.9971 103.818 29.9007 104.084 29.6796L103.843 29.3138C103.65 29.4613 103.409 29.5576 103.171 29.5576C102.857 29.5576 102.546 29.4102 102.473 28.9991H104.18C104.18 28.9254 104.18 28.8772 104.18 28.8035C104.202 28.0522 103.768 27.5646 103.12 27.5646ZM103.12 28.004C103.434 28.004 103.65 28.1997 103.698 28.5625H102.496C102.543 28.2478 102.759 28.004 103.12 28.004ZM115.652 28.7837V26.6914H115.148V27.9076C114.98 27.6893 114.739 27.5674 114.425 27.5674C113.775 27.5674 113.27 28.0777 113.27 28.7837C113.27 29.4896 113.775 29.9999 114.425 29.9999C114.761 29.9999 115.002 29.878 115.148 29.6597V29.9517H115.652V28.7837ZM113.8 28.7837C113.8 28.3698 114.063 28.0296 114.498 28.0296C114.907 28.0296 115.195 28.3471 115.195 28.7837C115.195 29.1976 114.907 29.5378 114.498 29.5378C114.063 29.5123 113.8 29.1948 113.8 28.7837ZM96.9135 28.7837V27.6156H96.4091V27.9076C96.241 27.6893 96 27.5674 95.6861 27.5674C95.036 27.5674 94.5316 28.0777 94.5316 28.7837C94.5316 29.4896 95.036 29.9999 95.6861 29.9999C96.0224 29.9999 96.2634 29.878 96.4091 29.6597V29.9517H96.9135V28.7837ZM95.0388 28.7837C95.0388 28.3698 95.3022 28.0296 95.7366 28.0296C96.1457 28.0296 96.4343 28.3471 96.4343 28.7837C96.4343 29.1976 96.1457 29.5378 95.7366 29.5378C95.3022 29.5123 95.0388 29.1948 95.0388 28.7837Z" fill="black"/>
<path d="M106.777 9.87402H99.2002V23.6467H106.777V9.87402Z" fill="#FF5A00"/>
<path d="M99.7046 16.7603C99.7046 13.9621 101.005 11.4786 103 9.87397C101.532 8.70593 99.6793 8 97.6589 8C92.8727 8 89 11.918 89 16.7603C89 21.6026 92.8727 25.5206 97.6589 25.5206C99.6793 25.5206 101.532 24.8147 103 23.6467C101.002 22.0647 99.7046 19.5585 99.7046 16.7603Z" fill="#EB001B"/>
<path d="M117 16.7603C117 21.6026 113.127 25.5206 108.341 25.5206C106.321 25.5206 104.468 24.8147 103 23.6467C105.02 22.0392 106.295 19.5585 106.295 16.7603C106.295 13.9621 104.995 11.4786 103 9.87397C104.466 8.70593 106.318 8 108.338 8C113.127 8 117 11.9436 117 16.7603Z" fill="#F79E1B"/>
</g>
<rect x="72.5" y="3.5" width="61" height="31" rx="4.5" stroke="#E8EEF3"/>
</g>
<g filter="url(#filter2_d_13_238)">
<g clip-path="url(#clip2_13_238)">
<rect x="141" y="4" width="60" height="30" rx="4" fill="white"/>
<rect x="141" y="4" width="60" height="30" rx="5" fill="white"/>
<path fill-rule="evenodd" clip-rule="evenodd" d="M155.467 13.5185C155.837 13.5163 156.935 13.4181 157.4 14.9769C157.713 16.0269 158.212 17.7468 158.897 20.1367H159.176C159.911 17.6171 160.415 15.8972 160.69 14.9769C161.16 13.4019 162.335 13.5185 162.805 13.5185L166.431 13.5185V24.7185H162.735V18.1182H162.487L160.427 24.7185H157.646L155.586 18.1133H155.338V24.7185H151.642V13.5185L155.467 13.5185ZM171.738 13.5185V20.1238H172.033L174.539 14.6923C175.026 13.6115 176.063 13.5185 176.063 13.5185H179.639V24.7185H175.866V18.1133H175.571L173.114 23.5447C172.628 24.6207 171.542 24.7185 171.542 24.7185H167.965V13.5185H171.738ZM192.681 18.8409C192.154 20.3217 190.501 21.3822 188.672 21.3822H184.715V24.7185H181.127V18.8409H192.681Z" fill="#0F754E"/>
<path fill-rule="evenodd" clip-rule="evenodd" d="M188.845 13.5181H180.939C181.127 16.0116 183.29 18.1462 185.528 18.1462H192.93C193.357 16.0738 191.887 13.5181 188.845 13.5181Z" fill="url(#paint0_linear_13_238)"/>
</g>
<rect x="140.5" y="3.5" width="61" height="31" rx="4.5" stroke="#E8EEF3"/>
</g>
<defs>
<filter id="filter0_d_13_238" x="0" y="0" width="70" height="40" filterUnits="userSpaceOnUse" color-interpolation-filters="sRGB">
<feFlood flood-opacity="0" result="BackgroundImageFix"/>
<feColorMatrix in="SourceAlpha" type="matrix" values="0 0 0 0 0 0 0 0 0 0 0 0 0 0 0 0 0 0 127 0" result="hardAlpha"/>
<feOffset dy="1"/>
<feGaussianBlur stdDeviation="2"/>
<feComposite in2="hardAlpha" operator="out"/>
<feColorMatrix type="matrix" values="0 0 0 0 0.027451 0 0 0 0 0.231373 0 0 0 0 0.631373 0 0 0 0.1 0"/>
<feBlend mode="normal" in2="BackgroundImageFix" result="effect1_dropShadow_13_238"/>
<feBlend mode="normal" in="SourceGraphic" in2="effect1_dropShadow_13_238" result="shape"/>
</filter>
<filter id="filter1_d_13_238" x="68" y="0" width="70" height="40" filterUnits="userSpaceOnUse" color-interpolation-filters="sRGB">
<feFlood flood-opacity="0" result="BackgroundImageFix"/>
<feColorMatrix in="SourceAlpha" type="matrix" values="0 0 0 0 0 0 0 0 0 0 0 0 0 0 0 0 0 0 127 0" result="hardAlpha"/>
<feOffset dy="1"/>
<feGaussianBlur stdDeviation="2"/>
<feComposite in2="hardAlpha" operator="out"/>
<feColorMatrix type="matrix" values="0 0 0 0 0.027451 0 0 0 0 0.231373 0 0 0 0 0.631373 0 0 0 0.1 0"/>
<feBlend mode="normal" in2="BackgroundImageFix" result="effect1_dropShadow_13_238"/>
<feBlend mode="normal" in="SourceGraphic" in2="effect1_dropShadow_13_238" result="shape"/>
</filter>
<filter id="filter2_d_13_238" x="136" y="0" width="70" height="40" filterUnits="userSpaceOnUse" color-interpolation-filters="sRGB">
<feFlood flood-opacity="0" result="BackgroundImageFix"/>
<feColorMatrix in="SourceAlpha" type="matrix" values="0 0 0 0 0 0 0 0 0 0 0 0 0 0 0 0 0 0 127 0" result="hardAlpha"/>
<feOffset dy="1"/>
<feGaussianBlur stdDeviation="2"/>
<feComposite in2="hardAlpha" operator="out"/>
<feColorMatrix type="matrix" values="0 0 0 0 0.027451 0 0 0 0 0.231373 0 0 0 0 0.631373 0 0 0 0.1 0"/>
<feBlend mode="normal" in2="BackgroundImageFix" result="effect1_dropShadow_13_238"/>
<feBlend mode="normal" in="SourceGraphic" in2="effect1_dropShadow_13_238" result="shape"/>
</filter>
<linearGradient id="paint0_linear_13_238" x1="193.003" y1="16.4293" x2="180.939" y2="16.4293" gradientUnits="userSpaceOnUse">
<stop stop-color="#1F5CD7"/>
<stop offset="1" stop-color="#02AEFF"/>
</linearGradient>
<clipPath id="clip0_13_238">
<rect x="5" y="4" width="60" height="30" rx="4" fill="white"/>
</clipPath>
<clipPath id="clip1_13_238">
<rect x="73" y="4" width="60" height="30" rx="4" fill="white"/>
</clipPath>
<clipPath id="clip2_13_238">
<rect x="141" y="4" width="60" height="30" rx="4" fill="white"/>
</clipPath>
</defs>
</svg>
