<svg width="180" height="60" viewBox="0 0 180 60" fill="none" xmlns="http://www.w3.org/2000/svg">
<g clip-path="url(#clip0_1020_7891)">
<path d="M55.8216 51.7881H10.9027V54.3436H55.8216V51.7881Z" fill="white"/>
<path d="M60.9823 55.8188H5.74463V58.3744H60.9823V55.8188Z" fill="white"/>
<path d="M48.75 50.3391V29.5522V26.9966V12.7699V11.5053V10.2144H34.5749V10.7677V12.7699V26.9966V29.5522V50.3391H37.1546V29.5522H46.1703V50.3391H48.75ZM37.128 26.9966V12.7699H46.1437V26.9966H37.128Z" fill="white"/>
<path d="M52.7923 50.3391V8.73913V6.18359H50.2126H33.0855H30.5058V8.73913V50.3391H33.0855V8.73913H50.2126V50.3391H52.7923Z" fill="white"/>
<path d="M13.9369 47.7836V50.3391H26.4631H29.0428V6.18359H26.4631H13.9369V8.73913H26.4631V26.9968H13.9369V29.5524H26.4631V47.7836H13.9369Z" fill="white"/>
<path d="M66.2481 5.9725C65.7694 4.86598 64.9715 3.91753 63.9875 3.23254C63.1099 2.65294 62.0726 2.25775 60.9556 2.17871H5.71792V2.20505C5.05304 2.25775 4.41477 2.41582 3.82967 2.67928C2.68609 3.1535 1.72868 3.91753 1.0638 4.91867C0.398925 5.91982 0 7.10537 0 8.39632C0 9.23937 0.186165 10.0824 0.505304 10.8202C0.984012 11.9267 1.78186 12.8751 2.76588 13.5337C3.77649 14.1924 4.97326 14.5875 6.27642 14.5875C7.12745 14.5875 7.97849 14.4032 8.72315 14.1134C9.84012 13.6391 10.7975 12.8488 11.4624 11.874C12.1273 10.8729 12.5262 9.68728 12.5262 8.39632C12.5262 7.63228 12.3932 6.89461 12.1273 6.20962H9.20186C9.22847 6.26231 9.28168 6.315 9.3082 6.36769C9.70718 6.94729 9.94654 7.63228 9.94654 8.39632C9.94654 8.89685 9.84012 9.37111 9.65397 9.81902C9.38801 10.4776 8.9093 11.0309 8.32423 11.4261C7.73913 11.8213 7.02107 12.0584 6.27642 12.0584C5.77111 12.0584 5.2924 11.953 4.84029 11.7686C4.17541 11.5051 3.61691 11.0309 3.21799 10.4513C2.81906 9.87172 2.57971 9.16033 2.57971 8.42266C2.57971 7.92209 2.68609 7.44787 2.87226 6.99999C3.1648 6.34135 3.61691 5.78809 4.20201 5.39289C4.7871 4.99771 5.50516 4.7606 6.24982 4.7606H11.3029H55.4239H60.3972C60.4237 4.7606 60.4503 4.7606 60.4769 4.7606C60.9823 4.7606 61.461 4.86598 61.9131 5.0504C62.5779 5.34021 63.1365 5.78809 63.5354 6.36769C63.9343 6.94729 64.1737 7.65863 64.1737 8.39632C64.1737 8.89685 64.0673 9.37111 63.8811 9.81902C63.5886 10.4776 63.1365 11.0309 62.5513 11.4261C61.9663 11.8213 61.2482 12.0584 60.5035 12.0584C59.9982 12.0584 59.5195 11.953 59.0674 11.7686C58.4025 11.5051 57.844 11.0309 57.4451 10.4513C57.0462 9.87172 56.8069 9.16033 56.8069 8.42266C56.8069 7.92209 56.9132 7.44787 57.0994 6.99999C57.2058 6.73653 57.3653 6.47308 57.5515 6.23596H54.6527C54.3867 6.92095 54.2538 7.65863 54.2538 8.42266C54.2538 9.26572 54.4399 10.1088 54.759 10.8465C55.2377 11.953 56.0356 12.9015 57.0196 13.5601C58.0303 14.2188 59.227 14.6139 60.5301 14.6139C61.3811 14.6139 62.2322 14.4295 62.9769 14.1397C64.0939 13.6655 65.0513 12.8751 65.7428 11.9003C66.4076 10.8992 66.8065 9.71363 66.8065 8.42266C66.7534 7.5269 66.5672 6.71019 66.2481 5.9725Z" fill="white"/>
<path d="M79.4034 54.7085C79.74 54.7085 80.0435 54.7872 80.3141 54.9447C80.5866 55.1001 80.7993 55.3158 80.952 55.5919C81.1069 55.868 81.1844 56.1767 81.1844 56.5182C81.1844 57.0335 81.0171 57.4609 80.6827 57.8003C80.3481 58.1398 79.9259 58.3095 79.4158 58.3095C79.0669 58.3095 78.751 58.2318 78.468 58.0764C78.1852 57.921 77.9633 57.7063 77.8021 57.4322C77.6432 57.1582 77.5637 56.8515 77.5637 56.5121C77.5637 55.9906 77.7372 55.5601 78.084 55.2208C78.4309 54.8792 78.8707 54.7085 79.4034 54.7085ZM79.3663 55.1348C78.9864 55.1348 78.6704 55.2668 78.4185 55.5305C78.1666 55.7922 78.0407 56.1215 78.0407 56.5182C78.0407 56.9108 78.1697 57.236 78.4278 57.4936C78.6859 57.7513 79.0111 57.8801 79.4034 57.8801C79.7855 57.8801 80.0983 57.7534 80.3419 57.4998C80.5877 57.2441 80.7105 56.919 80.7105 56.5243C80.7105 56.1194 80.5846 55.7872 80.3327 55.5275C80.0808 55.2657 79.7586 55.1348 79.3663 55.1348Z" fill="white"/>
<path d="M84.7772 54.7915C84.7772 54.7915 84.7772 55.7965 84.7772 57.8067C84.7772 57.8067 84.9651 57.8067 85.3409 57.8067C85.3409 57.8067 85.3409 58.2105 85.3409 59.0183C85.3409 59.0183 85.2336 59.0183 85.0188 59.0183C85.0188 59.0183 84.962 58.7545 84.8485 58.227C84.8485 58.227 83.8502 58.227 81.8534 58.227C81.8534 58.227 81.8534 57.0818 81.8534 54.7915C81.8534 54.7915 82.0104 54.7915 82.3242 54.7915C82.3242 54.7915 82.3242 55.7965 82.3242 57.8067C82.3242 57.8067 82.986 57.8067 84.3096 57.8067C84.3096 57.8067 84.3096 56.8017 84.3096 54.7915C84.3096 54.7915 84.4654 54.7915 84.7772 54.7915Z" fill="white"/>
<path d="M89.1694 56.6624C89.1694 56.6624 88.1236 56.6624 86.0317 56.6624C86.0502 57.0018 86.1906 57.2901 86.4529 57.5274C86.715 57.7625 87.0248 57.8801 87.382 57.8801C87.6463 57.8801 87.8901 57.8085 88.1131 57.6654C88.3361 57.5202 88.4959 57.3301 88.5934 57.0948H89.0824C88.9543 57.4568 88.7356 57.7502 88.4257 57.9752C88.1157 58.1981 87.7723 58.3095 87.3944 58.3095C87.1425 58.3095 86.903 58.2625 86.6759 58.1684C86.4487 58.0744 86.2536 57.9466 86.0905 57.785C85.9274 57.6235 85.7983 57.4302 85.7033 57.2053C85.6084 56.9803 85.5609 56.7431 85.5609 56.4937C85.5609 56.1665 85.6403 55.8659 85.7993 55.5919C85.9583 55.3179 86.1751 55.1021 86.4498 54.9447C86.7244 54.7872 87.0268 54.7085 87.3573 54.7085C87.7 54.7085 88.0147 54.7923 88.3019 54.96C88.5907 55.1277 88.8111 55.3557 88.9613 55.644C89.0377 55.7892 89.0921 55.9385 89.1228 56.0919C89.1536 56.2432 89.1694 56.4334 89.1694 56.6624ZM86.044 56.2422H88.7014C88.6232 55.9007 88.4634 55.6308 88.2211 55.4324C87.9822 55.234 87.6938 55.1348 87.3573 55.1348C87.0289 55.1348 86.744 55.2371 86.5024 55.4415C86.2608 55.644 86.1081 55.9108 86.044 56.2422Z" fill="white"/>
<path d="M92.8396 58.227C92.8396 58.227 92.6824 58.227 92.369 58.227C92.369 58.227 92.369 57.7137 92.369 56.6872C92.369 56.6872 91.6762 56.6872 90.2906 56.6872C90.2906 56.6872 90.2906 57.2004 90.2906 58.227C90.2906 58.227 90.1335 58.227 89.82 58.227C89.82 58.227 89.82 57.0818 89.82 54.7915C89.82 54.7915 89.9763 54.7915 90.2906 54.7915C90.2906 54.7915 90.2906 55.2833 90.2906 56.2669C90.2906 56.2669 90.9834 56.2669 92.369 56.2669C92.369 56.2669 92.369 55.7752 92.369 54.7915C92.369 54.7915 92.5253 54.7915 92.8396 54.7915C92.8396 54.7915 92.8396 55.9366 92.8396 58.227Z" fill="white"/>
<path d="M95.342 54.7085C95.6783 54.7085 95.9821 54.7872 96.2526 54.9447C96.5248 55.1001 96.7381 55.3158 96.8909 55.5919C97.0455 55.868 97.1227 56.1767 97.1227 56.5182C97.1227 57.0335 96.9559 57.4609 96.6214 57.8003C96.2868 58.1398 95.8645 58.3095 95.3543 58.3095C95.0058 58.3095 94.6897 58.2318 94.4069 58.0764C94.1233 57.921 93.902 57.7063 93.7405 57.4322C93.5816 57.1582 93.5025 56.8515 93.5025 56.5121C93.5025 55.9906 93.6755 55.5601 94.0223 55.2208C94.3692 54.8792 94.8091 54.7085 95.342 54.7085ZM95.3052 55.1348C94.925 55.1348 94.6089 55.2668 94.3569 55.5305C94.1049 55.7922 93.9793 56.1215 93.9793 56.5182C93.9793 56.9108 94.1084 57.236 94.3665 57.4936C94.6247 57.7513 94.9496 57.8801 95.342 57.8801C95.724 57.8801 96.0366 57.7534 96.2807 57.4998C96.5265 57.2441 96.6495 56.919 96.6495 56.5243C96.6495 56.1194 96.523 55.7872 96.271 55.5275C96.019 55.2657 95.6968 55.1348 95.3052 55.1348Z" fill="white"/>
<path d="M100.31 54.7915C100.31 54.7915 100.31 55.9366 100.31 58.227C100.31 58.227 100.154 58.227 99.8421 58.227C99.8421 58.227 99.8421 57.7709 99.8421 56.8589C99.4917 56.8998 99.1264 56.9203 98.7489 56.9203C98.6356 56.9203 98.5145 56.9029 98.3863 56.8681C98.2589 56.8313 98.1553 56.7843 98.0772 56.727C97.8103 56.545 97.6777 56.2475 97.6777 55.8344V54.7915C97.6777 54.7915 97.834 54.7915 98.1483 54.7915C98.1483 54.7915 98.1483 55.1392 98.1483 55.8344C98.1483 55.9714 98.1615 56.0808 98.1887 56.1626C98.2177 56.2445 98.2704 56.3119 98.3467 56.3651C98.4231 56.4162 98.5206 56.4519 98.6409 56.4725C98.7621 56.4908 98.9236 56.5 99.1238 56.5C99.3073 56.5 99.547 56.4806 99.8421 56.4418V54.7915H100.31Z" fill="white"/>
<path d="M104.132 58.227C104.132 58.227 103.975 58.227 103.662 58.227C103.662 58.227 103.662 57.7137 103.662 56.6872C103.662 56.6872 102.969 56.6872 101.583 56.6872C101.583 56.6872 101.583 57.2004 101.583 58.227C101.583 58.227 101.426 58.227 101.113 58.227C101.113 58.227 101.113 57.0818 101.113 54.7915C101.113 54.7915 101.269 54.7915 101.583 54.7915C101.583 54.7915 101.583 55.2833 101.583 56.2669C101.583 56.2669 102.276 56.2669 103.662 56.2669C103.662 56.2669 103.662 55.7752 103.662 54.7915C103.662 54.7915 103.818 54.7915 104.132 54.7915C104.132 54.7915 104.132 55.9366 104.132 58.227Z" fill="white"/>
<path d="M106.635 54.7085C106.971 54.7085 107.275 54.7872 107.545 54.9447C107.817 55.1001 108.031 55.3158 108.183 55.5919C108.338 55.868 108.415 56.1767 108.415 56.5182C108.415 57.0335 108.248 57.4609 107.914 57.8003C107.579 58.1398 107.157 58.3095 106.647 58.3095C106.298 58.3095 105.982 58.2318 105.699 58.0764C105.417 57.921 105.195 57.7063 105.033 57.4322C104.874 57.1582 104.795 56.8515 104.795 56.5121C104.795 55.9906 104.968 55.5601 105.315 55.2208C105.662 54.8792 106.102 54.7085 106.635 54.7085ZM106.598 55.1348C106.218 55.1348 105.901 55.2668 105.649 55.5305C105.397 55.7922 105.272 56.1215 105.272 56.5182C105.272 56.9108 105.401 57.236 105.659 57.4936C105.917 57.7513 106.242 57.8801 106.635 57.8801C107.017 57.8801 107.329 57.7534 107.573 57.4998C107.819 57.2441 107.942 56.919 107.942 56.5243C107.942 56.1194 107.816 55.7872 107.564 55.5275C107.312 55.2657 106.989 55.1348 106.598 55.1348Z" fill="white"/>
<path d="M108.88 56.3682C108.88 56.3682 109.453 56.3682 110.599 56.3682C110.599 56.3682 110.599 56.5001 110.599 56.7639C110.599 56.7639 110.027 56.7639 108.88 56.7639C108.88 56.7639 108.88 56.632 108.88 56.3682Z" fill="white"/>
<path d="M111.578 57.2544C111.708 57.4487 111.873 57.602 112.073 57.7145C112.276 57.8249 112.497 57.8801 112.74 57.8801C113.094 57.8801 113.402 57.7676 113.663 57.5427C113.922 57.3178 114.075 57.0366 114.121 56.6992H112.055V56.2789C112.055 56.2789 112.741 56.2789 114.115 56.2789C114.061 55.9477 113.907 55.6747 113.653 55.46C113.399 55.2432 113.101 55.1348 112.758 55.1348C112.246 55.1348 111.853 55.3547 111.578 55.7943H111.039C111.19 55.4548 111.415 55.189 111.714 54.9968C112.015 54.8046 112.361 54.7085 112.752 54.7085C113.093 54.7085 113.405 54.7882 113.691 54.9477C113.975 55.1052 114.199 55.3209 114.362 55.5949C114.527 55.8689 114.61 56.1706 114.61 56.4998C114.61 56.8352 114.527 57.1419 114.362 57.42C114.197 57.6961 113.97 57.9139 113.681 58.0734C113.392 58.2308 113.072 58.3095 112.72 58.3095C112.337 58.3095 112.002 58.2154 111.718 58.0274C111.434 57.8392 111.208 57.5815 111.039 57.2544H111.578Z" fill="white"/>
<path d="M115.273 54.7915C115.273 54.7915 115.43 54.7915 115.744 54.7915C115.744 54.7915 115.744 55.3018 115.744 56.3221C115.744 56.3221 116.272 55.8119 117.329 54.7915C117.329 54.7915 117.532 54.7915 117.937 54.7915C117.937 54.7915 117.359 55.3457 116.205 56.454C116.205 56.454 116.782 57.045 117.937 58.227C117.937 58.227 117.732 58.227 117.323 58.227C117.323 58.227 116.797 57.6871 115.744 56.6074C115.744 56.6074 115.744 57.1472 115.744 58.227C115.744 58.227 115.586 58.227 115.273 58.227C115.273 58.227 115.273 57.0818 115.273 54.7915Z" fill="white"/>
<path d="M121.176 57.2145C121.176 57.2145 121.354 57.2145 121.709 57.2145C121.61 57.4006 121.519 57.5468 121.437 57.6531C121.354 57.7575 121.255 57.8525 121.139 57.9384C120.821 58.1858 120.445 58.3095 120.009 58.3095C119.658 58.3095 119.337 58.2308 119.048 58.0734C118.76 57.9139 118.532 57.6961 118.367 57.42C118.202 57.1419 118.12 56.8352 118.12 56.4998C118.12 56.1706 118.201 55.8689 118.364 55.5949C118.53 55.3209 118.754 55.1052 119.039 54.9477C119.324 54.7882 119.637 54.7085 119.977 54.7085C120.37 54.7085 120.72 54.8097 121.028 55.0121C121.338 55.2146 121.562 55.4886 121.703 55.8342H121.176C121.043 55.6093 120.871 55.4365 120.665 55.3158C120.459 55.1952 120.228 55.1348 119.971 55.1348C119.585 55.1348 119.259 55.2677 118.993 55.5336C118.729 55.7995 118.596 56.1256 118.596 56.5121C118.596 56.8945 118.731 57.2186 118.999 57.4844C119.27 57.7482 119.6 57.8801 119.99 57.8801C120.238 57.8801 120.452 57.829 120.632 57.7268C120.812 57.6245 120.994 57.4537 121.176 57.2145Z" fill="white"/>
<path d="M125.348 58.227C125.348 58.227 125.191 58.227 124.878 58.227C124.878 58.227 124.878 57.2219 124.878 55.2118C124.878 55.2118 124.195 55.2118 122.83 55.2118C122.83 55.2118 122.83 56.2168 122.83 58.227C122.83 58.227 122.673 58.227 122.36 58.227C122.36 58.227 122.36 57.0818 122.36 54.7915C122.36 54.7915 123.356 54.7915 125.348 54.7915C125.348 54.7915 125.348 55.9366 125.348 58.227Z" fill="white"/>
<path d="M129.619 56.6624C129.619 56.6624 128.574 56.6624 126.482 56.6624C126.5 57.0018 126.641 57.2901 126.904 57.5274C127.165 57.7625 127.475 57.8801 127.832 57.8801C128.097 57.8801 128.34 57.8085 128.563 57.6654C128.786 57.5202 128.947 57.3301 129.043 57.0948H129.532C129.405 57.4568 129.186 57.7502 128.876 57.9752C128.567 58.1981 128.222 58.3095 127.845 58.3095C127.593 58.3095 127.353 58.2625 127.127 58.1684C126.899 58.0744 126.704 57.9466 126.541 57.785C126.378 57.6235 126.248 57.4302 126.154 57.2053C126.059 56.9803 126.011 56.7431 126.011 56.4937C126.011 56.1665 126.09 55.8659 126.249 55.5919C126.408 55.3179 126.625 55.1021 126.9 54.9447C127.175 54.7872 127.477 54.7085 127.808 54.7085C128.15 54.7085 128.466 54.7923 128.752 54.96C129.042 55.1277 129.261 55.3557 129.412 55.644C129.488 55.7892 129.542 55.9385 129.573 56.0919C129.604 56.2432 129.619 56.4334 129.619 56.6624ZM126.494 56.2422H129.152C129.073 55.9007 128.913 55.6308 128.672 55.4324C128.432 55.234 128.144 55.1348 127.808 55.1348C127.48 55.1348 127.194 55.2371 126.953 55.4415C126.711 55.644 126.558 55.9108 126.494 56.2422Z" fill="white"/>
<path d="M130.27 54.7913C130.27 54.7913 130.427 54.7913 130.741 54.7913C130.741 54.7913 130.741 54.9876 130.741 55.3802C130.885 55.1615 131.073 54.9948 131.304 54.8802C131.538 54.7657 131.804 54.7085 132.103 54.7085C132.444 54.7085 132.754 54.7872 133.032 54.9447C133.312 55.1021 133.53 55.3188 133.689 55.5949C133.851 55.8689 133.931 56.1747 133.931 56.5121C133.931 56.8454 133.851 57.1501 133.689 57.4261C133.528 57.7001 133.306 57.9159 133.024 58.0734C132.743 58.2308 132.432 58.3095 132.091 58.3095C131.804 58.3095 131.545 58.2523 131.314 58.1378C131.085 58.0212 130.893 57.8535 130.741 57.6348V59.4321H130.27V54.7913ZM132.066 55.1348C131.684 55.1348 131.362 55.2677 131.1 55.5336C130.838 55.7995 130.706 56.1256 130.706 56.5121C130.706 56.8986 130.839 57.2237 131.103 57.4875C131.368 57.7493 131.695 57.8801 132.085 57.8801C132.475 57.8801 132.8 57.7513 133.06 57.4936C133.323 57.2339 133.454 56.9108 133.454 56.5243C133.454 56.1194 133.323 55.7872 133.06 55.5275C132.8 55.2657 132.469 55.1348 132.066 55.1348Z" fill="white"/>
<path d="M136.412 55.2118C136.412 55.2118 136.112 55.2118 135.51 55.2118C135.51 55.2118 135.51 56.2168 135.51 58.227C135.51 58.227 135.354 58.227 135.04 58.227C135.04 58.227 135.04 57.2219 135.04 55.2118C135.04 55.2118 134.737 55.2118 134.129 55.2118C134.129 55.2118 134.129 55.0717 134.129 54.7915C134.129 54.7915 134.89 54.7915 136.412 54.7915C136.412 54.7915 136.412 54.9316 136.412 55.2118Z" fill="white"/>
<path d="M139.906 58.227C139.906 58.227 139.748 58.227 139.435 58.227C139.435 58.227 139.435 57.7137 139.435 56.6872C139.435 56.6872 138.742 56.6872 137.357 56.6872C137.357 56.6872 137.357 57.2004 137.357 58.227C137.357 58.227 137.2 58.227 136.886 58.227C136.886 58.227 136.886 57.0818 136.886 54.7915C136.886 54.7915 137.042 54.7915 137.357 54.7915C137.357 54.7915 137.357 55.2833 137.357 56.2669C137.357 56.2669 138.049 56.2669 139.435 56.2669C139.435 56.2669 139.435 55.7752 139.435 54.7915C139.435 54.7915 139.591 54.7915 139.906 54.7915C139.906 54.7915 139.906 55.9366 139.906 58.227Z" fill="white"/>
<path d="M144.235 54.7913C144.235 54.7913 144.235 55.9364 144.235 58.2268C144.235 58.2268 144.078 58.2268 143.765 58.2268C143.765 58.2268 143.765 58.0253 143.765 57.6224C143.581 57.8678 143.385 58.0437 143.179 58.1501C142.975 58.2564 142.726 58.3095 142.433 58.3095C142.08 58.3095 141.761 58.2328 141.476 58.0795C141.193 57.9241 140.971 57.7104 140.81 57.4384C140.648 57.1644 140.569 56.8576 140.569 56.5182C140.569 56.1788 140.648 55.871 140.807 55.5949C140.965 55.3188 141.185 55.1021 141.463 54.9447C141.743 54.7872 142.053 54.7085 142.396 54.7085C142.7 54.7085 142.96 54.7637 143.176 54.8741C143.395 54.9825 143.591 55.1574 143.765 55.3987V54.7913H144.235ZM142.39 55.1348C142.018 55.1348 141.701 55.2677 141.439 55.5336C141.176 55.7995 141.045 56.1215 141.045 56.4998C141.045 56.8863 141.18 57.2135 141.448 57.4814C141.716 57.7472 142.043 57.8801 142.427 57.8801C142.804 57.8801 143.121 57.7482 143.377 57.4844C143.636 57.2186 143.765 56.8904 143.765 56.4998C143.765 56.1092 143.634 55.7841 143.371 55.5244C143.109 55.2647 142.782 55.1348 142.39 55.1348Z" fill="white"/>
<path d="M146.967 56.4172C146.967 56.4172 146.967 56.0154 146.967 55.2118C146.967 55.2118 146.699 55.2118 146.162 55.2118C145.602 55.2118 145.322 55.4132 145.322 55.816C145.322 56.2168 145.602 56.4172 146.162 56.4172C146.162 56.4172 146.43 56.4172 146.967 56.4172ZM146.2 56.8374C146.2 56.8374 145.873 57.3006 145.22 58.227C145.22 58.227 145.043 58.227 144.688 58.227C144.688 58.227 145.022 57.7515 145.691 56.8006C145.429 56.7413 145.222 56.6238 145.072 56.4479C144.923 56.2699 144.849 56.0593 144.849 55.816C144.849 55.5195 144.957 55.2752 145.174 55.0829C145.393 54.8886 145.681 54.7915 146.041 54.7915H147.435V58.227C147.435 58.227 147.279 58.227 146.967 58.227C146.967 58.227 146.967 57.7638 146.967 56.8374C146.967 56.8374 146.711 56.8374 146.2 56.8374Z" fill="white"/>
<path d="M149.994 54.7915C149.994 54.7915 150.15 54.7915 150.464 54.7915C150.464 54.7915 150.464 55.3018 150.464 56.3221C150.464 56.3221 150.993 55.8119 152.05 54.7915C152.05 54.7915 152.252 54.7915 152.657 54.7915C152.657 54.7915 152.08 55.3457 150.925 56.454C150.925 56.454 151.503 57.045 152.657 58.227C152.657 58.227 152.452 58.227 152.044 58.227C152.044 58.227 151.517 57.6871 150.464 56.6074C150.464 56.6074 150.464 57.1472 150.464 58.227C150.464 58.227 150.307 58.227 149.994 58.227C149.994 58.227 149.994 57.0818 149.994 54.7915Z" fill="white"/>
<path d="M154.68 54.7085C155.016 54.7085 155.32 54.7872 155.59 54.9447C155.862 55.1001 156.075 55.3158 156.228 55.5919C156.383 55.868 156.46 56.1767 156.46 56.5182C156.46 57.0335 156.294 57.4609 155.959 57.8003C155.624 58.1398 155.202 58.3095 154.692 58.3095C154.343 58.3095 154.027 58.2318 153.744 58.0764C153.461 57.921 153.239 57.7063 153.078 57.4322C152.919 57.1582 152.839 56.8515 152.839 56.5121C152.839 55.9906 153.013 55.5601 153.36 55.2208C153.707 54.8792 154.147 54.7085 154.68 54.7085ZM154.642 55.1348C154.263 55.1348 153.947 55.2668 153.695 55.5305C153.443 55.7922 153.317 56.1215 153.317 56.5182C153.317 56.9108 153.446 57.236 153.704 57.4936C153.962 57.7513 154.287 57.8801 154.68 57.8801C155.062 57.8801 155.374 57.7534 155.618 57.4998C155.863 57.2441 155.986 56.919 155.986 56.5243C155.986 56.1194 155.861 55.7872 155.609 55.5275C155.357 55.2657 155.034 55.1348 154.642 55.1348Z" fill="white"/>
<path d="M157.129 58.227C157.129 58.227 157.129 57.0818 157.129 54.7915C157.129 54.7915 157.373 54.7915 157.86 54.7915C157.86 54.7915 158.264 55.7209 159.072 57.5798C159.072 57.5798 159.475 56.6503 160.283 54.7915C160.283 54.7915 160.525 54.7915 161.01 54.7915C161.01 54.7915 161.01 55.9366 161.01 58.227C161.01 58.227 160.854 58.227 160.542 58.227C160.542 58.227 160.542 57.2515 160.542 55.3007C160.542 55.3007 160.119 56.2761 159.273 58.227C159.273 58.227 159.138 58.227 158.867 58.227C158.867 58.227 158.445 57.2515 157.6 55.3007C157.6 55.3007 157.6 56.2761 157.6 58.227C157.6 58.227 157.443 58.227 157.129 58.227Z" fill="white"/>
<path d="M164.801 58.227C164.801 58.227 164.645 58.227 164.33 58.227C164.33 58.227 164.33 57.2219 164.33 55.2118C164.33 55.2118 163.648 55.2118 162.284 55.2118C162.284 55.2118 162.284 56.2168 162.284 58.227C162.284 58.227 162.126 58.227 161.812 58.227C161.812 58.227 161.812 57.0818 161.812 54.7915C161.812 54.7915 162.809 54.7915 164.801 54.7915C164.801 54.7915 164.801 55.9366 164.801 58.227Z" fill="white"/>
<path d="M169.132 54.7913C169.132 54.7913 169.132 55.9364 169.132 58.2268C169.132 58.2268 168.974 58.2268 168.661 58.2268C168.661 58.2268 168.661 58.0253 168.661 57.6224C168.477 57.8678 168.282 58.0437 168.075 58.1501C167.871 58.2564 167.622 58.3095 167.329 58.3095C166.976 58.3095 166.656 58.2328 166.372 58.0795C166.089 57.9241 165.867 57.7104 165.705 57.4384C165.545 57.1644 165.464 56.8576 165.464 56.5182C165.464 56.1788 165.544 55.871 165.703 55.5949C165.862 55.3188 166.08 55.1021 166.36 54.9447C166.638 54.7872 166.949 54.7085 167.291 54.7085C167.595 54.7085 167.855 54.7637 168.072 54.8741C168.291 54.9825 168.487 55.1574 168.661 55.3987V54.7913H169.132ZM167.285 55.1348C166.914 55.1348 166.597 55.2677 166.334 55.5336C166.072 55.7995 165.942 56.1215 165.942 56.4998C165.942 56.8863 166.075 57.2135 166.344 57.4814C166.612 57.7472 166.938 57.8801 167.323 57.8801C167.7 57.8801 168.017 57.7482 168.274 57.4844C168.532 57.2186 168.661 56.8904 168.661 56.4998C168.661 56.1092 168.529 55.7841 168.268 55.5244C168.005 55.2647 167.677 55.1348 167.285 55.1348Z" fill="white"/>
<path d="M172.947 58.227C172.947 58.227 172.79 58.227 172.476 58.227C172.476 58.227 172.476 57.7137 172.476 56.6872C172.476 56.6872 171.783 56.6872 170.399 56.6872C170.399 56.6872 170.399 57.2004 170.399 58.227C170.399 58.227 170.241 58.227 169.927 58.227C169.927 58.227 169.927 57.0818 169.927 54.7915C169.927 54.7915 170.084 54.7915 170.399 54.7915C170.399 54.7915 170.399 55.2833 170.399 56.2669C170.399 56.2669 171.09 56.2669 172.476 56.2669C172.476 56.2669 172.476 55.7752 172.476 54.7915C172.476 54.7915 172.633 54.7915 172.947 54.7915C172.947 54.7915 172.947 55.9366 172.947 58.227Z" fill="white"/>
<path d="M176.326 54.7915C176.326 54.7915 176.483 54.7915 176.794 54.7915C176.794 54.7915 176.794 55.9366 176.794 58.227C176.794 58.227 176.638 58.227 176.326 58.227C176.326 58.227 176.326 57.3016 176.326 55.451C176.326 55.451 175.622 56.3763 174.214 58.227C174.214 58.227 174.057 58.227 173.743 58.227C173.743 58.227 173.743 57.0818 173.743 54.7915C173.743 54.7915 173.9 54.7915 174.214 54.7915C174.214 54.7915 174.214 55.7168 174.214 57.5675C174.214 57.5675 174.918 56.6421 176.326 54.7915Z" fill="white"/>
<path d="M179.532 56.4172C179.532 56.4172 179.532 56.0154 179.532 55.2118C179.532 55.2118 179.263 55.2118 178.727 55.2118C178.167 55.2118 177.887 55.4132 177.887 55.816C177.887 56.2168 178.167 56.4172 178.727 56.4172C178.727 56.4172 178.995 56.4172 179.532 56.4172ZM178.764 56.8374C178.764 56.8374 178.438 57.3006 177.785 58.227C177.785 58.227 177.607 58.227 177.253 58.227C177.253 58.227 177.587 57.7515 178.256 56.8006C177.994 56.7413 177.787 56.6238 177.636 56.4479C177.488 56.2699 177.413 56.0593 177.413 55.816C177.413 55.5195 177.522 55.2752 177.739 55.0829C177.958 54.8886 178.247 54.7915 178.606 54.7915H180V58.227C180 58.227 179.844 58.227 179.532 58.227C179.532 58.227 179.532 57.7638 179.532 56.8374C179.532 56.8374 179.276 56.8374 178.764 56.8374Z" fill="white"/>
<path d="M94.2445 1.61816C90.857 1.61816 87.6018 2.34178 84.6791 3.59167C82.6199 4.51263 80.6936 5.76252 78.9665 7.14397L79.2986 8.39386C80.6272 7.20975 82.0885 6.22301 83.6827 5.4336C91.7868 1.42082 102.282 2.99962 109.389 10.0385C114.902 15.5642 117.161 23.0635 115.899 29.905H103.079C103.411 30.2997 103.743 30.6287 104.008 31.0233H115.7C114.836 34.6414 113.043 38.128 110.186 40.8908C102.215 48.7848 89.2624 48.8507 80.4279 41.2855C79.8965 41.8776 79.4314 42.4039 78.9665 42.996C83.0848 46.4167 88.3993 48.5217 94.2445 48.5217C107.33 48.5217 117.892 38.0621 117.892 25.1028C117.892 12.1435 107.33 1.61816 94.2445 1.61816Z" fill="white"/>
<path d="M128.118 47.8639V3.46012H142.599V47.8639H144.857V2.3418C138.546 2.3418 132.237 2.3418 125.926 2.3418V47.8639H128.118Z" fill="white"/>
<path d="M166.523 1.61816C165.926 2.34178 165.394 3.0654 164.797 3.78902C160.81 18.4587 156.825 33.1284 152.906 47.8639H154.035C155.563 42.2066 157.091 36.6149 158.619 31.0234H172.17C173.697 36.6149 175.225 42.2066 176.686 47.8639H179.011C174.892 32.4706 170.708 17.0114 166.523 1.61816ZM158.885 29.905L165.394 5.95987L171.838 29.905H158.885Z" fill="white"/>
<path fill-rule="evenodd" clip-rule="evenodd" d="M84.3891 2.94141L84.3945 2.93907C87.402 1.65292 90.7534 0.907343 94.2445 0.907343C107.729 0.907343 118.609 11.7535 118.609 25.1028C118.609 38.4546 107.726 49.2324 94.2445 49.2324C88.2211 49.2324 82.7456 47.0625 78.5053 43.5404L77.9753 43.1003L78.3999 42.5595C78.8805 41.9477 79.3589 41.4065 79.8914 40.8133L80.3617 40.2893L80.8973 40.7478C89.4723 48.091 101.997 47.9959 109.679 40.3882L109.681 40.3852L109.685 40.3824C112.202 37.9474 113.868 34.9208 114.773 31.734H103.625L103.411 31.4176C103.257 31.1877 103.094 31.0054 102.894 30.7801C102.784 30.6577 102.664 30.5224 102.527 30.36L101.546 29.1942H115.291C116.281 22.748 114.077 15.7488 108.881 10.5395C101.983 3.70999 91.8202 2.19871 84.0036 6.06926C82.4672 6.83001 81.0594 7.78059 79.7787 8.9221L78.904 9.70175L78.1542 6.87998L78.5155 6.59098C80.2792 5.1802 82.2573 3.89486 84.3836 2.94383L84.3891 2.94141ZM109.389 10.0384C114.902 15.5642 117.161 23.0635 115.899 29.905H103.079C103.185 30.0308 103.291 30.15 103.395 30.2667C103.498 30.3841 103.601 30.499 103.698 30.6157C103.808 30.7471 103.913 30.881 104.008 31.0233H115.7C115.643 31.2608 115.582 31.4978 115.518 31.734C114.596 35.0961 112.855 38.3093 110.186 40.8908C102.215 48.7848 89.2624 48.8506 80.4278 41.2855C79.8964 41.8776 79.4314 42.4038 78.9664 42.9958C83.0848 46.4166 88.3984 48.5217 94.2445 48.5217C107.33 48.5217 117.891 38.0621 117.891 25.1028C117.891 12.1434 107.33 1.6181 94.2445 1.6181C90.857 1.6181 87.6017 2.34172 84.679 3.5916C82.6198 4.51257 80.6935 5.76245 78.9664 7.14391L79.2986 8.39379C79.4971 8.21681 79.6986 8.04426 79.9031 7.8761C81.0669 6.91914 82.3267 6.10495 83.6826 5.43353C91.7868 1.42074 102.281 2.99955 109.389 10.0384ZM128.836 48.5746H125.208V1.63095H145.575V48.5746H141.881V4.17079H128.836V48.5746ZM128.118 47.8638H125.926V2.34172H144.857V47.8638H142.599V3.46003H128.118V47.8638ZM166.853 0.0966797L167.216 1.43332C171.401 16.8271 175.586 32.2872 179.705 47.6818L179.944 48.5746H176.129L175.991 48.04C174.576 42.5651 173.1 37.1511 171.62 31.734H159.168C157.688 37.1507 156.208 42.5684 154.729 48.0475L154.587 48.5746H151.974L152.212 47.6828C156.131 32.9469 160.117 18.2771 164.102 3.60928L164.103 3.60428L164.143 3.45695L164.241 3.33887C164.532 2.98595 164.809 2.63192 165.092 2.26893L165.094 2.26591C165.374 1.90623 165.662 1.53768 165.968 1.16802L166.853 0.0966797ZM158.619 31.0233H172.17C173.697 36.6149 175.225 42.2064 176.686 47.8638H179.011C178.948 47.627 178.884 47.39 178.821 47.1531C174.84 32.2781 170.797 17.3436 166.755 2.46815C166.677 2.18478 166.6 1.90143 166.523 1.6181C166.333 1.84857 166.149 2.07904 165.968 2.30951C165.864 2.44085 165.762 2.57219 165.66 2.70353C165.377 3.06533 165.095 3.42714 164.796 3.78895C160.874 18.2228 156.953 32.6566 153.095 47.1531C153.032 47.39 152.969 47.6269 152.906 47.8638H154.035C155.562 42.2088 157.09 36.6195 158.617 31.0303L158.619 31.0233ZM158.885 29.905H171.837L165.394 5.9598L158.885 29.905ZM165.39 8.70688L159.821 29.1942H170.903L165.39 8.70688Z" fill="white"/>
</g>
<defs>
<clipPath id="clip0_1020_7891">
<rect width="180" height="60" fill="white"/>
</clipPath>
</defs>
</svg>
